<svg xmlns="http://www.w3.org/2000/svg" viewBox="0 0 45 45"><title>facilities icons</title><g id="세면대"><g id="Page-1"><g id="_024---Sink" data-name="024---Sink"><path id="Shape" d="M17.61,14.88H15.36a1.69,1.69,0,0,0-1.68,1.69v1.68H8.62a1.68,1.68,0,0,0-.54,3.28,9.55,9.55,0,0,0,9.53,9.08H19.3V32.3a1.68,1.68,0,0,0,1.12,1.58v3.47a2.25,2.25,0,1,0,4.49,0V33.88A1.7,1.7,0,0,0,26,32.3V30.61h1.68a9.55,9.55,0,0,0,9.53-9.08,1.68,1.68,0,0,0-.54-3.28H31.66V16.57A1.69,1.69,0,0,0,30,14.88H27.72A1.69,1.69,0,0,0,26,16.57v1.68H24.35V10.39a4.5,4.5,0,0,0-5.08-4.46,4.59,4.59,0,0,0-3.91,4.6V11a1.13,1.13,0,0,0,1.13,1.12h1.12A1.12,1.12,0,0,0,18.73,11v-.56a1.12,1.12,0,0,1,.42-.87,1.1,1.1,0,0,1,.94-.23A1.17,1.17,0,0,1,21,10.46v7.79H19.3V16.57A1.69,1.69,0,0,0,17.61,14.88ZM14.8,16.57a.56.56,0,0,1,.56-.56h2.25a.56.56,0,0,1,.56.56v1.68H14.8Zm9,20.78a1.13,1.13,0,1,1-2.25,0V34h2.25Zm1.12-5.05a.56.56,0,0,1-.56.56H21a.56.56,0,0,1-.56-.56V30.61h4.49Zm2.81-2.81H17.61A8.44,8.44,0,0,1,9.2,21.62H36.13A8.44,8.44,0,0,1,27.72,29.49Zm9.55-9.55a.56.56,0,0,1-.56.56H8.62a.56.56,0,0,1,0-1.12H36.71A.56.56,0,0,1,37.27,19.94ZM27.16,16.57a.56.56,0,0,1,.56-.56H30a.56.56,0,0,1,.56.56v1.68H27.16ZM20.3,8.19a2.22,2.22,0,0,0-1.87.46,2.26,2.26,0,0,0-.82,1.74V11H16.49v-.42a3.44,3.44,0,0,1,2.92-3.48,3.36,3.36,0,0,1,3.82,3.34v7.86H22.1V10.46A2.27,2.27,0,0,0,20.3,8.19Z"/></g></g></g></svg>