<svg id="레이어_1" data-name="레이어 1" xmlns="http://www.w3.org/2000/svg" viewBox="0 0 118.5 60.02"><defs><style>.cls-1{fill:none;stroke:#000;stroke-miterlimit:10;}</style></defs><title>diycamper</title><path class="cls-1" d="M10.29,11.72c-2.75.71-4.51,4-4.51,4A29.43,29.43,0,0,0,3.87,36.85S2,47.54,7.9,47.3h3.79"/><path class="cls-1" d="M39.12,48.31H12.56a.71.71,0,0,1-.72-.71A51,51,0,0,1,10.17,12a2.3,2.3,0,0,1,2.09-1.49L38.11,10a2.43,2.43,0,0,0,0,2S35.54,27.66,39.12,48.31Z"/><path class="cls-1" d="M89.21,17.32l2.13,1.2,2.23,1.26s12.2,3.89,15.76,6.26a25.17,25.17,0,0,1,3.4,3.35,26.61,26.61,0,0,1,2,3.19c.1.2.21.41.31.62.63,1.17.69,2.79,1.41,3.68,1.43,1.67,1.25,3.76,1.07,5.55,0,.45-.39.94-.33,1.49a1.4,1.4,0,0,0,.08.34A2.19,2.19,0,0,1,115.78,47h-5.72"/><path class="cls-1" d="M90.23,22S88,7.42,82.29,7c0,0,5.49,33.19,0,52l7.94-16S93.27,30.34,90.23,22Z"/><circle class="cls-1" cx="101.09" cy="45.63" r="9.07"/><circle class="cls-1" cx="101.09" cy="45.63" r="6.15"/><path class="cls-1" d="M32.15,48.31a9.08,9.08,0,0,1-17.34,0"/><path class="cls-1" d="M29,48.31a6.14,6.14,0,0,1-11.06,0"/><path class="cls-1" d="M38.14,12H59.72a1.14,1.14,0,0,1,1.19,1.1v32a1.14,1.14,0,0,1-1.19,1.1H38.79"/><path class="cls-1" d="M83.48,16.55c-.48-.3-8.85-5.63-18.09-4.71,0,0-2.39-.12-2.33,1.79l4.18,27.7a7.22,7.22,0,0,0,3.12,4.05l.27.14a5.6,5.6,0,0,0,1.68.45c3.26.16,6.48.1,9.8.2l1.23,0,.9,0h.17"/><polyline class="cls-1" points="38.97 47.3 84.19 47.3 84.32 47.3"/><polyline class="cls-1" points="92.17 47.3 88.38 47.3 88.09 47.3"/><path class="cls-1" d="M38,10.35,62.53,10s9.73-.24,14.2,1.55l6.49,2.73"/><path class="cls-1" d="M10,12.55l24.64-.42a1.2,1.2,0,0,1,1.2,1.2L34.64,27a1.19,1.19,0,0,1-1.19,1.19H8.14a1.08,1.08,0,0,1-.36-.05"/><path class="cls-1" d="M111.17,27.69s-3.63-.87-3.15.5c0,0,2.27,7.11,5.13,9.08,0,0,3.18,1.75,4.19,1.32"/><path class="cls-1" d="M91.58,33s8-4.11,18.43,0"/></svg>