<svg xmlns="http://www.w3.org/2000/svg" viewBox="0 0 45 45"><title>facilities icons</title><g id="히터"><g id="_16_copy_3" data-name=" 16 copy 3"><path d="M18.79,13.6h1.09a.63.63,0,0,1,.22-.47A1.68,1.68,0,0,0,20.56,12a1.7,1.7,0,0,0-.46-1.17.61.61,0,0,1,0-.94,1.68,1.68,0,0,0,.46-1.16H19.47a.58.58,0,0,1-.21.46,1.69,1.69,0,0,0,0,2.34.62.62,0,0,1,0,.93A1.66,1.66,0,0,0,18.79,13.6Z"/><path d="M30,13.6h1.09a.63.63,0,0,1,.22-.47A1.63,1.63,0,0,0,31.81,12a1.66,1.66,0,0,0-.47-1.17.61.61,0,0,1,0-.94,1.63,1.63,0,0,0,.47-1.16H30.72a.6.6,0,0,1-.22.46,1.69,1.69,0,0,0,0,2.34.6.6,0,0,1,0,.93A1.66,1.66,0,0,0,30,13.6Z"/><path d="M13.14,12.51h1.09a.62.62,0,0,1,.21-.47,1.63,1.63,0,0,0,.47-1.16,1.66,1.66,0,0,0-.47-1.17.63.63,0,0,1,0-.94,1.66,1.66,0,0,0,.47-1.17H13.82a.6.6,0,0,1-.22.47,1.72,1.72,0,0,0,0,2.34.6.6,0,0,1,0,.93A1.7,1.7,0,0,0,13.14,12.51Z"/><path d="M24.38,12.51h1.09a.66.66,0,0,1,.21-.47,1.63,1.63,0,0,0,.47-1.16,1.66,1.66,0,0,0-.47-1.17.63.63,0,0,1,0-.94,1.66,1.66,0,0,0,.47-1.17H25.06a.62.62,0,0,1-.21.47,1.69,1.69,0,0,0,0,2.34.62.62,0,0,1,0,.93A1.66,1.66,0,0,0,24.38,12.51Z"/><path d="M37.53,14.69h-.41V13.6H36v1.09H34.94V13.6H33.85v1.09H10.41v1.09H37.53a.13.13,0,0,1,.13.14v21a.13.13,0,0,1-.13.14H14.77v1.09H33.42l.45,1.77a.53.53,0,0,0,.52.41h2.18a.55.55,0,0,0,.53-.41l.45-1.77a1.22,1.22,0,0,0,1.2-1.23v-21A1.22,1.22,0,0,0,37.53,14.69ZM36.15,39.22H34.82l-.27-1.09h1.87Z"/><path d="M7.14,36.9v-21a.14.14,0,0,1,.14-.14h2V14.69h-2a1.23,1.23,0,0,0-1.23,1.23v21a1.23,1.23,0,0,0,1.21,1.23L7.7,39.9a.55.55,0,0,0,.53.41h2.18a.55.55,0,0,0,.53-.41l.44-1.77h2.3V37H7.28A.14.14,0,0,1,7.14,36.9Zm3.12,1.23L10,39.22H8.66l-.28-1.09Z"/><rect x="19.13" y="34.86" width="6.54" height="1.09"/><path d="M36.57,17.42a.54.54,0,0,0-.54-.55H8.78a.55.55,0,0,0-.55.55v15.8a.55.55,0,0,0,.55.55H32.21V32.68H9.32V20.14h1.09a.55.55,0,0,1,.55.55V30a1.64,1.64,0,1,0,3.27,0V20.69a.55.55,0,0,1,.54-.55.55.55,0,0,1,.55.55V30a1.64,1.64,0,1,0,3.27,0V20.69a.55.55,0,0,1,.54-.55.55.55,0,0,1,.55.55V30A1.64,1.64,0,1,0,23,30V20.69a.55.55,0,0,1,.54-.55.55.55,0,0,1,.55.55V30a1.64,1.64,0,1,0,3.27,0V20.69a.55.55,0,0,1,.54-.55.55.55,0,0,1,.55.55V30a1.64,1.64,0,1,0,3.27,0V20.69a.55.55,0,1,1,1.09,0v9a1.91,1.91,0,0,0,1.91,1.91h.81v1.09H33.3v1.09H36a.55.55,0,0,0,.54-.55ZM35.48,30.5h-.81a.82.82,0,0,1-.82-.82v-9a1.64,1.64,0,1,0-3.27,0V30a.55.55,0,1,1-1.09,0V20.69a1.64,1.64,0,1,0-3.27,0V30a.55.55,0,0,1-.55.55.55.55,0,0,1-.54-.55V20.69a1.64,1.64,0,1,0-3.27,0V30a.55.55,0,0,1-.55.55.55.55,0,0,1-.54-.55V20.69a1.64,1.64,0,1,0-3.27,0V30a.55.55,0,0,1-.55.55.55.55,0,0,1-.54-.55V20.69a1.64,1.64,0,1,0-3.27,0V30a.55.55,0,0,1-.55.55.55.55,0,0,1-.54-.55V20.69a1.64,1.64,0,0,0-1.64-1.64H9.32V18H35.48Z"/><rect x="35.48" y="34.86" width="1.09" height="1.09"/><rect x="33.3" y="34.86" width="1.09" height="1.09"/><rect x="8.23" y="34.86" width="1.09" height="1.09"/><rect x="10.41" y="34.86" width="1.09" height="1.09"/></g></g></svg>