<svg id="레이어_1" data-name="레이어 1" xmlns="http://www.w3.org/2000/svg" xmlns:xlink="http://www.w3.org/1999/xlink" viewBox="0 0 148 71.33"><defs><style>.cls-1{fill:none;}.cls-10,.cls-2,.cls-9{fill:#ff4500;}.cls-3{fill:#fff0cf;}.cls-3,.cls-7,.cls-8{stroke:#4d4d4d;stroke-miterlimit:10;stroke-width:0.5px;}.cls-4{clip-path:url(#clip-path);}.cls-5{fill:#ff4e00;}.cls-6{fill:#4d4d4d;}.cls-7{fill:gray;}.cls-8{fill:#e6d8ba;}.cls-9{font-size:33.83px;letter-spacing:-0.05em;}.cls-10,.cls-9{font-family:Youth, Youth;}.cls-10{font-size:35.8px;letter-spacing:-0.07em;}</style><clipPath id="clip-path"><path class="cls-1" d="M19.77,30.82s2-6.83,3.82-9.53c0,0,.38-.68.95-1.6a33.89,33.89,0,0,1,2.08-3.06C32.4,9.4,41.09,4.32,50.35,3.73c1-.08,2.1-.14,3.15-.16A41.59,41.59,0,0,1,64,4.34c.68.16,1.35.36,2,.58C74.13,7.67,79.89,17.05,78.1,25.71a17.46,17.46,0,0,1-.5,1.85,20.72,20.72,0,0,1-2.49,5.14h-.62l-40.07-.39h-1a27.48,27.48,0,0,1-4.06-.2c-2.68-.35-5.21-.76-7.81-1.05l-1.29-.16Z"/></clipPath></defs><title>main page illustration_color수정</title><rect class="cls-2" x="51.4" y="1.49" width="7.34" height="3.77"/><rect class="cls-2" x="51.25" y="32.01" width="31.61" height="1.92"/><path class="cls-3" d="M19.5,31s2.07-6.92,3.89-9.64c0,0,.39-.69,1-1.62a35.2,35.2,0,0,1,2.13-3.1c5.89-7.31,14.75-12.45,24.2-13,1.07-.09,2.14-.14,3.22-.16a41.79,41.79,0,0,1,10.7.78,20,20,0,0,1,2,.58C75,7.55,80.82,17,79,25.8c-.14.63-.31,1.25-.51,1.87a20.94,20.94,0,0,1-2.55,5.2h-.62l-40.87-.39h-1a26,26,0,0,1-4.14-.2c-2.73-.35-5.32-.77-8-1.06L20,31Z"/><g class="cls-4"><path class="cls-5" d="M25.69,18.12s16.64,3.43,26.16,2.43c0,0,25.26-2,30.86,1,0,0-7.57-2.71-30.4.29,0,0-16.94,2.14-28.59-.72Z"/><path class="cls-5" d="M20.85,24s11.8,1.86,28.13-.86c0,0,23.59-4.15,33.42-1.29,0,0-10.43-2.57-33.42,2.58,0,0-16,4.14-29.34,2.29Z"/><path class="cls-5" d="M19.79,29.7l-.3,1L28.56,32s14.37-.86,22.84-5c0,0,6.35-2.87,19.51-4.73,0,0,7.11-.85,12.4.29,0,0-6-2.43-21.47.58C61.84,23.13,27.05,31.56,19.79,29.7Z"/></g><path class="cls-1" d="M18.89,31.27s2.15-7.17,4-10c0,0,.4-.71,1-1.68a35,35,0,0,1,2.21-3.21c6.1-7.58,15.28-12.9,25.07-13.51,1.11-.09,2.22-.15,3.33-.17a43.56,43.56,0,0,1,11.1.81c.72.17,1.43.37,2.12.6C76.35,7,82.44,16.84,80.54,25.91A18.49,18.49,0,0,1,80,27.85a21.59,21.59,0,0,1-2.64,5.39h-.65l-42.35-.41h-1A26.82,26.82,0,0,1,29,32.6c-2.82-.36-5.5-.79-8.25-1.09l-1.36-.17Z"/><rect class="cls-6" x="31.3" y="32.65" width="50.92" height="0.64"/><circle class="cls-6" cx="47.13" cy="37.73" r="7.06"/><circle class="cls-7" cx="47.13" cy="37.73" r="4.72"/><path class="cls-2" d="M54,36.8a9.4,9.4,0,0,0-1.55-3.26l-.18-.23a5.45,5.45,0,0,0-2-1.47,8.34,8.34,0,0,0-1.21-.45,7.78,7.78,0,0,0-5.39.48,6.55,6.55,0,0,0-1.16.74,5.28,5.28,0,0,0-.94,1q-.12.16-.24.36a6.68,6.68,0,0,0-1,2.76,4.79,4.79,0,0,1-1.76-.11,8.58,8.58,0,0,1,3.18-6.42,7.57,7.57,0,0,1,4-1.76s4.29-.68,7.31,1.68a8.21,8.21,0,0,1,2.46,3.25s.81,2.2.31,3.48A6.53,6.53,0,0,1,54,36.8Z"/><path class="cls-2" d="M77.54,19.66A2.23,2.23,0,0,0,75.45,22a2.23,2.23,0,0,0,2.09,2.34H80V19.66Z"/><rect class="cls-8" x="43.1" y="10.54" width="11.02" height="7.48" rx="0.62" ry="0.62"/><path class="cls-3" d="M64.74,6.41a7.3,7.3,0,0,0-7.29,7.3V31.15H72V13.71A7.3,7.3,0,0,0,64.74,6.41Z"/><circle class="cls-8" cx="64.94" cy="14.28" r="3.27"/><text class="cls-9" transform="translate(38.16 63.73)">camper</text><text class="cls-10" transform="translate(0.53 64.14) scale(1 1.13)">All</text></svg>