<svg id="레이어_1" data-name="레이어 1" xmlns="http://www.w3.org/2000/svg" xmlns:xlink="http://www.w3.org/1999/xlink" viewBox="0 0 1509.72 844.67"><defs><style>.cls-1,.cls-13,.cls-14{fill:none;}.cls-1{stroke:#131723;stroke-width:2px;}.cls-1,.cls-13,.cls-14,.cls-18{stroke-miterlimit:10;}.cls-2{fill:#7fffd4;}.cls-12,.cls-3{fill:#ccc;}.cls-4{fill:#121266;}.cls-5{fill:#0e0e40;}.cls-6{fill:#e54405;}.cls-19,.cls-7{fill:#ff4500;}.cls-8{fill:#ea3d07;}.cls-9{fill:#807867;}.cls-10{fill:#e6d8ba;}.cls-11,.cls-18{fill:#fff0cf;}.cls-12,.cls-13{stroke:#0e0e40;}.cls-12{stroke-linecap:round;stroke-linejoin:round;stroke-width:12.43px;}.cls-14{stroke:#ccc;}.cls-15{fill:#fe5a27;}.cls-16{clip-path:url(#clip-path);}.cls-17{fill:#ff4e00;}.cls-18{stroke:#ff4500;}.cls-19{font-size:31.47px;font-family:Youth, Youth;}</style><clipPath id="clip-path"><path class="cls-1" d="M906.73,128.37c-68.48,0-124,55.32-124,123.56V547.37h248V251.93C1030.73,183.69,975.22,128.37,906.73,128.37Z"/></clipPath></defs><title>main page illustration_color수정</title><path class="cls-2" d="M242.14,202.8c2.57,0,2.58-4,0-4s-2.58,4,0,4Z"/><path class="cls-3" d="M1391,516.87h16.69a.66.66,0,0,1,.66.66V620.87a0,0,0,0,1,0,0h-18a0,0,0,0,1,0,0V517.53A.66.66,0,0,1,1391,516.87Z"/><rect class="cls-4" x="1384.82" y="509.21" width="29" height="9.72" rx="0.66" ry="0.66"/><rect class="cls-5" x="1379.67" y="495.87" width="39.29" height="15" rx="6.84" ry="6.84"/><rect class="cls-3" x="1394.32" y="673.37" width="10" height="104" transform="translate(2798.63 1450.74) rotate(180)"/><rect class="cls-4" x="1384.82" y="737.37" width="29" height="87" transform="translate(2798.63 1561.74) rotate(180)"/><rect class="cls-5" x="1372.32" y="824.51" width="54" height="12.72"/><path class="cls-5" d="M1425.9,679.75h74.44V666c0-9.17-10.3-11.46-10.3-11.46h-13.75c0-8-10.3-8-10.3-8H1425.9Z"/><path class="cls-5" d="M1467,664.61s1.34-13.74-6.68-13.74h-20.61s-5.73,4.58,0,6.87c0,0,11.45-1.14,12.59,2.29l-.18,4.58Z"/><rect class="cls-5" x="246.61" y="618.23" width="1179.29" height="61.52"/><rect class="cls-6" x="1190.95" y="404.07" width="154.76" height="188.4"/><rect class="cls-7" x="1179.73" y="384.21" width="173.83" height="40.2" rx="12.27" ry="12.27"/><ellipse class="cls-7" cx="1266.65" cy="390.72" rx="85.73" ry="15.96"/><path class="cls-7" d="M1194.09,568s45.66,10.51,73.09,10.51S1341.44,568,1341.44,568a12.15,12.15,0,0,1,12.12,12.12v15.45a12.15,12.15,0,0,1-12.12,12.12H1194.09A12.15,12.15,0,0,1,1182,595.53V580.08A12.15,12.15,0,0,1,1194.09,568Z"/><ellipse class="cls-7" cx="1267.77" cy="600.65" rx="84.62" ry="16.34"/><path class="cls-7" d="M1345.71,448.93H1284a11.25,11.25,0,0,0-11.22,11.21v80.75A11.25,11.25,0,0,0,1284,552.1h61.68Z"/><circle class="cls-8" cx="1328.89" cy="460.14" r="5.61"/><circle class="cls-8" cx="1313.19" cy="460.14" r="5.61"/><circle class="cls-8" cx="1297.49" cy="460.14" r="5.61"/><circle class="cls-8" cx="1281.79" cy="460.14" r="5.61"/><path class="cls-8" d="M1345.71,454.54a5.61,5.61,0,1,0,0,11.21Z"/><circle class="cls-8" cx="1328.89" cy="480.33" r="5.61"/><circle class="cls-8" cx="1313.19" cy="480.33" r="5.61"/><circle class="cls-8" cx="1297.49" cy="480.33" r="5.61"/><circle class="cls-8" cx="1281.79" cy="480.33" r="5.61"/><path class="cls-8" d="M1345.71,474.72a5.61,5.61,0,0,0,0,11.22Z"/><circle class="cls-8" cx="1328.89" cy="500.52" r="5.61"/><circle class="cls-8" cx="1313.19" cy="500.52" r="5.61"/><circle class="cls-8" cx="1297.49" cy="500.52" r="5.61"/><circle class="cls-8" cx="1281.79" cy="500.52" r="5.61"/><path class="cls-8" d="M1345.71,494.91a5.61,5.61,0,1,0,0,11.21Z"/><circle class="cls-8" cx="1328.89" cy="520.7" r="5.61"/><circle class="cls-8" cx="1313.19" cy="520.7" r="5.61"/><circle class="cls-8" cx="1297.49" cy="520.7" r="5.61"/><circle class="cls-8" cx="1281.79" cy="520.7" r="5.61"/><path class="cls-8" d="M1345.71,515.09a5.61,5.61,0,0,0,0,11.22Z"/><circle class="cls-8" cx="1328.89" cy="540.89" r="5.61"/><circle class="cls-8" cx="1313.19" cy="540.89" r="5.61"/><circle class="cls-8" cx="1297.49" cy="540.89" r="5.61"/><circle class="cls-8" cx="1281.79" cy="540.89" r="5.61"/><path class="cls-8" d="M1345.71,535.28a5.61,5.61,0,1,0,0,11.21Z"/><rect class="cls-9" x="665.73" y="17.37" width="132" height="16"/><rect class="cls-10" x="658.73" y="7.37" width="146" height="12" rx="6" ry="6"/><path class="cls-2" d="M457.73,29.37l-20,25v15l-3,24,61-2,44-30-13-19S493.73,21.37,457.73,29.37Z"/><path class="cls-2" d="M890.73,47.37l3-18,28-22s32,24,26,46Z"/><path class="cls-11" d="M7.58,587.76S49.68,447,86.79,391.6c0,0,7.88-14,19.69-33s27.57-43,43.34-63C269.61,146.84,449.9,42.4,642.16,30.35q32.52-2.73,65.39-3.33c71.85-1.9,147.24-.71,217.83,15.85,14.12,3.31,28,7.24,41.71,11.89,168.63,56.51,288.11,249.62,251,427.75a390,390,0,0,1-10.33,38.12,427.82,427.82,0,0,1-51.81,105.74l-12.77-.13-831.46-8L291.21,618c-28.81.19-55.84.19-84.28-4.07-55.48-7.1-108.1-15.62-162.08-21.54l-26.62-3.31Z"/><rect class="cls-2" x="275.73" y="618.23" width="965.49" height="35.14"/><circle class="cls-5" cx="559.95" cy="706.95" r="130.42"/><circle class="cls-12" cx="559.95" cy="706.95" r="82.01"/><circle class="cls-5" cx="559.95" cy="706.95" r="20.79"/><path class="cls-7" d="M703.1,723.84s-8.43-41.86-32.39-77c-1.26-1.86-2.57-3.69-3.91-5.5-10.63-14.84-24.86-26.25-40.9-34.76a162.5,162.5,0,0,0-25.22-10.64A144.88,144.88,0,0,0,488,607.32a133.79,133.79,0,0,0-24.31,17.34,119.61,119.61,0,0,0-19.51,22.48c-1.72,2.63-3.46,5.48-5.17,8.58-8.55,15.46-16.53,36.84-19.68,65.35,0,0-25.74,3-36.86-2.56,0,0-2.62-87.07,66.52-151.93,0,0,25.74-30.31,84.19-41.83,0,0,89.65-16,152.68,39.9,0,0,36,30.41,51.37,76.82,0,0,17,52.07,6.54,82.37C743.78,723.84,718.37,728.11,703.1,723.84Z"/><rect class="cls-5" x="478.26" y="178.33" width="242.68" height="164.71" rx="13.69" ry="13.69"/><rect class="cls-10" x="488.47" y="188.68" width="222.28" height="144.88" rx="12.29" ry="12.29"/><path class="cls-5" d="M907.23,109.87c-78.74,0-142.57,60.07-142.57,134.18V564.87h285.15V244.05C1049.81,169.94,986,109.87,907.23,109.87Z"/><path class="cls-7" d="M119.31,337.79s318,69.44,500.12,49.19c0,0,482.76-40.6,589.72,20.16,0,0-144.54-54.88-581.05,5.88,0,0-323.77,43.4-546.37-14.47Z"/><path class="cls-7" d="M54.35,456.33s220.2,37.61,525.1-17.36c0,0,440.41-83.91,623.91-26,0,0-194.8-52.08-623.91,52.08,0,0-299.25,83.9-547.69,46.29Z"/><path class="cls-7" d="M12.49,572.15,6.73,592.41l185.76,19.85S452.63,601,613.73,517.18c0,0,120.83-58,371.11-95.57,0,0,135.21-17.27,235.89,5.88,0,0-115.07-49.19-408.5,11.57C812.23,439.06,150.57,609.77,12.49,572.15Z"/><path class="cls-11" d="M906.73,116.37c-74,0-134,58.36-134,130.34V558.37h268V246.71C1040.73,174.73,980.74,116.37,906.73,116.37Z"/><circle class="cls-5" cx="907.13" cy="245.9" r="70.87"/><circle class="cls-10" cx="907.13" cy="245.9" r="61.47"/><rect class="cls-5" x="1442.14" y="552.98" width="32.87" height="10.31" rx="5.15" ry="5.15"/><path class="cls-13" d="M1417.31,503.68s12.6-3.85,11.45,15.42V549s-1.14,11.56,16,8.67"/><line class="cls-14" x1="1484.73" y1="663.76" x2="1484.73" y2="679.75"/><rect class="cls-9" x="659.73" y="63.39" width="146" height="22.99" rx="10.58" ry="10.58"/><rect class="cls-10" x="658.73" y="60.4" width="146" height="22.99" rx="10.58" ry="10.58"/><rect class="cls-9" x="322.33" y="171.86" width="52.81" height="67.03"/><rect class="cls-10" x="323.73" y="168.37" width="50" height="68"/><path class="cls-2" d="M1187.2,370c-25.79,0-46.7,23.52-46.7,52.53S1161.41,475,1187.2,475h54V370Z"/><circle class="cls-15" cx="1228.73" cy="380.37" r="3"/><circle class="cls-15" cx="1176.73" cy="386.37" r="3"/><circle class="cls-15" cx="1150.73" cy="422.51" r="3"/><circle class="cls-15" cx="1179.73" cy="461.37" r="3"/><circle class="cls-15" cx="1229.73" cy="463.37" r="3"/><path class="cls-5" d="M588.75,645.86c0-16.29-13.21-36.49-29.51-36.49s-29.51,20.2-29.51,36.49a29.51,29.51,0,0,0,59,0Z"/><path class="cls-5" d="M590.45,780.86c0-16.29-13.21-36.49-29.5-36.49s-29.51,20.2-29.51,36.49a29.51,29.51,0,1,0,59,0Z"/><path class="cls-5" d="M499.73,677.86c-16.29,0-36.49,13.21-36.49,29.51s20.2,29.51,36.49,29.51a29.51,29.51,0,0,0,0-59Z"/><path class="cls-5" d="M626.73,677.86c-16.29,0-36.49,13.21-36.49,29.51s20.2,29.51,36.49,29.51a29.51,29.51,0,0,0,0-59Z"/><rect class="cls-5" x="804.73" y="305.37" width="37" height="44" rx="10" ry="10"/><g class="cls-16"><path class="cls-17" d="M119.89,337.68s314.38,70,494.43,49.56c0,0,477.28-40.91,583,20.31,0,0-142.9-55.3-574.46,5.93,0,0-320.09,43.73-540.16-14.58Z"/><path class="cls-17" d="M56.06,457.12s217.63,37.9,519-17.5c0,0,435.27-84.54,616.63-26.24,0,0-192.52-52.47-616.63,52.48,0,0-295.76,84.55-541.3,46.65Z"/><path class="cls-17" d="M13.43,573.83l-5.7,20.41,185,25.44s256.13-16.79,415.5-101.25c0,0,119.53-58.4,367.13-96.3,0,0,133.76-17.4,233.37,5.92,0,0-113.83-49.56-404.12,11.67C804.61,439.72,150,611.73,13.43,573.83Z"/></g><path class="cls-1" d="M906.73,128.37c-68.48,0-124,55.32-124,123.56V547.37h248V251.93C1030.73,183.69,975.22,128.37,906.73,128.37Z"/><circle class="cls-3" cx="822.73" cy="327.37" r="7"/><circle class="cls-11" cx="920.73" cy="28.37" r="3"/><circle class="cls-11" cx="470.73" cy="46.37" r="4"/><ellipse class="cls-11" cx="412.23" cy="407.87" rx="75.5" ry="48.5"/><ellipse class="cls-18" cx="412" cy="407.01" rx="45.5" ry="33.74"/><path class="cls-2" d="M411.48,373.84C386.34,373.84,367,388.69,367,407h90C457,388.69,436.61,373.84,411.48,373.84Z"/><text class="cls-19" transform="translate(380.43 417.36)">T@G</text></svg>