<svg xmlns="http://www.w3.org/2000/svg" viewBox="0 0 45 45"><defs><style>.cls-1{fill:none;stroke:#000;stroke-miterlimit:10;}</style></defs><title>facilities icons</title><g id="화장실"><path d="M14.2,10.74a3,3,0,1,0,3,3A3,3,0,0,0,14.2,10.74Zm0,5a2,2,0,1,1,2-2A2,2,0,0,1,14.2,15.74Z"/><path d="M19.67,28.09l-3-10a.49.49,0,0,0-.48-.35h-4a.5.5,0,0,0-.48.35l-3,10a.47.47,0,0,0,.08.44.51.51,0,0,0,.4.2h2v6.49a.5.5,0,0,0,.5.5h5a.5.5,0,0,0,.5-.5V28.73h2a.5.5,0,0,0,.5-.5A.32.32,0,0,0,19.67,28.09Zm-3-.36a.5.5,0,0,0-.5.5v6.49H14.7v-7h-1v7H12.2V28.23a.5.5,0,0,0-.5-.5H9.87l2.7-9h3.25l2.7,9Z"/><path d="M31.18,10.74a3,3,0,1,0,3,3A3,3,0,0,0,31.18,10.74Zm0,5a2,2,0,1,1,2-2A2,2,0,0,1,31.18,15.74Z"/><path d="M32.68,17.74h-3a3.49,3.49,0,0,0-3.5,3.49v7a.5.5,0,0,0,.5.5h1.5v6.49a.5.5,0,0,0,.5.5h5a.5.5,0,0,0,.5-.5V28.73h1.5a.5.5,0,0,0,.5-.5v-7A3.5,3.5,0,0,0,32.68,17.74Zm2.5,10h-1v-6h-1v13h-1.5v-7h-1v7H29.19v-13h-1v6h-1v-6.5a2.51,2.51,0,0,1,2.5-2.5h3a2.51,2.51,0,0,1,2.5,2.5Z"/><rect x="22.19" y="8.24" width="1" height="29.98"/><rect class="cls-1" x="4.28" y="5.17" width="36.11" height="3.14"/><rect class="cls-1" x="4.39" y="38.15" width="36.11" height="3.14"/><line class="cls-1" x1="5.07" y1="8.31" x2="5.07" y2="38.15"/><line class="cls-1" x1="39.32" y1="8.31" x2="39.32" y2="38.15"/></g></svg>