<svg xmlns="http://www.w3.org/2000/svg" viewBox="0 0 45 45"><title>facilities icons</title><g id="세면시설"><path d="M17.91,34.85a.52.52,0,0,0-.52.52v1.05a.53.53,0,1,0,1.05,0V35.37A.52.52,0,0,0,17.91,34.85Z"/><path d="M36.31,5.28H9a.52.52,0,0,0-.52.52V40.63a.52.52,0,0,0,.52.52H36.31a.52.52,0,0,0,.53-.52V5.8A.52.52,0,0,0,36.31,5.28ZM9.51,8.43h4.2A1.58,1.58,0,0,1,15.29,10v.7a3.69,3.69,0,0,0-3.12,3.12H12a.52.52,0,0,0-.53.52.53.53,0,0,0,.53.53h7.71a.52.52,0,0,0,.52-.53.52.52,0,0,0-.52-.52h-.22a3.68,3.68,0,0,0-3.11-3.12V10a2.63,2.63,0,0,0-2.63-2.63H9.51v-1H22.12V38H9.51Zm6.3,3.29a2.65,2.65,0,0,1,2.58,2.11H13.24A2.63,2.63,0,0,1,15.81,11.72Zm20,28.38H9.51V39.05H35.78Zm0-2.1H23.17V6.33H35.78Z"/><path d="M24.75,18.48a.53.53,0,0,0-.53.53v6.31a.52.52,0,0,0,.53.52.52.52,0,0,0,.52-.52V19A.52.52,0,0,0,24.75,18.48Z"/><path d="M20.54,18.48A.52.52,0,0,0,20,19v6.31a.52.52,0,0,0,.52.52.52.52,0,0,0,.53-.52V19A.53.53,0,0,0,20.54,18.48Z"/><path d="M15.81,15.93a.52.52,0,0,0-.52.52V17.5a.52.52,0,0,0,.52.53.53.53,0,0,0,.53-.53V16.45A.52.52,0,0,0,15.81,15.93Z"/><path d="M13.71,15.93a.52.52,0,0,0-.52.52V17.5a.52.52,0,0,0,.52.53.53.53,0,0,0,.53-.53V16.45A.52.52,0,0,0,13.71,15.93Z"/><path d="M17.91,15.93a.52.52,0,0,0-.52.52V17.5a.53.53,0,1,0,1.05,0V16.45A.52.52,0,0,0,17.91,15.93Z"/><path d="M15.81,19.08a.52.52,0,0,0-.52.53v1.05a.52.52,0,0,0,.52.52.52.52,0,0,0,.53-.52V19.61A.53.53,0,0,0,15.81,19.08Z"/><path d="M13.71,19.08a.52.52,0,0,0-.52.53v1.05a.52.52,0,0,0,.52.52.52.52,0,0,0,.53-.52V19.61A.53.53,0,0,0,13.71,19.08Z"/><path d="M17.91,19.08a.52.52,0,0,0-.52.53v1.05a.53.53,0,0,0,1.05,0V19.61A.53.53,0,0,0,17.91,19.08Z"/><path d="M15.81,22.23a.52.52,0,0,0-.52.53v1a.52.52,0,0,0,.52.53.53.53,0,0,0,.53-.53v-1A.53.53,0,0,0,15.81,22.23Z"/><path d="M13.71,22.23a.52.52,0,0,0-.52.53v1a.52.52,0,0,0,.52.53.53.53,0,0,0,.53-.53v-1A.53.53,0,0,0,13.71,22.23Z"/><path d="M17.91,22.23a.52.52,0,0,0-.52.53v1a.53.53,0,1,0,1.05,0v-1A.53.53,0,0,0,17.91,22.23Z"/><path d="M15.81,25.39a.52.52,0,0,0-.52.52V27a.52.52,0,0,0,.52.53.53.53,0,0,0,.53-.53V25.91A.52.52,0,0,0,15.81,25.39Z"/><path d="M13.71,25.39a.52.52,0,0,0-.52.52V27a.52.52,0,0,0,.52.53.53.53,0,0,0,.53-.53V25.91A.52.52,0,0,0,13.71,25.39Z"/><path d="M17.91,25.39a.52.52,0,0,0-.52.52V27a.53.53,0,1,0,1.05,0V25.91A.52.52,0,0,0,17.91,25.39Z"/><path d="M15.81,28.54a.52.52,0,0,0-.52.53v1.05a.52.52,0,0,0,.52.52.52.52,0,0,0,.53-.52V29.07A.53.53,0,0,0,15.81,28.54Z"/><path d="M13.71,28.54a.52.52,0,0,0-.52.53v1.05a.52.52,0,0,0,.52.52.52.52,0,0,0,.53-.52V29.07A.53.53,0,0,0,13.71,28.54Z"/><path d="M17.91,28.54a.52.52,0,0,0-.52.53v1.05a.53.53,0,0,0,1.05,0V29.07A.53.53,0,0,0,17.91,28.54Z"/><path d="M15.81,31.69a.52.52,0,0,0-.52.53v1.05a.52.52,0,0,0,.52.53.53.53,0,0,0,.53-.53V32.22A.53.53,0,0,0,15.81,31.69Z"/><path d="M13.71,31.69a.52.52,0,0,0-.52.53v1.05a.52.52,0,0,0,.52.53.53.53,0,0,0,.53-.53V32.22A.53.53,0,0,0,13.71,31.69Z"/><path d="M17.91,31.69a.52.52,0,0,0-.52.53v1.05a.53.53,0,1,0,1.05,0V32.22A.53.53,0,0,0,17.91,31.69Z"/><path d="M15.81,34.85a.52.52,0,0,0-.52.52v1.05a.52.52,0,0,0,.52.53.53.53,0,0,0,.53-.53V35.37A.52.52,0,0,0,15.81,34.85Z"/><path d="M13.71,34.85a.52.52,0,0,0-.52.52v1.05a.52.52,0,0,0,.52.53.53.53,0,0,0,.53-.53V35.37A.52.52,0,0,0,13.71,34.85Z"/></g></svg>