<svg xmlns="http://www.w3.org/2000/svg" viewBox="0 0 45 45"><title>facilities icons</title><g id="이동식변기"><path d="M30.57,22H30v-1.2h.6a1.79,1.79,0,0,0,1.8-1.8V8.71a1.8,1.8,0,0,0-.6-3.49h-18a1.8,1.8,0,0,0-.6,3.49V19a1.79,1.79,0,0,0,1.8,1.8h.6V22H15a3,3,0,0,0-3,3,.6.6,0,0,0,.61.6,10.13,10.13,0,0,0,6,9.29v5.72a.6.6,0,0,0,.6.6h7.21a.6.6,0,0,0,.6-.6V34.93a10.13,10.13,0,0,0,6-9.29.6.6,0,0,0,.61-.6A3,3,0,0,0,30.57,22ZM13.16,7a.6.6,0,0,1,.6-.6h18a.6.6,0,0,1,0,1.2h-18A.6.6,0,0,1,13.16,7ZM15,19.63a.6.6,0,0,1-.6-.6V8.82H31.17V19a.6.6,0,0,1-.6.6Zm13.81,1.2V22h-12v-1.2Zm-9,19.22V35.4h.06l.18.05.66.17.33.06.56.08.34,0a6.12,6.12,0,0,0,.74,0h.27a6,6,0,0,0,.73,0c.12,0,.23,0,.35,0l.55-.08.33-.06.65-.16.2-.06h.05v4.65ZM26.14,34a9.08,9.08,0,0,1-5.1.49A9.48,9.48,0,0,1,19.39,34a9,9,0,0,1-5.63-8.35h18A9,9,0,0,1,26.14,34ZM13.26,24.44A1.81,1.81,0,0,1,15,23.23H30.57a1.81,1.81,0,0,1,1.7,1.21Z"/><path d="M20.36,10.62H18.45a1.8,1.8,0,1,0-1.1,2.3,1.77,1.77,0,0,0,1.1-1.1h1.91a.6.6,0,0,0,.6-.6A.6.6,0,0,0,20.36,10.62Zm-3.6,1.2a.6.6,0,0,1-.6-.6.6.6,0,0,1,1.2,0A.6.6,0,0,1,16.76,11.82Z"/></g></svg>