<svg id="레이어_1" data-name="레이어 1" xmlns="http://www.w3.org/2000/svg" viewBox="0 0 150 82.75"><defs><style>.cls-1{stroke-width:2; fill:none;stroke:#fff;stroke-miterlimit:10;}</style></defs><title>abroad</title><polygon class="cls-1" points="111.6 7.35 86.23 17.05 76.9 14.44 71.67 18.92 71.67 22.28 68.31 25.27 68.31 30.49 64.95 30.49 64.95 35.34 61.59 39.07 61.59 44.67 63.09 46.54 70.92 46.54 70.55 56.62 77.27 63.33 81 57.36 81 51.39 90.7 41.69 90.7 36.84 96.68 36.84 100.03 43.93 100.78 40.94 106.01 36.09 111.23 46.16 111.6 40.19 116.46 37.95 116.46 30.49 121.31 30.49 123.55 25.27 123.55 20.41 133.25 20.41 133.25 23.77 135.12 23.77 135.12 20.04 139.97 17.05 139.97 14.07 122.05 14.44 111.6 7.35"/><polygon class="cls-1" points="126.16 26.39 126.16 32.36 122.8 32.36 122.8 34.6 128.03 34.6 128.03 26.39 126.16 26.39"/><rect class="cls-1" x="122.49" y="38.7" width="2.49" height="2.99"/><rect class="cls-1" x="115.71" y="42.43" width="2.61" height="5.6"/><rect class="cls-1" x="125.41" y="52.14" width="9.33" height="2.61"/><rect class="cls-1" x="135.49" y="55.12" width="2.99" height="2.99"/><rect class="cls-1" x="118.69" y="51.76" width="3.36" height="3.36"/><rect class="cls-1" x="115.34" y="55.12" width="3.36" height="3.36"/><rect class="cls-1" x="111.98" y="51.76" width="3.36" height="3.36"/><rect class="cls-1" x="141.83" y="71.54" width="3.36" height="3.36"/><rect class="cls-1" x="145.01" y="68.37" width="3.36" height="3.36"/><polygon class="cls-1" points="125.79 59.97 120.93 62.59 122.43 68.93 128.77 66.69 134.37 70.05 136.98 64.83 131.38 59.97 125.79 59.97"/><rect class="cls-1" x="85.85" y="55.5" width="3.36" height="5.97"/><rect class="cls-1" x="92.57" y="5.86" width="2.99" height="2.99"/><rect class="cls-1" x="89.96" y="8.84" width="2.99" height="2.99"/><rect class="cls-1" x="69.43" y="2.5" width="6.34" height="2.99"/><rect class="cls-1" x="63.09" y="22.28" width="2.61" height="2.61"/><rect class="cls-1" x="56.37" y="15.94" width="2.61" height="2.61"/><polygon class="cls-1" points="38.08 49.15 51.15 55.49 48.53 64.83 44.43 64.83 39.58 79.01 36.96 80.5 36.59 64.83 33.98 60.72 30.62 55.49 38.08 49.15"/><rect class="cls-1" x="30.25" y="41.69" width="9.33" height="3.36"/><polyline class="cls-1" points="38.08 49.15 23.15 41.31 18.3 34.97 17.93 27.5 14.57 23.77 6.36 20.04 3.75 23.77 1.14 18.92 4.12 16.31 15.69 16.31 25.77 19.67 29.87 15.94 35.47 18.92 28.75 22.28 32.11 26.01 36.96 26.01 39.95 22.65 45.55 25.27 45.55 28.62 36.59 37.95 29.87 38.33 30.25 41.69"/><polygon class="cls-1" points="30.25 6.61 27.63 9.59 27.63 11.46 30.25 11.83 30.25 15.19 32.86 15.19 32.86 11.83 36.22 11.83 39.58 8.84 42.93 8.84 46.67 12.2 46.67 15.56 49.65 21.91 52.64 21.91 52.64 14.82 58.61 11.83 58.61 9.22 53.38 3.25 49.65 3.25 43.68 5.86 30.99 5.86 30.25 6.61"/><rect class="cls-1" x="36.22" y="12.2" width="2.99" height="2.99"/><rect class="cls-1" x="39.58" y="15.56" width="2.99" height="2.99"/><rect class="cls-1" x="24.27" y="11.83" width="2.99" height="2.99"/><rect class="cls-1" x="21.29" y="8.84" width="2.99" height="2.99"/><rect class="cls-1" x="18.12" y="12.02" width="2.99" height="2.99"/></svg>
