<svg xmlns="http://www.w3.org/2000/svg" viewBox="0 0 45 45">
  <defs>
    <style>
      .cls-1,
      .cls-2 {
        fill: none;
        stroke: rgba(22,67,106,0.6);
        stroke-miterlimit: 10;
      }
      .cls-2 {
        stroke-linecap: round;
      }
    </style>
  </defs>
  <title>facilities icons</title>
  <g id="에어컨"><rect class="cls-1" x="3.77" y="11.5" width="37.8" height="14.85" rx="2.25" ry="2.25"/><line class="cls-1" x1="3.77" y1="20.5" x2="41.34" y2="20.5"/><line class="cls-2" x1="6.69" y1="23.2" x2="39.09" y2="23.2"/><line class="cls-2" x1="6.69" y1="13.75" x2="6.69" y2="18.25"/><line class="cls-2" x1="9.84" y1="13.75" x2="9.84" y2="18.25"/><line class="cls-2" x1="12.99" y1="13.75" x2="12.99" y2="18.25"/><line class="cls-2" x1="16.14" y1="13.75" x2="16.14" y2="18.25"/><line class="cls-2" x1="19.29" y1="13.75" x2="19.29" y2="18.25"/><line class="cls-2" x1="22.44" y1="13.75" x2="22.44" y2="18.25"/><line class="cls-2" x1="25.59" y1="13.75" x2="25.59" y2="18.25"/><line class="cls-2" x1="28.74" y1="13.75" x2="28.74" y2="18.25"/><line class="cls-2" x1="31.89" y1="13.75" x2="31.89" y2="18.25"/><line class="cls-2" x1="35.04" y1="13.75" x2="35.04" y2="18.25"/><circle class="cls-2" cx="38.19" cy="17.8" r="0.45"/><path class="cls-2" d="M17,29.5a2,2,0,0,0-.9,1.8,2.47,2.47,0,0,0,.17.79,2.82,2.82,0,0,0,.4.73c1,1.4,2.36,2.3,1.49,4.1A3.23,3.23,0,0,1,17,38.05"/><path class="cls-2" d="M22,29.5a2,2,0,0,0-.9,1.8,2.47,2.47,0,0,0,.17.79,2.82,2.82,0,0,0,.4.73c1,1.4,2.36,2.3,1.49,4.1A3.23,3.23,0,0,1,22,38.05"/><path class="cls-2" d="M26.94,29.5a2,2,0,0,0-.9,1.8,2.47,2.47,0,0,0,.17.79,2.82,2.82,0,0,0,.4.73c1,1.4,2.36,2.3,1.49,4.1a3.23,3.23,0,0,1-1.16,1.13"/></g>
</svg>
