<svg id="레이어_1" data-name="레이어 1" xmlns="http://www.w3.org/2000/svg" xmlns:xlink="http://www.w3.org/1999/xlink" viewBox="0 0 214.67 46.12"><defs><style>.cls-1{fill:none;}.cls-10,.cls-2,.cls-9{fill:#ff4500;}.cls-3{fill:#fff0cf;}.cls-3,.cls-7,.cls-8{stroke:#4d4d4d;stroke-miterlimit:10;stroke-width:0.5px;}.cls-4{clip-path:url(#clip-path);}.cls-5{fill:#ff4e00;}.cls-6{fill:#4d4d4d;}.cls-7{fill:gray;}.cls-8{fill:#e6d8ba;}.cls-9{font-size:33.83px;letter-spacing:-0.05em;}.cls-10,.cls-9{font-family:Youth, Youth;}.cls-10{font-size:35.8px;letter-spacing:-0.07em;}</style><clipPath id="clip-path"><path class="cls-1" d="M1.92,30.66s2-6.84,3.82-9.54c0,0,.38-.68,1-1.6a35.56,35.56,0,0,1,2.09-3.06C14.55,9.23,23.24,4.15,32.5,3.57c1-.09,2.1-.14,3.15-.16a40.65,40.65,0,0,1,10.5.77q1,.24,2,.57C56.29,7.5,62,16.89,60.25,25.54c-.13.63-.3,1.25-.49,1.86a20.85,20.85,0,0,1-2.5,5.13h-.62l-40.06-.39h-1a25,25,0,0,1-4.06-.2c-2.67-.34-5.21-.76-7.81-1.05l-1.28-.16Z"/></clipPath></defs><title>allcamper</title><rect class="cls-2" x="33.55" y="1.32" width="7.34" height="3.77"/><rect class="cls-2" x="33.4" y="31.84" width="31.61" height="1.92"/><path class="cls-3" d="M1.65,30.8s2.07-6.91,3.9-9.64c0,0,.38-.69,1-1.62s1.36-2.11,2.13-3.1C14.53,9.13,23.39,4,32.84,3.4c1.07-.09,2.14-.14,3.22-.16A42.32,42.32,0,0,1,46.77,4c.69.16,1.37.36,2,.58C57.1,7.38,63,16.87,61.15,25.63c-.14.63-.31,1.26-.51,1.87a20.91,20.91,0,0,1-2.54,5.2h-.63L16.6,32.3h-1a26,26,0,0,1-4.14-.2c-2.73-.35-5.31-.77-8-1.06l-1.3-.16Z"/><g class="cls-4"><path class="cls-5" d="M7.84,18S24.48,21.39,34,20.38c0,0,25.25-2,30.85,1,0,0-7.56-2.71-30.4.29,0,0-16.94,2.15-28.58-.71Z"/><path class="cls-5" d="M3,23.81S14.8,25.67,31.13,23c0,0,23.6-4.14,33.43-1.28,0,0-10.44-2.58-33.43,2.57,0,0-16,4.15-29.34,2.29Z"/><path class="cls-5" d="M2,29.54l-.31,1,9.08,1.28s14.36-.86,22.83-5c0,0,6.36-2.87,19.51-4.72,0,0,7.11-.86,12.4.29,0,0-6-2.43-21.47.57C44,23,9.2,31.39,2,29.54Z"/></g><path class="cls-1" d="M1,31.1s2.15-7.16,4-10c0,0,.4-.71,1-1.68a38.72,38.72,0,0,1,2.21-3.21C14.39,8.65,23.57,3.33,33.37,2.71c1.1-.09,2.21-.14,3.33-.17a44.37,44.37,0,0,1,11.09.81c.72.17,1.43.37,2.13.61C58.5,6.83,64.59,16.67,62.7,25.74a18.71,18.71,0,0,1-.53,2,21.7,21.7,0,0,1-2.64,5.38h-.65l-42.35-.4h-1a29.22,29.22,0,0,1-4.29-.21c-2.83-.36-5.51-.8-8.26-1.1l-1.35-.17Z"/><rect class="cls-6" x="13.46" y="32.48" width="50.92" height="0.64"/><circle class="cls-6" cx="29.29" cy="37.56" r="7.06"/><circle class="cls-7" cx="29.29" cy="37.56" r="4.72"/><path class="cls-2" d="M36.17,36.63a9.53,9.53,0,0,0-1.55-3.25l-.19-.24a5.42,5.42,0,0,0-2-1.46,7.93,7.93,0,0,0-1.21-.45,7.72,7.72,0,0,0-5.39.48,6,6,0,0,0-1.16.73,5.22,5.22,0,0,0-.93,1,3.27,3.27,0,0,0-.25.36,6.74,6.74,0,0,0-.94,2.76,4.85,4.85,0,0,1-1.77-.11A8.6,8.6,0,0,1,24,30a7.62,7.62,0,0,1,4-1.77s4.28-.68,7.3,1.69a8.14,8.14,0,0,1,2.46,3.24s.81,2.2.31,3.48A6.45,6.45,0,0,1,36.17,36.63Z"/><path class="cls-2" d="M59.69,19.49a2.23,2.23,0,0,0-2.08,2.35,2.23,2.23,0,0,0,2.08,2.35h2.42v-4.7Z"/><rect class="cls-8" x="25.25" y="10.38" width="11.02" height="7.48" rx="0.62" ry="0.62"/><path class="cls-3" d="M46.9,6.24a7.3,7.3,0,0,0-7.3,7.3V31H54.19V13.54A7.29,7.29,0,0,0,46.9,6.24Z"/><circle class="cls-8" cx="47.09" cy="14.12" r="3.27"/><text class="cls-9" transform="translate(105.49 33.69)">camper</text><text class="cls-10" transform="translate(67.86 34.1) scale(1 1.13)">All</text></svg>