<svg xmlns="http://www.w3.org/2000/svg" viewBox="0 0 100 100"><defs><style>.cls-1{fill:none;stroke:#000;stroke-miterlimit:10;}</style></defs><title>gears</title><g id="모든제품"><polyline class="cls-1" points="27.57 77.17 15.57 77.17 15.57 39.17 63.57 39.17 63.57 77.17 51.57 77.17"/><circle class="cls-1" cx="39.57" cy="77.17" r="12"/><circle class="cls-1" cx="39.57" cy="77.17" r="6.5"/><polyline class="cls-1" points="63.07 77.17 87.07 77.17 87.07 70.17"/><polygon class="cls-1" points="39.57 13.17 16.07 37.17 63.07 37.17 39.57 13.17"/><rect class="cls-1" x="26.07" y="47.17" width="9" height="9"/><rect class="cls-1" x="43.07" y="47.17" width="9" height="9"/><path class="cls-1" d="M63.76,66.92H60.32a2.27,2.27,0,0,1-2.25-2.25h0a2.26,2.26,0,0,1,2.25-2.25H63.9"/><polyline class="cls-1" points="64.07 53.17 77.57 53.17 77.57 77.17"/><path class="cls-1" d="M63.85,43.67h9.62c2.26,0,4.1,3.3,4.1,7.33h-14"/></g></svg>