<svg xmlns="http://www.w3.org/2000/svg" viewBox="0 0 45 45"><defs><style>.cls-1{fill:none;}.cls-1,.cls-2{stroke:#000;stroke-linejoin:round;stroke-width:0.75px;}.cls-2{fill:#fff;}</style></defs><title>facilities icons</title><g id="외부어닝"><polygon class="cls-1" points="35.66 14.98 3.54 14.98 3.65 29.51 28.78 29.67 28.78 21.24 28.78 20.83 35.66 20.89 35.66 14.98"/><path class="cls-1" d="M28.77,21.24h4.17a1.31,1.31,0,0,1,1,.55l3.37,3.5H38s.13,0,.29.12l.64.52h.17a.17.17,0,0,1,.12.08l.15.07s2.25,1.51,2,2.06l.15.48.1,1.12s.27.06.31.29c0,0,.42,1.57,0,1.74H40.14"/><circle class="cls-1" cx="38.03" cy="31.77" r="2.11"/><circle class="cls-1" cx="11.84" cy="31.77" r="2.11"/><polyline class="cls-1" points="35.92 31.77 29.24 31.77 28.33 31.77 28.33 29.66"/><rect class="cls-1" x="21.79" y="21.52" width="5.32" height="3.45"/><polyline class="cls-1" points="9.74 32.08 4.37 32.05 4.37 29.59 28.31 29.74 28.31 32.18 13.92 32.1"/><path class="cls-1" d="M34.65,24.5H30.59a.16.16,0,0,1-.16-.15V22.51a.16.16,0,0,1,.16-.15H32.9a.31.31,0,0,1,.23.14l1.64,1.76s.18.21,0,.24Z"/><polyline class="cls-1" points="34.21 14.98 33.31 14.08 30.03 14.08 29.13 14.98"/><polygon class="cls-2" points="27.38 20.36 4.97 20.36 6.76 15.88 25.59 15.88 27.38 20.36"/><rect class="cls-2" x="4.97" y="20.31" width="22.3" height="2.08"/><polyline class="cls-1" points="9.11 15.88 7.53 20.35 7.53 22.4"/><line class="cls-2" x1="5.39" y1="15.93" x2="26.65" y2="15.93"/><polyline class="cls-2" points="15.81 22.5 15.81 20.41 15.71 15.93"/><polyline class="cls-1" points="18.68 22.29 18.68 20.21 18.31 15.88"/><polyline class="cls-1" points="10.86 15.93 10.31 20.31 10.31 22.4"/><polyline class="cls-2" points="13.1 15.93 13.1 20.41 13.1 22.5"/><polyline class="cls-1" points="20.82 15.93 21.47 20.31 21.47 22.4"/><polyline class="cls-1" points="23.58 15.93 24.25 20.41 24.25 22.5"/></g></svg>