<svg xmlns="http://www.w3.org/2000/svg" xmlns:xlink="http://www.w3.org/1999/xlink" width="1176.389" height="652.24" viewBox="0 0 1176.389 652.24">
  <defs>
    <clipPath id="clip-path">
      <path id="SVGID" d="M2614.443,252c-53.816,0-97.443,43.473-97.443,97.1V581.263h194.886V349.1C2711.886,295.473,2668.259,252,2614.443,252Z" transform="translate(-2517 -252)" fill="none" stroke="#7a7c84" stroke-miterlimit="10" stroke-width="3.036"/>
    </clipPath>
  </defs>
  <g id="캠핑카" transform="translate(-1741 -131)">
    <g id="Group_833" data-name="Group 833" transform="translate(2814.117 506.627)">
      <g id="Group_832" data-name="Group 832" transform="translate(5.781)">
        <rect id="Rectangle_216" data-name="Rectangle 216" width="14.145" height="81.726" transform="translate(8.363 16.502)" fill="#ccc"/>
        <rect id="Rectangle_217" data-name="Rectangle 217" width="22.789" height="7.637" transform="translate(4.041 10.483)" fill="#4d4d4d"/>
        <rect id="Rectangle_218" data-name="Rectangle 218" width="30.872" height="11.787" rx="5.894" fill="#333"/>
      </g>
      <rect id="Rectangle_219" data-name="Rectangle 219" width="7.858" height="81.726" transform="translate(25.147 229.463) rotate(180)" fill="#ccc"/>
      <rect id="Rectangle_220" data-name="Rectangle 220" width="22.789" height="68.367" transform="translate(32.612 266.397) rotate(180)" fill="#4d4d4d"/>
      <rect id="Rectangle_221" data-name="Rectangle 221" width="42.435" height="9.997" transform="translate(0 266.506)" fill="#333"/>
    </g>
    <g id="Group_834" data-name="Group 834" transform="translate(2858.891 636.682)">
      <path id="Path_4866" data-name="Path 4866" d="M3163.559,812.872h58.5v-10.8c0-7.2-8.1-9-8.1-9h-10.8c0-6.3-8.1-6.3-8.1-6.3h-31.5Z" transform="translate(-3163.559 -777.128)" fill="#4d4d4d"/>
      <path id="Path_4867" data-name="Path 4867" d="M3194.915,785.3s1.051-10.8-5.249-10.8h-16.2s-4.5,3.6,0,5.4c0,0,9-.9,9.9,1.8l-.142,3.6Z" transform="translate(-3165.252 -774.5)" fill="#4d4d4d"/>
    </g>
    <rect id="Rectangle_222" data-name="Rectangle 222" width="943.034" height="69.153" transform="translate(1917.026 604.07)" fill="#333"/>
    <g id="Group_837" data-name="Group 837" transform="translate(2658.064 434.218)">
      <rect id="Rectangle_223" data-name="Rectangle 223" width="109" height="132" transform="translate(7.63 20.901)" fill="#e54405"/>
      <g id="Group_835" data-name="Group 835">
        <rect id="Rectangle_224" data-name="Rectangle 224" width="121.804" height="28.172" rx="10.943" transform="translate(0 6.629)" fill="#ff4e00"/>
        <ellipse id="Ellipse_1522" data-name="Ellipse 1522" cx="60.073" cy="11.186" rx="60.073" ry="11.186" transform="translate(0.829)" fill="#e54405"/>
      </g>
      <g id="Group_836" data-name="Group 836" transform="translate(1.572 135.388)">
        <path id="Path_4868" data-name="Path 4868" d="M2918.489,689.143s32,7.361,51.219,7.361,52.036-7.361,52.036-7.361a8.514,8.514,0,0,1,8.489,8.489v10.832a8.514,8.514,0,0,1-8.489,8.489H2918.489a8.514,8.514,0,0,1-8.489-8.489V697.632A8.514,8.514,0,0,1,2918.489,689.143Z" transform="translate(-2910 -689.143)" fill="#ff4e00"/>
        <ellipse id="Ellipse_1523" data-name="Ellipse 1523" cx="59.298" cy="11.451" rx="59.298" ry="11.451" transform="translate(0.818 11.451)" fill="#ff4e00"/>
      </g>
      <path id="Path_4869" data-name="Path 4869" d="M3042.079,583h-43.221a7.881,7.881,0,0,0-7.858,7.858v56.58a7.881,7.881,0,0,0,7.858,7.858h43.221Z" transform="translate(-2925.776 -531.023)" fill="#ff4e00"/>
    </g>
    <g id="Group_838" data-name="Group 838" transform="translate(2253.362 131)">
      <rect id="Rectangle_225" data-name="Rectangle 225" width="104" height="12" transform="translate(5.333 8.12)" fill="#d8d0b6"/>
      <rect id="Rectangle_226" data-name="Rectangle 226" width="114" height="9" rx="4.5" transform="translate(0.333 0.12)" fill="#e9e1c4"/>
    </g>
    <path id="Path_4870" data-name="Path 4870" d="M2187.074,152.611l-15.717,19.646v11.787L2169,202.9l47.936-1.572,34.576-23.575L2241.3,162.827S2215.364,146.324,2187.074,152.611Z" transform="translate(-91.664 -4.322)" fill="#4d4d4d"/>
    <path id="Path_4871" data-name="Path 4871" d="M2625,162.433l2.357-14.145,22-17.288s25.146,18.86,20.432,36.148Z" transform="translate(-189.326)" fill="#4d4d4d"/>
    <path id="Path_4872" data-name="Path 4872" d="M1741.842,591.152s33.087-110.593,62.251-154.145c0,0,6.188-11.01,15.471-25.936s21.661-33.777,34.054-49.507c94.141-116.9,235.816-198.972,386.9-208.446q25.555-2.142,51.387-2.615c56.462-1.49,115.71-.56,171.182,12.458,11.094,2.6,22.037,5.69,32.777,9.339,132.511,44.407,226.4,196.165,197.205,336.141a305.635,305.635,0,0,1-8.115,29.96,336.135,336.135,0,0,1-40.712,83.089l-10.038-.1-653.383-6.3c-5.852-.057-11.228-.108-16.089-.166-22.64.145-43.877.145-66.231-3.2-43.591-5.579-84.947-12.275-127.363-16.924l-20.924-2.605Z" transform="translate(-0.18 -4.064)" fill="#e9e1c4"/>
    <rect id="Rectangle_227" data-name="Rectangle 227" width="758.709" height="37.942" transform="translate(1934.955 614.822)" fill="#4d4d4d"/>
    <g id="Group_841" data-name="Group 841" transform="translate(2036.262 535.908)">
      <circle id="Ellipse_1524" data-name="Ellipse 1524" cx="102.489" cy="102.489" r="102.489" transform="translate(36.982 42.354)" fill="#4d4d4d"/>
      <g id="Group_839" data-name="Group 839" transform="translate(75.024 80.396)">
        <circle id="Ellipse_1525" data-name="Ellipse 1525" cx="64.447" cy="64.447" r="64.447" stroke-width="12.434" stroke="#4d4d4d" stroke-linecap="round" stroke-linejoin="round" fill="#ccc"/>
      </g>
      <g id="Group_840" data-name="Group 840" transform="translate(123.138 128.509)">
        <circle id="Ellipse_1526" data-name="Ellipse 1526" cx="16.334" cy="16.334" r="16.334" fill="#4d4d4d"/>
      </g>
      <path id="Path_4873" data-name="Path 4873" d="M2368.7,804.378s-6.629-32.893-25.458-60.535q-1.486-2.187-3.071-4.322c-8.353-11.662-19.533-20.63-32.143-27.311a127.66,127.66,0,0,0-19.812-8.368,113.877,113.877,0,0,0-88.542,8.969,104.891,104.891,0,0,0-19.107,13.63,94.371,94.371,0,0,0-15.328,17.659c-1.353,2.067-2.716,4.312-4.06,6.743-6.721,12.154-12.991,28.952-15.469,51.354,0,0-20.225,2.347-28.966-2.013,0,0-2.057-68.415,52.277-119.392,0,0,20.226-23.811,66.16-32.866,0,0,70.444-12.576,119.979,31.357,0,0,28.281,23.895,40.364,60.367,0,0,13.37,40.915,5.142,64.727C2400.665,804.378,2380.7,807.731,2368.7,804.378Z" transform="translate(-2116.732 -646.261)" fill="#ff4e00"/>
    </g>
    <rect id="Rectangle_228" data-name="Rectangle 228" width="207.791" height="141.024" rx="14.92" transform="translate(2103 259.548)" fill="#4d4d4d"/>
    <rect id="Rectangle_229" data-name="Rectangle 229" width="180.945" height="115.654" rx="12.609" transform="translate(2116.424 272.234)" fill="#7a7c84"/>
    <g id="Group_842" data-name="Group 842" transform="translate(1741 390.656)">
      <path id="Path_4874" data-name="Path 4874" d="M1845.532,461.422s249.886,54.569,393,38.653c0,0,379.373-31.9,463.425,15.843,0,0-113.585-43.127-456.61,4.62,0,0-254.429,34.106-429.35-11.369Z" transform="translate(-1757.063 -461.422)" fill="#ff4e00"/>
      <path id="Path_4875" data-name="Path 4875" d="M1783.775,566.3s173.043,29.558,412.641-13.642c0,0,346.086-65.937,490.289-20.464,0,0-153.077-40.926-490.289,40.927,0,0-235.162,65.937-430.39,36.379Z" transform="translate(-1746.36 -473.154)" fill="#ff4e00"/>
      <path id="Path_4876" data-name="Path 4876" d="M1745.522,660.775,1741,676.691l135.64,20.463S2091.4,683.439,2218,617.575c0,0,94.948-45.547,291.625-75.1,0,0,106.251-13.57,185.374,4.62,0,0-90.426-38.653-321.013,9.1C2373.985,556.186,1854.033,690.333,1745.522,660.775Z" transform="translate(-1741 -476.606)" fill="#ff4e00"/>
    </g>
    <path id="Path_4877" data-name="Path 4877" d="M2609.824,225c-64.189,0-116.224,48.971-116.224,109.381V595.912h232.449V334.381C2726.049,273.971,2674.014,225,2609.824,225Z" transform="translate(-161.184 -20.132)" fill="#4d4d4d"/>
    <path id="Path_4878" data-name="Path 4878" d="M2612.3,240c-58.156,0-105.3,45.859-105.3,102.429V587.337h210.6V342.429C2717.6,285.859,2670.458,240,2612.3,240Z" transform="translate(-164.054 -23.344)" fill="#e9e1c4"/>
    <circle id="Ellipse_1527" data-name="Ellipse 1527" cx="55.693" cy="55.693" r="55.693" transform="translate(2392.865 262.75)" fill="#4d4d4d"/>
    <circle id="Ellipse_1528" data-name="Ellipse 1528" cx="42.124" cy="42.124" r="42.124" transform="translate(2406.435 276.32)" fill="#7a7c84"/>
    <g id="Group_843" data-name="Group 843" transform="translate(2725.646 490.125)">
      <circle id="Ellipse_1529" data-name="Ellipse 1529" cx="4" cy="4" r="4" transform="translate(33.048 -0.005)" fill="#d63403"/>
      <circle id="Ellipse_1530" data-name="Ellipse 1530" cx="4" cy="4" r="4" transform="translate(22.048 -0.005)" fill="#d63403"/>
      <circle id="Ellipse_1531" data-name="Ellipse 1531" cx="4" cy="4" r="4" transform="translate(11.048 -0.005)" fill="#d63403"/>
      <circle id="Ellipse_1532" data-name="Ellipse 1532" cx="4" cy="4" r="4" transform="translate(0.048 -0.005)" fill="#d63403"/>
      <path id="Path_4879" data-name="Path 4879" d="M3054.929,588a3.929,3.929,0,1,0,0,7.858Z" transform="translate(-3006.208 -588)" fill="#d63403"/>
    </g>
    <g id="Group_844" data-name="Group 844" transform="translate(2725.646 504.27)">
      <circle id="Ellipse_1533" data-name="Ellipse 1533" cx="4" cy="4" r="4" transform="translate(33.048 -0.15)" fill="#d63403"/>
      <circle id="Ellipse_1534" data-name="Ellipse 1534" cx="4" cy="4" r="4" transform="translate(22.048 -0.15)" fill="#d63403"/>
      <circle id="Ellipse_1535" data-name="Ellipse 1535" cx="4" cy="4" r="4" transform="translate(11.048 -0.15)" fill="#d63403"/>
      <circle id="Ellipse_1536" data-name="Ellipse 1536" cx="4" cy="4" r="4" transform="translate(0.048 -0.15)" fill="#d63403"/>
      <path id="Path_4880" data-name="Path 4880" d="M3054.929,606a3.929,3.929,0,1,0,0,7.858Z" transform="translate(-3006.208 -606)" fill="#d63403"/>
    </g>
    <g id="Group_845" data-name="Group 845" transform="translate(2725.646 518.415)">
      <circle id="Ellipse_1537" data-name="Ellipse 1537" cx="4" cy="4" r="4" transform="translate(33.048 -0.295)" fill="#d63403"/>
      <circle id="Ellipse_1538" data-name="Ellipse 1538" cx="4" cy="4" r="4" transform="translate(22.048 -0.295)" fill="#d63403"/>
      <circle id="Ellipse_1539" data-name="Ellipse 1539" cx="4" cy="4" r="4" transform="translate(11.048 -0.295)" fill="#d63403"/>
      <circle id="Ellipse_1540" data-name="Ellipse 1540" cx="4" cy="4" r="4" transform="translate(0.048 -0.295)" fill="#d63403"/>
      <path id="Path_4881" data-name="Path 4881" d="M3054.929,624a3.929,3.929,0,1,0,0,7.858Z" transform="translate(-3006.208 -624)" fill="#d63403"/>
    </g>
    <g id="Group_846" data-name="Group 846" transform="translate(2725.646 532.56)">
      <circle id="Ellipse_1541" data-name="Ellipse 1541" cx="4" cy="4" r="4" transform="translate(33.048 -0.44)" fill="#d63403"/>
      <circle id="Ellipse_1542" data-name="Ellipse 1542" cx="4" cy="4" r="4" transform="translate(22.048 -0.44)" fill="#d63403"/>
      <circle id="Ellipse_1543" data-name="Ellipse 1543" cx="4" cy="4" r="4" transform="translate(11.048 -0.44)" fill="#d63403"/>
      <circle id="Ellipse_1544" data-name="Ellipse 1544" cx="4" cy="4" r="4" transform="translate(0.048 -0.44)" fill="#d63403"/>
      <path id="Path_4882" data-name="Path 4882" d="M3054.929,642a3.929,3.929,0,1,0,0,7.858Z" transform="translate(-3006.208 -642)" fill="#d63403"/>
    </g>
    <g id="Group_847" data-name="Group 847" transform="translate(2725.646 546.704)">
      <ellipse id="Ellipse_1545" data-name="Ellipse 1545" cx="4" cy="3.5" rx="4" ry="3.5" transform="translate(33.048 0.415)" fill="#d63403"/>
      <ellipse id="Ellipse_1546" data-name="Ellipse 1546" cx="4" cy="3.5" rx="4" ry="3.5" transform="translate(22.048 0.415)" fill="#d63403"/>
      <ellipse id="Ellipse_1547" data-name="Ellipse 1547" cx="4" cy="3.5" rx="4" ry="3.5" transform="translate(11.048 0.415)" fill="#d63403"/>
      <ellipse id="Ellipse_1548" data-name="Ellipse 1548" cx="4" cy="3.5" rx="4" ry="3.5" transform="translate(0.048 0.415)" fill="#d63403"/>
      <path id="Path_4883" data-name="Path 4883" d="M3054.929,660a3.929,3.929,0,1,0,0,7.858Z" transform="translate(-3006.208 -660)" fill="#d63403"/>
    </g>
    <g id="Group_848" data-name="Group 848" transform="translate(2849.474 512.128)">
      <rect id="Rectangle_230" data-name="Rectangle 230" width="25.829" height="8.1" rx="4.05" transform="translate(19.511 38.981)" fill="#333"/>
      <path id="Path_4884" data-name="Path 4884" d="M3151.576,616.248s9.9-3.029,9,12.115v23.473s-.9,9.087,12.6,6.815" transform="translate(-3151.576 -616)" fill="none" stroke="#333" stroke-miterlimit="10" stroke-width="0.917"/>
    </g>
    <line id="Line_210" data-name="Line 210" y2="12.562" transform="translate(2902.458 659.864)" fill="none" stroke="#ccc" stroke-miterlimit="10" stroke-width="2"/>
    <rect id="Rectangle_231" data-name="Rectangle 231" width="114.731" height="18.068" rx="9.034" transform="translate(2254.147 175.024)" fill="#4d4d4d"/>
    <rect id="Rectangle_232" data-name="Rectangle 232" width="114.731" height="18.068" rx="9.034" transform="translate(2253.362 172.669)" fill="#d8d0b6"/>
    <g id="Group_849" data-name="Group 849" transform="translate(1989.323 257.519)">
      <rect id="Rectangle_233" data-name="Rectangle 233" width="40" height="51" transform="translate(0.372 3.601)" fill="#4d4d4d"/>
      <rect id="Rectangle_234" data-name="Rectangle 234" width="40" height="54" transform="translate(0.372 -0.399)" fill="#d8d0b6"/>
    </g>
    <g id="Group_850" data-name="Group 850" transform="translate(2631.949 415.95)">
      <path id="Path_4885" data-name="Path 4885" d="M2911.467,493.61c-20.269,0-36.7,18.483-36.7,41.281s16.431,41.281,36.7,41.281h42.443V493.61Z" transform="translate(-2874.767 -493.61)" fill="#ff4e00"/>
      <ellipse id="Ellipse_1549" data-name="Ellipse 1549" cx="2.5" cy="2" rx="2.5" ry="2" transform="translate(66.745 6.17)" fill="#d63403"/>
      <circle id="Ellipse_1550" data-name="Ellipse 1550" cx="2.5" cy="2.5" r="2.5" transform="translate(25.745 10.17)" fill="#d63403"/>
      <circle id="Ellipse_1551" data-name="Ellipse 1551" cx="2.357" cy="2.357" r="2.357" transform="translate(5.684 38.924)" fill="#d63403"/>
      <ellipse id="Ellipse_1552" data-name="Ellipse 1552" cx="2" cy="2.5" rx="2" ry="2.5" transform="translate(28.745 69.17)" fill="#d63403"/>
      <circle id="Ellipse_1553" data-name="Ellipse 1553" cx="2.5" cy="2.5" r="2.5" transform="translate(67.745 71.17)" fill="#d63403"/>
    </g>
    <path id="Path_4886" data-name="Path 4886" d="M2311.374,756.187c0,12.806-10.381,28.678-23.187,28.678S2265,768.993,2265,756.187a23.187,23.187,0,0,1,46.374,0Z" transform="translate(-112.225 -128.93)" fill="#4d4d4d"/>
    <path id="Path_4887" data-name="Path 4887" d="M2311.374,761.678c0-12.806-10.381-28.678-23.187-28.678S2265,748.872,2265,761.678a23.187,23.187,0,0,0,46.374,0Z" transform="translate(-112.225 -128.93)" fill="#4d4d4d"/>
    <path id="Path_4888" data-name="Path 4888" d="M2311.374,896.678c0-12.806-10.381-28.678-23.187-28.678S2265,883.872,2265,896.678a23.187,23.187,0,0,0,46.374,0Z" transform="translate(-112.225 -157.843)" fill="#4d4d4d"/>
    <path id="Path_4889" data-name="Path 4889" d="M2220.693,801.494c12.8,0,28.678,10.381,28.678,23.187s-15.873,23.187-28.678,23.187a23.187,23.187,0,1,1,0-46.373Z" transform="translate(-97.77 -143.599)" fill="#4d4d4d"/>
    <path id="Path_4890" data-name="Path 4890" d="M2226.184,801.494c-12.806,0-28.678,10.381-28.678,23.187s15.872,23.187,28.678,23.187a23.187,23.187,0,1,0,0-46.373Z" transform="translate(-97.77 -143.599)" fill="#4d4d4d"/>
    <path id="Path_4891" data-name="Path 4891" d="M2353.184,801.494c-12.806,0-28.678,10.381-28.678,23.187s15.872,23.187,28.678,23.187a23.187,23.187,0,1,0,0-46.373Z" transform="translate(-124.969 -143.599)" fill="#4d4d4d"/>
    <rect id="Rectangle_235" data-name="Rectangle 235" width="29" height="35" rx="10" transform="translate(2367.694 365.12)" fill="#4d4d4d"/>
    <g id="Group_853" data-name="Group 853" transform="translate(2350.805 226.086)">
      <g id="Group_852" data-name="Group 852" transform="translate(0)" clip-path="url(#clip-path)">
        <g id="Group_851" data-name="Group 851" transform="translate(-609.019 164.479)">
          <path id="Path_4892" data-name="Path 4892" d="M1846.2,461.306s247.048,54.985,388.54,38.948c0,0,375.065-32.148,458.163,15.964,0,0-112.294-43.456-451.425,4.655,0,0-251.541,34.366-424.474-11.455Z" transform="translate(-1758.063 -461.306)" fill="#ff4e00"/>
          <path id="Path_4893" data-name="Path 4893" d="M1785.541,566.988s171.023,29.784,407.826-13.746c0,0,342.047-66.44,484.566-20.619,0,0-151.29-41.239-484.566,41.239,0,0-232.417,66.44-425.366,36.657Z" transform="translate(-1747.568 -473.128)" fill="#ff4e00"/>
          <path id="Path_4894" data-name="Path 4894" d="M1746.473,662.182,1742,678.219l145.379,19.992s201.272-13.192,326.513-79.559c0,0,93.931-45.894,288.5-75.678,0,0,105.114-13.673,183.389,4.655,0,0-89.458-38.947-317.576,9.164C2368.207,556.793,1853.823,691.965,1746.473,662.182Z" transform="translate(-1742 -476.606)" fill="#ff4e00"/>
        </g>
      </g>
      <path id="SVGID-2" data-name="SVGID" d="M2614.443,252c-53.816,0-97.443,43.473-97.443,97.1V581.263h194.886V349.1C2711.886,295.473,2668.259,252,2614.443,252Z" transform="translate(-2517 -252)" fill="none" stroke="#7a7c84" stroke-miterlimit="10" stroke-width="3.036"/>
    </g>
    <circle id="Ellipse_1554" data-name="Ellipse 1554" cx="5.5" cy="5.5" r="5.5" transform="translate(2376.694 377.12)" fill="#7a7c84"/>
    <circle id="Ellipse_1555" data-name="Ellipse 1555" cx="2.5" cy="2.5" r="2.5" transform="translate(2456.694 145.12)" fill="#e9e1c4"/>
    <ellipse id="Ellipse_1556" data-name="Ellipse 1556" cx="3" cy="3.5" rx="3" ry="3.5" transform="translate(2102.694 158.12)" fill="#e9e1c4"/>
    <g id="Group_854" data-name="Group 854" transform="translate(2000.324 407.612)">
      <ellipse id="Ellipse_1557" data-name="Ellipse 1557" cx="59" cy="38.5" rx="59" ry="38.5" transform="translate(0.37 -0.493)" fill="#e9e1c4"/>
    </g>
    <g id="Group_855" data-name="Group 855" transform="translate(2023.712 418.532)">
      <g id="Ellipse_1558" data-name="Ellipse 1558" fill="#e9e1c4" stroke="#ed970c" stroke-miterlimit="10" stroke-width="2">
        <ellipse cx="35.755" cy="26.515" rx="35.755" ry="26.515" stroke="none"/>
        <ellipse cx="35.755" cy="26.515" rx="34.755" ry="25.515" fill="none"/>
      </g>
      <path id="Path_4895" data-name="Path 4895" d="M2136.791,499c-19.1,0-33.791,11.259-33.791,25.147h68.367C2171.367,510.259,2155.887,499,2136.791,499Z" transform="translate(-2101.241 -497.346)" fill="#ff4e00"/>
    </g>
    <text id="T_G" data-name="T@G" transform="translate(2036.136 452.72)" fill="#ed970c" font-size="23" font-family="BusanBada"><tspan x="0" y="0">T@G</tspan></text>
  </g>
</svg>
