<svg xmlns="http://www.w3.org/2000/svg" width="54.061" height="54.061" viewBox="0 0 54.061 54.061">
  <path id="Icon_metro-cancel" data-name="Icon metro-cancel" d="M29.6,1.928a27.03,27.03,0,1,0,27.03,27.03A27.03,27.03,0,0,0,29.6,1.928Zm0,48.993A21.962,21.962,0,1,1,51.563,28.958,21.962,21.962,0,0,1,29.6,50.921Zm8.447-35.477L29.6,23.89l-8.447-8.447-5.068,5.068,8.447,8.447-8.447,8.447,5.068,5.068L29.6,34.027l8.447,8.447,5.068-5.068-8.447-8.447,8.447-8.447Z" transform="translate(-2.571 -1.928)" fill="#01189b"/>
</svg>
