<svg id="레이어_1" data-name="레이어 1" xmlns="http://www.w3.org/2000/svg" viewBox="0 0 118.5 60">
  <defs>
    <style>
      .cls-1,
      .cls-2,
      .cls-3 {
        fill: none;
        stroke-miterlimit: 10;
      }
      .cls-1 {
        stroke: #fff;
      }
      .cls-2 {
        stroke: #fff;
      }
      .cls-3 {
        stroke: #fff;
      }
      .cls-4 {
        fill: #fff;
      }
    </style>
  </defs>
  <title>caravan</title><path
    class="cls-1"
    d="M58.14,44.05H89.42V23.27S91.17,4.7,69.55,4H42.38a42.57,42.57,0,0,0-24.5,8.83,42.07,42.07,0,0,0-3.53,3c-.73.66-1.55,1.43-2.45,2.33-3.6,3.31-7,7-8.73,11.64-1.6,4,.8,9.14,4.9,10.81a16.69,16.69,0,0,0,3.35,1l.48.12,0,2.18,19.83.13a13.25,13.25,0,0,1,26.36,0Z"/><rect class="cls-2" x="58.33" y="15.8" width="16.8" height="20.31" rx="3.24" ry="3.24"/><circle class="cls-3" cx="45.03" cy="45.65" r="10.68"/><circle class="cls-3" cx="45.03" cy="45.65" r="6.47"/><path class="cls-3" d="M108.18,47.69a3.34,3.34,0,0,0-3.29,2.77H104v-6.4h1.11v-14H92v14h10.82v7.86H105a3.34,3.34,0,1,0,3.22-4.23Z"/><polyline class="cls-3" points="105.07 38.24 113 38.24 113 42.23 105.07 42.23"/><circle class="cls-4" cx="94.61" cy="24.46" r="1.39"/><rect class="cls-4" x="94.34" y="25.85" width="0.53" height="3.87"/><polyline class="cls-4" points="94.34 28.23 92.53 29.74 92.19 29.34 94.34 27.55"/><polyline class="cls-4" points="94.87 28.24 96.67 29.74 97 29.34 94.86 27.55"/><line class="cls-2" x1="63.35" y1="15.8" x2="63.35" y2="36.11"/></svg>
