<svg id="레이어_1" data-name="레이어 1" xmlns="http://www.w3.org/2000/svg" viewBox="0 0 9365.3 105.93"><defs><style>.cls-1{opacity:0.5;}.cls-2,.cls-4{fill:#caecef;}.cls-2,.cls-3{opacity:0.8;}</style></defs><title>cloud</title><g class="cls-1"><path class="cls-2" d="M136.08,89.82a15.36,15.36,0,0,0-15.36-15.36h-.17a19.15,19.15,0,0,0-27.13-14.8,33.5,33.5,0,0,0-62.56,0A23,23,0,0,0,1.94,82C1.94,92.41,7.61,99.19,17,102.1h0a23.1,23.1,0,0,0,6.79,1H58.94c.68,0,1.35.07,2,.07s1.36,0,2-.07h55.19c.44,0,.89.07,1.34.07s.9,0,1.34-.07h.1C128.79,102.39,136.08,97.82,136.08,89.82Z"/><g class="cls-3"><path class="cls-4" d="M134.89,61.32H286.77a9.1,9.1,0,0,0,2.16-5.75c0-6.12-6.65-11.08-14.84-11.08a18.51,18.51,0,0,0-8,1.75C264.91,38.76,256.92,33,247.22,33a21.83,21.83,0,0,0-12.73,3.91C232.25,22,218,10.49,200.64,10.49c-15.87,0-29.2,9.65-33,22.73a21.19,21.19,0,0,0-3.11.4,17.89,17.89,0,0,0-11.57,7.5,20.84,20.84,0,0,0-6.6,1C137.45,45,132.1,53,134.36,60A11.57,11.57,0,0,0,134.89,61.32Z"/><circle class="cls-4" cx="250.47" cy="16.99" r="6.83"/><path class="cls-4" d="M151,27.15a4,4,0,0,0-4-4l-.11,0h-7.77l-.12,0-.11,0h-.12a4,4,0,0,0,0,8v0h8.35A4,4,0,0,0,151,27.15Z"/></g><g class="cls-3"><path class="cls-4" d="M1205.94,71.27h151.88a9.1,9.1,0,0,0,2.16-5.75c0-6.12-6.64-11.08-14.84-11.08a18.51,18.51,0,0,0-8,1.75c-1.22-7.48-9.21-13.25-18.91-13.25a21.9,21.9,0,0,0-12.73,3.9c-2.24-14.9-16.54-26.4-33.85-26.4-15.86,0-29.2,9.65-33,22.73a19.92,19.92,0,0,0-3.11.4,17.88,17.88,0,0,0-11.57,7.5,20.84,20.84,0,0,0-6.6,1C1208.5,55,1203.15,63,1205.41,70A11.57,11.57,0,0,0,1205.94,71.27Z"/><circle class="cls-4" cx="1321.52" cy="26.94" r="6.83"/><path class="cls-4" d="M1222.08,37.1a4,4,0,0,0-4-4h-8.23v0a4,4,0,0,0,0,7.95v0h8.35A4,4,0,0,0,1222.08,37.1Z"/></g><g class="cls-3"><path class="cls-4" d="M1562.55,81.11a15.36,15.36,0,0,1,15.35-15.36h.18A19.16,19.16,0,0,1,1605.2,51a33.5,33.5,0,0,1,62.56,0,23.52,23.52,0,0,1,5.86-.75,23.07,23.07,0,0,1,23.07,23.08c0,10.37-5.67,17.15-15.09,20.06h0a23.12,23.12,0,0,1-6.8,1h-35.1c-.68,0-1.36.07-2,.07s-1.37,0-2-.07h-55.19c-.45,0-.89.07-1.34.07s-.9,0-1.34-.07h-.1C1569.83,93.68,1562.55,89.11,1562.55,81.11Z"/><path class="cls-4" d="M1546,43.63c0-1.36,1.71-2.47,3.82-2.47a5.25,5.25,0,0,1,2.08.41,3.93,3.93,0,1,1,7.8-.84,3.36,3.36,0,0,1-.08.71,5.55,5.55,0,0,1,1.73-.28c2.11,0,3.82,1.11,3.82,2.47s-1.54,2.34-3.5,2.45h-12.27C1547.47,45.94,1546,44.91,1546,43.63Z"/></g><g class="cls-3"><path class="cls-4" d="M763.13,61.32H934.79a8.49,8.49,0,0,0,2.44-5.75c0-6.12-7.51-11.08-16.76-11.08a23.26,23.26,0,0,0-9,1.75C910.08,38.76,901.05,33,890.1,33a26.94,26.94,0,0,0-14.39,3.91C873.17,22,857,10.49,837.45,10.49c-17.93,0-33,9.65-37.35,22.73a26.91,26.91,0,0,0-3.52.4c-5.83,1.07-10.54,3.94-13.08,7.5a26.32,26.32,0,0,0-7.45,1C766,45,760,53,762.54,60A10.28,10.28,0,0,0,763.13,61.32Z"/><path class="cls-4" d="M712.32,87.33A13.36,13.36,0,0,0,699,74h-.15A16.65,16.65,0,0,0,675.22,61.1a29.14,29.14,0,0,0-54.42,0,20.29,20.29,0,0,0-5.09-.65,20.08,20.08,0,0,0-20.07,20.07c0,9,4.94,14.92,13.13,17.45h0a20.22,20.22,0,0,0,5.91.89h30.53c.59,0,1.18,0,1.78,0s1.18,0,1.77,0h48c.38,0,.77,0,1.16,0s.78,0,1.16,0h.09C706,98.26,712.32,94.28,712.32,87.33Z"/><path class="cls-4" d="M961.71,24.42a6.35,6.35,0,0,0-6.35-6.35h-.07A7.93,7.93,0,0,0,944.07,12a13.86,13.86,0,0,0-25.89,0,9.55,9.55,0,0,0-12,9.23c0,4.3,2.34,7.1,6.24,8.3h0a9.28,9.28,0,0,0,2.81.43H929.8l.84,0,.85,0h22.83l.56,0,.55,0h0C958.7,29.62,961.71,27.73,961.71,24.42Z"/><path class="cls-4" d="M713.55,52.34c0-1.36-1.71-2.46-3.82-2.46a5.43,5.43,0,0,0-2.08.4,3.93,3.93,0,1,0-7.8-.84,3.36,3.36,0,0,0,.08.71,5.55,5.55,0,0,0-1.73-.27c-2.11,0-3.82,1.1-3.82,2.46s1.54,2.34,3.5,2.45h12.27C712.06,54.65,713.55,53.62,713.55,52.34Z"/><path class="cls-4" d="M1011.76,54.24c0-4.27-5.36-7.73-12-7.73a16.78,16.78,0,0,0-6.53,1.27,11,11,0,0,0,.34-2.64c0-6.48-5.54-11.74-12.37-11.74s-12.37,5.26-12.37,11.74a11.06,11.06,0,0,0,.24,2.24,17.1,17.1,0,0,0-5.39-.87c-6.61,0-12,3.46-12,7.73,0,4,4.82,7.32,10.93,7.67v0h.3c.25,0,.48,0,.73,0s.48,0,.73,0h34.62c.24,0,.48,0,.73,0s.48,0,.73,0h.58v0C1007.09,61.46,1011.76,58.22,1011.76,54.24Z"/></g><path class="cls-2" d="M3947.81,89.82a15.36,15.36,0,0,0-15.36-15.36h-.17a19.15,19.15,0,0,0-27.13-14.8,33.5,33.5,0,0,0-62.56,0A23,23,0,0,0,3813.67,82c0,10.37,5.67,17.15,15.09,20.06h0a23.12,23.12,0,0,0,6.8,1h35.1c.68,0,1.35.07,2,.07s1.36,0,2-.07h55.19c.44,0,.89.07,1.34.07s.9,0,1.34-.07h.1C3940.52,102.39,3947.81,97.82,3947.81,89.82Z"/><g class="cls-3"><path class="cls-4" d="M3946.62,61.32H4098.5a9.1,9.1,0,0,0,2.16-5.75c0-6.12-6.65-11.08-14.84-11.08a18.51,18.51,0,0,0-8,1.75C4076.64,38.76,4068.65,33,4059,33a21.83,21.83,0,0,0-12.73,3.91C4044,22,4029.68,10.49,4012.37,10.49c-15.87,0-29.2,9.65-33,22.73a21.19,21.19,0,0,0-3.11.4,17.89,17.89,0,0,0-11.57,7.5,20.84,20.84,0,0,0-6.6,1C3949.18,45,3943.83,53,3946.09,60A11.57,11.57,0,0,0,3946.62,61.32Z"/><circle class="cls-4" cx="4062.2" cy="16.99" r="6.83"/><path class="cls-4" d="M3962.76,27.15a4,4,0,0,0-4-4l-.11,0h-7.77l-.12,0-.11,0h-.12a4,4,0,0,0,0,8v0h8.35A4,4,0,0,0,3962.76,27.15Z"/></g><g class="cls-3"><path class="cls-4" d="M5017.67,71.27h151.88a9.1,9.1,0,0,0,2.16-5.75c0-6.12-6.64-11.08-14.84-11.08a18.51,18.51,0,0,0-8,1.75c-1.22-7.48-9.21-13.25-18.91-13.25a21.9,21.9,0,0,0-12.73,3.9c-2.24-14.9-16.54-26.4-33.85-26.4-15.86,0-29.2,9.65-33.05,22.73a19.92,19.92,0,0,0-3.11.4,17.88,17.88,0,0,0-11.57,7.5,20.84,20.84,0,0,0-6.6,1C5020.23,55,5014.88,63,5017.14,70A11.57,11.57,0,0,0,5017.67,71.27Z"/><circle class="cls-4" cx="5133.25" cy="26.94" r="6.83"/><path class="cls-4" d="M5033.81,37.1a4,4,0,0,0-4-4h-8.23v0a4,4,0,0,0,0,7.95v0h8.35A4,4,0,0,0,5033.81,37.1Z"/></g><g class="cls-3"><path class="cls-4" d="M5374.28,81.11a15.36,15.36,0,0,1,15.35-15.36h.18A19.16,19.16,0,0,1,5416.93,51a33.5,33.5,0,0,1,62.56,0,23.59,23.59,0,0,1,5.86-.75,23.07,23.07,0,0,1,23.07,23.08c0,10.37-5.67,17.15-15.09,20.06h0a23.12,23.12,0,0,1-6.8,1h-35.1c-.68,0-1.36.07-2,.07s-1.37,0-2-.07h-55.19c-.45,0-.89.07-1.34.07s-.9,0-1.34-.07h-.1C5381.56,93.68,5374.28,89.11,5374.28,81.11Z"/><path class="cls-4" d="M5357.71,43.63c0-1.36,1.71-2.47,3.82-2.47a5.25,5.25,0,0,1,2.08.41,3.93,3.93,0,1,1,7.8-.84,3.36,3.36,0,0,1-.08.71,5.55,5.55,0,0,1,1.73-.28c2.11,0,3.82,1.11,3.82,2.47s-1.54,2.34-3.5,2.45h-12.27C5359.2,45.94,5357.71,44.91,5357.71,43.63Z"/></g><g class="cls-3"><path class="cls-4" d="M4574.87,61.32h171.65a8.49,8.49,0,0,0,2.44-5.75c0-6.12-7.5-11.08-16.76-11.08a23.26,23.26,0,0,0-9,1.75c-1.38-7.48-10.41-13.25-21.36-13.25a27,27,0,0,0-14.39,3.91c-2.54-14.91-18.7-26.41-38.26-26.41-17.93,0-33,9.65-37.35,22.73a26.91,26.91,0,0,0-3.52.4c-5.83,1.07-10.54,3.94-13.08,7.5a26.32,26.32,0,0,0-7.45,1C4577.76,45,4571.71,53,4574.27,60A9.1,9.1,0,0,0,4574.87,61.32Z"/><path class="cls-4" d="M4524.05,87.33A13.36,13.36,0,0,0,4510.69,74h-.15A16.65,16.65,0,0,0,4487,61.1a29.14,29.14,0,0,0-54.42,0,20.29,20.29,0,0,0-5.09-.65,20.08,20.08,0,0,0-20.07,20.07c0,9,4.94,14.92,13.13,17.45h0a20.22,20.22,0,0,0,5.91.89H4457c.59,0,1.18,0,1.78,0s1.18,0,1.77,0h48c.38,0,.77,0,1.16,0s.78,0,1.16,0h.09C4517.71,98.26,4524.05,94.28,4524.05,87.33Z"/><path class="cls-4" d="M4773.44,24.42a6.35,6.35,0,0,0-6.35-6.35H4767A7.93,7.93,0,0,0,4755.8,12a13.86,13.86,0,0,0-25.89,0,9.55,9.55,0,0,0-12,9.23c0,4.3,2.34,7.1,6.24,8.3h0a9.28,9.28,0,0,0,2.81.43h14.52l.84,0,.85,0h22.83l.56,0,.55,0h0C4770.43,29.62,4773.44,27.73,4773.44,24.42Z"/><path class="cls-4" d="M4525.28,52.34c0-1.36-1.71-2.46-3.82-2.46a5.43,5.43,0,0,0-2.08.4,3.93,3.93,0,1,0-7.8-.84,3.36,3.36,0,0,0,.08.71,5.54,5.54,0,0,0-1.72-.27c-2.11,0-3.83,1.1-3.83,2.46s1.54,2.34,3.5,2.45h12.27C4523.79,54.65,4525.28,53.62,4525.28,52.34Z"/><path class="cls-4" d="M4823.49,54.24c0-4.27-5.36-7.73-12-7.73a16.78,16.78,0,0,0-6.53,1.27,11,11,0,0,0,.34-2.64c0-6.48-5.53-11.74-12.37-11.74s-12.37,5.26-12.37,11.74a11.06,11.06,0,0,0,.24,2.24,17.1,17.1,0,0,0-5.39-.87c-6.61,0-12,3.46-12,7.73,0,4,4.82,7.32,10.93,7.67v0h.3c.25,0,.48,0,.73,0s.48,0,.73,0h34.62c.24,0,.48,0,.73,0s.48,0,.73,0h.58v0C4818.82,61.46,4823.49,58.22,4823.49,54.24Z"/></g><path class="cls-2" d="M5852.58,89.82a15.36,15.36,0,0,0-15.35-15.36h-.18a19.14,19.14,0,0,0-27.12-14.8,33.5,33.5,0,0,0-62.56,0A23.06,23.06,0,0,0,5718.44,82c0,10.37,5.67,17.15,15.09,20.06h0a23.12,23.12,0,0,0,6.8,1h35.1c.68,0,1.36.07,2,.07s1.37,0,2-.07h55.2c.44,0,.88.07,1.33.07s.9,0,1.34-.07h.1C5845.3,102.39,5852.58,97.82,5852.58,89.82Z"/><g class="cls-3"><path class="cls-4" d="M5851.39,61.32h151.88a9,9,0,0,0,2.16-5.75c0-6.12-6.64-11.08-14.83-11.08a18.52,18.52,0,0,0-8,1.75c-1.22-7.48-9.21-13.25-18.9-13.25A21.86,21.86,0,0,0,5951,36.9c-2.24-14.91-16.53-26.41-33.85-26.41-15.86,0-29.2,9.65-33,22.73a20.85,20.85,0,0,0-3.11.4,17.91,17.91,0,0,0-11.58,7.5,20.78,20.78,0,0,0-6.59,1C5854,45,5848.6,53,5850.86,60A11.57,11.57,0,0,0,5851.39,61.32Z"/><circle class="cls-4" cx="5966.98" cy="16.99" r="6.83"/><path class="cls-4" d="M5867.54,27.15a4,4,0,0,0-4-4l-.12,0h-7.76l-.12,0-.12,0h-.12a4,4,0,0,0,0,8v0h8.35A4,4,0,0,0,5867.54,27.15Z"/></g><g class="cls-3"><path class="cls-4" d="M6922.44,71.27h151.88a9,9,0,0,0,2.16-5.75c0-6.12-6.64-11.08-14.83-11.08a18.52,18.52,0,0,0-8,1.75c-1.22-7.48-9.21-13.25-18.9-13.25a21.93,21.93,0,0,0-12.74,3.9c-2.24-14.9-16.53-26.4-33.85-26.4-15.86,0-29.2,9.65-33,22.73a19.92,19.92,0,0,0-3.11.4,17.88,17.88,0,0,0-11.58,7.5,20.78,20.78,0,0,0-6.59,1C6925,55,6919.65,63,6921.91,70A11.57,11.57,0,0,0,6922.44,71.27Z"/><circle class="cls-4" cx="7038.03" cy="26.94" r="6.83"/><path class="cls-4" d="M6938.59,37.1a4,4,0,0,0-4-4h-8.24v0a4,4,0,0,0,0,7.95v0h8.35A4,4,0,0,0,6938.59,37.1Z"/></g><g class="cls-3"><path class="cls-4" d="M7279.05,81.11a15.36,15.36,0,0,1,15.36-15.36h.17A19.17,19.17,0,0,1,7321.71,51a33.5,33.5,0,0,1,62.56,0,23.51,23.51,0,0,1,5.85-.75,23.07,23.07,0,0,1,23.07,23.08c0,10.37-5.67,17.15-15.09,20.06h0a23.1,23.1,0,0,1-6.79,1h-35.11c-.67,0-1.35.07-2,.07s-1.36,0-2-.07h-55.19c-.44,0-.89.07-1.34.07s-.89,0-1.34-.07h-.1C7286.34,93.68,7279.05,89.11,7279.05,81.11Z"/><path class="cls-4" d="M7262.48,43.63c0-1.36,1.71-2.47,3.82-2.47a5.3,5.3,0,0,1,2.09.41,3.34,3.34,0,0,1-.11-.84,4,4,0,0,1,7.9,0,3.35,3.35,0,0,1-.07.71,5.54,5.54,0,0,1,1.72-.28c2.11,0,3.82,1.11,3.82,2.47s-1.54,2.34-3.49,2.45h-12.27C7264,45.94,7262.48,44.91,7262.48,43.63Z"/></g><g class="cls-3"><path class="cls-4" d="M6479.64,61.32h171.65a8.45,8.45,0,0,0,2.44-5.75c0-6.12-7.5-11.08-16.76-11.08a23.21,23.21,0,0,0-9,1.75C6626.59,38.76,6617.56,33,6606.6,33a27,27,0,0,0-14.39,3.91C6589.68,22,6573.52,10.49,6554,10.49c-17.93,0-33,9.65-37.35,22.73a26.77,26.77,0,0,0-3.51.4c-5.83,1.07-10.54,3.94-13.08,7.5a26.38,26.38,0,0,0-7.46,1C6482.53,45,6476.48,53,6479,60A10.33,10.33,0,0,0,6479.64,61.32Z"/><path class="cls-4" d="M6428.82,87.33A13.36,13.36,0,0,0,6415.46,74h-.15a16.65,16.65,0,0,0-23.59-12.88,29.13,29.13,0,0,0-54.41,0,20.34,20.34,0,0,0-5.09-.65,20.07,20.07,0,0,0-20.07,20.07c0,9,4.93,14.92,13.13,17.45h0a20.27,20.27,0,0,0,5.91.89h30.54c.58,0,1.18,0,1.77,0s1.19,0,1.78,0h48c.38,0,.77,0,1.16,0s.78,0,1.17,0h.08C6422.48,98.26,6428.82,94.28,6428.82,87.33Z"/><path class="cls-4" d="M6678.22,24.42a6.36,6.36,0,0,0-6.35-6.35h-.08A7.93,7.93,0,0,0,6660.57,12a13.86,13.86,0,0,0-25.88,0,9.73,9.73,0,0,0-2.42-.31,9.54,9.54,0,0,0-9.55,9.54c0,4.3,2.35,7.1,6.25,8.3h0a9.33,9.33,0,0,0,2.81.43h14.52l.85,0,.84,0h22.84l.55,0,.55,0h0C6675.2,29.62,6678.22,27.73,6678.22,24.42Z"/><path class="cls-4" d="M6430.06,52.34c0-1.36-1.71-2.46-3.82-2.46a5.48,5.48,0,0,0-2.09.4,3.34,3.34,0,0,0,.11-.84,4,4,0,0,0-7.9,0,3.35,3.35,0,0,0,.07.71,5.54,5.54,0,0,0-1.72-.27c-2.11,0-3.82,1.1-3.82,2.46s1.54,2.34,3.49,2.45h12.27C6428.56,54.65,6430.06,53.62,6430.06,52.34Z"/><path class="cls-4" d="M6728.26,54.24c0-4.27-5.35-7.73-12-7.73a16.73,16.73,0,0,0-6.52,1.27,11.5,11.5,0,0,0,.34-2.64c0-6.48-5.54-11.74-12.37-11.74s-12.37,5.26-12.37,11.74a11.82,11.82,0,0,0,.23,2.24,17.06,17.06,0,0,0-5.39-.87c-6.6,0-12,3.46-12,7.73,0,4,4.82,7.32,10.94,7.67v0h.29c.25,0,.48,0,.73,0s.49,0,.73,0h34.62c.25,0,.48,0,.73,0s.49,0,.73,0h.58v0C6723.59,61.46,6728.26,58.22,6728.26,54.24Z"/></g><path class="cls-2" d="M7790.54,89.82a15.36,15.36,0,0,0-15.35-15.36H7775a19.14,19.14,0,0,0-27.12-14.8,33.5,33.5,0,0,0-62.56,0A23.06,23.06,0,0,0,7656.4,82c0,10.37,5.67,17.15,15.09,20.06h0a23.12,23.12,0,0,0,6.8,1h35.1c.68,0,1.36.07,2,.07s1.37,0,2-.07h55.19c.45,0,.89.07,1.34.07s.9,0,1.34-.07h.1C7783.26,102.39,7790.54,97.82,7790.54,89.82Z"/><g class="cls-3"><path class="cls-4" d="M7789.35,61.32h151.88a9.1,9.1,0,0,0,2.16-5.75c0-6.12-6.64-11.08-14.84-11.08a18.51,18.51,0,0,0-8,1.75c-1.22-7.48-9.21-13.25-18.91-13.25A21.83,21.83,0,0,0,7889,36.9c-2.24-14.91-16.54-26.41-33.85-26.41-15.86,0-29.2,9.65-33,22.73a20.85,20.85,0,0,0-3.11.4,17.91,17.91,0,0,0-11.58,7.5,20.78,20.78,0,0,0-6.59,1c-8.87,2.86-14.22,10.86-12,17.87A11.57,11.57,0,0,0,7789.35,61.32Z"/><circle class="cls-4" cx="7904.93" cy="16.99" r="6.83"/><path class="cls-4" d="M7805.5,27.15a4,4,0,0,0-4-4l-.12,0h-7.77l-.11,0-.12,0h-.12a4,4,0,0,0,0,8v0h8.35A4,4,0,0,0,7805.5,27.15Z"/></g><g class="cls-3"><path class="cls-4" d="M8860.4,71.27h151.88a9,9,0,0,0,2.16-5.75c0-6.12-6.64-11.08-14.83-11.08a18.52,18.52,0,0,0-8,1.75c-1.22-7.48-9.21-13.25-18.91-13.25a21.92,21.92,0,0,0-12.73,3.9c-2.24-14.9-16.53-26.4-33.85-26.4-15.86,0-29.2,9.65-33,22.73a19.62,19.62,0,0,0-3.11.4,17.88,17.88,0,0,0-11.58,7.5,20.78,20.78,0,0,0-6.59,1C8863,55,8857.61,63,8859.87,70A11.57,11.57,0,0,0,8860.4,71.27Z"/><circle class="cls-4" cx="8975.98" cy="26.94" r="6.83"/><path class="cls-4" d="M8876.55,37.1a4,4,0,0,0-4-4h-8.24v0a4,4,0,0,0,0,7.95v0h8.35A4,4,0,0,0,8876.55,37.1Z"/></g><g class="cls-3"><path class="cls-4" d="M9217,81.11a15.36,15.36,0,0,1,15.36-15.36h.17A19.17,19.17,0,0,1,9259.67,51a33.5,33.5,0,0,1,62.56,0,23.51,23.51,0,0,1,5.85-.75,23.07,23.07,0,0,1,23.07,23.08c0,10.37-5.67,17.15-15.09,20.06h0a23.12,23.12,0,0,1-6.8,1h-35.1c-.68,0-1.35.07-2,.07s-1.36,0-2-.07h-55.19c-.44,0-.89.07-1.34.07s-.9,0-1.34-.07h-.1C9224.3,93.68,9217,89.11,9217,81.11Z"/><path class="cls-4" d="M9200.44,43.63c0-1.36,1.71-2.47,3.82-2.47a5.3,5.3,0,0,1,2.09.41,3.34,3.34,0,0,1-.11-.84,4,4,0,0,1,7.9,0,4.17,4.17,0,0,1-.07.71,5.54,5.54,0,0,1,1.72-.28c2.11,0,3.82,1.11,3.82,2.47s-1.54,2.34-3.49,2.45h-12.28C9201.93,45.94,9200.44,44.91,9200.44,43.63Z"/></g><g class="cls-3"><path class="cls-4" d="M8417.6,61.32h171.65a8.45,8.45,0,0,0,2.44-5.75c0-6.12-7.5-11.08-16.76-11.08a23.3,23.3,0,0,0-9,1.75c-1.37-7.48-10.4-13.25-21.36-13.25a27,27,0,0,0-14.39,3.91c-2.53-14.91-18.69-26.41-38.26-26.41-17.93,0-33,9.65-37.35,22.73a26.91,26.91,0,0,0-3.52.4c-5.83,1.07-10.53,3.94-13.08,7.5a26.32,26.32,0,0,0-7.45,1C8420.49,45,8414.44,53,8417,60A9.1,9.1,0,0,0,8417.6,61.32Z"/><path class="cls-4" d="M8366.78,87.33A13.36,13.36,0,0,0,8353.42,74h-.15a16.65,16.65,0,0,0-23.59-12.88,29.13,29.13,0,0,0-54.41,0,20.42,20.42,0,0,0-5.1-.65,20.07,20.07,0,0,0-20.06,20.07c0,9,4.93,14.92,13.12,17.45h0a20.27,20.27,0,0,0,5.91.89h30.54c.58,0,1.17,0,1.77,0s1.19,0,1.77,0h48c.38,0,.77,0,1.16,0s.78,0,1.17,0h.08C8360.44,98.26,8366.78,94.28,8366.78,87.33Z"/><path class="cls-4" d="M8616.18,24.42a6.36,6.36,0,0,0-6.36-6.35h-.07A7.93,7.93,0,0,0,8598.53,12a13.86,13.86,0,0,0-25.88,0,9.75,9.75,0,0,0-2.43-.31,9.54,9.54,0,0,0-9.54,9.54c0,4.3,2.35,7.1,6.24,8.3h0a9.33,9.33,0,0,0,2.81.43h14.52l.85,0,.84,0h22.83l.56,0,.55,0h0C8613.16,29.62,8616.18,27.73,8616.18,24.42Z"/><path class="cls-4" d="M8368,52.34c0-1.36-1.71-2.46-3.82-2.46a5.43,5.43,0,0,0-2.08.4,3.34,3.34,0,0,0,.11-.84,4,4,0,0,0-7.91,0,3.36,3.36,0,0,0,.08.71,5.54,5.54,0,0,0-1.72-.27c-2.11,0-3.82,1.1-3.82,2.46s1.54,2.34,3.49,2.45h12.27C8366.52,54.65,8368,53.62,8368,52.34Z"/><path class="cls-4" d="M8666.22,54.24c0-4.27-5.35-7.73-12-7.73a16.73,16.73,0,0,0-6.52,1.27,11.5,11.5,0,0,0,.34-2.64c0-6.48-5.54-11.74-12.37-11.74s-12.37,5.26-12.37,11.74a11.82,11.82,0,0,0,.23,2.24,17.06,17.06,0,0,0-5.39-.87c-6.6,0-12,3.46-12,7.73,0,4,4.82,7.32,10.94,7.67v0h.29c.25,0,.48,0,.73,0s.48,0,.73,0h34.62c.25,0,.48,0,.73,0s.48,0,.73,0h.58v0C8661.55,61.46,8666.22,58.22,8666.22,54.24Z"/></g><path class="cls-2" d="M3482.41,89.82a15.36,15.36,0,0,1,15.36-15.36h.17a19.15,19.15,0,0,1,27.13-14.8,33.5,33.5,0,0,1,62.56,0A23,23,0,0,1,3616.55,82c0,10.37-5.67,17.15-15.09,20.06h0a23.12,23.12,0,0,1-6.8,1h-35.1c-.68,0-1.35.07-2,.07s-1.36,0-2-.07h-55.19c-.44,0-.89.07-1.34.07s-.9,0-1.34-.07h-.1C3489.7,102.39,3482.41,97.82,3482.41,89.82Z"/><g class="cls-3"><path class="cls-4" d="M3483.6,61.32H3331.72a9.1,9.1,0,0,1-2.16-5.75c0-6.12,6.64-11.08,14.84-11.08a18.51,18.51,0,0,1,8,1.75c1.22-7.48,9.21-13.25,18.91-13.25A21.83,21.83,0,0,1,3384,36.9c2.24-14.91,16.54-26.41,33.85-26.41,15.86,0,29.2,9.65,33.05,22.73a21.19,21.19,0,0,1,3.11.4,17.91,17.91,0,0,1,11.57,7.5,20.84,20.84,0,0,1,6.6,1C3481,45,3486.39,53,3484.13,60A11.57,11.57,0,0,1,3483.6,61.32Z"/><circle class="cls-4" cx="3368.02" cy="16.99" r="6.83"/><path class="cls-4" d="M3467.46,27.15a4,4,0,0,1,4-4l.11,0h7.77l.12,0,.11,0h.12a4,4,0,0,1,0,8v0h-8.35A4,4,0,0,1,3467.46,27.15Z"/></g><g class="cls-3"><path class="cls-4" d="M2412.55,71.27H2260.67a9.1,9.1,0,0,1-2.16-5.75c0-6.12,6.64-11.08,14.84-11.08a18.51,18.51,0,0,1,8,1.75c1.22-7.48,9.21-13.25,18.91-13.25a21.9,21.9,0,0,1,12.73,3.9c2.24-14.9,16.54-26.4,33.85-26.4,15.86,0,29.2,9.65,33,22.73a19.92,19.92,0,0,1,3.11.4,17.88,17.88,0,0,1,11.57,7.5,20.84,20.84,0,0,1,6.6,1C2410,55,2415.34,63,2413.08,70A11.57,11.57,0,0,1,2412.55,71.27Z"/><circle class="cls-4" cx="2296.97" cy="26.94" r="6.83"/><path class="cls-4" d="M2396.4,37.1a4,4,0,0,1,4-4h8.24v0a4,4,0,0,1,0,7.95v0h-8.35A4,4,0,0,1,2396.4,37.1Z"/></g><g class="cls-3"><path class="cls-4" d="M2055.94,81.11a15.36,15.36,0,0,0-15.35-15.36h-.18A19.16,19.16,0,0,0,2013.29,51a33.5,33.5,0,0,0-62.56,0,23.59,23.59,0,0,0-5.86-.75,23.07,23.07,0,0,0-23.07,23.08c0,10.37,5.67,17.15,15.09,20.06h0a23.12,23.12,0,0,0,6.8,1h35.1c.68,0,1.36.07,2,.07s1.37,0,2-.07h55.19c.45,0,.89.07,1.34.07s.9,0,1.34-.07h.1C2048.66,93.68,2055.94,89.11,2055.94,81.11Z"/><path class="cls-4" d="M2072.51,43.63c0-1.36-1.71-2.47-3.82-2.47a5.25,5.25,0,0,0-2.08.41,3.93,3.93,0,1,0-7.8-.84,3.36,3.36,0,0,0,.08.71,5.55,5.55,0,0,0-1.73-.28c-2.11,0-3.82,1.11-3.82,2.47s1.54,2.34,3.5,2.45h12.27C2071,45.94,2072.51,44.91,2072.51,43.63Z"/></g><g class="cls-3"><path class="cls-4" d="M2855.35,61.32H2683.7a8.49,8.49,0,0,1-2.44-5.75c0-6.12,7.5-11.08,16.76-11.08a23.26,23.26,0,0,1,9,1.75c1.38-7.48,10.4-13.25,21.36-13.25a27,27,0,0,1,14.39,3.91c2.54-14.91,18.69-26.41,38.26-26.41,17.93,0,33,9.65,37.35,22.73a26.91,26.91,0,0,1,3.52.4c5.83,1.07,10.53,3.94,13.08,7.5a26.32,26.32,0,0,1,7.45,1C2852.46,45,2858.51,53,2856,60A9.1,9.1,0,0,1,2855.35,61.32Z"/><path class="cls-4" d="M2906.17,87.33A13.36,13.36,0,0,1,2919.53,74h.15a16.65,16.65,0,0,1,23.59-12.88,29.14,29.14,0,0,1,54.42,0,20.29,20.29,0,0,1,5.09-.65,20.08,20.08,0,0,1,20.07,20.07c0,9-4.94,14.92-13.13,17.45h0a20.22,20.22,0,0,1-5.91.89h-30.53c-.59,0-1.18,0-1.78,0s-1.18,0-1.77,0h-48c-.38,0-.77,0-1.16,0s-.78,0-1.16,0h-.09C2912.51,98.26,2906.17,94.28,2906.17,87.33Z"/><path class="cls-4" d="M2656.77,24.42a6.36,6.36,0,0,1,6.36-6.35h.07A7.93,7.93,0,0,1,2674.42,12a13.86,13.86,0,0,1,25.89,0,9.55,9.55,0,0,1,12,9.23c0,4.3-2.34,7.1-6.24,8.3h0a9.28,9.28,0,0,1-2.81.43h-14.52l-.84,0-.85,0h-22.83l-.56,0-.55,0h0C2659.79,29.62,2656.77,27.73,2656.77,24.42Z"/><path class="cls-4" d="M2904.94,52.34c0-1.36,1.71-2.46,3.82-2.46a5.43,5.43,0,0,1,2.08.4,3.93,3.93,0,1,1,7.8-.84,3.36,3.36,0,0,1-.08.71,5.54,5.54,0,0,1,1.72-.27c2.11,0,3.82,1.1,3.82,2.46s-1.53,2.34-3.49,2.45h-12.27C2906.43,54.65,2904.94,53.62,2904.94,52.34Z"/><path class="cls-4" d="M2606.73,54.24c0-4.27,5.36-7.73,12-7.73a16.78,16.78,0,0,1,6.53,1.27,11,11,0,0,1-.34-2.64c0-6.48,5.53-11.74,12.37-11.74s12.37,5.26,12.37,11.74a11.06,11.06,0,0,1-.24,2.24,17.1,17.1,0,0,1,5.39-.87c6.6,0,12,3.46,12,7.73,0,4-4.82,7.32-10.93,7.67v0h-.3c-.25,0-.48,0-.73,0s-.48,0-.73,0h-34.62c-.24,0-.48,0-.73,0s-.48,0-.73,0h-.58v0C2611.4,61.46,2606.73,58.22,2606.73,54.24Z"/></g></g></svg>