<svg xmlns="http://www.w3.org/2000/svg" viewBox="0 0 100 100"><defs><style>.cls-1,.cls-2{fill:none;}.cls-1,.cls-2,.cls-3{stroke:#000;}.cls-1{stroke-linejoin:round;}.cls-2,.cls-3{stroke-miterlimit:10;}.cls-3{fill:#fff;}</style></defs><title>community_icon</title><g id="자랑하기"><circle class="cls-1" cx="31.64" cy="65.55" r="5.89"/><circle class="cls-1" cx="31.64" cy="65.55" r="3.78"/><circle class="cls-1" cx="86.16" cy="65.55" r="3.78"/><circle class="cls-1" cx="86.16" cy="65.55" r="5.89"/><path class="cls-1" d="M48.93,64H68.7V40.91l18.67.65s.72,0,1.52,0a9.23,9.23,0,0,0,2-.13,2.86,2.86,0,0,0,1.94-1.76c1-4.34-3-7.95-6.71-9.37A17.81,17.81,0,0,0,84,29.67,26.94,26.94,0,0,0,77.39,29c-1,0-2.06,0-3.19,0s-2.33.17-3.6.34L48.28,31.84l-30.14.86-11.22.13s-1.81-.13-2,1.51V64H26"/><line class="cls-1" x1="37.31" y1="63.96" x2="39.85" y2="63.96"/><polyline class="cls-1" points="6.83 63.96 6.83 65.77 18.01 65.77 21.32 67.23 25.99 67.23"/><polyline class="cls-1" points="37.29 67.23 68.23 67.23 68.23 66.51 68.23 63.96"/><line class="cls-1" x1="68.23" y1="66.5" x2="80.36" y2="66.5"/><path class="cls-1" d="M92,66.5h3.55s.09-4.9,0-5.89A2.54,2.54,0,0,0,94.76,59a4.71,4.71,0,0,0-.82-2.2,5.58,5.58,0,0,0-.73-.9c-1.55-1.81-4.08-2.32-6.15-3.31a9.28,9.28,0,0,1-1.29-.76,11.82,11.82,0,0,1-1.16-1c-2.08-2-3.71-4.46-6-6.22a12.26,12.26,0,0,0-1.46-1,12.78,12.78,0,0,0-1.35-.49c-2.21-.66-4.26-.78-7.09-1.38h0"/><path class="cls-1" d="M83.15,51.53,78.59,46.2a5,5,0,0,0-2.79-1.67l-7.1-1.34H59.07a.52.52,0,0,0-.51.52v8.77a.52.52,0,0,0,.51.52H83.15s1.46.08.82-.61Z"/><path class="cls-1" d="M90.07,38.42l-16.72-.73-3.94-5s-.71-.88.8-1.14c0,0,7-1.5,11.35-.39,0,0,5.93.91,8.51,4.69,0,0,1.16,1.76.61,2.41C90.68,38.25,90.59,38.46,90.07,38.42Z"/><path class="cls-1" d="M93.21,55.92H91.49l1.29,2.32a1.44,1.44,0,0,0,1.16.73l.82.05"/><rect class="cls-1" x="40.07" y="41.69" width="9" height="23" rx="1" ry="1"/><rect class="cls-1" x="8.07" y="35.69" width="11" height="8" rx="1" ry="1"/><line class="cls-2" x1="50.07" y1="8.17" x2="50.07" y2="17.17"/><line class="cls-2" x1="41.07" y1="12.17" x2="44.07" y2="17.17"/><line class="cls-2" x1="58.07" y1="12.17" x2="55.07" y2="17.17"/><circle class="cls-3" cx="49.92" cy="28.59" r="6.92"/><path class="cls-3" d="M69.39,27.12a3.58,3.58,0,0,0-2.52-3.58c-2.94-1.29-4.58,1.65-4.58,1.65S55.67,37,53.44,38.85a4.11,4.11,0,0,1-7,0C44.17,37,37.55,25.19,37.55,25.19S35.9,22.25,33,23.54a3.58,3.58,0,0,0-2.52,3.58s-.23,1.76,3.28,4.69c0,0,12.2,13.14,12.79,15.48,0,0,2.11,3.05.82,10.44L45.81,73a4.3,4.3,0,0,0,2,4.22,4.13,4.13,0,0,0,4.22,0A4.3,4.3,0,0,0,54,73L52.5,57.73c-1.29-7.39.82-10.44.82-10.44C53.91,45,66.1,31.81,66.1,31.81,69.62,28.88,69.39,27.12,69.39,27.12Z"/></g></svg>