<svg xmlns="http://www.w3.org/2000/svg" viewBox="0 0 130 135">
  <defs>
    <style>
      .cls-1 {
        fill: rgba(255,255,255,1);
      }
    </style>
  </defs>
  <title>community</title>
  <g id="community"><path class="cls-1" d="M65.53,52a7.67,7.67,0,1,1,7.66-7.67A7.68,7.68,0,0,1,65.53,52Z"/><path d="M65.53,37.16a7.17,7.17,0,1,1-7.17,7.17,7.18,7.18,0,0,1,7.17-7.17m0-1a8.17,8.17,0,1,0,8.17,8.17,8.17,8.17,0,0,0-8.17-8.17Z"/><path
    class="cls-1"
    d="M65.53,101.91a4.16,4.16,0,0,1-2.21-.6,4.63,4.63,0,0,1-2.15-4.49l1.81-18c1.43-8.22-.64-12-1-12.59-.94-3-13.72-16.82-15.18-18.4C42.93,44.58,43,42.67,43,42.65a3.77,3.77,0,0,1,2.6-3.79,4.13,4.13,0,0,1,1.6-.37,4.19,4.19,0,0,1,3.24,2.07c.32.57,7.78,13.81,10.51,16.21A5.65,5.65,0,0,0,65.5,59.3a5.72,5.72,0,0,0,4.57-2.53c2.72-2.4,10.18-15.64,10.5-16.21a4.21,4.21,0,0,1,3.24-2.07,3.77,3.77,0,0,1,1.52.35A3.73,3.73,0,0,1,88,42.6c0,.07.11,2-3.7,5.15C82.8,49.38,70,63.2,69.08,66.2c-.36.59-2.44,4.37-1,12.62l1.79,18a4.53,4.53,0,0,1-2.11,4.51A4.1,4.1,0,0,1,65.53,101.91Z"/><path
    d="M83.81,39a3.31,3.31,0,0,1,1.32.3l.08,0,.07,0a3.2,3.2,0,0,1,2.23,3.26l0,0,0,.09c0,.22-.22,1.92-3.52,4.66l0,0,0,.05C81.51,50,69.76,62.79,68.63,66c-.48.8-2.46,4.74-1,12.88l1.8,18v.07a4.08,4.08,0,0,1-1.9,4l0,0h0a3.79,3.79,0,0,1-1.92.51,3.65,3.65,0,0,1-1.91-.51h0l0,0a4.05,4.05,0,0,1-1.89-4v-.08l1.79-18c1.42-8.14-.57-12.08-1-12.88-1.14-3.2-12.89-16-15.28-18.53l0-.05,0,0c-3.23-2.7-3.5-4.38-3.52-4.65h0V42.6a3.18,3.18,0,0,1,2.23-3.25l.08,0,.07,0a3.31,3.31,0,0,1,1.32-.3,3.69,3.69,0,0,1,2.81,1.82c.8,1.41,7.77,13.75,10.55,16.29a6.21,6.21,0,0,0,4.88,2.7h.09a6.19,6.19,0,0,0,4.88-2.7C73.23,54.56,80.21,42.22,81,40.8A3.71,3.71,0,0,1,83.81,39m0-1a4.69,4.69,0,0,0-3.68,2.33S72.31,54.23,69.68,56.45a4.85,4.85,0,0,1-8.31,0c-2.63-2.22-10.45-16.13-10.45-16.13A4.67,4.67,0,0,0,47.24,38a4.16,4.16,0,0,0-1.72.39,4.22,4.22,0,0,0-3,4.22s-.27,2.08,3.88,5.54c0,0,14.4,15.5,15.09,18.27,0,0,2.49,3.6,1,12.33l-1.8,18a5.1,5.1,0,0,0,2.35,5,4.86,4.86,0,0,0,5,0,5.07,5.07,0,0,0,2.35-5l-1.8-18c-1.52-8.73,1-12.33,1-12.33.69-2.77,15.09-18.27,15.09-18.27,4.16-3.46,3.88-5.54,3.88-5.54a4.22,4.22,0,0,0-3-4.22A4.16,4.16,0,0,0,83.81,38Z"/><path class="cls-1" d="M33,62.53a7.67,7.67,0,0,1-4.53-13.86A7.57,7.57,0,0,1,33,47.19a7.67,7.67,0,0,1,4.53,13.86A7.57,7.57,0,0,1,33,62.53Z"/><path d="M33,47.69h0a7.17,7.17,0,0,1,4.24,13A7.1,7.1,0,0,1,33,62a7.17,7.17,0,1,1,0-14.34m0-1a8.08,8.08,0,0,0-4.82,1.58A8.17,8.17,0,1,0,33,46.69Z"/><path
    class="cls-1"
    d="M64.45,102.16a4.54,4.54,0,0,1-4-2.37l-9.2-15.62c-3.69-7.48-7.6-9.3-8.24-9.56-2.53-1.87-21-5.48-23.12-5.89-5-.32-6-1.92-6.06-1.94a3.76,3.76,0,0,1-.14-4.6,3.37,3.37,0,0,1,3.06-1.85,4.82,4.82,0,0,1,1.85.37c.59.27,14.43,6.55,18,6.88a5.35,5.35,0,0,0,2,.35A5.27,5.27,0,0,0,44,62.22c.78-3.55-1-18.64-1.09-19.29,0-.14-.37-3.5,2.82-4.2A3.78,3.78,0,0,1,47,38.51a3.72,3.72,0,0,1,3.1,1.68c0,.05,1.26,1.52.06,6.34-.27,2.2-2.42,20.9-1.4,23.88.05.69.61,5,6.64,10.78L67.49,94.62a4.55,4.55,0,0,1,1,4.89,4.29,4.29,0,0,1-3.56,2.63l-.43,0Z"/><path
    d="M47,39a3.22,3.22,0,0,1,2.69,1.47v0l.07.06c.12.19,1,1.68-.09,5.84v.12c-.41,3.49-2.36,20.72-1.38,24,.09.92.81,5.27,6.76,11L67.12,95l0,0,0,0A4.06,4.06,0,0,1,68,99.32l0,0v0a3.86,3.86,0,0,1-1.25,1.54,3.6,3.6,0,0,1-1.84.72h-.42a4.09,4.09,0,0,1-3.52-2.09v0l0,0L51.74,84c-3.66-7.41-7.59-9.42-8.45-9.78C40.49,72.25,23.47,68.9,20,68.23H19.9c-4.21-.27-5.41-1.47-5.59-1.68h0l-.07-.1a3.18,3.18,0,0,1-.12-3.94l.05-.06,0-.07a2.79,2.79,0,0,1,2.58-1.54,4.6,4.6,0,0,1,1.64.32c1.48.68,14.39,6.51,18.14,6.92a6.09,6.09,0,0,0,2.07.36,6.2,6.2,0,0,0,3.46-1.06l0,0,0,0a6.21,6.21,0,0,0,2.34-5.05c.74-3.69-.91-17.77-1.11-19.38,0-.32-.26-3.07,2.44-3.66l.08,0,.07,0A3.24,3.24,0,0,1,47,39m0-1a4.16,4.16,0,0,0-1.4.23c-3.69.81-3.21,4.75-3.21,4.75s1.9,15.85,1.09,19.19a4.78,4.78,0,0,1-4.87,5.25,4.77,4.77,0,0,1-1.83-.34c-3.43-.24-18-6.85-18-6.85a5.55,5.55,0,0,0-2.06-.41,3.81,3.81,0,0,0-3.45,2A4.22,4.22,0,0,0,13.43,67s1,1.84,6.4,2.18c0,0,20.78,4,23,5.84,0,0,4.14,1.43,8.06,9.37L60,100a5.09,5.09,0,0,0,4.41,2.65l.43,0a4.81,4.81,0,0,0,4-2.94,5.06,5.06,0,0,0-1-5.41L55.78,80.82c-6.38-6.13-6.5-10.51-6.5-10.51-1.07-2.64,1.39-23.66,1.39-23.66,1.31-5.25-.14-6.76-.14-6.76A4.19,4.19,0,0,0,47,38Z"/><path class="cls-1" d="M97.79,62.53a7.67,7.67,0,0,1-6.18-12.2,7.7,7.7,0,0,1,6.2-3.14A7.67,7.67,0,0,1,104,59.39a7.73,7.73,0,0,1-6.2,3.14Z"/><path d="M97.81,47.69a7.16,7.16,0,0,1,7.07,6.07,7,7,0,0,1-1.3,5.33A7.19,7.19,0,0,1,97.79,62a7.07,7.07,0,0,1-4.22-1.39,7.16,7.16,0,0,1,4.24-13m0-1a8.17,8.17,0,1,0,4.81,1.58,8.07,8.07,0,0,0-4.81-1.58Z"/><path
    class="cls-1"
    d="M66.36,102.16H66a4.36,4.36,0,0,1-3.59-2.61,4.58,4.58,0,0,1,.92-4.89L75.4,81.16C81.41,75.38,82,71.1,82,70.41c1-3-1.13-21.68-1.38-23.82-1.21-4.88,0-6.35,0-6.36a3.75,3.75,0,0,1,3.13-1.72A3.91,3.91,0,0,1,85,38.7c3.28.74,2.91,4.09,2.9,4.23-.08.65-1.88,15.74-1.1,19.29a5.64,5.64,0,0,0,2.15,4.7,5.7,5.7,0,0,0,3.23,1,5.45,5.45,0,0,0,2-.35c3.61-.33,17.45-6.61,18-6.88a4.8,4.8,0,0,1,1.84-.37,3.31,3.31,0,0,1,3,1.79,3.74,3.74,0,0,1-.06,4.62c0,.06-1.08,1.66-6,2-2.18.42-20.66,4-23.19,5.9-.64.26-4.55,2.08-8.26,9.59L70.34,99.76A4.61,4.61,0,0,1,66.36,102.16Z"/><path
    d="M83.77,39h0a3.24,3.24,0,0,1,1,.16h0l.07,0,.08,0c2.7.59,2.47,3.34,2.44,3.65-.19,1.62-1.85,15.7-1.1,19.39a6.15,6.15,0,0,0,2.34,5.05l0,0,0,0a6.24,6.24,0,0,0,3.47,1.06,6.07,6.07,0,0,0,2.06-.36c3.75-.41,16.66-6.24,18.14-6.92a4.66,4.66,0,0,1,1.64-.32,2.78,2.78,0,0,1,2.58,1.54l0,.07,0,.06a3.18,3.18,0,0,1-.13,3.94h0l0,.08c-.14.18-1.31,1.41-5.59,1.69h-.13c-3.44.67-20.46,4-23.27,5.94-.85.36-4.78,2.37-8.45,9.78L69.9,99.5v0l0,0a4.06,4.06,0,0,1-3.51,2.09h-.43a3.86,3.86,0,0,1-3.08-2.25h0v-.07A4,4,0,0,1,63.64,95l0,0,0,0L75.75,81.52c5.94-5.74,6.67-10.09,6.76-11,1-3.26-1-20.49-1.38-24v-.06l0-.06c-1-4.09-.24-5.6-.09-5.83h0l.07-.1A3.24,3.24,0,0,1,83.77,39m0-1a4.21,4.21,0,0,0-3.5,1.88s-1.45,1.51-.14,6.76c0,0,2.47,21,1.39,23.66,0,0-.12,4.38-6.49,10.51L62.94,94.29a5.08,5.08,0,0,0-1,5.41,4.81,4.81,0,0,0,4,2.94l.44,0A5.11,5.11,0,0,0,70.77,100l9.17-15.59C83.86,76.48,88,75.05,88,75.05c2.19-1.83,23-5.84,23-5.84,5.4-.34,6.4-2.18,6.4-2.18a4.22,4.22,0,0,0,.09-5.16,3.79,3.79,0,0,0-3.45-2,5.53,5.53,0,0,0-2.05.41s-14.53,6.61-18,6.85a4.84,4.84,0,0,1-1.83.34,4.79,4.79,0,0,1-4.88-5.25C86.48,58.84,88.38,43,88.38,43s.48-3.94-3.21-4.75a4.16,4.16,0,0,0-1.4-.23Z"/><rect class="cls-1" x="43.16" y="107.39" width="44.13" height="6.66" transform="translate(-34.77 30.01) rotate(-20.59)"/><path d="M84.41,100.49l2,5.3L46,121l-2-5.29,40.37-15.17M85,99.2,42.76,115.07l2.69,7.17,42.24-15.87L85,99.2Z"/><rect class="cls-1" x="61.89" y="88.66" width="6.66" height="44.13" transform="translate(-61.36 132.85) rotate(-69.41)"/><path d="M46,100.49,86.4,115.66l-2,5.29L44,105.79l2-5.3m-.58-1.29-2.69,7.17L85,122.24l2.69-7.17L45.45,99.2Z"/><path class="cls-1" d="M66,103.05A12.89,12.89,0,0,1,53.12,90.18C53.12,83.76,63.78,69,66,66c2.22,3,12.87,17.81,12.87,24.23A12.88,12.88,0,0,1,66,103.05Z"/><path d="M66,66.8c2.86,3.91,12.37,17.43,12.37,23.38a12.37,12.37,0,0,1-24.74,0c0-6,9.52-19.47,12.37-23.38m0-1.69S52.62,82.8,52.62,90.18a13.37,13.37,0,0,0,26.74,0C79.36,82.8,66,65.11,66,65.11Z"/><path class="cls-1" d="M66,102.22c-4.85,0-8.8-3.69-8.8-8.22,0-4,7-13.31,8.8-15.55C67.74,80.69,74.8,90,74.8,94,74.8,98.53,70.85,102.22,66,102.22Z"/><path d="M66,79.26C68.88,83,74.3,90.67,74.3,94c0,4.25-3.73,7.72-8.31,7.72s-8.3-3.47-8.3-7.72c0-3.33,5.42-11,8.3-14.74m0-1.61S56.69,89.18,56.69,94s4.17,8.72,9.3,8.72S75.3,98.81,75.3,94,66,77.65,66,77.65Z"/><path class="cls-1" d="M54.22,16.6a10,10,0,0,0-.95-1,4.9,4.9,0,0,0,1.1-1.08,4,4,0,0,0,1.1,1.1l-.18.15-.45.36a2.87,2.87,0,0,0-.53.58Z"/><path d="M54.36,15.31l.31.31-.15.12-.22.19L54,15.62l.33-.31m0-1.86a4.51,4.51,0,0,1-2,2.12,12.18,12.18,0,0,1,2,2,3.11,3.11,0,0,1,.76-1c.45-.35.75-.65,1.2-.95a3.83,3.83,0,0,1-2-2.12Z"/><path class="cls-1" d="M24.3,18a10,10,0,0,0-.95-1,4.75,4.75,0,0,0,1.11-1.08A3.92,3.92,0,0,0,25.55,17l-.18.15c-.14.12-.28.24-.45.36a2.87,2.87,0,0,0-.53.58Z"/><path d="M24.44,16.67c.1.1.2.21.32.31l-.16.12a1.9,1.9,0,0,0-.21.19c-.09-.1-.19-.2-.28-.31.11-.1.23-.2.33-.31m0-1.86a4.46,4.46,0,0,1-2,2.12,12.18,12.18,0,0,1,2,2,3.11,3.11,0,0,1,.76-1c.45-.35.75-.65,1.2-.95a3.86,3.86,0,0,1-2-2.12Z"/><path class="cls-1" d="M25.66,41.08a11.26,11.26,0,0,0-.95-1A4.38,4.38,0,0,0,25.82,39a3.68,3.68,0,0,0,1.09,1.1l-.18.15-.45.37a3.12,3.12,0,0,0-.53.57Z"/><path d="M25.8,39.78a3.14,3.14,0,0,0,.32.31l-.16.13a1.9,1.9,0,0,0-.21.19l-.28-.31a3.31,3.31,0,0,0,.33-.32m0-1.85a4.39,4.39,0,0,1-2,2.11,12.23,12.23,0,0,1,2,2,3.11,3.11,0,0,1,.76-1c.45-.35.75-.65,1.2-1a3.81,3.81,0,0,1-2-2.11Z"/><path class="cls-1" d="M76,27.48a11.26,11.26,0,0,0-1-1,4.66,4.66,0,0,0,1.1-1.07,3.81,3.81,0,0,0,1.1,1.09l-.19.16c-.13.11-.28.24-.44.36a2.93,2.93,0,0,0-.54.58A.39.39,0,0,0,76,27.48Z"/><path d="M76.12,26.19c.1.1.2.21.31.31a1.58,1.58,0,0,0-.15.12l-.22.19-.28-.31.34-.31m0-1.86a4.44,4.44,0,0,1-2,2.12,11.35,11.35,0,0,1,2,2,3.28,3.28,0,0,1,.76-1c.45-.35.76-.65,1.21-.95a3.88,3.88,0,0,1-2-2.12Z"/><path class="cls-1" d="M103.18,38.36a12.9,12.9,0,0,0-1-1,4.51,4.51,0,0,0,1.1-1.08,3.72,3.72,0,0,0,1.1,1.1l-.19.16-.44.36a2.87,2.87,0,0,0-.54.57Z"/><path d="M103.32,37.06a3,3,0,0,0,.31.31l-.15.13-.22.19c-.09-.1-.18-.21-.28-.31a3.4,3.4,0,0,0,.34-.32m0-1.85a4.37,4.37,0,0,1-2,2.11,12.16,12.16,0,0,1,2,2,3.28,3.28,0,0,1,.76-1c.45-.35.75-.65,1.21-1a3.83,3.83,0,0,1-2-2.11Z"/><path class="cls-1" d="M107.26,20.68a11.26,11.26,0,0,0-1-1,4.9,4.9,0,0,0,1.1-1.08,4,4,0,0,0,1.1,1.1l-.18.15-.45.36a2.66,2.66,0,0,0-.54.58Z"/><path d="M107.4,19.39c.09.1.2.21.31.31l-.15.12-.22.19-.28-.31.34-.31m0-1.86a4.49,4.49,0,0,1-2,2.12,11.72,11.72,0,0,1,2,2,3.28,3.28,0,0,1,.76-1c.45-.35.75-.65,1.21-1a3.88,3.88,0,0,1-2-2.12Z"/><path class="cls-1" d="M48.78,27.48a11.26,11.26,0,0,0-1-1,4.48,4.48,0,0,0,1.1-1.07A3.94,3.94,0,0,0,50,26.48l-.18.16L49.4,27a2.87,2.87,0,0,0-.53.58Z"/><path d="M48.92,26.19l.31.31-.15.12-.22.19-.27-.31.33-.31m0-1.86a4.51,4.51,0,0,1-2,2.12,11.79,11.79,0,0,1,2,2,3.11,3.11,0,0,1,.76-1c.45-.35.75-.65,1.2-.95a3.83,3.83,0,0,1-2-2.12Z"/><path class="cls-1" d="M89.58,15.24a10,10,0,0,0-1-1,4.9,4.9,0,0,0,1.1-1.08,3.81,3.81,0,0,0,1.1,1.09l-.18.16-.45.36a2.66,2.66,0,0,0-.54.58Z"/><path d="M89.72,14l.31.31-.15.12-.22.19-.28-.31.34-.31m0-1.86a4.44,4.44,0,0,1-2,2.12,11.72,11.72,0,0,1,2,2,3.28,3.28,0,0,1,.76-1c.45-.35.75-.65,1.21-.95a3.88,3.88,0,0,1-2-2.12Z"/></g>
</svg>
