<svg xmlns="http://www.w3.org/2000/svg" viewBox="0 0 45 45"><title>facilities icons</title><g id="가스랜즈"><path d="M14.69,33.7a1.44,1.44,0,1,0-1.44-1.44A1.43,1.43,0,0,0,14.69,33.7Zm0-2a.54.54,0,0,1,.54.54.54.54,0,0,1-.54.54.54.54,0,0,1-.54-.54A.55.55,0,0,1,14.69,31.72Z"/><path d="M33.67,32.78H37.8a.45.45,0,0,0,0-.9H33.67a.45.45,0,0,0,0,.9Z"/><path d="M38.25,21.45H36.51a5.27,5.27,0,0,0-4.8-4.87V15.07a.45.45,0,0,0-.45-.45.45.45,0,0,0-.45.45v1.51A5.27,5.27,0,0,0,26,21.45H21.38a6.17,6.17,0,0,0-5.7-5.77v-.61a.45.45,0,1,0-.9,0v.61a6.16,6.16,0,0,0-5.7,5.77H7.5a.45.45,0,0,0,0,.9H9.09A6.17,6.17,0,0,0,14.78,28v.41a.45.45,0,0,0,.9,0V28a6.15,6.15,0,0,0,5.68-5.61H26a5.27,5.27,0,0,0,4.78,4.71v1.31a.45.45,0,0,0,.45.45.45.45,0,0,0,.45-.45V27.06a5.27,5.27,0,0,0,4.79-4.71h1.75a.45.45,0,1,0,0-.9ZM14.78,27.06A5.27,5.27,0,0,1,10,22.35h1.73a3.54,3.54,0,0,0,3.06,3Zm0-2.62a2.67,2.67,0,0,1-2.15-2.09h2.15Zm0-3H12.6a2.65,2.65,0,0,1,2.18-2.24Zm0-3.15a3.54,3.54,0,0,0-3.08,3.15H10a5.27,5.27,0,0,1,4.8-4.87Zm.9.91a2.64,2.64,0,0,1,2.17,2.24H15.68Zm0,3.14h2.15a2.69,2.69,0,0,1-2.15,2.09Zm0,4.71V25.34a3.55,3.55,0,0,0,3.06-3h1.72A5.27,5.27,0,0,1,15.68,27.06Zm3.08-5.61a3.55,3.55,0,0,0-3.08-3.15V16.58a5.26,5.26,0,0,1,4.79,4.87Zm12,4.71a4.38,4.38,0,0,1-3.88-3.81H28.3a3,3,0,0,0,2.51,2.45Zm0-2.27a2.11,2.11,0,0,1-1.59-1.54h1.59Zm0-2.44H29.18a2.12,2.12,0,0,1,1.63-1.69Zm0-2.61a3,3,0,0,0-2.54,2.61H26.92a4.38,4.38,0,0,1,3.89-4Zm.9,7.32V24.8a3,3,0,0,0,2.52-2.45h1.36A4.37,4.37,0,0,1,31.71,26.16Zm1.6-3.81a2.13,2.13,0,0,1-1.6,1.54V22.35Zm-1.6-.9V19.76a2.12,2.12,0,0,1,1.63,1.69Zm2.54,0a3,3,0,0,0-2.54-2.61V17.48a4.39,4.39,0,0,1,3.9,4Z"/><path d="M38.16,13H8a2.34,2.34,0,0,0-2.34,2.34V32.53A2.34,2.34,0,0,0,8,34.87H38.16a2.34,2.34,0,0,0,2.34-2.34V15.34A2.34,2.34,0,0,0,38.16,13ZM39.6,32.53A1.45,1.45,0,0,1,38.16,34H8a1.45,1.45,0,0,1-1.44-1.45v-2H39.6Zm0-2.87H6.51V15.34A1.44,1.44,0,0,1,8,13.9H38.16a1.44,1.44,0,0,1,1.44,1.44Z"/><path d="M10.09,33.7a1.44,1.44,0,1,0-1.44-1.44A1.43,1.43,0,0,0,10.09,33.7Zm0-2a.55.55,0,0,1,.54.54.54.54,0,0,1-.54.54.54.54,0,0,1-.54-.54A.54.54,0,0,1,10.09,31.72Z"/></g></svg>