<svg xmlns="http://www.w3.org/2000/svg" viewBox="0 0 90.88 56.5"><defs><style>.cls-1{fill:none;stroke:#000;stroke-miterlimit:10;}.cls-2{fill:#fff;}</style></defs><title>credit</title><g id="결제정보"><rect class="cls-1" x="2.85" y="2.78" width="85.15" height="50.37" rx="1.2" ry="1.2"/><circle cx="11.85" cy="16.29" r="4.24"/><path d="M17.84,20.78a4.49,4.49,0,1,1,4.49-4.49A4.5,4.5,0,0,1,17.84,20.78Z"/><path class="cls-2" d="M17.84,12.05a4.24,4.24,0,1,1-4.24,4.24,4.24,4.24,0,0,1,4.24-4.24m0-.5a4.74,4.74,0,1,0,4.74,4.74,4.75,4.75,0,0,0-4.74-4.74Z"/><rect x="7.65" y="28.88" width="44.97" height="3.6"/><rect x="8.25" y="40.28" width="21.59" height="3.6"/><path d="M65.08,36.87a9.88,9.88,0,0,0,3,1.71,10.22,10.22,0,0,0,3.5.68q5.63,0,5.63-4.3a3.25,3.25,0,0,0-.48-1.76,4.88,4.88,0,0,0-1.41-1.43,24.06,24.06,0,0,0-3.64-1.84,14.39,14.39,0,0,1-5.12-3.15,6,6,0,0,1-1.43-4.11,6.1,6.1,0,0,1,2.42-5,9.52,9.52,0,0,1,6.16-1.95A12.07,12.07,0,0,1,79.33,17v3.07a10.81,10.81,0,0,0-5.93-1.8,5.9,5.9,0,0,0-3.83,1.17,3.72,3.72,0,0,0-1.44,3,3.79,3.79,0,0,0,1.05,2.8,13.21,13.21,0,0,0,4.12,2.3,16.2,16.2,0,0,1,5.45,3.25,5.68,5.68,0,0,1,1.45,4,6,6,0,0,1-2.47,5.06,10.29,10.29,0,0,1-6.44,1.89,11.5,11.5,0,0,1-6.21-1.61Z"/><rect x="72.32" y="9.6" width="1.7" height="6.19"/><rect x="72.32" y="39.54" width="1.7" height="6.79"/></g></svg>