<svg xmlns="http://www.w3.org/2000/svg" viewBox="0 0 100 100"><defs><style>.cls-1{fill:none;stroke:#000;stroke-miterlimit:10;}</style></defs><title>diycamperpost</title><g id="레이어_26" data-name="레이어 26"><rect class="cls-1" x="1.07" y="1.67" width="98" height="97"/><path class="cls-1" d="M67.57,64.17h-36a10,10,0,0,1-10-10v-36a10,10,0,0,1,10-10h36a10,10,0,0,1,10,10v36A10,10,0,0,1,67.57,64.17Z"/><line class="cls-1" x1="41.07" y1="73.17" x2="73.07" y2="73.17"/><line class="cls-1" x1="41.57" y1="82.17" x2="73.07" y2="82.17"/><line class="cls-1" x1="26.57" y1="91.17" x2="73.07" y2="91.17"/><polyline class="cls-1" points="29.07 59.65 36.81 46.75 45.84 59.65"/><polyline class="cls-1" points="41.97 53.84 57.45 28.69 73.57 53.84"/><polyline class="cls-1" points="50.53 39.93 52.29 44.17 57.45 37.72 61.32 44.17 63.85 38.67"/><polyline class="cls-1" points="32.94 53.2 35.52 55.77 36.81 53.2 39.39 55.77 41.02 52.76"/><path class="cls-1" d="M32.38,8.6a7.44,7.44,0,1,1-10.31,9"/><line class="cls-1" x1="39.03" y1="12.7" x2="44.57" y2="12.01"/><line class="cls-1" x1="38.54" y1="19.23" x2="44.08" y2="21.3"/><line class="cls-1" x1="33.92" y1="24.24" x2="36.6" y2="29.14"/><line class="cls-1" x1="27.24" y1="24.84" x2="26.39" y2="29.91"/><rect class="cls-1" x="28.07" y="73.17" width="9" height="9"/></g></svg>