<svg xmlns="http://www.w3.org/2000/svg" viewBox="0 0 100 100"><defs><style>.cls-1,.cls-2{fill:none;}.cls-1,.cls-2,.cls-3{stroke:#000;}.cls-1{stroke-linejoin:round;}.cls-2,.cls-3{stroke-miterlimit:10;}.cls-3{fill:#fff;}</style></defs><title>diycampertit</title><g id="제작기"><circle class="cls-1" cx="31.15" cy="65.89" r="5.89"/><circle class="cls-1" cx="31.15" cy="65.89" r="3.78"/><circle class="cls-1" cx="85.67" cy="65.89" r="3.78"/><circle class="cls-1" cx="85.67" cy="65.89" r="5.89"/><path class="cls-1" d="M48.44,64.29H68.21v-23l18.66.64s.72,0,1.53,0a9.38,9.38,0,0,0,2-.12A2.88,2.88,0,0,0,92.34,40c1-4.34-3-7.95-6.71-9.36A16.19,16.19,0,0,0,83.52,30a26.93,26.93,0,0,0-6.62-.68c-1,0-2.06,0-3.19,0s-2.33.16-3.6.33l-22.32,2.5L17.65,33l-11.22.12s-1.81-.12-2,1.51V64.29H25.48"/><line class="cls-1" x1="36.82" y1="64.29" x2="39.36" y2="64.29"/><polyline class="cls-1" points="6.34 64.29 6.34 66.1 17.52 66.1 20.83 67.56 25.5 67.56"/><polyline class="cls-1" points="36.8 67.56 67.74 67.56 67.74 66.84 67.74 64.29"/><line class="cls-1" x1="67.74" y1="66.83" x2="79.87" y2="66.83"/><path class="cls-1" d="M91.49,66.83H95s.09-4.9,0-5.89a2.54,2.54,0,0,0-.77-1.59,4.67,4.67,0,0,0-.82-2.19,6,6,0,0,0-.73-.91c-1.55-1.8-4.08-2.32-6.15-3.31a8.39,8.39,0,0,1-1.29-.76,10.55,10.55,0,0,1-1.16-1c-2.08-2-3.71-4.46-6-6.22a12.26,12.26,0,0,0-1.46-1,12.78,12.78,0,0,0-1.35-.49c-2.21-.66-4.26-.78-7.09-1.38h0"/><path class="cls-1" d="M82.66,51.87,78.1,46.54a5.1,5.1,0,0,0-2.79-1.68l-7.1-1.33H58.58a.51.51,0,0,0-.51.51v8.77a.51.51,0,0,0,.51.52H82.66s1.46.09.82-.6Z"/><path class="cls-1" d="M89.58,38.75,72.86,38l-3.94-5s-.71-.88.8-1.14c0,0,7-1.5,11.35-.38,0,0,5.93.9,8.51,4.68,0,0,1.16,1.77.61,2.41C90.19,38.58,90.1,38.8,89.58,38.75Z"/><path class="cls-1" d="M92.72,56.25H91l1.29,2.33a1.46,1.46,0,0,0,1.16.73l.82,0"/><rect class="cls-1" x="39.58" y="42.02" width="9" height="23" rx="1" ry="1"/><rect class="cls-1" x="7.58" y="36.02" width="11" height="8" rx="1" ry="1"/><path class="cls-2" d="M82.6,15,17.44,33.28a1.11,1.11,0,0,1-1.4-.67L13.52,28a1.1,1.1,0,0,1,.85-1.29L81,9.12S86.28,10.78,82.6,15Z"/><path class="cls-2" d="M65,32.83,63.61,7.59,74.09,4.65,86,26.94S79.33,38.43,65,32.83Z"/><line class="cls-3" x1="83.92" y1="23.54" x2="65.05" y2="28.84"/><circle class="cls-2" cx="71.24" cy="14.63" r="1.36"/><path class="cls-2" d="M16.88,85.32,82.05,67a1.1,1.1,0,0,1,1.4.66L86,72.32a1.11,1.11,0,0,1-.85,1.3L18.53,91.18S13.21,89.51,16.88,85.32Z"/><path class="cls-2" d="M34.44,67.47,35.88,92.7,25.4,95.64,13.49,73.35S20.15,61.87,34.44,67.47Z"/><line class="cls-2" x1="15.57" y1="76.75" x2="34.44" y2="71.45"/><circle class="cls-2" cx="28.25" cy="85.66" r="1.36"/></g></svg>