<svg id="레이어_1" data-name="레이어 1" xmlns="http://www.w3.org/2000/svg" viewBox="0 0 118.5 110.5"><defs><style>.cls-1{fill:none;stroke:#000;stroke-linejoin:round;}</style></defs><title>diycampernormal</title><line class="cls-1" x1="36.54" y1="77.6" x2="87.85" y2="78.87"/><path class="cls-1" d="M19.37,77.46,8.62,77C7.92,77,8,73.81,8,73.81a.67.67,0,0,1,.47-.7c-1.17-2.93,2.35-23.92,2.35-23.92a3.09,3.09,0,0,1,3.28-3l59.92-.35a6.16,6.16,0,0,1,2.34,1.05l16,10.79L104.42,63c5.27,2.23,4.45,6.45,4.45,6.45,2.7,2.11,2.11,7.39,2,8.33S109.58,79,109.58,79H104.3"/><circle class="cls-1" cx="27.97" cy="76.74" r="8.6"/><circle class="cls-1" cx="96.09" cy="76.74" r="8.5"/><path class="cls-1" d="M73.19,47.52l-15.73.14-44.38.39c-.33,0-.6.39-.6.85l-1,7c0,.47.27.85.61.85l45.69.46,6.71.07L85.91,58.3l3.18.18s.53-.53-.88-1.24L74.78,48.05A3,3,0,0,0,73.19,47.52Z"/><polyline class="cls-1" points="31.17 47.84 30.78 56.89 29.9 68.37"/><line class="cls-1" x1="46.79" y1="47.77" x2="46.65" y2="57.07"/><polyline class="cls-1" points="63.26 47.63 63.65 57.07 64.32 78.23"/><circle class="cls-1" cx="28.13" cy="76.86" r="4.77"/><circle class="cls-1" cx="96.16" cy="76.86" r="4.77"/><path class="cls-1" d="M12.58,46.32V38.53a.91.91,0,0,1,.78-.83L72.8,23.33a.93.93,0,0,1,.92.84l.21,21.66"/><line class="cls-1" x1="24.32" y1="35.05" x2="17.43" y2="46.11"/><polyline class="cls-1" points="45.52 45.94 56.05 27.38 56.05 45.9 47.36 42.75"/><path class="cls-1" d="M12.62,42.75a10.91,10.91,0,0,1,5.41-5c.4-.18.8-.34,1.18-.47s1-.3,1.55-.42,1-.22,1.57-.31,1.07-.16,1.61-.22,1.07-.11,1.6-.15c1.14-.1,2.27-.17,3.41-.22l1.61,0h1.61l1.65,0,1.66,0c5,.18,10.29.81,14.44,4A16.87,16.87,0,0,1,51.24,41a12.25,12.25,0,0,1,1.66,1.77Z"/><line class="cls-1" x1="24.33" y1="36.98" x2="29.38" y2="46.1"/></svg>