<svg id="레이어_1" data-name="레이어 1" xmlns="http://www.w3.org/2000/svg" viewBox="0 0 118.5 110.5"><defs><style>.cls-1{fill:none;stroke:#000;stroke-linejoin:round;stroke-width:0.75px;}</style></defs><title>diycampertop</title><polygon class="cls-1" points="94.39 32.35 6.9 32.35 7.19 71.93 75.67 72.38 75.67 49.41 75.67 48.27 94.39 48.43 94.39 32.35"/><path class="cls-1" d="M75.64,49.41H87a3.62,3.62,0,0,1,2.69,1.48l9.18,9.54h1.79a.87.87,0,0,1,.79.32l1.74,1.42h.48a.44.44,0,0,1,.31.21l.42.21s6.12,4.12,5.54,5.59l.42,1.32.27,3.06s.74.16.84.79c0,0,1.16,4.27.11,4.75h-5"/><circle class="cls-1" cx="100.85" cy="78.1" r="5.75"/><circle class="cls-1" cx="29.5" cy="78.1" r="5.75"/><circle class="cls-1" cx="29.5" cy="78.1" r="3.32"/><circle class="cls-1" cx="100.85" cy="78.1" r="3.32"/><polyline class="cls-1" points="95.1 78.1 76.91 78.1 74.43 78.1 74.43 72.35"/><rect class="cls-1" x="33.66" y="40.76" width="14.5" height="9.39"/><rect class="cls-1" x="56.6" y="45.45" width="14.5" height="9.39"/><rect class="cls-1" x="10.99" y="36.54" width="14.03" height="8.49"/><polyline class="cls-1" points="23.79 78.92 9.17 78.84 9.17 72.14 74.38 72.56 74.38 79.21 35.17 79"/><path class="cls-1" d="M94.58,59.85h-17a.63.63,0,0,1-.63-.63v-7.7a.63.63,0,0,1,.63-.63h9.7a1.2,1.2,0,0,1,1,.58l6.91,7.38s.74.9.21,1Z"/><polyline class="cls-1" points="90.46 32.35 88 29.88 79.07 29.88 76.62 32.35"/><line class="cls-1" x1="78.52" y1="59.85" x2="78.52" y2="78.1"/><line class="cls-1" x1="94.42" y1="59.85" x2="98.42" y2="72.89"/><path class="cls-1" d="M75.67,68.36l29.61,0s2-.1,2.59,2.53l1.58,7.23"/><path class="cls-1" d="M110.35,69.6l-1.22.43a.48.48,0,0,0-.37.53l.37,2.32.32,1.9"/><line class="cls-1" x1="111.69" y1="74.37" x2="108.76" y2="74.96"/></svg>