<svg id="레이어_1" data-name="레이어 1" xmlns="http://www.w3.org/2000/svg" viewBox="0 0 118.5 110.5"><defs><style>.cls-1{fill:none;stroke:#000;stroke-miterlimit:10;stroke-width:0.75px;}</style></defs><title>diycamperbus</title><path class="cls-1" d="M39.72,70.29A5.32,5.32,0,1,1,34.4,65,5.32,5.32,0,0,1,39.72,70.29Z"/><path class="cls-1" d="M38,70.29a3.64,3.64,0,1,1-3.64-3.63A3.64,3.64,0,0,1,38,70.29Z"/><path class="cls-1" d="M93.11,70.29a3.63,3.63,0,1,1-3.63-3.63A3.64,3.64,0,0,1,93.11,70.29Z"/><circle class="cls-1" cx="89.43" cy="70.29" r="5.31"/><line class="cls-1" x1="38.86" y1="73.19" x2="84.98" y2="73.19"/><path class="cls-1" d="M93.88,73.19h13.68A13,13,0,0,0,111,63.67a30.26,30.26,0,0,0-.59-3.9L107.12,48s-.1-.39.58-.29c0,0,5.51.15,6.34,2.48l.29,1.52v3.11s.64.59,1.17-.68c0,0,1.12-2.53,0-3.6l-.49-.39a4.4,4.4,0,0,0-2.63-2.39s-1.8-1.07-6.72-1.27c0,0-5.71-3.56-16.62-3.73-.78,0-.69-1.39-1.47-1.39H54.1a1.48,1.48,0,0,0-1.47,1.39h-39l-7.7.1s-.78-.1-1.12,2c0,0-1.76,23.05-1,24.8,0,0,.49,1.56,1.56,1.95l8.24,1.56H30"/><rect class="cls-1" x="16.47" y="48.36" width="10.38" height="23.38" rx="1.12" ry="1.12"/><rect class="cls-1" x="94.79" y="48.36" width="9.02" height="23.38" rx="1.05" ry="1.05"/><path class="cls-1" d="M107.06,56.62H6.79c-.56,0-.73-.58-.73-1.3L6.67,46a1.2,1.2,0,0,1,1-1.31H89a41.3,41.3,0,0,1,15.92,3.56,4.63,4.63,0,0,1,2,1.9l1.51,5s.44,1.46-.25,1.46Z"/><line class="cls-1" x1="26.24" y1="44.66" x2="26.24" y2="48.5"/><line class="cls-1" x1="44.92" y1="44.66" x2="44.92" y2="56.62"/><line class="cls-1" x1="65.98" y1="44.66" x2="65.98" y2="56.62"/><line class="cls-1" x1="87.86" y1="44.66" x2="87.86" y2="56.62"/><line class="cls-1" x1="6.07" y1="55.45" x2="5.63" y2="71.68"/><line class="cls-1" x1="5.94" y1="60.26" x2="16.47" y2="60.26"/><rect class="cls-1" x="10.62" y="66.01" width="5.26" height="5.26"/><line class="cls-1" x1="26.85" y1="69.5" x2="29.15" y2="69.5"/><line class="cls-1" x1="15.89" y1="69.5" x2="16.47" y2="69.5"/><line class="cls-1" x1="3.77" y1="69.5" x2="10.62" y2="69.5"/><line class="cls-1" x1="84.17" y1="69.5" x2="39.64" y2="69.5"/><line class="cls-1" x1="94.79" y1="69.5" x2="94.68" y2="69.5"/><line class="cls-1" x1="109.94" y1="69.5" x2="103.81" y2="69.5"/><line class="cls-1" x1="26.85" y1="60.26" x2="94.79" y2="60.26"/></svg>