<svg id="레이어_1" data-name="레이어 1" xmlns="http://www.w3.org/2000/svg" viewBox="0 0 87.33 137"><defs><style>.cls-1{stroke-width:2; fill:none;stroke:#fff;stroke-miterlimit:10;}</style></defs><title>domestic</title><polygon class="cls-1" points="58.53 2.5 78.82 35.56 81.82 68.62 84.08 67.12 81.07 88.16 68.3 98.68 66.79 103.94 58.53 103.19 39.74 108.45 39.74 112.96 11.19 115.96 2.92 121.97 5.18 110.7 5.93 94.17 11.94 93.42 20.21 70.13 10.44 53.6 9.69 49.09 14.95 41.57 20.96 43.83 19.45 31.8 12.69 32.56 9.69 25.79 14.95 20.53 19.45 22.79 22.46 20.53 20.96 17.53 25.47 15.27 24.71 10.77 29.22 10.77 41.25 7.76 42 10.01 51.01 9.26 58.53 2.5"/><polygon class="cls-1" points="26.97 126.48 26.97 128.74 23.21 132.49 14.95 134 12.69 135.5 10.44 133.25 9.69 129.49 12.69 127.23 14.95 124.98 18.7 124.98 23.96 124.23 26.97 126.48"/><polygon class="cls-1" points="13.44 35.56 10.44 35.56 6.68 35.56 4.43 37.06 5.93 40.07 8.94 39.32 10.44 41.57 11.94 41.57 14.95 38.57 17.95 38.57 17.95 36.31 14.95 37.06 13.44 35.56"/></svg>
