<svg xmlns="http://www.w3.org/2000/svg" width="633.426" height="387.26" viewBox="0 0 633.426 387.26">
  <g id="구름" transform="translate(-619 -806.87)">
    <path id="Path_6022" data-name="Path 6022" d="M1499.426,1007.179a120.043,120.043,0,0,0-142.674-117.928,129.078,129.078,0,1,0-255.412-37.426,90.075,90.075,0,0,0-134.316,96,91.1,91.1,0,0,0-10.963-.687,90.048,90.048,0,0,0-3,180.046v.075h435.292v-.372A120.062,120.062,0,0,0,1499.426,1007.179Z" transform="translate(-247 66.87)" fill="#ff4500"/>
    <path id="Icon_open-arrow-circle-top" data-name="Icon open-arrow-circle-top" d="M93.433,0a93.433,93.433,0,1,0,93.433,93.433A93.407,93.407,0,0,0,93.433,0Zm0,23.358,70.074,70.074H116.791v70.074H70.074V93.433H23.358Z" transform="translate(842 964.567)" fill="#f7efd5"/>
  </g>
</svg>
