<svg xmlns="http://www.w3.org/2000/svg" viewBox="0 0 100 100"><defs><style>.cls-1{fill:#fff;}.cls-1,.cls-2{stroke:#16436a;stroke-miterlimit:10;}.cls-2{fill:none;}</style></defs><title>edituser</title><g id="EOS전자지갑"><circle class="cls-1" cx="50.05" cy="29.54" r="7.65"/><path class="cls-1" d="M71.57,27.92a4,4,0,0,0-2.79-4c-3.24-1.42-5.05,1.82-5.05,1.82s-7.33,13-9.79,15.1a4.54,4.54,0,0,1-7.78,0c-2.46-2.07-9.79-15.1-9.79-15.1s-1.81-3.24-5-1.82a4,4,0,0,0-2.79,4s-.26,1.94,3.63,5.18c0,0,13.48,14.52,14.13,17.11,0,0,2.33,3.37.91,11.54L45.51,78.61a4.74,4.74,0,0,0,2.21,4.66,4.5,4.5,0,0,0,4.66,0,4.76,4.76,0,0,0,2.21-4.66L52.9,61.75c-1.43-8.17.91-11.54.91-11.54.65-2.59,14.13-17.11,14.13-17.11C71.83,29.86,71.57,27.92,71.57,27.92Z"/><path class="cls-2" d="M62.92,91A43,43,0,1,1,90.85,63.38"/><path class="cls-1" d="M95.79,77.26,92.45,75V73.72l3.34-2.23a1.79,1.79,0,0,0,.66-2.14l-2.7-6.5a1.76,1.76,0,0,0-2-1.05l-4,.78-.93-.93.79-3.95a1.75,1.75,0,0,0-1-1.94l-6.51-2.71A1.78,1.78,0,0,0,78,53.7L75.77,57H74.46L72.23,53.7a1.78,1.78,0,0,0-2.14-.65l-6.5,2.69a1.77,1.77,0,0,0-1.05,2l.78,3.95-.93.93-4-.78a1.73,1.73,0,0,0-1.94,1.05l-2.72,6.5a1.79,1.79,0,0,0,.66,2.14l3.34,2.23V75l-3.34,2.23a1.79,1.79,0,0,0-.66,2.14l2.7,6.51a1.79,1.79,0,0,0,2,1l4-.79.93.93-.78,4A1.72,1.72,0,0,0,63.59,93l6.5,2.72a1.78,1.78,0,0,0,2.14-.66l2.23-3.34h1.31L78,95.05a1.74,1.74,0,0,0,1.46.78,2,2,0,0,0,.68-.12L86.65,93a1.78,1.78,0,0,0,1-2l-.79-4,.93-.93,4,.79a1.75,1.75,0,0,0,1.94-1l2.72-6.51A1.79,1.79,0,0,0,95.79,77.26Zm-3.85,7.62L87.16,84l-2.47,2.47.93,4.78-6,2.51-2.71-4.06h-3.5l-2.72,4.06-6-2.51.93-4.78L63.07,84l-4.78.93-2.51-6,4.06-2.71v-3.5l-4.06-2.72,2.51-6,4.78.92,2.47-2.47-.93-4.78,6-2.51,2.72,4.06h3.5L79.58,55l6,2.51-.93,4.78,2.47,2.47,4.78-.92,2.51,6-4.06,2.72v3.5l4.06,2.71Z"/><path class="cls-1" d="M75.12,65.11a9.27,9.27,0,1,0,9.26,9.27A9.28,9.28,0,0,0,75.12,65.11Zm0,16.47a7.21,7.21,0,1,1,7.2-7.2A7.21,7.21,0,0,1,75.12,81.58Z"/></g></svg>