<svg xmlns="http://www.w3.org/2000/svg" viewBox="0 0 100 100"><defs><style>.cls-1{fill:none;stroke:#000;stroke-linecap:round;stroke-linejoin:round;}</style></defs><title>etcselling</title><g id="캠핑장비"><circle class="cls-1" cx="43.07" cy="60.17" r="26"/><path class="cls-1" d="M58.35,39.13l19.4-21.3a4,4,0,0,1,5.66,0h0a4,4,0,0,1,0,5.66L62.24,42.6"/><circle class="cls-1" cx="80.07" cy="21.17" r="2"/><path class="cls-1" d="M42.35,52.12a3.27,3.27,0,0,1-.26,1.29,3.32,3.32,0,0,1-6.38-1.29A3.23,3.23,0,0,1,36,50.83a3.35,3.35,0,0,1,.71-1.06c1.89-2.1,3.89-1.1,5.42,1A3.5,3.5,0,0,1,42.35,52.12Z"/><path class="cls-1" d="M46.73,48.7a6.65,6.65,0,0,1,1,1.19,5.28,5.28,0,0,1,.61,1.27,5.12,5.12,0,0,1-1.07,5,2.34,2.34,0,0,0-.19.71,4.3,4.3,0,0,1-.21.84c-.74,2.24-4.48,3.73-7,1.66a3.14,3.14,0,0,0-.64.43c-2.66,2.88-7.66-1.12-7-4A4.69,4.69,0,0,1,30.89,55c-2.78-2.29-2.47-7.33,1.54-8.52a4.56,4.56,0,0,1,.26-1,3.66,3.66,0,0,1,.69-1.1,4,4,0,0,1,1-.79c5.16-3,10.16,1,11.68,4.71C46.28,48.44,46.49,48.55,46.73,48.7Z"/><path d="M46.56,66.87c-9.12,2.62-12,7.48-12.08,7.68a.51.51,0,0,0,0,.52l1.47,2.33,2,3.12a.5.5,0,0,0,.48.2,1,1,0,0,0,.58-.29,29.06,29.06,0,0,1,11.15-7c7.57-2.42,10.39-5.34,12-7.61a.53.53,0,0,0,.07-.58l-2-3.12-1.73-2.74a.55.55,0,0,0-.63-.18.88.88,0,0,0-.58.51S55.47,64.3,46.56,66.87ZM50,72.32a30.65,30.65,0,0,0-11.26,6.85L37.33,77a29,29,0,0,1,10.81-6.68c6.62-2.12,9.61-4.62,11.33-6.73l1.35,2.14C59.32,67.69,56.66,70.18,50,72.32Zm-2.32-12.2c-9.12,2.63-11.95,7.48-12.07,7.69a.49.49,0,0,0,0,.51L37,70.65l2,3.12a.5.5,0,0,0,.49.2.83.83,0,0,0,.57-.29,29.29,29.29,0,0,1,11.15-7c7.57-2.42,10.4-5.34,12-7.61a.52.52,0,0,0,.06-.58l-2-3.12L59.58,52.6a.55.55,0,0,0-.63-.17.87.87,0,0,0-.59.51C58.34,53,56.56,57.55,47.65,60.12Zm2.41,5.46a30.59,30.59,0,0,0-11.25,6.84l-1.39-2.19a29.1,29.1,0,0,1,10.82-6.69c6.61-2.12,9.6-4.61,11.33-6.73L60.92,59C59.42,61,56.76,63.43,50.06,65.58Z"/></g></svg>