<svg id="레이어_1" data-name="레이어 1" xmlns="http://www.w3.org/2000/svg" viewBox="0 0 369.63 194.5"><defs><style>.cls-1{fill:none;stroke:#16436a;stroke-linejoin:round;}</style></defs><title>introcar9</title><path class="cls-1" d="M184.83,11.64c6-5.54,14.88-9.06,24.84-9.06s18.82,3.5,24.79,9"/><rect class="cls-1" x="176.37" y="148.73" width="190.29" height="7.2"/><path class="cls-1" d="M308.9,32.21c-30.55-21-79.17-21.88-114.67-21.07q-8.49.4-16.93,1.4a235.89,235.89,0,0,0-49.59,11.23c-5.13,1.68-10.21,3.5-15.27,5.42Q105.08,32,97.81,35.12q-3.63,1.56-7.23,3.19c-27.86,13-56.08,25.41-79.34,46.82-4.66,4.34-5,11.47-6,17.81-.35,2.3-.63,4.68-.86,7.09A282.07,282.07,0,0,0,3.59,145h87s6.67-33.76,43-34.07c0,0,32.46-1.55,42.7,34.07"/><rect class="cls-1" x="205.4" y="28.17" width="76.38" height="105.15" rx="13.19" ry="13.19"/><rect class="cls-1" x="281.78" y="32.15" width="70.88" height="97.19" rx="10.55" ry="10.55"/><rect class="cls-1" x="292.68" y="52.6" width="40.48" height="56.29" rx="8.79" ry="8.79"/><rect class="cls-1" x="293" y="79.35" width="60.69" height="2.8"/><rect class="cls-1" x="20.7" y="91.95" width="92.23" height="3.26"/><circle class="cls-1" cx="133.61" cy="152.62" r="39.13"/><path class="cls-1" d="M176.3,145.26H329.84s7-13.18,7-16.28"/></svg>
