<svg id="레이어_1" data-name="레이어 1" xmlns="http://www.w3.org/2000/svg" xmlns:xlink="http://www.w3.org/1999/xlink" viewBox="0 0 374.63 214"><defs><style>.cls-1,.cls-2,.cls-3{fill:none;stroke:#d7be7b;stroke-miterlimit:10;}.cls-2{clip-path:url(#clip-path);}.cls-3{clip-path:url(#clip-path-2);}.cls-4{clip-path:url(#clip-path-3);}</style><clipPath id="clip-path"><path id="SVGID" class="cls-1" d="M103.27,153.73l-22.85-.22-5.19,0a134.75,134.75,0,0,1-21.36-1c-14-1.8-27.39-4-41.07-5.46l-6.75-.84-2.7-.34S14,110.13,23.43,96.08c0,0,2-3.55,5-8.36a182.65,182.65,0,0,1,11-16C69.76,34.06,115.45,7.59,164.17,4.54q8.24-.69,16.57-.85c18.2-.48,37.31-.18,55.2,4q5.37,1.26,10.57,3c34,11.39,60.1,44.69,64.62,80.55"/></clipPath><clipPath id="clip-path-2"><path id="SVGID-2" data-name="SVGID" class="cls-2" d="M162.29,154.3"/></clipPath><clipPath id="clip-path-3"><path id="SVGID-3" data-name="SVGID" class="cls-3" d="M310.35,117.9c-.08.41-.16.81-.25,1.22a97.64,97.64,0,0,1-2.61,9.66,108.85,108.85,0,0,1-13.13,26.8l-3.24,0-107.63-1"/></clipPath></defs><title>introcar8</title><polyline class="cls-1" points="188.42 174.73 315.34 174.73 349.64 174.64 349.64 152.27 296.5 152.27 300.96 152.27"/><path class="cls-1" d="M299.92,91.27a11.57,11.57,0,0,0-9.91,6,14.51,14.51,0,0,0-1.92,7.27c0,7.36,5.3,13.32,11.83,13.32h13.69V91.27Z"/><line class="cls-1" x1="172.77" y1="167.78" x2="172.6" y2="167.78"/><polyline class="cls-1" points="184.14 155.55 307.99 155.55 307.99 167.78 187.72 167.78"/><line class="cls-1" x1="163.85" y1="155.55" x2="166.3" y2="155.55"/><line class="cls-1" x1="115.66" y1="155.55" x2="117.04" y2="155.55"/><circle class="cls-1" cx="140.97" cy="176.81" r="33.05"/><circle class="cls-1" cx="140.97" cy="176.81" r="18.97"/><path class="cls-1" d="M177.25,181.09A60.57,60.57,0,0,0,169,161.57c-.32-.47-.65-.94-1-1.39a29.49,29.49,0,0,0-10.37-8.81,41,41,0,0,0-6.39-2.7,36.76,36.76,0,0,0-28.55,2.89,33.64,33.64,0,0,0-6.16,4.4,30.56,30.56,0,0,0-5,5.69c-.43.67-.87,1.39-1.3,2.18a43.79,43.79,0,0,0-5,16.56s-6.52.75-9.34-.65c0,0-.67-22.06,16.85-38.5,0,0,6.53-7.68,21.34-10.6,0,0,22.72-4.06,38.69,10.11,0,0,9.12,7.71,13,19.47,0,0,.19.59.47,1.59,1,3.74,3.28,13.23,1.19,19.28C187.56,181.09,181.12,182.17,177.25,181.09Z"/><g class="cls-4"><path class="cls-1" d="M292.71,94c-20.39-3.21-64.36-6.24-143.94,4.83,0,0-88.22,11.82-148.88-3.94L10.13,78.38S96.78,97.29,146.41,91.77c0,0,104.68-8.79,148,1"/><path class="cls-1" d="M290.5,96.53C267,94.16,215.19,93.18,131.44,113c0,0-83.5,22.85-152.82,12.61l6.31-15s61.44,10.24,146.51-4.72c0,0,103-19.16,159.72-10.29"/><path class="cls-1" d="M289.35,98.59c-17.55-1.78-46.91-1.71-91,7.36,0,0-181.18,46.48-219,36.24l-1.57,5.51,47.26,7.09S99.93,150,144,127.22c0,0,33.09-15.78,101.62-26a260.38,260.38,0,0,1,43.18-1.29"/></g><path id="SVGID-4" data-name="SVGID" class="cls-1" d="M103.27,153.73l-22.85-.22-5.19,0a134.75,134.75,0,0,1-21.36-1c-14-1.8-27.39-4-41.07-5.46l-6.75-.84-2.7-.34S14,110.13,23.43,96.08c0,0,2-3.55,5-8.36a182.65,182.65,0,0,1,11-16C69.76,34.06,115.45,7.59,164.17,4.54q8.24-.69,16.57-.85c18.2-.48,37.31-.18,55.2,4q5.37,1.26,10.57,3c34,11.39,60.1,44.69,64.62,80.55"/><path id="SVGID-5" data-name="SVGID" class="cls-1" d="M162.29,154.3"/><path id="SVGID-6" data-name="SVGID" class="cls-1" d="M310.35,117.9c-.08.41-.16.81-.25,1.22a97.64,97.64,0,0,1-2.61,9.66,108.85,108.85,0,0,1-13.13,26.8l-3.24,0-107.63-1"/><rect class="cls-1" x="118.26" y="39.18" width="67.01" height="45.48" rx="3.78" ry="3.78"/><path class="cls-1" d="M229.34,21.56a35.06,35.06,0,0,0-35.06,35.05v83.82h70.11V56.61A35,35,0,0,0,229.34,21.56Z"/><circle class="cls-1" cx="229.34" cy="59.97" r="17.96"/><path class="cls-1" d="M349.48,165.19h11s2.83,0,2.83,2.2h3.78s2.84.63,2.84,3.15v3.78H349.48"/></svg>