<svg id="레이어_1" data-name="레이어 1" xmlns="http://www.w3.org/2000/svg" viewBox="0 0 396.87 184.67"><defs><style>.cls-1{fill:none;stroke:#a9e1ba;stroke-miterlimit:10;}</style></defs><title>introcar3</title><path class="cls-1" d="M28.57,19.57C19.2,22,13.2,33.21,13.2,33.21s-17.91,31.13-6.51,72c0,0-6.41,36.43,13.74,35.61H31.52l1.84,0"/><path class="cls-1" d="M126.86,144.32H36.3a2.45,2.45,0,0,1-2.44-2.44S7,88.56,28.16,20.59a7.9,7.9,0,0,1,7.12-5.09l88.12-1.83s-1.42,2.24,0,6.72C123.4,20.39,114.65,73.91,126.86,144.32Z"/><path class="cls-1" d="M297.58,38.67l7.26,4.09,7.62,4.29S354,60.32,366.18,68.41c4.28,2.85,11.6,11.4,11.6,11.4a88.83,88.83,0,0,1,6.67,10.88c.35.69.7,1.39,1,2.11,2.16,4,2.37,9.5,4.81,12.55,4.88,5.7,4.27,12.82,3.66,18.93-.17,1.52-1.33,3.19-1.13,5.07a3.87,3.87,0,0,0,.29,1.16c1.45,4.15-1,7.81-4.95,9.45H368.66"/><path class="cls-1" d="M301.06,54.78S293.53,4.92,274,3.5c0,0,18.73,113.15,0,177.25l27.07-54.54S311.44,83.07,301.06,54.78Z"/><circle class="cls-1" cx="338.1" cy="135.16" r="30.93"/><circle class="cls-1" cx="338.1" cy="135.16" r="20.96"/><path class="cls-1" d="M103.1,144.32a30.94,30.94,0,0,1-59.11,0"/><path class="cls-1" d="M92.4,144.32a21,21,0,0,1-37.72,0"/><path class="cls-1" d="M123.5,20.49h73.57a3.94,3.94,0,0,1,4.07,3.78V133.42a3.94,3.94,0,0,1-4.07,3.78H125.74"/><path class="cls-1" d="M278.06,36.06C276.41,35,247.9,16.87,216.4,20c0,0-8.14-.41-7.93,6.11l14.24,94.42s2.63,9.5,10.65,13.82c.29.16.6.32.91.46a15.69,15.69,0,0,0,2.78,1,22,22,0,0,0,2.93.55c11.12.54,22.11.34,33.4.68l4.21.09,3.05.06h.58"/><polyline class="cls-1" points="126.35 140.86 280.47 140.88 280.92 140.88"/><polyline class="cls-1" points="307.69 140.88 294.77 140.88 293.78 140.88"/><path class="cls-1" d="M122.92,14.93l83.71-1.26s33.18-.81,48.44,5.29l22.11,9.32"/><path class="cls-1" d="M27.6,22.42l84-1.42a4.08,4.08,0,0,1,4.07,4.07l-4.07,46.6a4.08,4.08,0,0,1-4.07,4.07H21.24A4,4,0,0,1,20,75.56"/><path class="cls-1" d="M372.46,74s-12.38-3-10.75,1.72c0,0,7.73,24.22,17.5,30.93,0,0,10.84,6,14.27,4.52"/><path class="cls-1" d="M305.67,92.26s27.31-14,62.84,0"/></svg>