<svg id="레이어_1" data-name="레이어 1" xmlns="http://www.w3.org/2000/svg" viewBox="0 0 358.96 188.33"><defs><style>.cls-1{fill:none;stroke:#a9e1ba;stroke-linejoin:round;}</style></defs><title>introcar7</title><polygon class="cls-1" points="296.82 12.1 2.81 12.1 3.78 145.11 233.91 146.62 233.91 69.43 233.91 65.62 296.82 66.16 296.82 12.1"/><path class="cls-1" d="M233.82,69.43h38.1s4.79-.17,9,5l30.84,32.07h6a2.88,2.88,0,0,1,2.65,1.07l5.85,4.78h1.6A1.48,1.48,0,0,1,329,113l1.42.71S351,127.56,349,132.53l1.42,4.43.88,10.28s2.48.53,2.84,2.65c0,0,3.9,14.36.35,16H337.85"/><circle class="cls-1" cx="318.53" cy="165.85" r="19.32"/><circle class="cls-1" cx="78.75" cy="165.85" r="19.32"/><circle class="cls-1" cx="78.75" cy="165.85" r="11.17"/><circle class="cls-1" cx="318.53" cy="165.85" r="11.17"/><polyline class="cls-1" points="299.22 165.84 238.07 165.84 229.74 165.84 229.74 146.53"/><rect class="cls-1" x="92.75" y="40.37" width="48.74" height="31.55"/><rect class="cls-1" x="169.84" y="56.14" width="48.74" height="31.55"/><rect class="cls-1" x="16.54" y="26.19" width="47.14" height="28.53"/><polyline class="cls-1" points="59.56 168.6 10.43 168.33 10.43 145.82 229.57 147.24 229.57 169.57 97.8 168.86"/><path class="cls-1" d="M297.44,104.52H240.2a2.13,2.13,0,0,1-2.13-2.12V76.52a2.13,2.13,0,0,1,2.13-2.12h32.61A4.07,4.07,0,0,1,276,76.35l23.22,24.81s2.48,3,.71,3.36Z"/><polyline class="cls-1" points="283.63 12.1 275.34 3.81 245.34 3.81 237.11 12.1"/><line class="cls-1" x1="243.49" y1="104.52" x2="243.49" y2="165.85"/><line class="cls-1" x1="296.91" y1="104.52" x2="310.38" y2="148.33"/><path class="cls-1" d="M233.91,133.13l99.51-.07s6.56-.36,8.69,8.51l5.32,24.28"/></svg>