<svg id="레이어_1" data-name="레이어 1" xmlns="http://www.w3.org/2000/svg" viewBox="0 0 376.96 153.17"><defs><style>.cls-1{fill:none;stroke:#95c04c;stroke-miterlimit:10;}</style></defs><title>introcar5</title><path class="cls-1" d="M142.82,132.86H279.2c3-.63,2.52-5,2.52-5l-12-90-.87-7.16c6.45-.16,12.74,1.1,19,2.72l2.16.53c6.47,1.59,12.9,3.36,19.86,4.77,1.88.47,1.57-3,.15-4.24-8.33-7.08-15.25-15.11-24-21.11q-2-1.35-3.92-2.5a61.31,61.31,0,0,0-33.5-8.41H15.41C4.24,2.77,2.75,16.53,2.75,16.53V122.87l-.08,5.9S2,132.86,5.5,132.86h97.68"/><circle class="cls-1" cx="123" cy="130.34" r="19.98"/><circle class="cls-1" cx="123" cy="130.34" r="12.27"/><circle class="cls-1" cx="334.57" cy="130.34" r="12.27"/><circle class="cls-1" cx="334.57" cy="130.34" r="19.98"/><path class="cls-1" d="M309.8,127.9a22.34,22.34,0,0,1,22.34-22.33l-9.84-29.5"/><path class="cls-1" d="M306.36,37.94S325.61,51.22,338,68.36c0,0,5.35,8.18,11.8,9.6,0,0,8.5,2.2,11,7.08l4.09,8.81s6.29,3,7.08,9l.63,9.91a2.85,2.85,0,0,1,2.36,3v7.55s-.25,7.79-9.88,8.22c-.7,0-1.45.12-2.23.12h-8.38"/><line class="cls-1" x1="314.64" y1="131.6" x2="281" y2="131.6"/><rect class="cls-1" x="8.96" y="78.75" width="49.08" height="49.08" rx="1.89" ry="1.89"/><rect class="cls-1" x="181.2" y="24.95" width="40.58" height="102.4" rx="1.89" ry="1.89"/><rect class="cls-1" x="43.88" y="24.2" width="48.61" height="31.22" rx="1.89" ry="1.89"/><line class="cls-1" x1="2.75" y1="119.04" x2="8.96" y2="119.04"/><line class="cls-1" x1="58.04" y1="119.04" x2="106.53" y2="119.04"/><line class="cls-1" x1="139.48" y1="119.04" x2="181.2" y2="119.04"/><line class="cls-1" x1="221.79" y1="119.04" x2="280.55" y2="119.04"/><path class="cls-1" d="M307.68,46.5c-2.21-2.83-8.34-2.83-8.34-2.83h-96a1.89,1.89,0,0,0-1.88,1.89V74.18a1.89,1.89,0,0,0,1.88,1.89h127c1,0,3.3-.47,2.2-2Z"/><path class="cls-1" d="M271,46.81h28.73s5,0,6.76,2.3L326.6,71.43c.89,1.27-1,1.65-1.79,1.65H274.45"/><line class="cls-1" x1="309.72" y1="127.82" x2="281.8" y2="127.82"/><line class="cls-1" x1="277.19" y1="93.7" x2="364.93" y2="93.69"/></svg>