<svg id="레이어_1" data-name="레이어 1" xmlns="http://www.w3.org/2000/svg" xmlns:xlink="http://www.w3.org/1999/xlink" viewBox="0 0 348.62 238.17"><defs><style>.cls-1{fill:none;}.cls-2{fill:#ff4500;}.cls-3{fill:#fff0cf;}.cls-3,.cls-7,.cls-8{stroke:#4d4d4d;stroke-miterlimit:10;stroke-width:3px;}.cls-4{clip-path:url(#clip-path);}.cls-5{fill:#ff4e00;}.cls-6{fill:#4d4d4d;}.cls-7{fill:gray;}.cls-8{fill:#e6d8ba;}</style><clipPath id="clip-path"><path class="cls-1" d="M5.18,160.15s10.94-36.88,20.59-51.41c0,0,2-3.67,5.11-8.65A191.18,191.18,0,0,1,42.14,83.58c31.14-39,78-66.37,128-69.53,5.63-.47,11.31-.76,17-.87,18.68-.5,38.27-.19,56.62,4.15,3.66.87,7.28,1.9,10.84,3.12,43.82,14.81,74.87,65.43,65.21,112.12a101.46,101.46,0,0,1-2.68,10,112.69,112.69,0,0,1-13.46,27.71l-3.32,0-216.09-2.1-5.32-.06c-7.49,0-14.51,0-21.9-1.06-14.42-1.86-28.1-4.1-42.12-5.65L8,160.5Z"/></clipPath></defs><title>introcar5</title><rect class="cls-2" x="175.77" y="1.95" width="39.6" height="20.31"/><rect class="cls-2" x="174.94" y="166.54" width="170.46" height="10.33"/><path class="cls-3" d="M3.71,160.94s11.17-37.31,21-52c0,0,2.09-3.72,5.22-8.75a190.82,190.82,0,0,1,11.49-16.7C73.18,44.05,121,16.36,171.94,13.17q8.63-.72,17.33-.89c19-.5,39-.18,57.75,4.21,3.75.88,7.44,1.92,11.06,3.15,44.7,15,76.37,66.17,66.53,113.39a103.29,103.29,0,0,1-2.74,10.11,113.54,113.54,0,0,1-13.74,28l-3.38,0L84.33,169l-5.43,0c-7.63,0-14.8,0-22.34-1.08-14.7-1.89-28.66-4.15-43-5.71l-7.06-.88Z"/><g class="cls-4"><path class="cls-5" d="M37.11,91.64s89.72,18.51,141.1,13.11c0,0,136.21-10.82,166.39,5.37,0,0-40.78-14.63-163.94,1.57,0,0-91.35,11.57-154.15-3.86Z"/><path class="cls-5" d="M11,123.23s63.62,10,151.71-4.63c0,0,127.23-22.36,180.25-6.94,0,0-56.28-13.88-180.25,13.88,0,0-86.46,22.37-158.24,12.34Z"/><path class="cls-5" d="M5.3,154.1l-1.63,5.4,48.94,6.94s77.48-4.65,123.16-27c0,0,34.25-15.45,105.21-25.47,0,0,38.33-4.6,66.88,1.56,0,0-32.62-13.11-115.82,3.09C232,118.63,44.45,164.13,5.3,154.1Z"/></g><path class="cls-1" d="M.43,162.56S12,123.9,22.19,108.68c0,0,2.17-3.85,5.41-9.07a200.46,200.46,0,0,1,11.91-17.3c32.9-40.86,82.43-69.55,135.24-72.86q8.94-.75,18-.92c19.74-.52,40.45-.2,59.84,4.36,3.88.91,7.7,2,11.46,3.26,46.32,15.52,79.14,68.57,68.93,117.5a105,105,0,0,1-2.83,10.47,118.06,118.06,0,0,1-14.23,29l-3.51,0L84,170.93l-5.62-.06c-7.92,0-15.34,0-23.16-1.12C40,167.8,25.5,165.46,10.67,163.84l-7.31-.91Z"/><rect class="cls-6" x="67.37" y="170" width="274.61" height="3.43"/><circle class="cls-6" cx="152.75" cy="197.38" r="38.09"/><circle class="cls-7" cx="152.75" cy="197.38" r="25.45"/><path class="cls-2" d="M189.86,192.36a51,51,0,0,0-8.37-17.55c-.32-.42-.66-.84-1-1.25a29.61,29.61,0,0,0-10.56-7.92,44.4,44.4,0,0,0-6.51-2.42,41.82,41.82,0,0,0-29.08,2.6,34.07,34.07,0,0,0-6.27,4,28.38,28.38,0,0,0-5,5.12c-.44.6-.89,1.25-1.33,2a36.11,36.11,0,0,0-5.08,14.89s-6.64.68-9.51-.58a46.33,46.33,0,0,1,17.17-34.61s6.64-6.91,21.72-9.53c0,0,23.14-3.65,39.41,9.09,0,0,9.29,6.92,13.26,17.5,0,0,4.39,11.86,1.68,18.76C200.35,192.36,193.8,193.33,189.86,192.36Z"/><path class="cls-2" d="M316.74,99.93c-6.22,0-11.26,5.67-11.26,12.66s5,12.66,11.26,12.66h13V99.93Z"/><rect class="cls-8" x="131" y="50.78" width="59.41" height="40.32" rx="3.35" ry="3.35"/><path class="cls-3" d="M247.73,28.48a39.34,39.34,0,0,0-39.34,39.35V161.9h78.69V67.83A39.35,39.35,0,0,0,247.73,28.48Z"/><circle class="cls-8" cx="248.76" cy="70.94" r="17.61"/></svg>