<svg id="레이어_1" data-name="레이어 1" xmlns="http://www.w3.org/2000/svg" viewBox="0 0 360 2387.71"><defs><style>.cls-1,.cls-3,.cls-4,.cls-5,.cls-7{fill:none;}.cls-1,.cls-2,.cls-3,.cls-4,.cls-5,.cls-7{stroke:#16436a;}.cls-1,.cls-2,.cls-3,.cls-5,.cls-7{stroke-miterlimit:10;}.cls-2{fill:#fff;}.cls-3,.cls-4,.cls-5,.cls-7{stroke-width:2px;}.cls-4,.cls-7{stroke-linecap:round;}.cls-4{stroke-linejoin:round;}.cls-5{stroke-linecap:square;}.cls-6{fill:#16436a;}</style></defs><title>introbg2_s</title><circle class="cls-1" cx="186.5" cy="48.5" r="5"/><line class="cls-2" x1="186.5" y1="53.5" x2="186.5" y2="174"/><polyline class="cls-1" points="54.5 766 54.5 1130.5 83 1130.5"/><circle class="cls-3" cx="275.29" cy="696.55" r="27.97"/><circle class="cls-3" cx="275.29" cy="696.55" r="36.22"/><path class="cls-3" d="M288.44,699.16a6.71,6.71,0,0,0-4-3,8,8,0,0,0,3.25-2.64,7,7,0,0,0,1.09-4,8.56,8.56,0,0,0-.73-3.75,6.19,6.19,0,0,0-2.08-2.44,9.07,9.07,0,0,0-3.23-1.32,19.06,19.06,0,0,0-3.78-.4v-3.67h-8.38v3.67h-7v31.93h7V717h8.38v-3.41H279a13.84,13.84,0,0,0,3.8-.53,11.11,11.11,0,0,0,3.62-1.66,8.19,8.19,0,0,0,2.53-2.88,9.75,9.75,0,0,0-.52-9.31Zm-17.88-12.1h6.57a10.51,10.51,0,0,1,1.81.16,4.4,4.4,0,0,1,1.55.56,3,3,0,0,1,1.07,1.12,3.67,3.67,0,0,1,.41,1.83,3.41,3.41,0,0,1-1.21,2.91,5,5,0,0,1-3.09.89h-7.11Zm11.1,20.17a5.29,5.29,0,0,1-3.27.95h-7.83v-7.92h7.26a10.8,10.8,0,0,1,1.92.17,4.84,4.84,0,0,1,1.64.59,3.26,3.26,0,0,1,1.14,1.19,4,4,0,0,1,.42,1.94A3.55,3.55,0,0,1,281.66,707.23Z"/><circle class="cls-3" cx="332.43" cy="685.54" r="5.04"/><path class="cls-3" d="M340,705.78v-7.93a6,6,0,0,0-5.67-6.19h-3.79a6,6,0,0,0-5.67,6.19v7.93Z"/><circle class="cls-3" cx="217.12" cy="685.77" r="5.04"/><path class="cls-3" d="M224.69,706v-7.93a6,6,0,0,0-5.68-6.19h-3.78a6,6,0,0,0-5.67,6.19V706Z"/><circle class="cls-3" cx="275.35" cy="631.21" r="5.04"/><path class="cls-3" d="M282.92,651.45v-7.93a6,6,0,0,0-5.68-6.19h-3.78a6,6,0,0,0-5.67,6.19v7.93Z"/><circle class="cls-3" cx="274.43" cy="744.92" r="5.04"/><path class="cls-3" d="M282,765.16v-7.93a6,6,0,0,0-5.67-6.19h-3.79a6,6,0,0,0-5.67,6.19v7.93Z"/><circle class="cls-3" cx="239.13" cy="728.41" r="5.04"/><path class="cls-3" d="M246.69,748.65v-7.93a6,6,0,0,0-5.67-6.18h-3.78a6,6,0,0,0-5.68,6.18v7.93Z"/><circle class="cls-3" cx="311.57" cy="728.41" r="5.04"/><path class="cls-3" d="M319.14,748.65v-7.93a6,6,0,0,0-5.68-6.18h-3.78a6,6,0,0,0-5.67,6.18v7.93Z"/><circle class="cls-3" cx="311.57" cy="644.05" r="5.04"/><path class="cls-3" d="M319.14,664.29v-7.93a6,6,0,0,0-5.68-6.19h-3.78a6,6,0,0,0-5.67,6.19v7.93Z"/><circle class="cls-3" cx="239.13" cy="644.05" r="5.04"/><path class="cls-3" d="M246.69,664.29v-7.93a6,6,0,0,0-5.67-6.19h-3.78a6,6,0,0,0-5.68,6.19v7.93Z"/><rect class="cls-3" x="211.96" y="252.26" width="40.28" height="33.92" rx="9.08" ry="9.08"/><line class="cls-3" x1="226.09" y1="292.54" x2="226.09" y2="286.18"/><line class="cls-3" x1="239.34" y1="286.18" x2="239.34" y2="292.54"/><line class="cls-3" x1="217.96" y1="292.54" x2="246.94" y2="292.54"/><rect class="cls-3" x="120.79" y="252.96" width="31.8" height="51.59" rx="5.65" ry="5.65"/><line class="cls-3" x1="120.79" y1="261.44" x2="152.59" y2="261.44"/><line class="cls-3" x1="120.79" y1="287.42" x2="152.59" y2="287.59"/><line class="cls-3" x1="131.74" y1="296.07" x2="140.93" y2="296.07"/><rect class="cls-3" x="125.38" y="346.96" width="35.34" height="26.15" rx="5.65" ry="5.65"/><path class="cls-3" d="M121.14,373.46v5.43c0,2.65,2.54,4.82,5.65,4.82H159.3c3.11,0,5.66-2.17,5.66-4.82v-5.43Z"/><rect class="cls-3" x="220.44" y="347.66" width="31.8" height="35.34"/><line class="cls-3" x1="220.44" y1="365.33" x2="252.24" y2="365.33"/><path class="cls-3" d="M210.54,341.3a14.84,14.84,0,0,0,2.8-29.41c0-.32,0-.65,0-1a16.26,16.26,0,0,0-31-6.91,12,12,0,0,0-19.83,7.63h-.09a14.84,14.84,0,0,0,0,29.68Z"/><polyline class="cls-3" points="232.45 292.54 232.45 316.57 221.5 316.57"/><polyline class="cls-3" points="136.69 304.55 137.04 315.15 152.59 315.15"/><polyline class="cls-3" points="140.57 346.61 140.57 323.64 147.64 323.64"/><polyline class="cls-3" points="235.98 346.96 235.98 327.17 225.03 327.17"/><line class="cls-3" x1="252.24" y1="274.99" x2="211.96" y2="274.99"/><path class="cls-3" d="M54.76,680.26v26.82H27l-.18-9.89c-.41-1.79,1.62-3.94,1.62-3.94l8.55-10A6.93,6.93,0,0,1,41.86,680h59.83c6.72,0,12.21,4.83,12.21,10.73l-.24,16.33h-23V680.26"/><polyline class="cls-3" points="62.43 680.26 62.43 706.12 62.43 707.08 83.97 707.08 84.45 707.08 84.45 680.26"/><line class="cls-3" x1="61.97" y1="735.33" x2="77.72" y2="735.33"/><path class="cls-3" d="M106.51,735.33h15.74a2.43,2.43,0,0,0,2.42-2.43v-6.64a2.43,2.43,0,0,0-2.42-2.42h-2a14.32,14.32,0,0,0,2.55-8.14V686a14.42,14.42,0,0,0-14.37-14.37H38A8,8,0,0,0,32.26,676L22.2,689.36s-2.39,2.87-1.91,5.27l.32,21.07H17.89a2.4,2.4,0,0,0-2.39,2.39V732.9a2.43,2.43,0,0,0,2.43,2.43H33.19"/><circle class="cls-3" cx="47.58" cy="730.06" r="15.32"/><circle class="cls-3" cx="92.11" cy="730.06" r="15.32"/><path class="cls-3" d="M59.55,665.42V655.35a8.16,8.16,0,0,0-8.13-8.13H38.48a8.16,8.16,0,0,0-8.14,8.13v10.07Z"/><path class="cls-3" d="M88.76,665.42V655.35a8.16,8.16,0,0,0-8.13-8.13H67.68a8.16,8.16,0,0,0-8.13,8.13v10.07Z"/><path class="cls-3" d="M118,665.42V655.35a8.16,8.16,0,0,0-8.13-8.13h-13a8.16,8.16,0,0,0-8.13,8.13v10.07Z"/><path class="cls-3" d="M40.76,665.42c.12,0,0,6.22,0,6.22"/><line class="cls-3" x1="48.24" y1="665.42" x2="48.24" y2="671.64"/><line class="cls-3" x1="98.28" y1="665.42" x2="98.28" y2="671.64"/><line class="cls-3" x1="105.58" y1="665.42" x2="105.58" y2="671.64"/><rect class="cls-4" x="159.27" y="1032.8" width="54.49" height="67.72" rx="11.5" ry="11.5"/><line class="cls-5" x1="201.3" y1="1044.48" x2="181.84" y2="1044.48"/><line class="cls-5" x1="201.3" y1="1055.37" x2="169.39" y2="1055.37"/><line class="cls-5" x1="201.3" y1="1067.05" x2="169.39" y2="1067.05"/><polyline class="cls-5" points="188.85 1082.62 192.74 1087.29 202.08 1077.95"/><circle class="cls-5" cx="239.09" cy="1142.55" r="24.91"/><circle class="cls-5" cx="133.93" cy="1142.4" r="24.91"/><circle class="cls-6" cx="238.28" cy="1072.89" r="2.34"/><circle class="cls-6" cx="238.28" cy="1085.34" r="2.34"/><circle class="cls-6" cx="238.28" cy="1097.8" r="2.34"/><circle class="cls-6" cx="238.28" cy="1109.47" r="2.34"/><circle class="cls-6" cx="133.97" cy="1072.89" r="2.34"/><circle class="cls-6" cx="133.97" cy="1085.34" r="2.34"/><circle class="cls-6" cx="133.97" cy="1097.8" r="2.34"/><circle class="cls-6" cx="133.97" cy="1109.47" r="2.34"/><polyline class="cls-7" points="144.87 1064.33 152.66 1072.11 144.87 1079.89"/><polyline class="cls-7" points="227.38 1064.33 219.6 1072.11 227.38 1079.89"/><path class="cls-6" d="M232.19,1151.45a9.26,9.26,0,0,0,2.84,1.6,9.44,9.44,0,0,0,3.29.64c3.51,0,5.28-1.34,5.28-4a3.08,3.08,0,0,0-.45-1.66,4.68,4.68,0,0,0-1.33-1.34,23.09,23.09,0,0,0-3.42-1.73,13.46,13.46,0,0,1-4.8-3,5.61,5.61,0,0,1-1.34-3.86,5.73,5.73,0,0,1,2.27-4.65,8.93,8.93,0,0,1,5.78-1.83,11.46,11.46,0,0,1,5.26,1.15v2.89A10.23,10.23,0,0,0,240,1134a5.53,5.53,0,0,0-3.59,1.1,3.47,3.47,0,0,0-1.36,2.83,3.54,3.54,0,0,0,1,2.63,12.46,12.46,0,0,0,3.87,2.16,15.37,15.37,0,0,1,5.12,3,5.33,5.33,0,0,1,1.36,3.76,5.66,5.66,0,0,1-2.32,4.75,9.62,9.62,0,0,1-6,1.78,10.87,10.87,0,0,1-5.84-1.51Z"/><rect class="cls-6" x="238.3" y="1126.85" width="1.59" height="6.37"/><rect class="cls-6" x="238.3" y="1153.96" width="1.59" height="6.37"/><circle class="cls-3" cx="130.51" cy="1139.2" r="8.17"/><line class="cls-7" x1="136.51" y1="1144.75" x2="145.53" y2="1153.77"/><polyline class="cls-1" points="199.47 690.8 201.88 695.35 131.14 695.35"/><polyline class="cls-1" points="199.58 702.77 202 697.98 131.14 697.98"/><polyline class="cls-1" points="84 315 52.88 315 52.88 612"/><polyline class="cls-1" points="79.11 320.73 84.86 314.98 79.11 309.24"/><polyline class="cls-1" points="59.86 770.98 54.11 765.24 48.36 770.98"/><polyline class="cls-1" points="300.5 1742 300.5 2106.5 272 2106.5"/><circle class="cls-3" cx="79.29" cy="1668.55" r="27.97"/><circle class="cls-3" cx="79.29" cy="1668.55" r="36.22"/><path class="cls-3" d="M92.44,1671.16a6.71,6.71,0,0,0-4-3,8,8,0,0,0,3.25-2.64,7,7,0,0,0,1.09-4,8.56,8.56,0,0,0-.73-3.75,6.19,6.19,0,0,0-2.08-2.44,9.07,9.07,0,0,0-3.23-1.32,19.06,19.06,0,0,0-3.78-.4v-3.67H74.56v3.67h-7v31.93h7V1689h8.38v-3.41H83a13.84,13.84,0,0,0,3.8-.53,11.11,11.11,0,0,0,3.62-1.66,8.19,8.19,0,0,0,2.53-2.88,9.75,9.75,0,0,0-.52-9.31Zm-17.88-12.1h6.57a10.51,10.51,0,0,1,1.81.16,4.4,4.4,0,0,1,1.55.56,3,3,0,0,1,1.07,1.12,3.67,3.67,0,0,1,.41,1.83,3.41,3.41,0,0,1-1.21,2.91,5,5,0,0,1-3.09.89H74.56Zm11.1,20.17a5.29,5.29,0,0,1-3.27,1H74.56v-7.92h7.26a10.8,10.8,0,0,1,1.92.17,4.84,4.84,0,0,1,1.64.59,3.26,3.26,0,0,1,1.14,1.19,4,4,0,0,1,.42,1.94A3.55,3.55,0,0,1,85.66,1679.23Z"/><circle class="cls-3" cx="136.43" cy="1657.54" r="5.04"/><path class="cls-3" d="M144,1677.78v-7.93a6,6,0,0,0-5.67-6.19h-3.79a6,6,0,0,0-5.67,6.19v7.93Z"/><circle class="cls-3" cx="21.12" cy="1657.77" r="5.04"/><path class="cls-3" d="M28.69,1678v-7.93a6,6,0,0,0-5.68-6.19H19.23a6,6,0,0,0-5.67,6.19V1678Z"/><circle class="cls-3" cx="79.35" cy="1603.21" r="5.04"/><path class="cls-3" d="M86.92,1623.45v-7.93a6,6,0,0,0-5.68-6.19H77.46a6,6,0,0,0-5.67,6.19v7.93Z"/><circle class="cls-3" cx="78.43" cy="1716.92" r="5.04"/><path class="cls-3" d="M86,1737.16v-7.93a6,6,0,0,0-5.67-6.19H76.54a6,6,0,0,0-5.67,6.19v7.93Z"/><circle class="cls-3" cx="43.13" cy="1700.41" r="5.04"/><path class="cls-3" d="M50.69,1720.65v-7.93a6,6,0,0,0-5.67-6.18H41.24a6,6,0,0,0-5.68,6.18v7.93Z"/><circle class="cls-3" cx="115.57" cy="1700.41" r="5.04"/><path class="cls-3" d="M123.14,1720.65v-7.93a6,6,0,0,0-5.68-6.18h-3.78a6,6,0,0,0-5.67,6.18v7.93Z"/><circle class="cls-3" cx="115.57" cy="1616.05" r="5.04"/><path class="cls-3" d="M123.14,1636.29v-7.93a6,6,0,0,0-5.68-6.19h-3.78a6,6,0,0,0-5.67,6.19v7.93Z"/><circle class="cls-3" cx="43.13" cy="1616.05" r="5.04"/><path class="cls-3" d="M50.69,1636.29v-7.93a6,6,0,0,0-5.67-6.19H41.24a6,6,0,0,0-5.68,6.19v7.93Z"/><rect class="cls-3" x="211.96" y="1228.26" width="40.28" height="33.92" rx="9.08" ry="9.08"/><line class="cls-3" x1="226.09" y1="1268.54" x2="226.09" y2="1262.18"/><line class="cls-3" x1="239.34" y1="1262.18" x2="239.34" y2="1268.54"/><line class="cls-3" x1="217.96" y1="1268.54" x2="246.94" y2="1268.54"/><rect class="cls-3" x="120.79" y="1228.96" width="31.8" height="51.59" rx="5.65" ry="5.65"/><line class="cls-3" x1="120.79" y1="1237.44" x2="152.59" y2="1237.44"/><line class="cls-3" x1="120.79" y1="1263.42" x2="152.59" y2="1263.59"/><line class="cls-3" x1="131.74" y1="1272.07" x2="140.93" y2="1272.07"/><rect class="cls-3" x="125.38" y="1322.96" width="35.34" height="26.15" rx="5.65" ry="5.65"/><path class="cls-3" d="M121.14,1349.46v5.43c0,2.65,2.54,4.82,5.65,4.82H159.3c3.11,0,5.66-2.17,5.66-4.82v-5.43Z"/><rect class="cls-3" x="220.44" y="1323.66" width="31.8" height="35.34"/><line class="cls-3" x1="220.44" y1="1341.33" x2="252.24" y2="1341.33"/><path class="cls-3" d="M210.54,1317.3a14.84,14.84,0,0,0,2.8-29.41c0-.32,0-.65,0-1a16.26,16.26,0,0,0-31-6.91,12,12,0,0,0-19.83,7.63h-.09a14.84,14.84,0,1,0,0,29.68Z"/><polyline class="cls-3" points="232.45 1268.54 232.45 1292.57 221.5 1292.57"/><polyline class="cls-3" points="136.69 1280.55 137.04 1291.15 152.59 1291.15"/><polyline class="cls-3" points="140.57 1322.61 140.57 1299.64 147.64 1299.64"/><polyline class="cls-3" points="235.98 1322.96 235.98 1303.17 225.03 1303.17"/><line class="cls-3" x1="252.24" y1="1250.99" x2="211.96" y2="1250.99"/><rect class="cls-4" x="159.27" y="2008.8" width="54.49" height="67.72" rx="11.5" ry="11.5"/><line class="cls-5" x1="201.3" y1="2020.48" x2="181.84" y2="2020.48"/><line class="cls-5" x1="201.3" y1="2031.37" x2="169.39" y2="2031.37"/><line class="cls-5" x1="201.3" y1="2043.05" x2="169.39" y2="2043.05"/><polyline class="cls-5" points="188.85 2058.62 192.74 2063.29 202.08 2053.95"/><circle class="cls-5" cx="239.09" cy="2118.55" r="24.91"/><circle class="cls-5" cx="133.93" cy="2118.4" r="24.91"/><circle class="cls-6" cx="238.28" cy="2048.89" r="2.34"/><circle class="cls-6" cx="238.28" cy="2061.34" r="2.34"/><circle class="cls-6" cx="238.28" cy="2073.8" r="2.34"/><circle class="cls-6" cx="238.28" cy="2085.47" r="2.34"/><circle class="cls-6" cx="133.97" cy="2048.89" r="2.34"/><circle class="cls-6" cx="133.97" cy="2061.34" r="2.34"/><circle class="cls-6" cx="133.97" cy="2073.8" r="2.34"/><circle class="cls-6" cx="133.97" cy="2085.47" r="2.34"/><polyline class="cls-7" points="144.87 2040.33 152.66 2048.11 144.87 2055.89"/><polyline class="cls-7" points="227.38 2040.33 219.6 2048.11 227.38 2055.89"/><path class="cls-6" d="M232.19,2127.45a9.26,9.26,0,0,0,2.84,1.6,9.44,9.44,0,0,0,3.29.64c3.51,0,5.28-1.34,5.28-4a3.08,3.08,0,0,0-.45-1.66,4.68,4.68,0,0,0-1.33-1.34,23.09,23.09,0,0,0-3.42-1.73,13.46,13.46,0,0,1-4.8-2.95,5.61,5.61,0,0,1-1.34-3.86,5.73,5.73,0,0,1,2.27-4.65,8.93,8.93,0,0,1,5.78-1.83,11.46,11.46,0,0,1,5.26,1.15v2.89A10.23,10.23,0,0,0,240,2110a5.53,5.53,0,0,0-3.59,1.1,3.47,3.47,0,0,0-1.36,2.83,3.54,3.54,0,0,0,1,2.63,12.46,12.46,0,0,0,3.87,2.16,15.37,15.37,0,0,1,5.12,3.05,5.33,5.33,0,0,1,1.36,3.76,5.66,5.66,0,0,1-2.32,4.75,9.62,9.62,0,0,1-6,1.78,10.87,10.87,0,0,1-5.84-1.51Z"/><rect class="cls-6" x="238.3" y="2102.85" width="1.59" height="6.37"/><rect class="cls-6" x="238.3" y="2129.96" width="1.59" height="6.37"/><circle class="cls-3" cx="130.51" cy="2115.2" r="8.17"/><line class="cls-7" x1="136.51" y1="2120.75" x2="145.53" y2="2129.77"/><polyline class="cls-1" points="159.67 1678.77 157.26 1674.22 228 1674.22"/><polyline class="cls-1" points="159.56 1666.8 157.14 1671.59 228 1671.59"/><polyline class="cls-1" points="274.73 1291 305.86 1291 305.86 1588"/><polyline class="cls-1" points="279.62 1296.73 273.88 1290.98 279.62 1285.24"/><polyline class="cls-1" points="295.14 1746.98 300.89 1741.24 306.64 1746.98"/><ellipse class="cls-3" cx="293.71" cy="1655.55" rx="17.9" ry="21.93"/><path class="cls-3" d="M275.9,1653.34s16,6.24,25-5.84c0,0,4,6,10.73,7.45"/><circle class="cls-6" cx="287.67" cy="1659.8" r="1.79"/><circle class="cls-6" cx="301.09" cy="1659.8" r="1.79"/><path class="cls-7" d="M287.67,1667s6.26,8.5,13.42,0"/><polyline class="cls-4" points="287.67 1676.19 287.67 1681.95 294.16 1697.16 300.87 1681.95 300.87 1676.13"/><path class="cls-4" d="M287.67,1680.94s-26.63,4.59-26.63,31h23.72"/><path class="cls-4" d="M301.54,1680.94s26.63,4.59,26.63,31H304.45"/><line class="cls-4" x1="274.47" y1="1701.19" x2="274.47" y2="1710.59"/><line class="cls-4" x1="314.74" y1="1701.19" x2="314.74" y2="1710.59"/><line class="cls-4" x1="294.38" y1="1617.29" x2="294.38" y2="1627.36"/><line class="cls-4" x1="282.08" y1="1617.07" x2="286.55" y2="1621.54"/><line class="cls-4" x1="306.24" y1="1617.07" x2="301.76" y2="1621.54"/><ellipse class="cls-3" cx="256.51" cy="1653.5" rx="10.14" ry="12.42"/><path class="cls-3" d="M246.42,1652.25s9.08,3.53,14.15-3.31a11.08,11.08,0,0,0,6.08,4.22"/><circle class="cls-6" cx="253.09" cy="1655.91" r="1.01"/><circle class="cls-6" cx="260.69" cy="1655.91" r="1.01"/><path class="cls-7" d="M253.09,1660s3.55,4.81,7.6,0"/><polyline class="cls-4" points="253.09 1665.2 253.09 1668.46 256.76 1677.08 260.57 1668.46 260.57 1665.16"/><path class="cls-4" d="M253.09,1667.89s-15.09,2.6-15.09,17.56h13.44"/><path class="cls-4" d="M261,1667.89s15.09,2.6,15.09,17.56H262.6"/><line class="cls-4" x1="245.61" y1="1679.36" x2="245.61" y2="1684.69"/><line class="cls-4" x1="268.43" y1="1679.36" x2="268.43" y2="1684.69"/><line class="cls-4" x1="256.89" y1="1633.21" x2="256.89" y2="1637.52"/><line class="cls-4" x1="249.92" y1="1631.69" x2="252.45" y2="1634.23"/><line class="cls-4" x1="263.61" y1="1631.69" x2="261.07" y2="1634.23"/><circle class="cls-6" cx="256.89" cy="1629.16" r="0.8"/><ellipse class="cls-3" cx="333.48" cy="1653.5" rx="10.14" ry="12.42"/><path class="cls-3" d="M323.38,1652.25s9.08,3.53,14.15-3.31a11.08,11.08,0,0,0,6.08,4.22"/><circle class="cls-6" cx="330.05" cy="1655.91" r="1.01"/><circle class="cls-6" cx="337.66" cy="1655.91" r="1.01"/><path class="cls-7" d="M330.05,1660s3.55,4.81,7.61,0"/><polyline class="cls-4" points="330.05 1665.2 330.05 1668.46 333.73 1677.08 337.53 1668.46 337.53 1665.16"/><path class="cls-4" d="M330.05,1667.89s-15.09,2.6-15.09,17.56H328.4"/><path class="cls-4" d="M337.91,1667.89s15.09,2.6,15.09,17.56H339.56"/><line class="cls-4" x1="322.57" y1="1679.36" x2="322.57" y2="1684.69"/><line class="cls-4" x1="345.39" y1="1679.36" x2="345.39" y2="1684.69"/><line class="cls-4" x1="333.86" y1="1633.21" x2="333.86" y2="1637.52"/><line class="cls-4" x1="326.88" y1="1631.69" x2="329.42" y2="1634.23"/><line class="cls-4" x1="340.58" y1="1631.69" x2="338.04" y2="1634.23"/><circle class="cls-6" cx="333.86" cy="1629.16" r="0.8"/><circle class="cls-1" cx="181.5" cy="2338" r="5"/><line class="cls-2" x1="181.5" y1="2333" x2="181.5" y2="2212.5"/></svg>