<svg id="레이어_1" data-name="레이어 1" xmlns="http://www.w3.org/2000/svg" viewBox="0 0 1580 2130"><defs><style>.cls-1{fill:#fff;}.cls-1,.cls-2,.cls-3,.cls-5,.cls-6,.cls-7{stroke:#16436a;}.cls-1,.cls-2,.cls-3,.cls-5,.cls-7{stroke-miterlimit:10;}.cls-2,.cls-3,.cls-5,.cls-6,.cls-7{fill:none;}.cls-3,.cls-5,.cls-6,.cls-7{stroke-width:2px;}.cls-4{fill:#16436a;}.cls-5,.cls-6{stroke-linecap:round;}.cls-6{stroke-linejoin:round;}.cls-7{stroke-linecap:square;}</style></defs><title>introbg2-07</title><rect class="cls-1" x="9.5" y="355.5" width="1559" height="1196"/><circle class="cls-2" cx="789.5" cy="18.5" r="7"/><line class="cls-1" x1="789.5" y1="25.5" x2="789.5" y2="356"/><line class="cls-1" x1="787.5" y1="1882" x2="787.5" y2="1551.5"/><polyline class="cls-2" points="231.5 1881.5 1312.5 1881.5 1312.5 2102.5"/><line class="cls-2" x1="787.5" y1="1882" x2="787.5" y2="2102.5"/><line class="cls-1" x1="233.98" y1="1882" x2="233.98" y2="2102.5"/><circle class="cls-3" cx="784.72" cy="953.87" r="72.74"/><circle class="cls-3" cx="784.72" cy="953.87" r="94.2"/><path class="cls-3" d="M818.92,960.68a17.54,17.54,0,0,0-10.46-7.74,20.72,20.72,0,0,0,8.44-6.86,18.19,18.19,0,0,0,2.85-10.47,22.24,22.24,0,0,0-1.92-9.77,15.92,15.92,0,0,0-5.41-6.34,23.35,23.35,0,0,0-8.38-3.44,50.41,50.41,0,0,0-9.84-1V905.5H772.4V915H754.14v83.06H772.4v8.85h21.8v-8.85h.19a35.14,35.14,0,0,0,9.87-1.4,29.19,29.19,0,0,0,9.42-4.3,21.19,21.19,0,0,0,6.58-7.5,25.41,25.41,0,0,0-1.34-24.2ZM772.4,929.21h17.1a26.63,26.63,0,0,1,4.71.41,11.65,11.65,0,0,1,4,1.45A7.81,7.81,0,0,1,801,934a9.63,9.63,0,0,1,1.05,4.77q0,5.24-3.14,7.56a13.16,13.16,0,0,1-8,2.33H772.4Zm28.88,52.45a13.85,13.85,0,0,1-8.51,2.47H772.4V963.54h18.89a28,28,0,0,1,5,.44,12.21,12.21,0,0,1,4.25,1.54,8.12,8.12,0,0,1,3,3.08,10.21,10.21,0,0,1,1.11,5C804.61,977.36,803.5,980,801.28,981.66Z"/><circle class="cls-3" cx="933.32" cy="925.25" r="13.12"/><path class="cls-3" d="M953,977.89V957.28c0-8.86-6.64-16.1-14.76-16.1h-9.83c-8.12,0-14.76,7.24-14.76,16.1v20.61Z"/><circle class="cls-3" cx="633.43" cy="925.85" r="13.12"/><path class="cls-3" d="M653.1,978.49V957.87c0-8.85-6.64-16.1-14.76-16.1h-9.83c-8.12,0-14.76,7.25-14.76,16.1v20.62Z"/><circle class="cls-3" cx="784.87" cy="783.95" r="13.12"/><path class="cls-3" d="M804.54,836.59V816c0-8.85-6.64-16.1-14.76-16.1H780c-8.12,0-14.76,7.25-14.76,16.1v20.62Z"/><circle class="cls-3" cx="782.48" cy="1079.67" r="13.12"/><path class="cls-3" d="M802.16,1132.31V1111.7c0-8.86-6.64-16.1-14.76-16.1h-9.84c-8.11,0-14.75,7.24-14.75,16.1v20.61Z"/><circle class="cls-3" cx="690.66" cy="1036.75" r="13.12"/><path class="cls-3" d="M710.34,1089.39v-20.62c0-8.85-6.64-16.1-14.76-16.1h-9.84c-8.11,0-14.75,7.25-14.75,16.1v20.62Z"/><circle class="cls-3" cx="879.07" cy="1036.75" r="13.12"/><path class="cls-3" d="M898.74,1089.39v-20.62c0-8.85-6.64-16.1-14.75-16.1h-9.84c-8.12,0-14.76,7.25-14.76,16.1v20.62Z"/><circle class="cls-3" cx="879.07" cy="817.34" r="13.12"/><path class="cls-3" d="M898.74,870V849.36c0-8.85-6.64-16.1-14.75-16.1h-9.84c-8.12,0-14.76,7.25-14.76,16.1V870Z"/><circle class="cls-3" cx="690.66" cy="817.34" r="13.12"/><path class="cls-3" d="M710.34,870V849.36c0-8.85-6.64-16.1-14.76-16.1h-9.84c-8.11,0-14.75,7.25-14.75,16.1V870Z"/><rect class="cls-3" x="822.5" y="416.5" width="57" height="48" rx="12.85" ry="12.85"/><line class="cls-3" x1="842.5" y1="473.5" x2="842.5" y2="464.5"/><line class="cls-3" x1="861.25" y1="464.5" x2="861.25" y2="473.5"/><line class="cls-3" x1="831" y1="473.5" x2="872" y2="473.5"/><rect class="cls-3" x="693.5" y="417.5" width="45" height="73" rx="8" ry="8"/><line class="cls-3" x1="693.5" y1="429.5" x2="738.5" y2="429.5"/><line class="cls-3" x1="693.5" y1="466.25" x2="738.5" y2="466.5"/><line class="cls-3" x1="709" y1="478.5" x2="722" y2="478.5"/><rect class="cls-3" x="700" y="550.5" width="50" height="37" rx="8" ry="8"/><path class="cls-3" d="M694,588v7.68c0,3.75,3.6,6.82,8,6.82h46c4.4,0,8-3.07,8-6.82V588Z"/><rect class="cls-3" x="834.5" y="551.5" width="45" height="50"/><line class="cls-3" x1="834.5" y1="576.5" x2="879.5" y2="576.5"/><path class="cls-3" d="M820.5,542.5a21,21,0,0,0,4-41.62c0-.45,0-.91,0-1.38a23,23,0,0,0-43.82-9.78,17,17,0,0,0-28,10.79h-.13a21,21,0,0,0,0,42Z"/><polyline class="cls-3" points="851.5 473.5 851.5 507.5 836 507.5"/><polyline class="cls-3" points="716 490.5 716.5 505.5 738.5 505.5"/><polyline class="cls-3" points="721.5 550 721.5 517.5 731.5 517.5"/><polyline class="cls-3" points="856.5 550.5 856.5 522.5 841 522.5"/><line class="cls-3" x1="879.5" y1="448.67" x2="822.5" y2="448.67"/><path class="cls-3" d="M125.5,921.5v56h-58l-.39-20.65c-.85-3.74,3.4-8.22,3.4-8.22l17.85-20.91c3.4-6,10.2-6.72,10.2-6.72H223.5c14,0,25.5,10.08,25.5,22.4l-.5,34.1h-48v-56"/><polyline class="cls-3" points="141.5 921.5 141.5 975.5 141.5 977.5 186.5 977.5 187.5 977.5 187.5 921.5"/><line class="cls-3" x1="140.56" y1="1036.5" x2="173.44" y2="1036.5"/><path class="cls-3" d="M233.56,1036.5h32.87a5.08,5.08,0,0,0,5.07-5.07v-13.86a5.08,5.08,0,0,0-5.07-5.07h-4.25a29.79,29.79,0,0,0,5.32-17v-62a30.09,30.09,0,0,0-30-30H90.5a16.77,16.77,0,0,0-12,9l-21,28s-5,6-4,11l.68,44H48.5a5,5,0,0,0-5,5v30.93a5.08,5.08,0,0,0,5.07,5.07H80.44"/><circle class="cls-3" cx="110.5" cy="1025.5" r="32"/><circle class="cls-3" cx="203.5" cy="1025.5" r="32"/><path class="cls-3" d="M135.5,890.5v-21a17,17,0,0,0-17-17h-27a17,17,0,0,0-17,17v21Z"/><path class="cls-3" d="M196.5,890.5v-21a17,17,0,0,0-17-17h-27a17,17,0,0,0-17,17v21Z"/><path class="cls-3" d="M257.5,890.5v-21a17,17,0,0,0-17-17h-27a17,17,0,0,0-17,17v21Z"/><path class="cls-3" d="M96.25,890.5c.25,0,0,13,0,13"/><line class="cls-3" x1="111.88" y1="890.5" x2="111.88" y2="903.5"/><line class="cls-3" x1="216.38" y1="890.5" x2="216.38" y2="903.5"/><line class="cls-3" x1="231.63" y1="890.5" x2="231.63" y2="903.5"/><ellipse class="cls-3" cx="1398.5" cy="940.5" rx="40" ry="49"/><path class="cls-3" d="M1358.7,935.56s35.8,13.94,55.8-13.06c0,0,9,13.32,24,16.66"/><circle class="cls-4" cx="1385" cy="950" r="4"/><circle class="cls-4" cx="1415" cy="950" r="4"/><path class="cls-5" d="M1385,966s14,19,30,0"/><polyline class="cls-6" points="1385 986.63 1385 999.5 1399.5 1033.5 1414.5 999.5 1414.5 986.5"/><path class="cls-6" d="M1385,997.25s-59.5,10.25-59.5,69.25h53"/><path class="cls-6" d="M1416,997.25s59.5,10.25,59.5,69.25h-53"/><line class="cls-6" x1="1355.5" y1="1042.5" x2="1355.5" y2="1063.5"/><line class="cls-6" x1="1445.5" y1="1042.5" x2="1445.5" y2="1063.5"/><line class="cls-6" x1="1400" y1="855" x2="1400" y2="877.5"/><line class="cls-6" x1="1372.5" y1="854.5" x2="1382.5" y2="864.5"/><line class="cls-6" x1="1426.5" y1="854.5" x2="1416.5" y2="864.5"/><ellipse class="cls-3" cx="1315.37" cy="935.92" rx="22.67" ry="27.77"/><path class="cls-3" d="M1292.81,933.12s20.29,7.9,31.62-7.4c0,0,5.08,7.54,13.59,9.44"/><circle class="cls-4" cx="1307.72" cy="941.3" r="2.27"/><circle class="cls-4" cx="1324.72" cy="941.3" r="2.27"/><path class="cls-5" d="M1307.72,950.37s7.93,10.76,17,0"/><polyline class="cls-6" points="1307.72 962.06 1307.72 969.35 1315.93 988.62 1324.43 969.35 1324.43 961.98"/><path class="cls-6" d="M1307.72,968.08s-33.72,5.8-33.72,39.24h30"/><path class="cls-6" d="M1325.28,968.07s33.72,5.81,33.72,39.25h-30"/><line class="cls-6" x1="1291" y1="993.72" x2="1291" y2="1005.62"/><line class="cls-6" x1="1342" y1="993.72" x2="1342" y2="1005.62"/><line class="cls-6" x1="1316.22" y1="890.58" x2="1316.22" y2="900.22"/><line class="cls-6" x1="1300.63" y1="887.18" x2="1306.3" y2="892.85"/><line class="cls-6" x1="1331.23" y1="887.18" x2="1325.57" y2="892.85"/><circle class="cls-4" cx="1316.22" cy="881.52" r="1.78"/><ellipse class="cls-3" cx="1487.37" cy="935.92" rx="22.67" ry="27.77"/><path class="cls-3" d="M1464.81,933.12s20.29,7.9,31.62-7.4c0,0,5.08,7.54,13.59,9.44"/><circle class="cls-4" cx="1479.72" cy="941.3" r="2.27"/><circle class="cls-4" cx="1496.72" cy="941.3" r="2.27"/><path class="cls-5" d="M1479.72,950.37s7.93,10.76,17,0"/><polyline class="cls-6" points="1479.72 962.06 1479.72 969.35 1487.93 988.62 1496.43 969.35 1496.43 961.98"/><path class="cls-6" d="M1479.72,968.08s-33.72,5.8-33.72,39.24h30"/><path class="cls-6" d="M1497.28,968.07s33.72,5.81,33.72,39.25h-30"/><line class="cls-6" x1="1463" y1="993.72" x2="1463" y2="1005.62"/><line class="cls-6" x1="1514" y1="993.72" x2="1514" y2="1005.62"/><line class="cls-6" x1="1488.22" y1="890.58" x2="1488.22" y2="900.22"/><line class="cls-6" x1="1472.63" y1="887.18" x2="1478.3" y2="892.85"/><line class="cls-6" x1="1503.23" y1="887.18" x2="1497.57" y2="892.85"/><circle class="cls-4" cx="1488.22" cy="881.52" r="1.78"/><rect class="cls-6" x="752.5" y="1325.5" width="70" height="87" rx="14.77" ry="14.77"/><line class="cls-7" x1="806.5" y1="1340.5" x2="781.5" y2="1340.5"/><line class="cls-7" x1="806.5" y1="1354.5" x2="765.5" y2="1354.5"/><line class="cls-7" x1="806.5" y1="1369.5" x2="765.5" y2="1369.5"/><polyline class="cls-7" points="790.5 1389.5 795.5 1395.5 807.5 1383.5"/><circle class="cls-7" cx="855.05" cy="1466.5" r="32"/><circle class="cls-7" cx="719.95" cy="1466.3" r="32"/><circle class="cls-4" cx="854" cy="1377" r="3"/><circle class="cls-4" cx="854" cy="1393" r="3"/><circle class="cls-4" cx="854" cy="1409" r="3"/><circle class="cls-4" cx="854" cy="1424" r="3"/><circle class="cls-4" cx="720" cy="1377" r="3"/><circle class="cls-4" cx="720" cy="1393" r="3"/><circle class="cls-4" cx="720" cy="1409" r="3"/><circle class="cls-4" cx="720" cy="1424" r="3"/><polyline class="cls-5" points="734 1366 744 1376 734 1386"/><polyline class="cls-5" points="840 1366 830 1376 840 1386"/><path class="cls-4" d="M846.18,1477.94a13.42,13.42,0,0,0,7.87,2.88q6.78,0,6.78-5.19a4,4,0,0,0-.57-2.13,6.05,6.05,0,0,0-1.71-1.72,29.4,29.4,0,0,0-4.39-2.22,17.41,17.41,0,0,1-6.17-3.79,7.2,7.2,0,0,1-1.72-5,7.34,7.34,0,0,1,2.92-6,11.5,11.5,0,0,1,7.42-2.35,14.68,14.68,0,0,1,6.76,1.48v3.71a13.13,13.13,0,0,0-7.16-2.17,7,7,0,0,0-4.61,1.42,4.46,4.46,0,0,0-1.74,3.63,4.56,4.56,0,0,0,1.27,3.38,16.17,16.17,0,0,0,5,2.78c3.21,1.35,5.4,2.65,6.57,3.92a6.81,6.81,0,0,1,1.75,4.83,7.31,7.31,0,0,1-3,6.1,12.45,12.45,0,0,1-7.77,2.28,13.9,13.9,0,0,1-7.5-1.94Z"/><rect class="cls-4" x="854.02" y="1446.32" width="2.05" height="8.18"/><rect class="cls-4" x="854.02" y="1481.15" width="2.05" height="8.18"/><circle class="cls-3" cx="715.55" cy="1462.2" r="10.5"/><line class="cls-5" x1="723.26" y1="1469.32" x2="734.84" y2="1480.91"/><circle class="cls-4" cx="787" cy="605" r="3"/><circle class="cls-4" cx="787" cy="745" r="3"/><line class="cls-2" x1="787" y1="605" x2="787" y2="745"/><polyline class="cls-2" points="567.52 943.5 577.5 953 285 953"/><polyline class="cls-2" points="568 968.5 578 958.5 285 958.5"/><polyline class="cls-2" points="986.48 943.5 976.5 953 1269 953"/><polyline class="cls-2" points="986 968.5 976 958.5 1269 958.5"/><polyline class="cls-2" points="167.5 1084 167.5 1448.5 664 1448.5"/><polyline class="cls-2" points="663.5 509.5 167.5 509.5 167.5 824"/><polyline class="cls-2" points="1400.5 1084 1400.5 1448.5 909 1448.5"/><polyline class="cls-2" points="911 509.5 1400.5 509.5 1400.5 824"/><polyline class="cls-2" points="652.5 521.5 664.5 509.5 652.5 497.5"/><polyline class="cls-2" points="922.5 521.5 910.5 509.5 922.5 497.5"/><polyline class="cls-2" points="1388.5 1096.5 1400.5 1084.5 1412.5 1096.5"/><polyline class="cls-2" points="155.5 1096.5 167.5 1084.5 179.5 1096.5"/><circle class="cls-4" cx="785" cy="1159" r="3"/><circle class="cls-4" cx="785" cy="1299" r="3"/><line class="cls-2" x1="785" y1="1159" x2="785" y2="1299"/><circle class="cls-2" cx="787.5" cy="2109.5" r="7"/><circle class="cls-2" cx="1312.5" cy="2109.5" r="7"/><circle class="cls-2" cx="233.5" cy="2109.5" r="7"/><circle class="cls-4" cx="1400.22" cy="841.52" r="2.48"/></svg>