<svg id="레이어_1" data-name="레이어 1" xmlns="http://www.w3.org/2000/svg" viewBox="0 0 336.29 204.17"><defs><style>.cls-1,.cls-2{fill:none;stroke:#95c04c;}.cls-1{stroke-miterlimit:10;}.cls-2{stroke-linecap:round;stroke-linejoin:round;}</style></defs><title>introcar6</title><line class="cls-1" x1="93.67" y1="177.54" x2="259.63" y2="181.65"/><path class="cls-1" d="M38.12,177.08,3.36,175.53c-2.28,0-1.9-10.24-1.9-10.24A2.21,2.21,0,0,1,3,163c-3.8-9.48,7.58-77.37,7.58-77.37C11.7,75,21.18,75.78,21.18,75.78L215,74.65c3.41.37,7.58,3.41,7.58,3.41L274.14,113l39.07,17.45c17.06,7.2,14.41,20.85,14.41,20.85,8.72,6.83,6.82,23.9,6.44,26.93s-4.17,3.79-4.17,3.79H312.83"/><circle class="cls-1" cx="65.93" cy="174.77" r="27.8"/><circle class="cls-1" cx="286.28" cy="174.77" r="27.48"/><path class="cls-1" d="M212.2,80.27l-50.86.45L17.78,82c-1.07,0-2,1.24-2,2.75l-3.09,22.51c0,1.51.88,2.75,1.95,2.75l147.79,1.49,21.72.22,69.15,3.43,10.28.57s1.72-1.71-2.85-4L217.34,82A9.53,9.53,0,0,0,212.2,80.27Z"/><polyline class="cls-1" points="76.3 81.3 75.04 110.56 72.18 147.71"/><line class="cls-1" x1="126.82" y1="81.07" x2="126.36" y2="111.13"/><polyline class="cls-1" points="180.08 80.61 181.34 111.13 183.51 179.59"/><circle class="cls-1" cx="66.47" cy="175.14" r="15.43"/><circle class="cls-1" cx="286.49" cy="175.14" r="15.43"/><path class="cls-1" d="M16.17,76.38V51.18a2.93,2.93,0,0,1,2.52-2.7L210.94,2c1.74.19,3,1.32,3,2.7l.69,70.07"/><line class="cls-1" x1="54.12" y1="39.92" x2="31.83" y2="75.7"/><polyline class="cls-2" points="122.7 75.12 156.75 15.11 156.76 75.01 128.65 64.84"/><path class="cls-1" d="M16.29,64.84c4.12-8.34,11-13.31,17.5-16.27,1.29-.6,2.57-1.11,3.81-1.55,1.67-.52,3.34-1,5-1.35s3.38-.72,5.08-1,3.46-.52,5.18-.72,3.46-.35,5.2-.48q5.49-.48,11-.69c1.74-.05,3.47-.09,5.21-.11s3.49,0,5.23,0l5.33.1,5.37.15c16.12.57,33.26,2.63,46.71,12.77,1.63,1.2,3,2.37,4.25,3.45a39,39,0,0,1,5.39,5.73Z"/><line class="cls-1" x1="28.3" y1="46.16" x2="44.64" y2="75.65"/></svg>