<svg id="레이어_1" data-name="레이어 1" xmlns="http://www.w3.org/2000/svg" viewBox="0 0 358.04 176.67"><defs><style>.cls-1{fill:none;stroke:#d7be7b;stroke-miterlimit:10;}</style></defs><title>introcar2-05</title><path class="cls-1" d="M183.28,133.38H284.89V65.88s5.69-60.33-64.53-62.55H132.1S91.55,2.34,52.49,32A143.92,143.92,0,0,0,41,41.6c-2.37,2.15-5,4.66-8,7.56C21.39,59.93,10.26,71.8,4.7,87c-5.19,13,2.59,29.67,15.94,35.11a53.87,53.87,0,0,0,10.87,3.38l1.57.38.06,7.07,64.41.44a43.05,43.05,0,0,1,85.62,0Z"/><rect class="cls-1" x="183.89" y="41.6" width="54.56" height="65.98" rx="10.51" ry="10.51"/><circle class="cls-1" cx="140.69" cy="138.57" r="34.69"/><circle class="cls-1" cx="140.69" cy="138.57" r="21.03"/><path class="cls-1" d="M339.83,145.22a10.84,10.84,0,0,0-10.68,9h-2.94v-20.8h3.58V88H287.14v45.37h35.17v25.53h7.06a10.85,10.85,0,1,0,10.46-13.72Z"/><polyline class="cls-1" points="329.73 114.5 355.5 114.5 355.5 127.48 329.73 127.48"/><circle class="cls-1" cx="295.77" cy="69.72" r="4.53"/><rect class="cls-1" x="294.87" y="74.27" width="1.73" height="12.58"/><polyline class="cls-1" points="294.87 82 289 86.89 287.91 85.58 294.87 79.78"/><polyline class="cls-1" points="296.6 82.03 302.44 86.89 303.52 85.58 296.56 79.78"/><line class="cls-1" x1="200.21" y1="41.6" x2="200.21" y2="107.59"/></svg>