<svg id="레이어_1" data-name="레이어 1" xmlns="http://www.w3.org/2000/svg" viewBox="0 0 338.37 162"><defs><style>.cls-1{fill:none;stroke:#16436a;stroke-linejoin:round;}</style></defs><title>introcar1</title><circle class="cls-1" cx="100.88" cy="137.45" r="21.61"/><circle class="cls-1" cx="100.88" cy="137.45" r="13.88"/><circle class="cls-1" cx="300.9" cy="137.45" r="13.88"/><circle class="cls-1" cx="300.9" cy="137.45" r="21.61"/><path class="cls-1" d="M164.29,131.61h72.56V47.06l68.46,2.37s2.65.12,5.59.14,6.17-.06,7.35-.46c3.15-1.1,6.31-3.31,7.1-6.47,3.78-15.93-10.89-29.18-24.62-34.36A60.65,60.65,0,0,0,293,5.8a98.52,98.52,0,0,0-24.28-2.51c-3.66-.13-7.55-.1-11.7.11S248.46,4,243.8,4.63l-81.87,9.15L51.35,16.93l-41.17.48s-6.63-.48-7.42,5.52V131.61H80.07"/><line class="cls-1" x1="121.69" y1="131.61" x2="131.01" y2="131.61"/><polyline class="cls-1" points="9.86 131.61 9.86 138.24 50.88 138.24 63.02 143.6 80.16 143.6"/><polyline class="cls-1" points="121.6 143.6 235.12 143.6 235.12 140.97 235.12 131.61"/><line class="cls-1" x1="235.12" y1="140.92" x2="279.6" y2="140.92"/><path class="cls-1" d="M322.23,140.92h13.06s.31-18,0-21.61a9.47,9.47,0,0,0-2.84-5.84,17.35,17.35,0,0,0-3-8,22.32,22.32,0,0,0-2.66-3.32c-5.68-6.62-15-8.51-22.56-12.14a31.34,31.34,0,0,1-4.75-2.8,43,43,0,0,1-4.26-3.52c-7.61-7.35-13.59-16.36-21.94-22.81a43.55,43.55,0,0,0-5.33-3.53,43,43,0,0,0-5-1.79c-8.08-2.43-15.6-2.86-26-5.07h0"/><rect class="cls-1" x="8.92" y="69.62" width="28.39" height="56.16" rx="1.89" ry="1.89"/><rect class="cls-1" x="131.01" y="35.39" width="33.28" height="102.38" rx="1.89" ry="1.89"/><path class="cls-1" d="M289.86,86,273.14,66.46a18.79,18.79,0,0,0-10.26-6.15l-26-4.89H201.52a1.89,1.89,0,0,0-1.89,1.89V89.49a1.9,1.9,0,0,0,1.89,1.9h88.34s5.36.31,3-2.21Z"/><path class="cls-1" d="M315.25,37.91l-61.36-2.68L239.46,16.85s-2.61-3.23,2.92-4.18c0,0,25.71-5.52,41.64-1.42,0,0,21.77,3.32,31.23,17.2,0,0,4.26,6.47,2.21,8.83C317.46,37.28,317.15,38.07,315.25,37.91Z"/><path class="cls-1" d="M236.85,115.84h37.86a42.15,42.15,0,0,1,5.66-6.08c4.63-4.55,10.85-6.58,17.19-6.84a36.26,36.26,0,0,1,6.34.3c6.3.79,13.09,3.15,16.72,9s6.15,15.46,14.88,13.73"/><path class="cls-1" d="M326.77,102.11h-6.31l4.73,8.52a5.24,5.24,0,0,0,4.26,2.68l3,.16"/><line class="cls-1" x1="252.24" y1="91.4" x2="252.24" y2="140.92"/></svg>