<svg xmlns="http://www.w3.org/2000/svg" viewBox="0 0 45 45">
  <title>facilities icons</title>
  <g id="레이어_14" data-name="레이어 14">
    <path fill="#16436A" d="M14.77,13.54a.4.4,0,0,0,.31.13l.18,0a.51.51,0,0,0,.24-.24.47.47,0,0,0,0-.17.48.48,0,0,0-.13-.32.42.42,0,0,0-.14-.09.6.6,0,0,0-.26,0l-.09,0-.07,0a.49.49,0,0,0-.13.12l0,.08a.24.24,0,0,0,0,.08.28.28,0,0,0,0,.09.47.47,0,0,0,0,.17A.71.71,0,0,0,14.77,13.54Z"/>
    <path fill="#16436A" d="M13.82,13.86a.43.43,0,0,0-.09.49.42.42,0,0,0,.09.14.48.48,0,0,0,.32.13.47.47,0,0,0,.17,0,.36.36,0,0,0,.14-.1.33.33,0,0,0,.1-.14.45.45,0,0,0-.1-.49A.45.45,0,0,0,13.82,13.86Z"/>
    <path fill="#16436A" d="M13.51,14.81a.43.43,0,0,0-.32-.14.43.43,0,0,0-.31.14.45.45,0,0,0-.1.14.51.51,0,0,0,0,.17.48.48,0,0,0,.13.32.46.46,0,0,0,.31.13.44.44,0,0,0,.45-.45.51.51,0,0,0,0-.17A.71.71,0,0,0,13.51,14.81Z"/>
    <path fill="#16436A" d="M15.08,15.57a.39.39,0,0,0,.18,0,.42.42,0,0,0,.14-.09.48.48,0,0,0,.13-.32.51.51,0,0,0,0-.17.71.71,0,0,0-.1-.14.43.43,0,0,0-.32-.14.43.43,0,0,0-.31.14.45.45,0,0,0-.1.14.51.51,0,0,0,0,.17A.45.45,0,0,0,15.08,15.57Z"/>
    <path fill="#16436A" d="M14.45,15.75a.47.47,0,0,0-.63,0,.38.38,0,0,0-.09.15.33.33,0,0,0,0,.17.44.44,0,0,0,.28.41.43.43,0,0,0,.48-.1.4.4,0,0,0,.13-.31.47.47,0,0,0,0-.17A.31.31,0,0,0,14.45,15.75Z"/>
    <path fill="#16436A" d="M16,12.73a.47.47,0,0,0,.17,0,.71.71,0,0,0,.14-.1.33.33,0,0,0,.1-.14.59.59,0,0,0,0-.17.43.43,0,0,0-.14-.32.36.36,0,0,0-.14-.1.45.45,0,0,0-.48.1.39.39,0,0,0-.13.32.42.42,0,0,0,.13.31A.44.44,0,0,0,16,12.73Z"/>
    <path fill="#16436A" d="M16.81,11.75a.47.47,0,0,0,.17,0,.4.4,0,0,0,.31-.13.42.42,0,0,0,.13-.31.48.48,0,0,0-.13-.32.45.45,0,0,0-.48-.09.38.38,0,0,0-.15.09.78.78,0,0,0-.1.15.47.47,0,0,0,0,.17.44.44,0,0,0,.13.31A.31.31,0,0,0,16.81,11.75Z"/>
    <path fill="#16436A" d="M13.51,11a.46.46,0,0,0-.49-.09.38.38,0,0,0-.24.24.47.47,0,0,0,0,.17.42.42,0,0,0,.13.31.45.45,0,0,0,.14.1.51.51,0,0,0,.17,0h.09l.08,0,.08,0,.07-.06.05-.06a.56.56,0,0,1,0-.08s0-.06,0-.08a.28.28,0,0,0,0-.09.47.47,0,0,0,0-.17A.56.56,0,0,0,13.51,11Z"/>
    <path fill="#16436A" d="M14.45,10.07,14.39,10,14.23,10A.57.57,0,0,0,14,10a.46.46,0,0,0-.15.09.48.48,0,0,0-.13.32.28.28,0,0,0,0,.09l0,.08,0,.08.05.07a.46.46,0,0,0,.15.09.33.33,0,0,0,.17,0h.09a.56.56,0,0,0,.16-.07l.06,0,.06-.07,0-.08a.24.24,0,0,0,0-.08.28.28,0,0,0,0-.09.51.51,0,0,0,0-.17A.65.65,0,0,0,14.45,10.07Z"/>
    <path fill="#16436A" d="M12.56,12l-.06-.06-.08,0-.08,0a.57.57,0,0,0-.26,0,.4.4,0,0,0-.15.1.46.46,0,0,0-.13.31.28.28,0,0,0,0,.09.33.33,0,0,0,.07.16l0,.07a.56.56,0,0,0,.15.1.47.47,0,0,0,.17,0h.09l.08,0,.08,0,.06-.05.06-.07a.44.44,0,0,0,.06-.16.28.28,0,0,0,0-.09.51.51,0,0,0,0-.17A.71.71,0,0,0,12.56,12Z"/>
    <path fill="#16436A" d="M14.45,12l-.06-.06-.08,0-.08,0a.57.57,0,0,0-.26,0,.47.47,0,0,0-.24.24.35.35,0,0,0,0,.17.28.28,0,0,0,0,.09l0,.09a.25.25,0,0,0,0,.07l.05.07a.78.78,0,0,0,.15.1.47.47,0,0,0,.17,0h.09l.08,0,.08,0a.34.34,0,0,0,.12-.12l0-.07a.29.29,0,0,0,0-.09.28.28,0,0,0,0-.09.51.51,0,0,0,0-.17A.33.33,0,0,0,14.45,12Z"/>
    <path fill="#16436A" d="M14.67,11.51l0,.08.06.06.07.06.07,0,.09,0h.08a.44.44,0,0,0,.45-.44.28.28,0,0,0,0-.09s0-.06,0-.08a.56.56,0,0,0-.1-.15.42.42,0,0,0-.14-.09.4.4,0,0,0-.26,0l-.09,0-.07,0a.18.18,0,0,0-.07,0,.46.46,0,0,0-.13.32.28.28,0,0,0,0,.09A.31.31,0,0,0,14.67,11.51Z"/>
    <path fill="#16436A" d="M15.72,10.71a.15.15,0,0,0,.06,0l.08.05.08,0H16a.44.44,0,0,0,.31-.13.31.31,0,0,0,.1-.15.47.47,0,0,0,0-.17.45.45,0,0,0-.14-.32A.42.42,0,0,0,16.2,10a.57.57,0,0,0-.26,0l-.16.07-.06.05a.44.44,0,0,0-.13.32.47.47,0,0,0,0,.17A.31.31,0,0,0,15.72,10.71Z"/>
    <path fill="#16436A" d="M13.61,13.06l0-.08-.05-.07-.07-.05-.07,0-.09,0a.44.44,0,0,0-.4.12l-.06.07a.2.2,0,0,0,0,.08l0,.08v.09a.47.47,0,0,0,0,.17.33.33,0,0,0,.1.14.45.45,0,0,0,.14.1l.09,0h.08a.44.44,0,0,0,.45-.44.28.28,0,0,0,0-.09S13.62,13.09,13.61,13.06Z"/>
    <path fill="#16436A" d="M12.66,14l0-.07-.06-.07a.45.45,0,0,0-.14-.1.47.47,0,0,0-.49.1.18.18,0,0,0,0,.07.33.33,0,0,0-.07.16.28.28,0,0,0,0,.09.48.48,0,0,0,.13.31.46.46,0,0,0,.32.13l.17,0a.45.45,0,0,0,.14-.1.42.42,0,0,0,.13-.31.28.28,0,0,0,0-.09A.29.29,0,0,0,12.66,14Z"/>
    <path fill="#16436A" d="M16,14.62a.47.47,0,0,0,.17,0,.51.51,0,0,0,.24-.24.59.59,0,0,0,0-.17.43.43,0,0,0-.14-.32.44.44,0,0,0-.4-.12l-.08,0-.08,0a.49.49,0,0,0-.12.13.25.25,0,0,0,0,.07l0,.09a.27.27,0,0,0,0,.09.38.38,0,0,0,.13.31A.44.44,0,0,0,16,14.62Z"/>
    <path fill="#16436A" d="M16.66,13.54a.31.31,0,0,0,.15.1.47.47,0,0,0,.17,0,.4.4,0,0,0,.31-.13.45.45,0,0,0,.1-.14.47.47,0,0,0,0-.17.44.44,0,0,0-.13-.32.45.45,0,0,0-.48-.09.38.38,0,0,0-.15.09.48.48,0,0,0-.13.32.47.47,0,0,0,0,.17A.71.71,0,0,0,16.66,13.54Z"/>
    <path fill="#16436A" d="M17.75,12.7a.51.51,0,0,0,.17,0,.44.44,0,0,0,.41-.28.45.45,0,0,0-.09-.48.47.47,0,0,0-.49-.1.45.45,0,0,0-.14.1.43.43,0,0,0,0,.63A.71.71,0,0,0,17.75,12.7Z"/>
    <path fill="#16436A" d="M36.84,34.39l-2-1a2.22,2.22,0,0,1-1.24-2V31A3.12,3.12,0,0,0,32,28.32l-2.41-1.38a1.36,1.36,0,0,0-.31-1.42L29,25.2a1.35,1.35,0,0,0-.05-1.74l-7.53-8.32.65-.65a.46.46,0,0,0,.13-.31.46.46,0,0,0-.13-.32L20.76,12.6a.46.46,0,0,0-.32-.13.43.43,0,0,0-.24.08,4.9,4.9,0,1,0-5.8,5.8.49.49,0,0,0-.08.24.44.44,0,0,0,.13.31l1.26,1.27a.46.46,0,0,0,.64,0l.64-.65,8.33,7.53a1.32,1.32,0,0,0,1.73,0l.33.33a1.32,1.32,0,0,0,1.6.21l2.56,1.46A2.24,2.24,0,0,1,32.67,31v.35a3.09,3.09,0,0,0,1.74,2.8l2,1a.45.45,0,0,0,.2,0,.42.42,0,0,0,.43-.34.44.44,0,0,0-.24-.5ZM12.56,10.71a4,4,0,0,1,6.85,2.61l-.23.22a.44.44,0,0,0,.06-.56.46.46,0,0,0-.54-.16.38.38,0,0,0-.15.09.48.48,0,0,0-.13.32s0,.06,0,.09a.26.26,0,0,0,0,.08.3.3,0,0,0,0,.08l.05.06a.49.49,0,0,0,.32.14.41.41,0,0,0,.31-.14l-.94,1a.48.48,0,0,0,.13-.32.38.38,0,0,0,0-.17.42.42,0,0,0-.09-.14.46.46,0,0,0-.73.14.55.55,0,0,0,0,.17.44.44,0,0,0,.13.32.71.71,0,0,0,.14.1.51.51,0,0,0,.17,0,.48.48,0,0,0,.32-.13l-.94.93a.42.42,0,0,0,.12-.3.51.51,0,0,0,0-.17.65.65,0,0,0-.1-.15.67.67,0,0,0-.14-.09.4.4,0,0,0-.34,0,.45.45,0,0,0-.25.24.5.5,0,0,0,0,.34l.1.15a.38.38,0,0,0,.15.09.47.47,0,0,0,.17,0,.53.53,0,0,0,.3-.12l-.94.93a.45.45,0,0,0,.14-.31.47.47,0,0,0,0-.17.31.31,0,0,0-.1-.15.45.45,0,0,0-.63,0,.38.38,0,0,0-.09.15.33.33,0,0,0,0,.17.44.44,0,0,0,.13.31.4.4,0,0,0,.15.1.47.47,0,0,0,.17,0,.4.4,0,0,0,.31-.13l-.94.95a.48.48,0,0,0,.13-.32.44.44,0,0,0-.13-.31l-.07-.06-.07,0-.09,0a.43.43,0,0,0-.4.12.71.71,0,0,0-.1.14.51.51,0,0,0,0,.17.44.44,0,0,0,.76.32l-.23.22a4,4,0,0,1-2.61-6.84ZM16,19.22l-.63-.63,5-5.05.63.64-.63.63Zm9.89,7.17-8.3-7.5,3.12-3.12,7.5,8.29a.46.46,0,0,1,0,.62l-1.7,1.69A.44.44,0,0,1,25.92,26.39Zm2.09.4-.31-.32.63-.63.31.32a.43.43,0,0,1,0,.63A.45.45,0,0,1,28,26.79Z"/>
    <path fill="#16436A" d="M36.94,10.39a.44.44,0,0,0-.4-.07l-5.35,1.79a.45.45,0,0,0-.31.42v3.82A1.73,1.73,0,0,0,30,16.1a1.79,1.79,0,1,0,1.79,1.78v-5l4.45-1.48v3.19a1.72,1.72,0,0,0-.89-.24,1.78,1.78,0,1,0,1.79,1.78V10.75A.42.42,0,0,0,36.94,10.39ZM30,18.77a.89.89,0,1,1,.89-.89A.89.89,0,0,1,30,18.77ZM35.34,17a.89.89,0,1,1,.89-.89A.89.89,0,0,1,35.34,17Z"/>
    <path fill="#16436A" d="M19.61,25l-6.24,1.79a.44.44,0,0,0-.32.43V32a1.86,1.86,0,0,0-.89-.25,1.79,1.79,0,1,0,1.78,1.79V29.37l5.35-1.52v2.32a1.76,1.76,0,0,0-.89-.25,1.79,1.79,0,1,0,1.78,1.78V25.46a.43.43,0,0,0-.17-.35A.45.45,0,0,0,19.61,25Zm-7.45,9.35a.89.89,0,1,1,.89-.89A.89.89,0,0,1,12.16,34.38Zm1.78-5.94v-.86l5.35-1.53v.87ZM18.4,32.6a.9.9,0,1,1,.89-.9A.89.89,0,0,1,18.4,32.6Z"/>
  </g>
</svg>
