<svg xmlns="http://www.w3.org/2000/svg" viewBox="0 0 45 45"><title>facilities icons</title><g id="키친싱크"><path d="M2.64,17.26H14.8a.67.67,0,0,0,.68-.67v-2H29v2a.67.67,0,0,0,.68.67H41.82a.67.67,0,0,0,.68-.67V1.73a.67.67,0,0,0-.68-.67H29.67a.67.67,0,0,0-.68.67V8.86a4,4,0,0,0-2.69-1h-.69V1.73a.67.67,0,0,0-.67-.67H19.53a.67.67,0,0,0-.67.67V7.81h-.68a4,4,0,0,0-2.7,1V1.73a.67.67,0,0,0-.68-.67H2.64A.67.67,0,0,0,2,1.73V16.59a.67.67,0,0,0,.67.67Zm12.84-4v-.68H29v.68ZM30.34,2.41H41.15v13.5H30.34Zm-10.13,0h4.05v5.4H20.21Zm-2,6.76h8.11a2.69,2.69,0,0,1,2.6,2H15.57a2.71,2.71,0,0,1,2.61-2ZM3.32,2.41H14.13v13.5H3.32Z"/><path d="M2.64,44.3H41.82a.68.68,0,0,0,.68-.68V28.76a.68.68,0,0,0-.68-.68h-.67V26.73a.67.67,0,0,0-.68-.67H39.12a.68.68,0,0,0-1.35,0H36.42V22.68a.68.68,0,1,0-1.35,0v3.38H33.72a.68.68,0,0,0-1.35,0H31a.67.67,0,0,0-.68.67v1.35h-2v-2a.68.68,0,0,0,.68-.68.67.67,0,0,0-.68-.67h-.09a2.72,2.72,0,0,0-1.93-1.94v-.09a.68.68,0,0,0-1.36,0v.09A2.72,2.72,0,0,0,23,24.71h-.09a.68.68,0,0,0-.68.67.69.69,0,0,0,.68.68v2H21.56V26.73a.68.68,0,0,0-.68-.68H14.13a.68.68,0,0,0,0,1.36h2v.67H2.64a.68.68,0,0,0-.67.68V43.62a.68.68,0,0,0,.67.68Zm.68-7.43H14.13v6.07H3.32Zm13.5-7.44H29V42.94H15.48V29.43ZM41.15,42.94H30.34V29.44H41.15ZM31.69,27.41H39.8v.67H31.69ZM25.61,24h0a1.33,1.33,0,0,1,1.16.68H24.45A1.32,1.32,0,0,1,25.61,24Zm-1.35,2H27v2h-2.7ZM17.5,27.41h2.71v.67H17.5Zm-3.37,2v6.08H3.32V29.44Z"/><path d="M31.69,34.84a.67.67,0,0,0-.67.67v1.36a.68.68,0,0,0,.67.68.69.69,0,0,0,.68-.68V35.51A.68.68,0,0,0,31.69,34.84Z"/><path d="M31.69,10.52a.68.68,0,0,0,.68-.68V8.49a.68.68,0,0,0-.68-.68.67.67,0,0,0-.67.68V9.84A.67.67,0,0,0,31.69,10.52Z"/><path d="M4.67,7.81A.67.67,0,0,0,4,8.49V9.84a.68.68,0,1,0,1.35,0V8.49A.67.67,0,0,0,4.67,7.81Z"/><path d="M8,31.45H9.4a.67.67,0,0,0,.67-.67.68.68,0,0,0-.67-.68H8a.68.68,0,0,0-.67.68A.67.67,0,0,0,8,31.45Z"/><path d="M9.4,37.54H8a.68.68,0,0,0,0,1.35H9.4a.68.68,0,0,0,0-1.35Z"/><path d="M16.83,42.27H27.64a.68.68,0,0,0,.68-.68V32.81a.68.68,0,0,0-.68-.67H16.83a.68.68,0,0,0-.68.67v8.78a.68.68,0,0,0,.68.68Zm.67-8.78H27v7.43H17.5Z"/><path d="M16.84,31.46a.68.68,0,1,0,0-1.35h0a.66.66,0,0,0-.67.67A.67.67,0,0,0,16.84,31.46Z"/><path d="M19.55,31.46a.68.68,0,1,0,0-1.35h0a.67.67,0,0,0-.68.67A.68.68,0,0,0,19.55,31.46Z"/><path d="M25,31.46a.68.68,0,1,0,0-1.35h0a.66.66,0,0,0-.67.67A.67.67,0,0,0,25,31.46Z"/><path d="M27.67,31.46a.68.68,0,1,0,0-1.35h0a.67.67,0,0,0-.67.67A.68.68,0,0,0,27.67,31.46Z"/><path d="M17.58,19.6a.66.66,0,0,0,.6.37.63.63,0,0,0,.3-.07,1.28,1.28,0,0,0,.63-.8,1.85,1.85,0,0,0-.37-1.53.9.9,0,0,1-.18-.41A.68.68,0,0,0,17.88,16a1.28,1.28,0,0,0-.63.8,1.88,1.88,0,0,0,.37,1.53,1.05,1.05,0,0,1,.19.42.66.66,0,0,0-.23.86Z"/><path d="M21.63,19.6a.67.67,0,0,0,.61.37.66.66,0,0,0,.3-.07,1.31,1.31,0,0,0,.63-.8,1.92,1.92,0,0,0-.37-1.53.85.85,0,0,1-.19-.41A.68.68,0,0,0,21.93,16a1.31,1.31,0,0,0-.63.8,1.92,1.92,0,0,0,.37,1.53.91.91,0,0,1,.19.42.67.67,0,0,0-.23.86Z"/><path d="M25.68,19.6a.67.67,0,0,0,.61.37.66.66,0,0,0,.3-.07,1.28,1.28,0,0,0,.63-.8,1.88,1.88,0,0,0-.37-1.53,1,1,0,0,1-.19-.41A.68.68,0,0,0,26,16a1.28,1.28,0,0,0-.63.8,1.85,1.85,0,0,0,.37,1.53,1,1,0,0,1,.18.42.67.67,0,0,0-.23.86Z"/></g></svg>