<svg xmlns="http://www.w3.org/2000/svg" viewBox="0 0 100 100"><defs><style>.cls-1,.cls-2{fill:none;stroke:#fff;}.cls-1{stroke-linecap:square;stroke-linejoin:round;}.cls-2{stroke-miterlimit:10;}</style></defs><title>likepost</title><g id="좋아요_누른글" data-name="좋아요 누른글"><path fill="#fff" d="M61.18,19.74a6.3,6.3,0,0,0-10.06.72,9.52,9.52,0,0,0-.62,1,9.52,9.52,0,0,0-.62-1,6.3,6.3,0,0,0-10.06-.72,7.59,7.59,0,0,0-1.82,5,9.25,9.25,0,0,0,2.56,6.09,57.61,57.61,0,0,0,6.39,6c1,.82,2,1.67,3,2.6l0,0a.73.73,0,0,0,1,0l0,0c1.07-.93,2.07-1.78,3-2.6a57.61,57.61,0,0,0,6.39-6A9.25,9.25,0,0,0,63,24.77,7.59,7.59,0,0,0,61.18,19.74Zm-8.08,16c-.84.71-1.69,1.44-2.6,2.23-.9-.79-1.76-1.52-2.6-2.23-5.08-4.33-8.44-7.19-8.44-10.95a6.1,6.1,0,0,1,1.46-4.06,4.83,4.83,0,0,1,7.76.6,8.4,8.4,0,0,1,1.12,2.23.74.74,0,0,0,1.4,0,8.4,8.4,0,0,1,1.12-2.23,4.83,4.83,0,0,1,7.76-.6,6.1,6.1,0,0,1,1.46,4.06C61.54,28.53,58.18,31.39,53.1,35.72Z"/><path class="cls-1" d="M54.87,46.76,50.5,59,45.33,46.57h0a20.6,20.6,0,1,1,9.52.19Z"/><path class="cls-2" d="M70.72,22.59h9.41A6.39,6.39,0,0,1,86.5,29V86a6.39,6.39,0,0,1-6.37,6.37H20.87A6.39,6.39,0,0,1,14.5,86V29a6.39,6.39,0,0,1,6.37-6.37h9.41"/><path class="cls-2" d="M23.5,41V36.09a4.79,4.79,0,0,1,4.77-4.77h2.16"/><path class="cls-2" d="M34,83.68H28.27a4.79,4.79,0,0,1-4.77-4.77V73"/><path class="cls-2" d="M77.5,73v5.91a4.79,4.79,0,0,1-4.77,4.77H67"/><path class="cls-2" d="M70.57,31.32h2.16a4.79,4.79,0,0,1,4.77,4.77V41"/><path class="cls-2" d="M47.88,52.7,37.81,62.77l-.47,8.85s.19,1.86,1.87,1.86L48,72.93,66.31,54.59l.15-.18,1-1a5.38,5.38,0,0,0,0-7.59l-2.57-2.57a5.24,5.24,0,0,0-1.13-.87"/><line class="cls-2" x1="57.2" y1="46.11" x2="66" y2="54.9"/><line class="cls-2" x1="54.26" y1="48.47" x2="63.34" y2="57.55"/><line class="cls-2" x1="37.53" y1="68.18" x2="42.74" y2="73.26"/><line class="cls-2" x1="37.9" y1="62.69" x2="48.04" y2="72.85"/></g></svg>
