<svg xmlns="http://www.w3.org/2000/svg" viewBox="0 0 100 100">
  <defs>
    <style>
      .cls-1,
      .cls-2 {
        fill: none;
        stroke: #Fff;
        stroke-linejoin: round;
      }
      .cls-2 {
        stroke-linecap: square;
      }
    </style>
  </defs>
  <title>likecamper</title>
  <g id="관심있는차량">
    <circle class="cls-1" cx="32.07" cy="85.89" r="5.89"/>
    <circle class="cls-1" cx="32.07" cy="85.89" r="3.78"/>
    <circle class="cls-1" cx="86.59" cy="85.89" r="3.78"/>
    <circle class="cls-1" cx="86.59" cy="85.89" r="5.89"/>
    <path class="cls-1" d="M48.71,52.18h-.05L18.57,53l-11.23.12s-1.8-.12-2,1.51V84.29H26.39"/>
    <path class="cls-1" d="M49.35,84.29H69.13v-23l18.66.64s.72,0,1.52,0a9.49,9.49,0,0,0,2-.12A2.84,2.84,0,0,0,93.25,60c1-4.34-3-7.95-6.71-9.36A15.27,15.27,0,0,0,84.43,50a26.84,26.84,0,0,0-6.62-.68q-1.49-.06-3.18,0c-1.13,0-2.33.16-3.61.33L54.15,51.57"/>
    <line class="cls-1" x1="37.74" y1="84.29" x2="40.28" y2="84.29"/>
    <polyline class="cls-1" points="7.26 84.29 7.26 86.1 18.44 86.1 21.75 87.56 26.42 87.56"/>
    <polyline class="cls-1" points="37.72 87.56 68.66 87.56 68.66 86.84 68.66 84.29"/>
    <line class="cls-1" x1="68.66" y1="86.83" x2="80.78" y2="86.83"/>
    <path class="cls-1" d="M92.4,86.83H96s.09-4.9,0-5.89a2.54,2.54,0,0,0-.77-1.59,4.78,4.78,0,0,0-.82-2.19,6.84,6.84,0,0,0-.73-.91c-1.55-1.8-4.08-2.32-6.15-3.31a7.54,7.54,0,0,1-1.29-.76,10.55,10.55,0,0,1-1.16-1c-2.08-2-3.71-4.46-6-6.22a11.38,11.38,0,0,0-1.45-1,13,13,0,0,0-1.36-.49c-2.2-.66-4.25-.78-7.09-1.38h0"/><path class="cls-1" d="M83.58,71.87,79,66.54a5.1,5.1,0,0,0-2.79-1.68l-7.1-1.33H59.5A.52.52,0,0,0,59,64v8.77a.52.52,0,0,0,.52.52H83.58s1.46.09.82-.6Z"/><path class="cls-1" d="M90.5,58.75,73.78,58l-3.94-5s-.71-.88.8-1.14c0,0,7-1.5,11.35-.38,0,0,5.93.9,8.51,4.68,0,0,1.16,1.77.6,2.41C91.1,58.58,91,58.8,90.5,58.75Z"/>
    <path class="cls-1" d="M93.64,76.25H91.92l1.29,2.33a1.44,1.44,0,0,0,1.16.73l.82,0"/>
    <rect class="cls-1" x="40.5" y="62.02" width="9" height="23" rx="1" ry="1"/>
    <rect class="cls-1" x="8.5" y="56.02" width="11" height="8" rx="1" ry="1"/>
    <path fill="#fff" d="M62.18,19.74a6.3,6.3,0,0,0-10.06.72,9.52,9.52,0,0,0-.62,1,9.52,9.52,0,0,0-.62-1,6.3,6.3,0,0,0-10.06-.72,7.59,7.59,0,0,0-1.82,5,9.25,9.25,0,0,0,2.56,6.09,57.61,57.61,0,0,0,6.39,6c1,.82,2,1.67,3,2.6l0,0a.73.73,0,0,0,1,0l0,0c1.07-.93,2.07-1.78,3-2.6a57.61,57.61,0,0,0,6.39-6A9.25,9.25,0,0,0,64,24.77,7.59,7.59,0,0,0,62.18,19.74Zm-8.08,16c-.84.71-1.69,1.44-2.6,2.23-.9-.79-1.76-1.52-2.6-2.23-5.08-4.33-8.44-7.19-8.44-10.95a6.1,6.1,0,0,1,1.46-4.06,4.83,4.83,0,0,1,7.76.6,8.4,8.4,0,0,1,1.12,2.23.74.74,0,0,0,1.4,0,8.4,8.4,0,0,1,1.12-2.23,4.83,4.83,0,0,1,7.76-.6,6.1,6.1,0,0,1,1.46,4.06C62.54,28.53,59.18,31.39,54.1,35.72Z"/><path class="cls-2" d="M55.87,46.76,51.5,59,46.33,46.57h0a20.6,20.6,0,1,1,9.52.19Z"/></g>
</svg>
