<svg xmlns="http://www.w3.org/2000/svg" xmlns:xlink="http://www.w3.org/1999/xlink" width="140.62" height="96.626" viewBox="0 0 140.62 96.626">
  <defs>
    <clipPath id="clip-path">
      <path id="SVGID" d="M6.132,51.406s3.48-11.633,6.548-16.214c0,0,.65-1.158,1.627-2.728a59.794,59.794,0,0,1,3.582-5.207c9.9-12.3,24.805-20.93,40.7-21.926q2.689-.225,5.406-.275C69.93,4.9,76.162,5,82,6.366q1.75.411,3.447.982c13.939,4.672,23.815,20.634,20.744,35.358a31.793,31.793,0,0,1-.854,3.151,35.341,35.341,0,0,1-4.282,8.74L100,54.587l-68.727-.663-1.693-.017a44.123,44.123,0,0,1-6.966-.337c-4.586-.587-8.936-1.291-13.4-1.78l-2.2-.274Z" fill="none"/>
    </clipPath>
  </defs>
  <g id="Group_1234" data-name="Group 1234" transform="translate(-1.13 -2.5)">
    <g id="Group_1217" data-name="Group 1217">
      <path id="Path_6212" data-name="Path 6212" d="M57.683,75.9" fill="none" stroke="#000" stroke-miterlimit="10" stroke-width="1"/>
    </g>
    <g id="Group_1229" data-name="Group 1229">
      <g id="Group_1224" data-name="Group 1224">
        <g id="Group_1218" data-name="Group 1218">
          <path id="Path_6213" data-name="Path 6213" d="M53.83,76.946a12.092,12.092,0,0,0-5.147-1.022c-3.785,0-5.3,2.5-5.3,6.207,0,3.407,1.211,6.245,4.882,6.245a12.584,12.584,0,0,0,5.451-.984l.34,3.747a13.279,13.279,0,0,1-5.98,1.06c-6.358,0-9.159-4.5-9.159-10.068,0-6.245,3.557-10.03,9.462-10.03a15.947,15.947,0,0,1,5.677.985Z" fill="#ff4e00"/>
        </g>
        <g id="Group_1219" data-name="Group 1219">
          <path id="Path_6214" data-name="Path 6214" d="M64.541,89.663c-.492,1.325-2.385,2.536-4.769,2.536-5.526,0-6.169-4.05-6.169-6.093,0-5.678,6.207-6.473,10.938-6.435v-.946c0-2.157-1.287-2.8-2.99-2.8a10.722,10.722,0,0,0-6.17,1.855V73.54a15.366,15.366,0,0,1,6.17-1.439c5.034,0,7.456,1.7,7.456,7.154v7.683a29.681,29.681,0,0,0,.341,4.883H64.73V89.663Zm0-6.4v-.681h-.379c-3.255,0-6.093.757-6.093,3.406a2.086,2.086,0,0,0,2.384,2.384C63.367,88.376,64.541,86.295,64.541,83.267Z" fill="#ff4e00"/>
        </g>
        <g id="Group_1220" data-name="Group 1220">
          <path id="Path_6215" data-name="Path 6215" d="M74.987,72.669l.075,2.158.076.075a5.03,5.03,0,0,1,4.807-2.8c2.763,0,4.428,1.7,4.693,3.445A5.455,5.455,0,0,1,90.05,72.1c5.678,0,5.64,5.072,5.64,7.873V91.821H91.337V79.52c0-2.347-1.1-3.6-2.876-3.6-1.893,0-2.953,1.476-2.953,4.088V91.821H81.156V79.52c0-2.347-1.211-3.6-2.914-3.6-1.628,0-2.953,1.136-2.953,3.974V91.821H70.937V77.665a42.158,42.158,0,0,0-.227-5Z" fill="#ff4e00"/>
        </g>
        <g id="Group_1221" data-name="Group 1221">
          <path id="Path_6216" data-name="Path 6216" d="M101.707,99.126H97.279V77.552a46.626,46.626,0,0,0-.189-4.883h4.5l.038,2.082.075.113a5.674,5.674,0,0,1,5.11-2.763c5.412,0,7.191,4.732,7.191,9.955,0,4.958-1.59,10.143-7.116,10.143a5.752,5.752,0,0,1-5.185-2.725Zm4.126-10.787c2.876,0,3.671-2.915,3.671-6.586,0-3.709-1.1-5.829-3.936-5.829-2.877,0-3.823,2.763-3.823,5.753C101.745,85.046,102.426,88.339,105.833,88.339Z" fill="#ff4e00"/>
        </g>
        <g id="Group_1222" data-name="Group 1222">
          <path id="Path_6217" data-name="Path 6217" d="M129.525,90.647a13.89,13.89,0,0,1-6.7,1.552c-6.775,0-9.651-4.239-9.651-10.333,0-6.207,4.049-9.765,9.273-9.765,5.374,0,8.4,3.748,8.4,9.311v2.271h-13.1c.152,2.915,2.044,4.693,5.261,4.693a10.242,10.242,0,0,0,6.51-2.006Zm-3.141-10.673c-.114-2.536-1.4-4.05-3.9-4.05a4.28,4.28,0,0,0-4.617,4.05Z" fill="#ff4e00"/>
        </g>
        <g id="Group_1223" data-name="Group 1223">
          <path id="Path_6218" data-name="Path 6218" d="M135.732,91.821H131.3v-14c0-1.59-.076-3.482-.19-5.148h4.505l.037,2.195h.076A4.311,4.311,0,0,1,139.82,72.1a5.6,5.6,0,0,1,1.93.228v3.822a5.963,5.963,0,0,0-2.082-.227c-2.838,0-3.9,2.612-3.936,5.3Z" fill="#ff4e00"/>
        </g>
      </g>
      <g id="Group_1228" data-name="Group 1228">
        <g id="Group_1225" data-name="Group 1225">
          <path id="Path_6219" data-name="Path 6219" d="M18.01,85.555H8.65L6.4,92.135H1.13L11.266,64.507h4.21L25.734,92.135H20.258ZM10.2,80.937h6.253L13.31,71.863Z" fill="#ff4e00"/>
        </g>
        <g id="Group_1226" data-name="Group 1226">
          <path id="Path_6220" data-name="Path 6220" d="M30.475,62.463V92.135H25.653V62.463Z" fill="#ff4e00"/>
        </g>
        <g id="Group_1227" data-name="Group 1227">
          <path id="Path_6221" data-name="Path 6221" d="M37.586,62.463V92.135H32.764V62.463Z" fill="#ff4e00"/>
        </g>
      </g>
    </g>
    <path id="Path_6222" data-name="Path 6222" d="M113.554,50.539H65.891V60.665h42.352V53.7h5.311Z" fill="#333"/>
    <rect id="Rectangle_360" data-name="Rectangle 360" width="13.709" height="6.984" transform="translate(61.304 2.5)" fill="#ff4e00"/>
    <path id="Path_6223" data-name="Path 6223" d="M5.308,51.787s3.5-11.711,6.592-16.323c0,0,.655-1.166,1.638-2.746a60.335,60.335,0,0,1,3.607-5.243C27.114,15.1,42.116,6.405,58.115,5.4q2.706-.227,5.442-.277c5.979-.158,12.253-.059,18.127,1.319,1.175.276,2.333.6,3.471.989,14.032,4.7,23.974,20.773,20.883,35.6a32.3,32.3,0,0,1-.86,3.172,35.572,35.572,0,0,1-4.311,8.8L99.8,54.99l-69.19-.668-1.7-.017a44.486,44.486,0,0,1-7.014-.339c-4.616-.591-8.995-1.3-13.487-1.793L6.194,51.9Z" fill="#e9e1c4" stroke="#4d4d4d" stroke-miterlimit="10" stroke-width="1"/>
    <path id="Path_6224" data-name="Path 6224" d="M103.18,33.26a4.15,4.15,0,0,0-3.886,4.371A4.15,4.15,0,0,0,103.18,42h4.5V33.26Z" fill="#ff4e00"/>
    <rect id="Rectangle_361" data-name="Rectangle 361" width="80.343" height="4.018" transform="translate(25.486 54.367)" fill="#4d4d4d"/>
    <g id="Group_1230" data-name="Group 1230">
      <circle id="Ellipse_1696" data-name="Ellipse 1696" cx="10.853" cy="10.853" r="10.853" transform="translate(40.13 50.495)" fill="#4d4d4d"/>
      <circle id="Ellipse_1697" data-name="Ellipse 1697" cx="6.825" cy="6.825" r="6.825" transform="translate(44.158 54.524)" stroke-width="2" stroke="#4d4d4d" stroke-linecap="round" stroke-linejoin="round" fill="#ccc"/>
      <path id="Path_6225" data-name="Path 6225" d="M62.9,62.754a19.882,19.882,0,0,0-2.7-6.41q-.157-.231-.326-.458a9.714,9.714,0,0,0-3.4-2.892,13.518,13.518,0,0,0-2.1-.886,12.06,12.06,0,0,0-9.376.95A11.033,11.033,0,0,0,42.973,54.5a9.991,9.991,0,0,0-1.623,1.87c-.143.219-.288.457-.43.714a14.39,14.39,0,0,0-1.638,5.438,7.592,7.592,0,0,1-3.067-.213,18.058,18.058,0,0,1,5.536-12.643s2.141-2.521,7.006-3.48c0,0,7.459-1.332,12.705,3.32A15.82,15.82,0,0,1,65.736,55.9s1.416,4.333.545,6.854A9.985,9.985,0,0,1,62.9,62.754Z" fill="#ff4e00"/>
    </g>
    <g id="Group_1233" data-name="Group 1233">
      <g id="Group_1232" data-name="Group 1232" clip-path="url(#clip-path)">
        <g id="Group_1231" data-name="Group 1231">
          <path id="Path_6226" data-name="Path 6226" d="M8.342,29.417s28.264,6.167,44.451,4.368c0,0,42.909-3.6,52.415,1.791,0,0-12.847-4.874-51.644.522,0,0-28.777,3.854-48.562-1.285Z" fill="#ff4e00"/>
          <path id="Path_6227" data-name="Path 6227" d="M.12,39.944s20.042,3.34,47.791-1.542c0,0,40.082-7.451,56.783-2.312,0,0-17.728-4.625-56.783,4.624,0,0-27.235,7.452-49.846,4.111Z" fill="#ff4e00"/>
          <path id="Path_6228" data-name="Path 6228" d="M-1.678,50.229l-.514,1.8L13.224,54.34s24.409-1.549,38.8-8.992c0,0,10.791-5.147,33.145-8.488,0,0,12.076-1.533,21.069.523,0,0-10.277-4.368-36.485,1.027C69.751,38.41,10.655,53.57-1.678,50.229Z" fill="#ff4e00"/>
        </g>
      </g>
    </g>
    <rect id="Rectangle_362" data-name="Rectangle 362" width="22.004" height="14.934" rx="1.242" transform="translate(43.281 18.636)" fill="#e9e1c4" stroke="#4d4d4d" stroke-miterlimit="10" stroke-width="1"/>
    <path id="Path_6229" data-name="Path 6229" d="M79.865,11.195A11.511,11.511,0,0,0,68.354,22.706V50.228H91.376V22.706A11.511,11.511,0,0,0,79.865,11.195Z" fill="#e9e1c4" stroke="#4d4d4d" stroke-miterlimit="10" stroke-width="1"/>
    <circle id="Ellipse_1698" data-name="Ellipse 1698" cx="5.898" cy="5.898" r="5.898" transform="translate(73.976 17.084)" fill="#c9c3bc" stroke="#4d4d4d" stroke-miterlimit="10" stroke-width="1"/>
  </g>
</svg>
