<svg id="레이어_1" data-name="레이어 1" xmlns="http://www.w3.org/2000/svg" xmlns:xlink="http://www.w3.org/1999/xlink" viewBox="0 0 13577.04 681.35"><defs><style>.cls-1,.cls-13,.cls-14,.cls-31{fill:none;}.cls-1{stroke:#131723;stroke-width:2px;}.cls-1,.cls-13,.cls-14,.cls-18,.cls-23,.cls-30,.cls-31,.cls-35,.cls-37,.cls-38{stroke-miterlimit:10;}.cls-2{fill:#7fffd4;}.cls-12,.cls-26,.cls-3{fill:#ccc;}.cls-4{fill:#121266;}.cls-5{fill:#0e0e40;}.cls-6{fill:#e54405;}.cls-19,.cls-27,.cls-28,.cls-7{fill:#ff4500;}.cls-8{fill:#ea3d07;}.cls-9{fill:#807867;}.cls-10{fill:#e6d8ba;}.cls-11,.cls-18{fill:#fff0cf;}.cls-12,.cls-13{stroke:#0e0e40;}.cls-12,.cls-26,.cls-32{stroke-linecap:round;stroke-linejoin:round;}.cls-12{stroke-width:12.43px;}.cls-14{stroke:#ccc;}.cls-15{fill:#fe5a27;}.cls-16{clip-path:url(#clip-path);}.cls-17{fill:#ff4e00;}.cls-18{stroke:#ff4500;}.cls-19{font-size:24.79px;}.cls-19,.cls-27,.cls-28{font-family:Youth, Youth;}.cls-20{font-size:12px;font-family:AdobeMyungjoStd-Medium-KSCpc-EUC-H, Adobe Myungjo Std;}.cls-21{fill:#406a48;}.cls-22{fill:#1e4424;}.cls-23{fill:#ff5f06;stroke:#1a1a1a;stroke-width:8px;}.cls-24{fill:#1a1a1a;}.cls-25{fill:#1f201c;}.cls-26,.cls-30,.cls-31,.cls-32{stroke:#4d4d4d;stroke-width:10px;}.cls-27{font-size:381.6px;letter-spacing:-0.05em;}.cls-28{font-size:403.81px;letter-spacing:-0.08em;}.cls-29{fill:#333;}.cls-30{fill:#e9e1c4;}.cls-32{fill:#c9c3bc;}.cls-33{fill:#4d4d4d;}.cls-34,.cls-35{fill:#160d7c;}.cls-35,.cls-38{stroke:#ff4e00;}.cls-35{stroke-width:0;}.cls-36,.cls-38{fill:#2463cd;}.cls-37,.cls-40{fill:#67e6f6;}.cls-37{stroke:#1a1270;stroke-width:18px;}.cls-38{stroke-width:12px;}.cls-39{fill:#101111;}</style><clipPath id="clip-path"><path class="cls-1" d="M717.64,107.57c-53.95,0-97.68,43.58-97.68,97.34V437.65H815.33V204.91C815.33,151.15,771.59,107.57,717.64,107.57Z"/></clipPath></defs><title>maincamper</title><path class="cls-2" d="M194.09,166.62c2.57,0,2.58-4,0-4s-2.58,4,0,4Z"/><path class="cls-3" d="M1099.12,413.62h13.14a.52.52,0,0,1,.52.52v81.41a0,0,0,0,1,0,0H1098.6a0,0,0,0,1,0,0V414.14A.52.52,0,0,1,1099.12,413.62Z"/><rect class="cls-4" x="1094.27" y="407.58" width="22.85" height="7.66" rx="0.52" ry="0.52"/><rect class="cls-5" x="1090.22" y="397.08" width="30.95" height="11.82" rx="5.39" ry="5.39"/><rect class="cls-3" x="1101.75" y="536.91" width="7.88" height="81.93" transform="translate(2211.38 1155.74) rotate(180)"/><rect class="cls-4" x="1094.27" y="587.32" width="22.85" height="68.54" transform="translate(2211.38 1243.18) rotate(180)"/><rect class="cls-5" x="1084.42" y="655.97" width="42.54" height="10.02"/><path class="cls-5" d="M1126.63,541.93h58.65V531.11c0-7.22-8.12-9-8.12-9h-10.83c0-6.31-8.12-6.31-8.12-6.31h-31.58Z"/><path class="cls-5" d="M1159,530s1-10.83-5.26-10.83h-16.24s-4.51,3.61,0,5.41c0,0,9-.9,9.92,1.81l-.14,3.61Z"/><rect class="cls-5" x="197.62" y="493.47" width="929.02" height="48.46"/><rect class="cls-6" x="941.54" y="324.76" width="121.92" height="148.42"/><rect class="cls-7" x="932.71" y="309.11" width="136.94" height="31.67" rx="9.67" ry="9.67"/><ellipse class="cls-7" cx="1001.18" cy="314.24" rx="67.54" ry="12.58"/><path class="cls-7" d="M944,453.87s36,8.27,57.58,8.27,58.5-8.27,58.5-8.27a9.56,9.56,0,0,1,9.54,9.54v12.18a9.56,9.56,0,0,1-9.54,9.54H944a9.57,9.57,0,0,1-9.55-9.54V463.41A9.57,9.57,0,0,1,944,453.87Z"/><ellipse class="cls-7" cx="1002.06" cy="479.62" rx="66.66" ry="12.87"/><path class="cls-7" d="M1063.46,360.1h-48.59a8.86,8.86,0,0,0-8.84,8.83v63.61a8.86,8.86,0,0,0,8.84,8.83h48.59Z"/><circle class="cls-8" cx="1050.21" cy="368.93" r="4.42"/><circle class="cls-8" cx="1037.84" cy="368.93" r="4.42"/><circle class="cls-8" cx="1025.47" cy="368.93" r="4.42"/><circle class="cls-8" cx="1013.1" cy="368.93" r="4.42"/><path class="cls-8" d="M1063.46,364.51a4.42,4.42,0,0,0,0,8.84Z"/><circle class="cls-8" cx="1050.21" cy="384.83" r="4.42"/><circle class="cls-8" cx="1037.84" cy="384.83" r="4.42"/><circle class="cls-8" cx="1025.47" cy="384.83" r="4.42"/><circle class="cls-8" cx="1013.1" cy="384.83" r="4.42"/><path class="cls-8" d="M1063.46,380.42a4.42,4.42,0,1,0,0,8.83Z"/><circle class="cls-8" cx="1050.21" cy="400.74" r="4.42"/><circle class="cls-8" cx="1037.84" cy="400.74" r="4.42"/><circle class="cls-8" cx="1025.47" cy="400.74" r="4.42"/><circle class="cls-8" cx="1013.1" cy="400.74" r="4.42"/><path class="cls-8" d="M1063.46,396.32a4.42,4.42,0,1,0,0,8.83Z"/><circle class="cls-8" cx="1050.21" cy="416.64" r="4.42"/><circle class="cls-8" cx="1037.84" cy="416.64" r="4.42"/><circle class="cls-8" cx="1025.47" cy="416.64" r="4.42"/><circle class="cls-8" cx="1013.1" cy="416.64" r="4.42"/><path class="cls-8" d="M1063.46,412.22a4.42,4.42,0,1,0,0,8.83Z"/><circle class="cls-8" cx="1050.21" cy="432.54" r="4.42"/><circle class="cls-8" cx="1037.84" cy="432.54" r="4.42"/><circle class="cls-8" cx="1025.47" cy="432.54" r="4.42"/><circle class="cls-8" cx="1013.1" cy="432.54" r="4.42"/><path class="cls-8" d="M1063.46,428.12a4.42,4.42,0,0,0,0,8.84Z"/><rect class="cls-9" x="527.79" y="20.12" width="103.99" height="12.6"/><rect class="cls-10" x="522.28" y="12.25" width="115.02" height="9.45" rx="4.73" ry="4.73"/><path class="cls-2" d="M363.93,29.58,348.18,49.27V61.09L345.81,80l48.06-1.57,34.66-23.63-10.24-15S392.29,23.27,363.93,29.58Z"/><path class="cls-2" d="M705,43.76l2.36-14.18,22.06-17.33s25.21,18.9,20.48,36.23Z"/><path class="cls-11" d="M9.31,469.46S42.48,358.6,71.71,314.94c0,0,6.21-11,15.51-26s21.72-33.86,34.14-49.63c94.37-117.19,236.4-199.47,387.86-209q25.62-2.16,51.51-2.63c56.6-1.49,116-.56,171.61,12.49q16.68,3.91,32.85,9.36c132.84,44.52,227,196.66,197.7,337a306,306,0,0,1-8.14,30,336.79,336.79,0,0,1-40.81,83.3l-10.06-.1-655-6.32-16.13-.16c-22.7.14-44,.14-66.4-3.21-43.7-5.6-85.16-12.31-127.68-17l-21-2.61Z"/><rect class="cls-2" x="220.55" y="493.47" width="760.59" height="27.68"/><circle class="cls-5" cx="444.45" cy="563.36" r="102.74"/><circle class="cls-12" cx="444.45" cy="563.36" r="64.61"/><circle class="cls-5" cx="444.45" cy="563.36" r="16.37"/><path class="cls-7" d="M557.23,576.67s-6.65-33-25.52-60.69c-1-1.46-2-2.91-3.08-4.33C520.25,500,509.05,491,496.41,484.27a127.53,127.53,0,0,0-19.87-8.39,114.18,114.18,0,0,0-88.76,9,104.77,104.77,0,0,0-19.15,13.67,94.44,94.44,0,0,0-15.37,17.7c-1.35,2.07-2.72,4.32-4.07,6.76-6.74,12.18-13,29-15.5,51.48,0,0-20.28,2.35-29-2,0,0-2.06-68.58,52.4-119.68,0,0,20.28-23.87,66.33-32.95,0,0,70.62-12.61,120.27,31.43,0,0,28.36,24,40.47,60.52,0,0,13.4,41,5.15,64.89C589.27,576.67,569.26,580,557.23,576.67Z"/><rect class="cls-5" x="380.1" y="146.92" width="191.18" height="129.75" rx="10.79" ry="10.79"/><rect class="cls-10" x="388.14" y="155.08" width="175.11" height="114.13" rx="9.68" ry="9.68"/><path class="cls-5" d="M718,93c-62,0-112.32,47.33-112.32,105.71V451.43H830.35V198.7C830.35,140.32,780.07,93,718,93Z"/><path class="cls-7" d="M97.33,272.54s250.51,54.71,394,38.75c0,0,380.31-32,464.57,15.89,0,0-113.86-43.24-457.74,4.63,0,0-255.06,34.19-430.41-11.4Z"/><path class="cls-7" d="M46.15,365.92s173.47,29.64,413.67-13.67c0,0,346.94-66.1,491.5-20.52,0,0-153.46-41-491.5,41,0,0-235.75,66.1-431.46,36.47Z"/><path class="cls-7" d="M13.18,457.17l-4.54,16L155,488.77s204.93-8.88,331.85-74.91c0,0,95.18-45.66,292.34-75.29,0,0,106.52-13.6,185.84,4.63,0,0-90.65-38.74-321.81,9.12C643.2,352.32,122,486.8,13.18,457.17Z"/><path class="cls-11" d="M717.64,98.11c-58.3,0-105.56,46-105.56,102.69V446.31H823.21V200.8C823.21,144.09,775.94,98.11,717.64,98.11Z"/><circle class="cls-5" cx="717.96" cy="200.15" r="55.83"/><circle class="cls-10" cx="717.96" cy="200.15" r="48.43"/><rect class="cls-5" x="1139.43" y="442.06" width="25.89" height="8.12" rx="4.06" ry="4.06"/><path class="cls-13" d="M1119.86,403.23s9.93-3,9,12.15v23.53s-.91,9.11,12.63,6.83"/><line class="cls-14" x1="1172.98" y1="529.34" x2="1172.98" y2="541.93"/><rect class="cls-9" x="523.06" y="56.38" width="115.02" height="18.11" rx="8.34" ry="8.34"/><rect class="cls-10" x="522.28" y="54.02" width="115.02" height="18.11" rx="8.34" ry="8.34"/><rect class="cls-9" x="257.26" y="141.82" width="41.6" height="52.8"/><rect class="cls-10" x="258.37" y="139.08" width="39.39" height="53.57"/><path class="cls-2" d="M938.59,297.9c-20.32,0-36.79,18.53-36.79,41.39s16.47,41.38,36.79,41.38h42.55V297.9Z"/><circle class="cls-15" cx="971.31" cy="306.09" r="2.36"/><circle class="cls-15" cx="930.34" cy="310.81" r="2.36"/><circle class="cls-15" cx="909.86" cy="339.29" r="2.36"/><circle class="cls-15" cx="932.71" cy="369.9" r="2.36"/><circle class="cls-15" cx="972.1" cy="371.47" r="2.36"/><path class="cls-5" d="M467.14,515.24c0-12.84-10.41-28.75-23.24-28.75s-23.25,15.91-23.25,28.75a23.25,23.25,0,0,0,46.49,0Z"/><path class="cls-5" d="M468.49,621.59c0-12.84-10.41-28.75-23.25-28.75S422,608.75,422,621.59a23.25,23.25,0,0,0,46.49,0Z"/><path class="cls-5" d="M397,540.45c-12.84,0-28.75,10.4-28.75,23.24s15.91,23.24,28.75,23.24a23.24,23.24,0,1,0,0-46.48Z"/><path class="cls-5" d="M497.07,540.45c-12.84,0-28.75,10.4-28.75,23.24s15.91,23.24,28.75,23.24a23.24,23.24,0,1,0,0-46.48Z"/><rect class="cls-5" x="637.29" y="247" width="29.15" height="34.66" rx="7.88" ry="7.88"/><g class="cls-16"><path class="cls-17" d="M97.78,272.45s247.66,55.13,389.51,39.05c0,0,376-32.23,459.3,16,0,0-112.58-43.56-452.55,4.67,0,0-252.16,34.45-425.53-11.48Z"/><path class="cls-17" d="M47.5,366.55S219,396.4,456.33,352.77c0,0,342.9-66.61,485.77-20.67,0,0-151.66-41.35-485.77,41.34,0,0-233,66.6-426.42,36.74Z"/><path class="cls-17" d="M13.92,458.49,9.43,474.57l145.74,20s201.77-13.23,327.32-79.76c0,0,94.17-46,289.22-75.86,0,0,105.37-13.71,183.84,4.66,0,0-89.68-39-318.36,9.19C637.19,352.84,121.53,488.35,13.92,458.49Z"/></g><path class="cls-1" d="M717.64,107.57c-53.95,0-97.68,43.58-97.68,97.34V437.65H815.33V204.91C815.33,151.15,771.59,107.57,717.64,107.57Z"/><circle class="cls-3" cx="651.47" cy="264.33" r="5.51"/><circle class="cls-11" cx="728.67" cy="28.79" r="2.36"/><circle class="cls-11" cx="374.17" cy="42.97" r="3.15"/><ellipse class="cls-11" cx="328.09" cy="327.75" rx="59.48" ry="38.21"/><ellipse class="cls-18" cx="327.9" cy="327.07" rx="35.84" ry="26.58"/><path class="cls-2" d="M327.49,300.94c-19.8,0-35,11.7-35,26.13h70.9C363.35,312.64,347.29,300.94,327.49,300.94Z"/><text class="cls-19" transform="translate(303.03 335.23)">T@G</text><text class="cls-20" transform="translate(741.23 547.11)"> </text><path class="cls-21" d="M11348.12,481.84h341V255.31s19.09-202.46-216.57-209.92h-296.22s-136.08-3.32-267.18,96.25c0,0-14.65,10.53-38.48,32.18-8,7.21-16.91,15.66-26.69,25.38-39.23,36.14-76.57,76-95.23,127-17.43,43.56,8.71,99.57,53.5,117.83a182.93,182.93,0,0,0,36.47,11.36l5.29,1.25.21,23.75,216.15,1.45a144.48,144.48,0,0,1,287.35,0Z"/><path class="cls-22" d="M10767.11,289.65a223,223,0,0,0-18.33,38.11c-17.43,43.56,8.71,99.57,53.5,117.83a182.93,182.93,0,0,0,36.47,11.36l5.29,1.24.21,23.76,216.15,1.45a144.48,144.48,0,0,1,287.35,0h341.4V289.65Z"/><rect class="cls-23" x="11350.17" y="173.84" width="183.11" height="221.45" rx="28.35" ry="28.35"/><path class="cls-24" d="M11401.21,173.92c-.65,0-1.31-.08-2-.08h-21a28.19,28.19,0,0,0-28.11,28.11V367.19a28.19,28.19,0,0,0,28.11,28.11h21c.66,0,1.32,0,2-.08Z"/><rect class="cls-24" x="11384.68" y="280.7" width="151.38" height="8.94"/><circle class="cls-25" cx="11205.17" cy="499.29" r="133.69"/><path class="cls-25" d="M11871.87,521.58a36.4,36.4,0,0,0-35.86,30.18h-9.88V482h12V329.7H11695V482h118v85.67h23.71a36.41,36.41,0,1,0,35.1-46Z"/><rect class="cls-25" x="11821.14" y="418.48" width="103.31" height="43.56"/><circle class="cls-25" cx="11712.99" cy="300.54" r="7.66"/><rect class="cls-25" x="11711.47" y="306.29" width="2.93" height="23.61"/><rect class="cls-25" x="11698.85" y="325.5" width="15.32" height="2.87" transform="translate(2504.48 7570.69) rotate(-39.81)"/><rect class="cls-25" x="11711.64" y="325.5" width="15.32" height="2.87" transform="translate(20512.53 8081.17) rotate(-140.19)"/><path class="cls-24" d="M11695,236.19v7.18c5.13,9.57,13.74,31.73,0,54.87v6.82h0C11719.87,270.81,11695.53,236.89,11695,236.19Z"/><circle class="cls-26" cx="11206.79" cy="496.43" r="65.96"/><text class="cls-27" transform="translate(12351.45 449.95)">camper</text><text class="cls-28" transform="translate(11926.98 454.57) scale(1 1.13)">All</text><polygon class="cls-29" points="7965.66 455.95 7914.33 455.95 7907.66 455.95 7505 455.95 7505 553.82 7914.33 553.82 7914.33 486.49 7965.66 486.49 7965.66 455.95"/><path class="cls-30" d="M6924.37,464.56s33.86-113.19,63.71-157.76c0,0,6.33-11.27,15.83-26.54s22.17-34.57,34.86-50.67C7135.12,110,7280.12,26,7434.74,16.25q26.16-2.19,52.59-2.68c57.79-1.52,118.43-.57,175.2,12.75,11.36,2.67,22.56,5.83,33.55,9.56,135.62,45.45,231.71,200.77,201.83,344a312.46,312.46,0,0,1-8.3,30.66,344.37,344.37,0,0,1-41.67,85l-10.27-.1L7169,489.06l-16.47-.17c-23.17.15-44.9.15-67.78-3.28-44.61-5.71-86.94-12.56-130.35-17.32l-21.42-2.66Z"/><circle class="cls-31" cx="7640.14" cy="189.61" r="57"/><rect class="cls-32" x="7286.48" y="147.61" width="212.67" height="144.33" rx="12" ry="12"/><path class="cls-31" d="M7640.06,75.7A111.25,111.25,0,0,0,7528.81,187V453h222.5V187A111.25,111.25,0,0,0,7640.06,75.7Z"/><path class="cls-17" d="M7865.4,289c-20.75,0-37.56,18.91-37.56,42.25s16.81,42.25,37.56,42.25h43.44V289Z"/><rect class="cls-33" x="7114.49" y="492.95" width="776.51" height="38.83"/><circle class="cls-33" cx="7360.92" cy="560.42" r="104.89"/><circle class="cls-26" cx="7360.92" cy="560.42" r="65.96"/><path class="cls-17" d="M7471.09,569.75s-6.78-33.66-26.06-61.95c-1-1.49-2.06-3-3.14-4.42-8.55-11.94-20-21.12-32.9-28a131.72,131.72,0,0,0-20.27-8.56A116.54,116.54,0,0,0,7298.1,476,107.53,107.53,0,0,0,7278.54,490a96.64,96.64,0,0,0-15.69,18.07c-1.38,2.12-2.78,4.42-4.15,6.9-6.88,12.44-13.3,29.64-15.83,52.56,0,0-20.7,2.41-29.65-2.06,0,0-2.1-70,53.51-122.19,0,0,20.69-24.37,67.71-33.64,0,0,72.1-12.87,122.79,32.1,0,0,29,24.45,41.31,61.78,0,0,13.69,41.87,5.27,66.24C7503.81,569.75,7483.37,573.19,7471.09,569.75Z"/><text class="cls-27" transform="translate(8408.63 474.98)">camper</text><text class="cls-28" transform="translate(7984.15 479.6) scale(1 1.13)">All</text><text></text><rect class="cls-34" x="3348.83" y="459.21" width="289.49" height="62.17"/><rect class="cls-35" x="3667.85" y="471.82" width="346" height="23.21"/><path class="cls-36" d="M2857.82,479.42h280.5s21.5-108.83,138.5-109.83c0,0,104.67-5,137.67,109.83h499.66s22.17-70.79,22.67-152.25a398.57,398.57,0,0,0-4.29-62.29C3903.82,52.18,3641.82,44.18,3472.41,48q-27.36,1.33-54.56,4.51A763.47,763.47,0,0,0,3258,88.74q-24.78,8.16-49.21,17.49-23.76,9.06-47.17,19.12-11.72,5-23.33,10.27c-89.79,41.94-180.79,81.94-255.79,150.94-15,14-16,37-19.31,57.42-1.11,7.42-2,15.1-2.78,22.86C2855.1,421.15,2857.82,479.42,2857.82,479.42Z"/><rect class="cls-37" x="3508.42" y="127.63" width="246.25" height="228.58" rx="42.52" ry="42.52"/><rect class="cls-38" x="3754.67" y="127.63" width="215.24" height="222.89" rx="34.02" ry="34.02"/><rect class="cls-17" x="2912.97" y="308.56" width="297.33" height="10.5"/><circle class="cls-39" cx="3270.76" cy="504.8" r="126.14"/><path class="cls-40" d="M3140.64,492.14c8.52-68.61,59.31-121.9,130.19-121.9s121.14,53.29,129.66,121.9H3419c-8.57-74.14-71.73-131.9-148.14-131.9S3131.27,418,3122.69,492.14Z"/><circle class="cls-26" cx="3270.76" cy="504.8" r="65.96"/><text class="cls-27" transform="translate(4460.11 481.11)">camper</text><text class="cls-28" transform="translate(4035.64 485.73) scale(1 1.13)">All</text></svg>