<svg id="레이어_1" data-name="레이어 1" xmlns="http://www.w3.org/2000/svg" xmlns:xlink="http://www.w3.org/1999/xlink" viewBox="0 0 14524.69 681.35"><defs><style>.cls-1,.cls-11,.cls-32{fill:none;}.cls-1,.cls-30{stroke:#131723;}.cls-1,.cls-10,.cls-11,.cls-16,.cls-18,.cls-19,.cls-32,.cls-4{stroke-miterlimit:10;}.cls-1,.cls-32{stroke-width:2px;}.cls-2{fill:#406a48;}.cls-3{fill:#1e4424;}.cls-4{fill:#ff5f06;stroke:#1a1a1a;stroke-width:8px;}.cls-5{fill:#1a1a1a;}.cls-6{fill:#1f201c;}.cls-30,.cls-7{fill:#ccc;}.cls-10,.cls-11,.cls-12,.cls-7{stroke:#4d4d4d;stroke-width:10px;}.cls-12,.cls-30,.cls-7{stroke-linecap:round;stroke-linejoin:round;}.cls-8{fill:#ff4500;}.cls-9{fill:#333;}.cls-10,.cls-38{fill:#e9e1c4;}.cls-12{fill:#c9c3bc;}.cls-13{fill:#ff4e00;}.cls-14{fill:#4d4d4d;}.cls-15,.cls-16{fill:#160d7c;}.cls-16,.cls-19{stroke:#ff4e00;}.cls-16{stroke-width:0;}.cls-17,.cls-19{fill:#2463cd;}.cls-18,.cls-21{fill:#67e6f6;}.cls-18{stroke:#1a1270;stroke-width:18px;}.cls-19{stroke-width:12px;}.cls-20{fill:#101111;}.cls-22{fill:#222a40;}.cls-23{fill:#131723;}.cls-24{fill:#e54405;}.cls-25{fill:#fe5a27;}.cls-26{fill:#807867;}.cls-27{fill:#e6d8ba;}.cls-28{fill:#49aec0;}.cls-29{fill:#fff0cf;}.cls-30{stroke-width:12.43px;}.cls-31{fill:#d63403;}.cls-32{stroke:#ccc;}.cls-33{clip-path:url(#clip-path);}.cls-34{fill:#6b7080;}.cls-35{fill:#ed970c;}.cls-36{fill:#f2b69c;}.cls-37{fill:#d8d2c0;}.cls-39{fill:#c56231;}.cls-40{fill:#273a76;}.cls-41{fill:#f1a992;}.cls-42{fill:#c56133;}.cls-43{fill:#bf3b3e;}</style><clipPath id="clip-path"><path class="cls-1" d="M737.42,102.08C682,102.08,637,146.88,637,202.14V441.38H837.83V202.14C837.83,146.88,792.87,102.08,737.42,102.08Z"/></clipPath></defs><title>maincamper</title><path class="cls-2" d="M12768.91,481.84h341V255.31S13129,52.85,12893.37,45.39h-296.22s-136.08-3.32-267.18,96.25c0,0-14.66,10.53-38.49,32.18-7.94,7.21-16.9,15.66-26.68,25.38-39.23,36.14-76.57,76-95.24,127-17.42,43.56,8.72,99.57,53.51,117.83a182.93,182.93,0,0,0,36.47,11.36l5.29,1.25.21,23.75,216.15,1.45a144.48,144.48,0,0,1,287.35,0Z"/><path class="cls-3" d="M12187.9,289.65a223.79,223.79,0,0,0-18.34,38.11c-17.42,43.56,8.72,99.57,53.51,117.83a182.72,182.72,0,0,0,36.47,11.36l5.29,1.24L12265,482l216.15,1.45a144.48,144.48,0,0,1,287.35,0h341.4V289.65Z"/><rect class="cls-4" x="12770.96" y="173.84" width="183.11" height="221.45" rx="28.35" ry="28.35"/><path class="cls-5" d="M12822,173.92c-.65,0-1.31-.08-2-.08h-21A28.19,28.19,0,0,0,12771,202V367.19a28.19,28.19,0,0,0,28.11,28.11h21c.66,0,1.32,0,2-.08Z"/><rect class="cls-5" x="12805.47" y="280.7" width="151.38" height="8.94"/><circle class="cls-6" cx="12625.96" cy="499.29" r="133.69"/><path class="cls-6" d="M13292.66,521.58a36.4,36.4,0,0,0-35.86,30.18h-9.88V482h12V329.7h-143.13V482h118v85.67h23.71a36.41,36.41,0,1,0,35.1-46Z"/><rect class="cls-6" x="13241.93" y="418.48" width="103.31" height="43.56"/><circle class="cls-6" cx="13133.78" cy="300.54" r="7.66"/><rect class="cls-6" x="13132.26" y="306.29" width="2.93" height="23.61"/><rect class="cls-6" x="13119.64" y="325.5" width="15.32" height="2.87" transform="translate(2833.85 8480.32) rotate(-39.81)"/><rect class="cls-6" x="13132.43" y="325.5" width="15.32" height="2.87" transform="translate(23024.74 8990.8) rotate(-140.19)"/><path class="cls-5" d="M13115.81,236.19v7.18c5.13,9.57,13.74,31.73,0,54.87v6.82h0C13140.66,270.81,13116.32,236.89,13115.81,236.19Z"/><circle class="cls-7" cx="12627.58" cy="496.43" r="65.96"/><path class="cls-8" d="M13764.58,434.68l5.22,20.08a69.21,69.21,0,0,1-15.52,5.22,88.29,88.29,0,0,1-19.44,2.09q-16.17,0-28.56-5.87a59.14,59.14,0,0,1-20.73-16.05,70.57,70.57,0,0,1-12.65-23.73,95.14,95.14,0,0,1-4.31-28.95,90.07,90.07,0,0,1,4.57-29,68.76,68.76,0,0,1,13.17-23.47,60.8,60.8,0,0,1,20.61-15.78,63.08,63.08,0,0,1,27.64-5.87,70.28,70.28,0,0,1,17.35,2.22,75,75,0,0,1,15,5.34l-6.26,19.3a54.88,54.88,0,0,0-10.83-3.91,51.09,51.09,0,0,0-12.65-1.56,33.66,33.66,0,0,0-17.73,4.56,41.5,41.5,0,0,0-12.79,12.13,52.57,52.57,0,0,0-7.82,16.82,72.31,72.31,0,0,0-2.61,19.18,82.5,82.5,0,0,0,2.22,19,52.64,52.64,0,0,0,7.17,16.95,41.29,41.29,0,0,0,13.17,12.26q8,4.69,19.7,4.7a63.29,63.29,0,0,0,14.47-1.57A48.81,48.81,0,0,0,13764.58,434.68Z"/><path class="cls-8" d="M13887.17,458.15h-24c-.17-1.39-.35-2.83-.52-4.3a37.68,37.68,0,0,1-.26-4.3c-.17-1.39-.31-2.74-.39-4.05s-.13-2.65-.13-4q-6.27,8.35-17.35,14.21a52.88,52.88,0,0,1-25.17,5.87q-22.17,0-34.82-10.56t-12.65-32.74q0-12.51,5.22-21.38a41.15,41.15,0,0,1,14.08-14.35,63.3,63.3,0,0,1,20-8.09,104.3,104.3,0,0,1,23.34-2.6q6.53,0,12.65.13t12.65.13q0-18-7.43-27.78t-26-9.78a54.25,54.25,0,0,0-20.6,3.91,57.34,57.34,0,0,0-16.7,10.17,82.54,82.54,0,0,1-3.78-10.56q-1.69-5.88-2.74-10.57a68.94,68.94,0,0,1,22.31-10.56,92.82,92.82,0,0,1,25.69-3.78q28.68,0,41.47,15.52t12.78,44.21v52.95q0,8.61.78,18.26T13887.17,458.15Zm-26.87-67.55h-16.69a115.59,115.59,0,0,0-13,.91,68.39,68.39,0,0,0-15.13,3.52,34,34,0,0,0-12.39,8.22q-5.08,5.34-5.09,14.21,0,11.75,8,17.61a28.22,28.22,0,0,0,17.08,5.87q19.83,0,28.57-13.44T13860.3,390.6Z"/><path class="cls-8" d="M14104.45,458.15h-25.83V371.56a103.37,103.37,0,0,0-.78-12.26,38.23,38.23,0,0,0-3.39-12,25.63,25.63,0,0,0-7.17-9.13q-4.58-3.66-12.39-3.65-9.39,0-15.91,4.56a37,37,0,0,0-10.7,11.61,52,52,0,0,0-5.87,16.3,96.39,96.39,0,0,0-1.69,17.87v73.29h-25.56V371.56a88.38,88.38,0,0,0-.92-12.26,46.62,46.62,0,0,0-3.26-12,25,25,0,0,0-7.3-9.13q-4.7-3.66-12.52-3.65-9.66,0-16.17,4.56a34.35,34.35,0,0,0-10.44,11.61,56.34,56.34,0,0,0-5.6,16.3,95.56,95.56,0,0,0-1.7,17.87v73.29h-25.82V316.52h24v19q9.14-12.53,19.83-17.35a57.15,57.15,0,0,1,23.73-4.82,39.9,39.9,0,0,1,21.91,6.52q10.19,6.52,15.65,20.34,7.3-14.6,20.09-20.73t23-6.13q12.52,0,21,4a38.31,38.31,0,0,1,14,11.09,46.1,46.1,0,0,1,7.56,16.56,85.61,85.61,0,0,1,2.35,20.48Z"/><path class="cls-8" d="M14201.48,313.13q14.59,0,25.43,6.13a54.64,54.64,0,0,1,17.86,16,72.47,72.47,0,0,1,10.44,23.08,104.87,104.87,0,0,1,3.39,26.74,121.41,121.41,0,0,1-3.26,27.91,79.61,79.61,0,0,1-10,24.52,57.2,57.2,0,0,1-17.74,17.34q-10.69,6.66-25.82,6.65-15.66,0-26.35-5.21a52.11,52.11,0,0,1-18.52-15.39v65.47h-25.82V316.26h24.52v19a62.68,62.68,0,0,1,17.6-15.39Q14184.26,313.13,14201.48,313.13ZM14195,439.89q9.9,0,16.69-5.21a41.85,41.85,0,0,0,11.21-13.31A68.28,68.28,0,0,0,14229,404a84.85,84.85,0,0,0,2-17.61,92,92,0,0,0-1.83-17.86,57.86,57.86,0,0,0-6-16.83,37.63,37.63,0,0,0-11.09-12.52q-6.92-4.95-16.82-4.95a29.11,29.11,0,0,0-16.31,4.69,39,39,0,0,0-11.86,12.26,57.15,57.15,0,0,0-7.44,17.08,75,75,0,0,0-2.48,18.92,86.67,86.67,0,0,0,2,17.86,55,55,0,0,0,6.65,17.09,38.15,38.15,0,0,0,11.61,12.78Q14184.52,439.89,14195,439.89Z"/><path class="cls-8" d="M14390.58,395h-95.2a48.11,48.11,0,0,0,3.52,18.65,46.3,46.3,0,0,0,9.26,14.48,42.41,42.41,0,0,0,13.82,9.26,43,43,0,0,0,16.69,3.26,66.36,66.36,0,0,0,21.13-3.39,57.44,57.44,0,0,0,17.22-8.87l7.82,19.82a68.23,68.23,0,0,1-21,9.91,92.14,92.14,0,0,1-26.22,3.65q-34.69,0-51.91-20.6t-17.21-55.3a91.82,91.82,0,0,1,4.3-28.43,70.77,70.77,0,0,1,12.39-23.21,60.32,60.32,0,0,1,19.57-15.39,56.85,56.85,0,0,1,25.82-5.74q15.65,0,27.13,6.13a52.21,52.21,0,0,1,18.78,16.82,79.11,79.11,0,0,1,10.82,25.95A135.88,135.88,0,0,1,14390.58,395Zm-95.46-20.87h68.59a48.77,48.77,0,0,0-8.73-27.78q-8.49-12.12-24.13-12.12a30.21,30.21,0,0,0-15.26,3.65,33.17,33.17,0,0,0-10.56,9.39,39.38,39.38,0,0,0-6.79,12.65A71,71,0,0,0,14295.12,374.16Z"/><path class="cls-8" d="M14485.53,314.69v25a21.81,21.81,0,0,0-6.92-1.69c-2.7-.26-5.34-.39-8-.39a27.66,27.66,0,0,0-16,4.56,34.85,34.85,0,0,0-10.83,12.13,58.57,58.57,0,0,0-6.39,18.13,118.43,118.43,0,0,0-2,22v63.64h-25.82V316.52h23.48v23.21a55.91,55.91,0,0,1,15.39-18.52,34.2,34.2,0,0,1,21.65-7.82,81.08,81.08,0,0,1,9.26.52Q14484,314.43,14485.53,314.69Z"/><path class="cls-8" d="M13561.29,461.35h-31.19l-19.87-61.76h-88.88l-20.43,61.76h-29l79.49-228.63h30.92Zm-58.79-86.09-36.44-114.78-37,114.78Z"/><path class="cls-8" d="M13597.44,462h-27.32V226.17h27.32Z"/><path class="cls-8" d="M13653.48,462h-27.33V226.17h27.33Z"/><path class="cls-8" d="M9640.63,456.68l5.22,20.08a69,69,0,0,1-15.52,5.22,88.27,88.27,0,0,1-19.43,2.09q-16.18,0-28.57-5.87a59.14,59.14,0,0,1-20.73-16.05A70.57,70.57,0,0,1,9549,438.42a95.14,95.14,0,0,1-4.31-28.95,90.07,90.07,0,0,1,4.57-29A68.76,68.76,0,0,1,9562.38,357,60.8,60.8,0,0,1,9583,341.26a63.1,63.1,0,0,1,27.65-5.87,70.26,70.26,0,0,1,17.34,2.22,74.6,74.6,0,0,1,15,5.34l-6.26,19.3a54.88,54.88,0,0,0-10.83-3.91,51,51,0,0,0-12.65-1.56,33.66,33.66,0,0,0-17.73,4.56,41.36,41.36,0,0,0-12.78,12.13,52.59,52.59,0,0,0-7.83,16.82,72.31,72.31,0,0,0-2.61,19.18,82.5,82.5,0,0,0,2.22,19,52.64,52.64,0,0,0,7.17,16.95,41.29,41.29,0,0,0,13.17,12.26q8,4.69,19.7,4.7a63.29,63.29,0,0,0,14.47-1.57A48.65,48.65,0,0,0,9640.63,456.68Z"/><path class="cls-8" d="M9763.22,480.15h-24c-.17-1.39-.35-2.83-.52-4.3a37.68,37.68,0,0,1-.26-4.3q-.25-2.08-.39-4.05c-.09-1.3-.13-2.65-.13-4q-6.25,8.35-17.35,14.21a52.88,52.88,0,0,1-25.17,5.87q-22.17,0-34.82-10.56t-12.65-32.74q0-12.51,5.22-21.38a41.15,41.15,0,0,1,14.08-14.35,63.3,63.3,0,0,1,20-8.09,104.3,104.3,0,0,1,23.34-2.6q6.52,0,12.65.13t12.65.13q0-18-7.43-27.78t-25.95-9.78a54.27,54.27,0,0,0-20.61,3.91,57.15,57.15,0,0,0-16.69,10.17,81,81,0,0,1-3.79-10.56q-1.7-5.88-2.74-10.57a68.94,68.94,0,0,1,22.31-10.56,92.88,92.88,0,0,1,25.69-3.78q28.69,0,41.47,15.52t12.78,44.21v52.95q0,8.61.79,18.26T9763.22,480.15Zm-26.87-67.55h-16.69a115.74,115.74,0,0,0-13,.91,68.39,68.39,0,0,0-15.13,3.52,34,34,0,0,0-12.39,8.22q-5.09,5.34-5.09,14.21,0,11.75,8,17.61a28.25,28.25,0,0,0,17.09,5.87q19.82,0,28.56-13.44T9736.35,412.6Z"/><path class="cls-8" d="M9980.5,480.15h-25.82V393.56a103.47,103.47,0,0,0-.79-12.26,38.23,38.23,0,0,0-3.39-12,25.71,25.71,0,0,0-7.17-9.13c-3-2.44-7.17-3.65-12.39-3.65q-9.39,0-15.91,4.56a37,37,0,0,0-10.7,11.61,52,52,0,0,0-5.87,16.3,96.39,96.39,0,0,0-1.69,17.87v73.29h-25.56V393.56a88.38,88.38,0,0,0-.92-12.26,46.62,46.62,0,0,0-3.26-12,25.08,25.08,0,0,0-7.3-9.13q-4.69-3.66-12.52-3.65-9.64,0-16.17,4.56a34.35,34.35,0,0,0-10.44,11.61A56.64,56.64,0,0,0,9815,389a95.56,95.56,0,0,0-1.7,17.87v73.29h-25.82V338.52h24v19q9.12-12.53,19.82-17.35a57.17,57.17,0,0,1,23.74-4.82,39.94,39.94,0,0,1,21.91,6.52q10.17,6.52,15.65,20.34,7.29-14.6,20.08-20.73t22.95-6.13q12.52,0,21,4a38.31,38.31,0,0,1,14,11.09,45.93,45.93,0,0,1,7.56,16.56,85.11,85.11,0,0,1,2.35,20.48Z"/><path class="cls-8" d="M10077.53,335.13q14.59,0,25.43,6.13a54.78,54.78,0,0,1,17.87,16,72.67,72.67,0,0,1,10.43,23.08,104.87,104.87,0,0,1,3.39,26.74,121.41,121.41,0,0,1-3.26,27.91,79.61,79.61,0,0,1-10,24.52,57.2,57.2,0,0,1-17.74,17.34q-10.7,6.66-25.82,6.65-15.66,0-26.35-5.21a52.11,52.11,0,0,1-18.52-15.39v65.47h-25.82V338.26h24.52v19a62.59,62.59,0,0,1,17.61-15.39Q10060.3,335.13,10077.53,335.13ZM10071,461.89q9.9,0,16.69-5.21a42,42,0,0,0,11.22-13.31,68.67,68.67,0,0,0,6.13-17.34,85.49,85.49,0,0,0,2-17.61,92.77,92.77,0,0,0-1.82-17.86,57.87,57.87,0,0,0-6-16.83,37.63,37.63,0,0,0-11.09-12.52q-6.92-4.95-16.82-4.95A29.13,29.13,0,0,0,10055,361a39,39,0,0,0-11.86,12.26,57.15,57.15,0,0,0-7.44,17.08,75,75,0,0,0-2.47,18.92,86.63,86.63,0,0,0,1.95,17.86,55.21,55.21,0,0,0,6.65,17.09,38.25,38.25,0,0,0,11.61,12.78Q10060.57,461.89,10071,461.89Z"/><path class="cls-8" d="M10266.63,417h-95.2a48.11,48.11,0,0,0,3.52,18.65,46.48,46.48,0,0,0,9.26,14.48,42.6,42.6,0,0,0,30.52,12.52,66.35,66.35,0,0,0,21.12-3.39,57.32,57.32,0,0,0,17.22-8.87l7.82,19.82a68.12,68.12,0,0,1-21,9.91,92.09,92.09,0,0,1-26.22,3.65q-34.7,0-51.9-20.6t-17.22-55.3a92.12,92.12,0,0,1,4.3-28.43,70.77,70.77,0,0,1,12.39-23.21,60.32,60.32,0,0,1,19.57-15.39,56.85,56.85,0,0,1,25.82-5.74q15.65,0,27.13,6.13a52.21,52.21,0,0,1,18.78,16.82,79.11,79.11,0,0,1,10.82,25.95A135.88,135.88,0,0,1,10266.63,417Zm-95.46-20.87h68.6a48.85,48.85,0,0,0-8.74-27.78q-8.48-12.12-24.13-12.12a30.21,30.21,0,0,0-15.26,3.65,33.17,33.17,0,0,0-10.56,9.39,39.16,39.16,0,0,0-6.78,12.65A70.32,70.32,0,0,0,10171.17,396.16Z"/><path class="cls-8" d="M10361.58,336.69v25a21.81,21.81,0,0,0-6.92-1.69q-4-.39-8-.39a27.66,27.66,0,0,0-16,4.56,34.85,34.85,0,0,0-10.83,12.13,58.83,58.83,0,0,0-6.39,18.13,118.45,118.45,0,0,0-2,22v63.64h-25.83V338.52h23.48v23.21a55.91,55.91,0,0,1,15.39-18.52,34.2,34.2,0,0,1,21.65-7.82,81.08,81.08,0,0,1,9.26.52Q10360,336.43,10361.58,336.69Z"/><path class="cls-8" d="M9437.34,483.35h-31.19l-19.87-61.76H9297.4L9277,483.35h-29l79.49-228.63h30.92Zm-58.79-86.09-36.44-114.78-37,114.78Z"/><path class="cls-8" d="M9473.5,484h-27.33V248.17h27.33Z"/><path class="cls-8" d="M9529.53,484H9502.2V248.17h27.33Z"/><path class="cls-8" d="M5420.89,469.68l5.22,20.08a69,69,0,0,1-15.52,5.22,88.2,88.2,0,0,1-19.43,2.09q-16.18,0-28.56-5.87a59.09,59.09,0,0,1-20.74-16.05,70.57,70.57,0,0,1-12.65-23.73,95.14,95.14,0,0,1-4.31-28.95,90.07,90.07,0,0,1,4.57-29A68.76,68.76,0,0,1,5342.64,370a60.9,60.9,0,0,1,20.61-15.78,63.1,63.1,0,0,1,27.65-5.87,70.2,70.2,0,0,1,17.34,2.22,74.6,74.6,0,0,1,15,5.34l-6.26,19.3a55,55,0,0,0-10.82-3.91,51.15,51.15,0,0,0-12.65-1.56,33.67,33.67,0,0,0-17.74,4.56A41.36,41.36,0,0,0,5363,386.47a52.59,52.59,0,0,0-7.83,16.82,72.31,72.31,0,0,0-2.61,19.18,82.5,82.5,0,0,0,2.22,19,52.87,52.87,0,0,0,7.17,16.95,41.22,41.22,0,0,0,13.18,12.26q7.95,4.69,19.69,4.7a63.38,63.38,0,0,0,14.48-1.57A48.73,48.73,0,0,0,5420.89,469.68Z"/><path class="cls-8" d="M5543.48,493.15h-24c-.18-1.39-.36-2.83-.53-4.3a37.68,37.68,0,0,1-.26-4.3q-.26-2.08-.39-4.05c-.09-1.3-.13-2.65-.13-4q-6.26,8.35-17.34,14.21a53,53,0,0,1-25.18,5.87q-22.17,0-34.82-10.56t-12.65-32.74q0-12.51,5.22-21.38a41.23,41.23,0,0,1,14.08-14.35,63.3,63.3,0,0,1,20-8.09,104.3,104.3,0,0,1,23.34-2.6q6.53,0,12.65.13t12.65.13q0-18-7.43-27.78t-25.95-9.78a54.27,54.27,0,0,0-20.61,3.91,57.29,57.29,0,0,0-16.69,10.17,79.6,79.6,0,0,1-3.78-10.56q-1.71-5.88-2.74-10.57a68.79,68.79,0,0,1,22.3-10.56,92.88,92.88,0,0,1,25.69-3.78q28.7,0,41.47,15.52t12.78,44.21v52.95q0,8.61.79,18.26T5543.48,493.15Zm-26.86-67.55h-16.7a115.74,115.74,0,0,0-13,.91,68.39,68.39,0,0,0-15.13,3.52,34,34,0,0,0-12.39,8.22q-5.08,5.34-5.08,14.21,0,11.75,7.95,17.61a28.25,28.25,0,0,0,17.09,5.87q19.82,0,28.56-13.44T5516.62,425.6Z"/><path class="cls-8" d="M5760.76,493.15h-25.82V406.56a101.39,101.39,0,0,0-.79-12.26,38.23,38.23,0,0,0-3.39-12,25.71,25.71,0,0,0-7.17-9.13q-4.56-3.66-12.39-3.65-9.39,0-15.91,4.56a37,37,0,0,0-10.7,11.61,51.78,51.78,0,0,0-5.86,16.3,95.56,95.56,0,0,0-1.7,17.87v73.29h-25.56V406.56a89.87,89.87,0,0,0-.91-12.26,47.43,47.43,0,0,0-3.26-12,25.11,25.11,0,0,0-7.31-9.13q-4.69-3.66-12.52-3.65-9.65,0-16.17,4.56a34.22,34.22,0,0,0-10.43,11.61,56.35,56.35,0,0,0-5.61,16.3,96.41,96.41,0,0,0-1.7,17.87v73.29h-25.82V351.52h24v19q9.12-12.53,19.82-17.35a57.17,57.17,0,0,1,23.74-4.82,39.92,39.92,0,0,1,21.91,6.52q10.17,6.52,15.65,20.34,7.29-14.6,20.08-20.73t23-6.13q12.51,0,21,4a38.23,38.23,0,0,1,14,11.09,45.93,45.93,0,0,1,7.56,16.56,85.11,85.11,0,0,1,2.35,20.48Z"/><path class="cls-8" d="M5857.79,348.13q14.6,0,25.43,6.13a54.78,54.78,0,0,1,17.87,16,72.67,72.67,0,0,1,10.43,23.08,104.87,104.87,0,0,1,3.39,26.74,121.41,121.41,0,0,1-3.26,27.91,79.61,79.61,0,0,1-10,24.52,57.2,57.2,0,0,1-17.74,17.34q-10.7,6.66-25.82,6.65-15.65,0-26.35-5.21a52,52,0,0,1-18.51-15.39v65.47h-25.83V351.26h24.52v19a62.73,62.73,0,0,1,17.61-15.39Q5840.58,348.13,5857.79,348.13Zm-6.52,126.76q9.9,0,16.69-5.21a42,42,0,0,0,11.22-13.31,68.67,68.67,0,0,0,6.13-17.34,85.49,85.49,0,0,0,1.95-17.61,92.77,92.77,0,0,0-1.82-17.86,57.87,57.87,0,0,0-6-16.83,37.63,37.63,0,0,0-11.09-12.52q-6.92-4.95-16.82-4.95a29.08,29.08,0,0,0-16.3,4.69,39,39,0,0,0-11.87,12.26,57.15,57.15,0,0,0-7.44,17.08,75,75,0,0,0-2.47,18.92,86.63,86.63,0,0,0,1.95,17.86,55.21,55.21,0,0,0,6.65,17.09,38.25,38.25,0,0,0,11.61,12.78Q5840.83,474.89,5851.27,474.89Z"/><path class="cls-8" d="M6046.89,430h-95.2a48.11,48.11,0,0,0,3.52,18.65,46.48,46.48,0,0,0,9.26,14.48A42.6,42.6,0,0,0,5995,475.68a66.35,66.35,0,0,0,21.12-3.39,57.2,57.2,0,0,0,17.22-8.87l7.83,19.82a68.18,68.18,0,0,1-21,9.91,92.09,92.09,0,0,1-26.22,3.65q-34.68,0-51.9-20.6t-17.22-55.3a91.82,91.82,0,0,1,4.31-28.43,70.4,70.4,0,0,1,12.39-23.21,60.17,60.17,0,0,1,19.56-15.39,56.88,56.88,0,0,1,25.82-5.74q15.65,0,27.13,6.13a52.21,52.21,0,0,1,18.78,16.82A78.9,78.9,0,0,1,6043.63,397,135.88,135.88,0,0,1,6046.89,430Zm-95.46-20.87H6020a48.85,48.85,0,0,0-8.74-27.78q-8.47-12.12-24.13-12.12a30.21,30.21,0,0,0-15.26,3.65,33.17,33.17,0,0,0-10.56,9.39,39.16,39.16,0,0,0-6.78,12.65A70.32,70.32,0,0,0,5951.43,409.16Z"/><path class="cls-8" d="M6141.84,349.69v25a21.81,21.81,0,0,0-6.91-1.69q-4.05-.39-8-.39a27.66,27.66,0,0,0-16,4.56,34.85,34.85,0,0,0-10.83,12.13,59.09,59.09,0,0,0-6.39,18.13,118.45,118.45,0,0,0-1.95,22v63.64h-25.83V351.52h23.48v23.21a55.91,55.91,0,0,1,15.39-18.52,34.22,34.22,0,0,1,21.65-7.82,81.08,81.08,0,0,1,9.26.52Q6140.27,349.43,6141.84,349.69Z"/><path class="cls-8" d="M5217.6,496.35h-31.19l-19.87-61.76h-88.88l-20.43,61.76h-29l79.5-228.63h30.91Zm-58.79-86.09-36.44-114.78-37,114.78Z"/><path class="cls-8" d="M5253.76,497h-27.33V261.17h27.33Z"/><path class="cls-8" d="M5309.79,497h-27.33V261.17h27.33Z"/><path class="cls-8" d="M1641.47,534.79l5.22,20.08a68.54,68.54,0,0,1-15.52,5.22,88.27,88.27,0,0,1-19.43,2.09q-16.18,0-28.57-5.87a59.12,59.12,0,0,1-20.73-16,70.53,70.53,0,0,1-12.65-23.74,95.14,95.14,0,0,1-4.31-28.95,90,90,0,0,1,4.57-28.95,68.81,68.81,0,0,1,13.17-23.48,60.8,60.8,0,0,1,20.61-15.78,63.22,63.22,0,0,1,27.64-5.87,70.28,70.28,0,0,1,17.35,2.22,74.58,74.58,0,0,1,15,5.35l-6.26,19.3a53.64,53.64,0,0,0-10.83-3.91,50.57,50.57,0,0,0-12.65-1.57,33.66,33.66,0,0,0-17.73,4.56,41.36,41.36,0,0,0-12.78,12.13,52.33,52.33,0,0,0-7.83,16.83,72.24,72.24,0,0,0-2.61,19.17,82.5,82.5,0,0,0,2.22,19,52.64,52.64,0,0,0,7.17,17,41.29,41.29,0,0,0,13.17,12.26q8,4.7,19.7,4.7a62.74,62.74,0,0,0,14.47-1.57A48.65,48.65,0,0,0,1641.47,534.79Z"/><path class="cls-8" d="M1764.06,558.27h-24c-.17-1.4-.35-2.83-.52-4.31a37.54,37.54,0,0,1-.26-4.3q-.26-2.08-.39-4c-.09-1.3-.13-2.64-.13-4q-6.26,8.35-17.35,14.22a53,53,0,0,1-25.17,5.87q-22.17,0-34.82-10.57t-12.65-32.73q0-12.53,5.22-21.39a41.15,41.15,0,0,1,14.08-14.35,63.29,63.29,0,0,1,20-8.08,103.73,103.73,0,0,1,23.34-2.61q6.53,0,12.65.13t12.65.13q0-18-7.43-27.78t-26-9.78a54.27,54.27,0,0,0-20.61,3.91A57.15,57.15,0,0,0,1666,448.71a81,81,0,0,1-3.79-10.56q-1.7-5.86-2.74-10.56A69.16,69.16,0,0,1,1681.77,417a92.88,92.88,0,0,1,25.69-3.78q28.69,0,41.47,15.52T1761.71,473v52.95q0,8.61.79,18.26T1764.06,558.27Zm-26.87-67.56H1720.5a115.74,115.74,0,0,0-13,.91,69,69,0,0,0-15.13,3.52,34.13,34.13,0,0,0-12.39,8.22q-5.09,5.36-5.09,14.22,0,11.73,8,17.6a28.25,28.25,0,0,0,17.09,5.87q19.81,0,28.56-13.43T1737.19,490.71Z"/><path class="cls-8" d="M1981.34,558.27h-25.83v-86.6a103.5,103.5,0,0,0-.78-12.26,38.23,38.23,0,0,0-3.39-12,25.71,25.71,0,0,0-7.17-9.13c-3.05-2.43-7.17-3.65-12.39-3.65q-9.39,0-15.91,4.56a37.09,37.09,0,0,0-10.7,11.61,52,52,0,0,0-5.87,16.3,96.39,96.39,0,0,0-1.69,17.87v73.3h-25.56v-86.6a88.49,88.49,0,0,0-.92-12.26,46.62,46.62,0,0,0-3.26-12,25.08,25.08,0,0,0-7.3-9.13q-4.69-3.64-12.52-3.65-9.65,0-16.17,4.56a34.44,34.44,0,0,0-10.44,11.61,56.64,56.64,0,0,0-5.6,16.3,95.56,95.56,0,0,0-1.7,17.87v73.3h-25.82V416.63h24v19q9.12-12.51,19.82-17.34a57,57,0,0,1,23.74-4.83,39.94,39.94,0,0,1,21.91,6.52q10.17,6.53,15.65,20.35,7.29-14.61,20.08-20.74t23-6.13q12.52,0,21,4a38.31,38.31,0,0,1,14,11.09,46,46,0,0,1,7.56,16.56,85.17,85.17,0,0,1,2.35,20.48Z"/><path class="cls-8" d="M2078.37,413.24q14.6,0,25.43,6.13a54.89,54.89,0,0,1,17.87,16,72.63,72.63,0,0,1,10.43,23.09,104.79,104.79,0,0,1,3.39,26.73,121.35,121.35,0,0,1-3.26,27.91,79.61,79.61,0,0,1-10,24.52A57.2,57.2,0,0,1,2104.45,555q-10.69,6.66-25.82,6.66-15.66,0-26.35-5.22a52.11,52.11,0,0,1-18.52-15.39v65.47h-25.82V416.37h24.52v19A62.74,62.74,0,0,1,2050.07,420Q2061.14,413.24,2078.37,413.24ZM2071.85,540q9.9,0,16.69-5.22a42.08,42.08,0,0,0,11.22-13.3,69.13,69.13,0,0,0,6.13-17.35,85.47,85.47,0,0,0,2-17.6,92.87,92.87,0,0,0-1.82-17.87,58,58,0,0,0-6-16.83,37.63,37.63,0,0,0-11.09-12.52q-6.91-4.95-16.82-4.95a29.13,29.13,0,0,0-16.31,4.69,39,39,0,0,0-11.86,12.26,57.1,57.1,0,0,0-7.44,17.09,74.94,74.94,0,0,0-2.48,18.91,86.76,86.76,0,0,0,2,17.87,55.25,55.25,0,0,0,6.65,17.08,38.16,38.16,0,0,0,11.61,12.78Q2061.41,540,2071.85,540Z"/><path class="cls-8" d="M2267.47,495.14h-95.2a48.07,48.07,0,0,0,3.52,18.65,46.36,46.36,0,0,0,9.26,14.48,42.6,42.6,0,0,0,30.52,12.52,66.35,66.35,0,0,0,21.12-3.39,57.32,57.32,0,0,0,17.22-8.87l7.82,19.82a68.13,68.13,0,0,1-21,9.92,92.45,92.45,0,0,1-26.22,3.65q-34.7,0-51.9-20.61T2145.4,486a92.12,92.12,0,0,1,4.3-28.43,70.77,70.77,0,0,1,12.39-23.21A60.59,60.59,0,0,1,2181.66,419a57,57,0,0,1,25.82-5.74q15.64,0,27.13,6.13a52.3,52.3,0,0,1,18.78,16.82,79.17,79.17,0,0,1,10.82,26A135.75,135.75,0,0,1,2267.47,495.14ZM2172,474.28h68.6a48.8,48.8,0,0,0-8.74-27.78q-8.48-12.13-24.13-12.13a30.32,30.32,0,0,0-15.26,3.65,33.41,33.41,0,0,0-10.56,9.39,39.16,39.16,0,0,0-6.78,12.65A70.41,70.41,0,0,0,2172,474.28Z"/><path class="cls-8" d="M2362.42,414.8v25.05a21.8,21.8,0,0,0-6.92-1.7q-4-.39-7.95-.39a27.66,27.66,0,0,0-16,4.56,34.85,34.85,0,0,0-10.83,12.13,58.83,58.83,0,0,0-6.39,18.13,118.53,118.53,0,0,0-1.95,22v63.65h-25.83V416.63H2310v23.22a55.81,55.81,0,0,1,15.39-18.52A34.15,34.15,0,0,1,2347,413.5a83.43,83.43,0,0,1,9.26.52Q2360.85,414.55,2362.42,414.8Z"/><path class="cls-8" d="M1438.18,561.46H1407l-19.87-61.76h-88.88l-20.43,61.76h-29l79.49-228.63h30.92Zm-58.79-86.09L1343,360.59l-37,114.78Z"/><path class="cls-8" d="M1474.34,562.08H1447V326.28h27.33Z"/><path class="cls-8" d="M1530.37,562.08H1503V326.28h27.33Z"/><polygon class="cls-9" points="9216.4 455.95 9165.07 455.95 9158.4 455.95 8755.73 455.95 8755.73 553.82 9165.07 553.82 9165.07 486.49 9216.4 486.49 9216.4 455.95"/><path class="cls-10" d="M8175.1,464.56S8209,351.37,8238.81,306.8c0,0,6.34-11.27,15.84-26.54s22.17-34.57,34.85-50.67C8385.85,110,8530.85,26,8685.47,16.25q26.16-2.19,52.6-2.68c57.78-1.52,118.42-.57,175.2,12.75,11.35,2.67,22.55,5.83,33.54,9.56,135.62,45.45,231.71,200.77,201.83,344a312.46,312.46,0,0,1-8.3,30.66,344,344,0,0,1-41.67,85l-10.27-.1-668.72-6.45-16.46-.17c-23.17.15-44.91.15-67.79-3.28-44.61-5.71-86.94-12.56-130.35-17.32l-21.41-2.66Z"/><circle class="cls-11" cx="8890.88" cy="189.61" r="57"/><rect class="cls-12" x="8537.21" y="147.61" width="212.67" height="144.33" rx="12" ry="12"/><path class="cls-11" d="M8890.79,75.7A111.25,111.25,0,0,0,8779.54,187V453H9002V187A111.25,111.25,0,0,0,8890.79,75.7Z"/><path class="cls-13" d="M9116.13,289c-20.74,0-37.56,18.91-37.56,42.25s16.82,42.25,37.56,42.25h43.44V289Z"/><rect class="cls-14" x="8365.22" y="492.95" width="776.51" height="38.83"/><circle class="cls-14" cx="8611.65" cy="560.42" r="104.89"/><circle class="cls-7" cx="8611.65" cy="560.42" r="65.96"/><path class="cls-13" d="M8721.82,569.75s-6.78-33.66-26-61.95c-1-1.49-2.07-3-3.15-4.42-8.55-11.94-20-21.12-32.89-28a131.83,131.83,0,0,0-20.28-8.56,116.54,116.54,0,0,0-90.62,9.18A107.53,107.53,0,0,0,8529.27,490a96.59,96.59,0,0,0-15.68,18.07q-2.08,3.18-4.16,6.9c-6.88,12.44-13.29,29.64-15.83,52.56,0,0-20.7,2.41-29.65-2.06,0,0-2.1-70,53.51-122.19,0,0,20.7-24.37,67.71-33.64,0,0,72.1-12.87,122.79,32.1,0,0,29,24.45,41.32,61.78,0,0,13.68,41.87,5.26,66.24C8754.54,569.75,8734.1,573.19,8721.82,569.75Z"/><text></text><rect class="cls-15" x="4325.48" y="459.21" width="289.49" height="62.17"/><rect class="cls-16" x="4644.5" y="471.82" width="346" height="23.21"/><path class="cls-17" d="M3834.47,479.42H4115s21.5-108.83,138.5-109.83c0,0,104.66-5,137.66,109.83H4890.8s22.17-70.79,22.67-152.25a398.57,398.57,0,0,0-4.29-62.29C4880.47,52.18,4618.47,44.18,4449.06,48q-27.36,1.33-54.56,4.51a763.47,763.47,0,0,0-159.89,36.21q-24.78,8.16-49.22,17.49-23.74,9.06-47.17,19.12-11.7,5-23.33,10.27c-89.79,41.94-180.79,81.94-255.79,150.94-15,14-16,37-19.31,57.42-1.1,7.42-2,15.1-2.77,22.86C3831.75,421.15,3834.47,479.42,3834.47,479.42Z"/><rect class="cls-18" x="4485.07" y="127.63" width="246.25" height="228.58" rx="42.52" ry="42.52"/><rect class="cls-19" x="4731.32" y="127.63" width="215.24" height="222.89" rx="34.02" ry="34.02"/><rect class="cls-13" x="3889.62" y="308.56" width="297.33" height="10.5"/><circle class="cls-20" cx="4247.41" cy="504.8" r="126.14"/><path class="cls-21" d="M4117.29,492.14c8.51-68.61,59.3-121.9,130.19-121.9s121.14,53.29,129.66,121.9h18.48c-8.58-74.14-71.73-131.9-148.14-131.9S4107.91,418,4099.34,492.14Z"/><circle class="cls-7" cx="4247.41" cy="504.8" r="65.96"/><path class="cls-22" d="M1160.57,562h60.29V550.9c0-7.42-8.35-9.28-8.35-9.28h-11.13c0-6.49-8.35-6.49-8.35-6.49h-32.46Z"/><path class="cls-22" d="M1191.14,536.32s1.08-11.13-5.41-11.13H1169s-4.64,3.71,0,5.57c0,0,9.27-.93,10.2,1.85l-.15,3.71Z"/><rect class="cls-23" x="190" y="491.59" width="971.78" height="71.26"/><rect class="cls-24" x="961.73" y="337.73" width="111.75" height="136.04"/><rect class="cls-25" x="953.63" y="323.39" width="125.52" height="29.03" rx="8.86" ry="8.86"/><ellipse class="cls-24" cx="1016.39" cy="328.09" rx="61.9" ry="11.53"/><path class="cls-25" d="M964,456.07s33,7.59,52.78,7.59,53.63-7.59,53.63-7.59a8.77,8.77,0,0,1,8.74,8.75V476a8.77,8.77,0,0,1-8.74,8.75H964a8.77,8.77,0,0,1-8.74-8.75V464.82A8.77,8.77,0,0,1,964,456.07Z"/><ellipse class="cls-25" cx="1017.2" cy="479.67" rx="61.11" ry="11.8"/><path class="cls-25" d="M1073.47,370.12h-44.53a8.12,8.12,0,0,0-8.1,8.1v58.3a8.12,8.12,0,0,0,8.1,8.1h44.53Z"/><rect class="cls-26" x="542.26" y="12.2" width="106.89" height="12.96"/><rect class="cls-27" x="536.59" y="4.1" width="118.23" height="9.72" rx="4.86" ry="4.86"/><path class="cls-28" d="M373.82,21.91,357.63,42.16V54.31L355.2,73.74l49.4-1.62,35.63-24.29L429.7,32.44S403,15.44,373.82,21.91Z"/><path class="cls-28" d="M724.46,36.49l2.43-14.58L749.56,4.1s25.92,19.43,21.06,37.25Z"/><path class="cls-29" d="M9.29,474.09s34.1-114,64.15-158.84c0,0,6.38-11.35,15.94-26.73s22.33-34.81,35.1-51c97-120.46,243-205,398.69-214.8q26.33-2.2,53-2.69c58.18-1.53,119.24-.58,176.4,12.84,11.43,2.68,22.71,5.86,33.77,9.62,136.55,45.76,233.3,202.14,203.22,346.39a317.53,317.53,0,0,1-8.36,30.87,346.44,346.44,0,0,1-42,85.62l-10.34-.1-673.3-6.49L239,498.58c-23.33.15-45.21.15-68.25-3.29-44.92-5.75-87.53-12.65-131.24-17.44l-21.56-2.69Z"/><rect class="cls-22" x="208.48" y="502.67" width="781.83" height="39.1"/><circle class="cls-23" cx="456.6" cy="570.6" r="105.61"/><circle class="cls-30" cx="456.6" cy="570.6" r="66.41"/><circle class="cls-23" cx="456.6" cy="570.6" r="16.83"/><path class="cls-25" d="M572.52,584.28s-6.83-33.89-26.23-62.38c-1-1.5-2.08-3-3.17-4.45-8.61-12-20.13-21.26-33.12-28.14a131.32,131.32,0,0,0-20.42-8.63,117.37,117.37,0,0,0-91.24,9.25,108,108,0,0,0-19.69,14,96.91,96.91,0,0,0-15.79,18.2c-1.4,2.13-2.8,4.44-4.19,7C351.75,541.64,345.29,559,342.73,582c0,0-20.84,2.42-29.85-2.08,0,0-2.12-70.5,53.87-123,0,0,20.85-24.53,68.18-33.86,0,0,72.59-13,123.64,32.31,0,0,29.14,24.62,41.59,62.2,0,0,13.78,42.17,5.3,66.7C605.46,584.28,584.88,587.74,572.52,584.28Z"/><rect class="cls-23" x="390.45" y="142.54" width="196.52" height="133.38" rx="11.09" ry="11.09"/><rect class="cls-27" x="400.19" y="151.88" width="177.04" height="115.39" rx="9.79" ry="9.79"/><path class="cls-23" d="M737.82,87.1c-63.76,0-115.45,48.65-115.45,108.66V455.55h230.9V195.76C853.27,135.75,801.58,87.1,737.82,87.1Z"/><path class="cls-25" d="M99.78,271.67s257.5,56.23,405,39.83c0,0,390.93-32.88,477.55,16.33,0,0-117-44.45-470.53,4.76,0,0-262.18,35.14-442.43-11.72Z"/><path class="cls-25" d="M47.17,367.66s178.31,30.45,425.22-14.06c0,0,356.63-68,505.23-21.09,0,0-157.74-42.17-505.23,42.17,0,0-242.33,67.95-443.51,37.49Z"/><path class="cls-25" d="M13.27,461.45l-4.66,16.4,139.78,21.09s221.3-14.13,351.76-82c0,0,97.84-46.93,300.51-77.39,0,0,109.49-14,191,4.76,0,0-93.19-39.83-330.8,9.37C660.89,353.67,125.09,491.91,13.27,461.45Z"/><path class="cls-29" d="M737.42,92.36c-59.93,0-108.52,47.26-108.52,105.56V450.29h217V197.92C845.93,139.62,797.34,92.36,737.42,92.36Z"/><circle class="cls-23" cx="737.74" cy="197.26" r="57.39"/><circle class="cls-27" cx="737.74" cy="197.26" r="49.78"/><circle class="cls-31" cx="1061.33" cy="378.22" r="4.05"/><circle class="cls-31" cx="1049.99" cy="378.22" r="4.05"/><circle class="cls-31" cx="1038.65" cy="378.22" r="4.05"/><circle class="cls-31" cx="1027.32" cy="378.22" r="4.05"/><path class="cls-31" d="M1073.47,374.17a4.05,4.05,0,0,0,0,8.1Z"/><circle class="cls-31" cx="1061.33" cy="392.79" r="4.05"/><circle class="cls-31" cx="1049.99" cy="392.79" r="4.05"/><circle class="cls-31" cx="1038.65" cy="392.79" r="4.05"/><circle class="cls-31" cx="1027.32" cy="392.79" r="4.05"/><path class="cls-31" d="M1073.47,388.75a4,4,0,0,0,0,8.09Z"/><circle class="cls-31" cx="1061.33" cy="407.37" r="4.05"/><circle class="cls-31" cx="1049.99" cy="407.37" r="4.05"/><circle class="cls-31" cx="1038.65" cy="407.37" r="4.05"/><circle class="cls-31" cx="1027.32" cy="407.37" r="4.05"/><path class="cls-31" d="M1073.47,403.32a4.05,4.05,0,0,0,0,8.1Z"/><circle class="cls-31" cx="1061.33" cy="421.95" r="4.05"/><circle class="cls-31" cx="1049.99" cy="421.95" r="4.05"/><circle class="cls-31" cx="1038.65" cy="421.95" r="4.05"/><circle class="cls-31" cx="1027.32" cy="421.95" r="4.05"/><path class="cls-31" d="M1073.47,417.9a4.05,4.05,0,0,0,0,8.1Z"/><circle class="cls-31" cx="1061.33" cy="436.52" r="4.05"/><circle class="cls-31" cx="1049.99" cy="436.52" r="4.05"/><circle class="cls-31" cx="1038.65" cy="436.52" r="4.05"/><circle class="cls-31" cx="1027.32" cy="436.52" r="4.05"/><path class="cls-31" d="M1073.47,432.47a4.05,4.05,0,0,0,0,8.1Z"/><line class="cls-32" x1="1205.47" y1="549.08" x2="1205.47" y2="562.03"/><rect class="cls-26" x="537.4" y="49.46" width="118.23" height="18.62" rx="8.57" ry="8.57"/><rect class="cls-27" x="536.59" y="47.04" width="118.23" height="18.62" rx="8.57" ry="8.57"/><rect class="cls-26" x="264.17" y="137.3" width="42.76" height="54.28"/><rect class="cls-27" x="265.31" y="134.47" width="40.49" height="55.07"/><path class="cls-28" d="M964.53,297.73c-20.88,0-37.81,19-37.81,42.54s16.93,42.54,37.81,42.54h43.74V297.73Z"/><circle class="cls-25" cx="998.17" cy="306.15" r="2.43"/><circle class="cls-25" cx="956.06" cy="311.01" r="2.43"/><circle class="cls-25" cx="935" cy="340.27" r="2.43"/><circle class="cls-25" cx="958.49" cy="371.74" r="2.43"/><circle class="cls-25" cx="998.97" cy="373.36" r="2.43"/><path class="cls-23" d="M479.91,521.14c0-13.2-10.69-29.55-23.89-29.55s-23.89,16.35-23.89,29.55a23.89,23.89,0,0,0,47.78,0Z"/><path class="cls-23" d="M481.3,630.46c0-13.2-10.7-29.55-23.9-29.55s-23.89,16.35-23.89,29.55a23.9,23.9,0,0,0,47.79,0Z"/><path class="cls-23" d="M407.83,547.05c-13.19,0-29.55,10.7-29.55,23.9s16.36,23.89,29.55,23.89a23.9,23.9,0,1,0,0-47.79Z"/><path class="cls-23" d="M510.68,547.05c-13.2,0-29.56,10.7-29.56,23.9s16.36,23.89,29.56,23.89a23.9,23.9,0,0,0,0-47.79Z"/><rect class="cls-23" x="654.82" y="245.41" width="29.96" height="35.63" rx="8.1" ry="8.1"/><g class="cls-33"><path class="cls-13" d="M100.24,271.57s254.58,56.67,400.38,40.14c0,0,386.5-33.13,472.13,16.45,0,0-115.72-44.78-465.18,4.8,0,0-259.21,35.41-437.41-11.81Z"/><path class="cls-13" d="M48.55,368.3S224.79,399,468.81,354.13c0,0,352.47-68.47,499.33-21.25,0,0-155.9-42.49-499.33,42.5,0,0-239.5,68.46-438.33,37.77Z"/><path class="cls-13" d="M14,462.81,9.42,479.33l149.81,20.6s207.41-13.59,336.47-82c0,0,96.79-47.29,297.29-78,0,0,108.32-14.08,189,4.8,0,0-92.19-40.13-327.26,9.45C654.71,354.21,124.65,493.5,14,462.81Z"/></g><path class="cls-1" d="M737.42,102.08C682,102.08,637,146.88,637,202.14V441.38H837.83V202.14C837.83,146.88,792.87,102.08,737.42,102.08Z"/><circle class="cls-34" cx="669.39" cy="263.23" r="5.67"/><circle class="cls-29" cx="748.75" cy="21.1" r="2.43"/><circle class="cls-29" cx="384.35" cy="35.68" r="3.24"/><ellipse class="cls-29" cx="336.98" cy="328.42" rx="61.14" ry="39.27"/><ellipse class="cls-27" cx="336.79" cy="327.72" rx="35.85" ry="26.32"/><path class="cls-35" d="M336.79,302.39c19.21,0,34.84,11.36,34.84,25.33S356,353,336.79,353s-34.85-11.36-34.85-25.32,15.63-25.33,34.85-25.33m0-2c-20.35,0-36.85,12.24-36.85,27.33S316.44,355,336.79,355s36.84-12.23,36.84-27.32-16.5-27.33-36.84-27.33Z"/><path class="cls-28" d="M336.57,302.1c-19.67,0-34.82,11.6-34.82,25.91H372.2C372.2,313.7,356.25,302.1,336.57,302.1Z"/><path class="cls-35" d="M317.6,322H313v-2.91h12V322h-4.61v15.11H317.6Z"/><path class="cls-35" d="M344.41,323.62a6.46,6.46,0,0,1,.19,5.76,5.35,5.35,0,0,1-1.28,2,6.51,6.51,0,0,1-1.37,1.05,5.23,5.23,0,0,1-1.3.41,3.63,3.63,0,0,1-1.77-.17,1.78,1.78,0,0,1-.79-.39,2.53,2.53,0,0,1-.6-.76,5.87,5.87,0,0,1-1.38,1,3.69,3.69,0,0,1-1.67.42,3.32,3.32,0,0,1-1.79-.52,3.12,3.12,0,0,1-1.24-1.26,4.54,4.54,0,0,1-.4-3.25,6.19,6.19,0,0,1,1.86-3.19,4.85,4.85,0,0,1,1.89-1.1,4.63,4.63,0,0,1,2-.12,2.09,2.09,0,0,1,1,.43,2.23,2.23,0,0,1,.55.72l.22-1,2.62,0-1.52,5.47a3.41,3.41,0,0,0-.13.83c0,.28.15.46.47.54a1.3,1.3,0,0,0,1.12-.41,4,4,0,0,0,1-1.44,5.52,5.52,0,0,0,.29-3.25,4.68,4.68,0,0,0-2.24-3,7.63,7.63,0,0,0-2.77-1.12,7.09,7.09,0,0,0-2.56,0,6.06,6.06,0,0,0-2.33,1,8.62,8.62,0,0,0-1.92,1.81,5.89,5.89,0,0,0-1.3,2.63,12,12,0,0,0-.24,2,5,5,0,0,0,.52,2.27,5.91,5.91,0,0,0,1.07,1.6,6.61,6.61,0,0,0,4.1,1.91,10.49,10.49,0,0,0,5-.66l.72,2a8.79,8.79,0,0,1-3.17.9,11.49,11.49,0,0,1-3.17,0,15.91,15.91,0,0,1-2.85-.78,7.65,7.65,0,0,1-3.11-2.32,7.13,7.13,0,0,1-1.72-5.49,10.29,10.29,0,0,1,1.67-5,11.75,11.75,0,0,1,2.28-2.31,8.85,8.85,0,0,1,3.32-1.65,10.93,10.93,0,0,1,3.65-.3,8.1,8.1,0,0,1,3.56,1.12A9.72,9.72,0,0,1,344.41,323.62Zm-7.3,5.05a4.58,4.58,0,0,0,.38-1.71,2.15,2.15,0,0,0-.23-.91,1.16,1.16,0,0,0-.93-.58,2.11,2.11,0,0,0-.95.13,2.24,2.24,0,0,0-1,.68,4.58,4.58,0,0,0-.65,1.06,4.43,4.43,0,0,0-.36,1.3,1.9,1.9,0,0,0,.31,1.32,1.45,1.45,0,0,0,.87.62,1.25,1.25,0,0,0,.78-.05,1.76,1.76,0,0,0,.71-.43A3.12,3.12,0,0,0,337.11,328.67Z"/><path class="cls-35" d="M360.19,330a7.81,7.81,0,0,1-1.91,5.71,6.15,6.15,0,0,1-4.53,1.93,6.29,6.29,0,0,1-3-.72,6.84,6.84,0,0,1-2.27-2,9.77,9.77,0,0,1-1.44-3,12.87,12.87,0,0,1-.51-3.67,13.39,13.39,0,0,1,.51-3.78,10,10,0,0,1,1.44-3,7,7,0,0,1,2.27-2,6.09,6.09,0,0,1,3-.75,5.79,5.79,0,0,1,2.25.45,6.13,6.13,0,0,1,1.91,1.25,6.54,6.54,0,0,1,1.38,1.91,6.88,6.88,0,0,1,.66,2.45h-2.67a4.29,4.29,0,0,0-1.18-2.21,3.17,3.17,0,0,0-2.35-.89,3.75,3.75,0,0,0-2.07.54,4.24,4.24,0,0,0-1.37,1.45,7.24,7.24,0,0,0-.78,2.13,13,13,0,0,0-.25,2.53,12.14,12.14,0,0,0,.25,2.43,7,7,0,0,0,.8,2.09,4.24,4.24,0,0,0,1.37,1.45,3.66,3.66,0,0,0,2.05.54,3.57,3.57,0,0,0,2.8-1.13,4.94,4.94,0,0,0,1.14-3.12v-.41h-3.36v-2.54h5.86Z"/><path class="cls-36" d="M588.75,90a5.47,5.47,0,0,1-5,1.33,5.3,5.3,0,0,1-1.76-.66,8.51,8.51,0,0,1-1.87-1.53s-5.74-13.35-9.38-16.51c0,0-7.1-5.2-10.78-3.58,0,0-1.62.78-.8,2.18,0,0,7.22,8.51,8.38,15.66,0,0,1.22,19.95,14.89,28.23,0,0,4.59,1.59,2.8,6.28,0,0-8.42,59.66-21.28,75.14,0,0-1.38,2.22-3.28,5.86-1,1.82-2,4-3.16,6.44-1.28,3-2.58,6-3.78,9.05-2.81,7.12-5.1,14.54-4.67,22.33a40.73,40.73,0,0,0,1.1,7.35,42.76,42.76,0,0,0,2.33,6.93c2.85,7.1,8.67,13.53,16.34,15.16,8,1.59,16.36-3,20.1-10.24a47.93,47.93,0,0,0,3.06-6.27c4.48-11,6-24.34,7.35-35.05.44-2.93.88-5.85,1.34-8.77s.93-5.84,1.44-8.75c.42-2.5.87-5.18,1.34-7.94l1.54-8.94c.18-1,.35-2,.53-3,2.13-11.38,4.31-22.62,6.84-33.89.83-3.49,1.21-7.09,2-10.57.41-1.51.56-3.18.9-4.71a6.48,6.48,0,0,1,2-3.86,36.27,36.27,0,0,0,5.17-5c.51-.61,1-1.22,1.47-1.85a71.6,71.6,0,0,0,3.75-6.47c.38-.74.76-1.49,1.13-2.24s.69-1.63,1.05-2.44.71-1.62,1.07-2.43.57-1.46.87-2.19.59-1.45.9-2.17c.86-2.32,1.74-4.63,2.62-7l.87-2.32c2.59-6.8,4.89-13.63,5.71-20.78.1-.72.19-1.44.26-2.16.29-1.56.13-4-1.5-4.33-4.08-1-4.61,3.63-5.08,7.15-.09.7-.18,1.37-.29,1.93a36.45,36.45,0,0,1-2.87,9.06,5.63,5.63,0,0,1-1.16,1.47,3.82,3.82,0,0,1-1.68.88,3,3,0,0,1-1.75-.44,1.91,1.91,0,0,1-.94-1.46,3.35,3.35,0,0,1,0-.64c.25-1.51.45-3,.76-4.39.07-.36.16-.72.25-1.08s.23-.79.34-1.19.21-.81.31-1.21c.19-.85.38-1.7.6-2.55.1-.43.21-.86.32-1.28.25-.85.49-1.71.72-2.57.12-.43.24-.86.35-1.29,1-3.91,2.11-7.68,3.17-11.57a9,9,0,0,0,.16-1.26,4.6,4.6,0,0,0-2-4.36,4.7,4.7,0,0,0-.69-.39,4.35,4.35,0,0,0-.54-.22,5.44,5.44,0,0,0-.54-.15,4.23,4.23,0,0,0-3.56.63,3.94,3.94,0,0,0-.45.36,5.08,5.08,0,0,0-1.26,1.8c-.09.22-.17.44-.24.67-.18.71-.32,1.43-.45,2.15,0,.25-.09.49-.12.73-.21,1.28-.52,2.59-.65,3.93,0,.23,0,.45-.05.67a4.3,4.3,0,0,1-.08.64c0,.3-.07.6-.11.9-.1.89-.21,1.78-.32,2.66-.06.4-.11.8-.16,1.19s-.09.82-.14,1.23c-.14,1.23-.27,2.45-.47,3.65-.06.42-.14.85-.23,1.27a16.09,16.09,0,0,1-.71,2.5,4.81,4.81,0,0,1-.49.82,3.64,3.64,0,0,1-.67.69,3.05,3.05,0,0,1-.51.27,1.63,1.63,0,0,1-2.14-.93,5.9,5.9,0,0,1-.23-2.48,17.51,17.51,0,0,1,.39-2.56c.1-.47.21-1,.33-1.43.22-.94.44-1.86.55-2.66l.18-.75c.06-.24.12-.49.19-.73s.19-.65.29-1l.28-1c1.06-3.12,1.78-6.18,2.79-9.24l.24-.89c.15-.6.3-1.2.44-1.82.06-.29.11-.58.16-.88.15-.88.26-1.78.34-2.69,0-.33,0-.66,0-1a8.62,8.62,0,0,0-1.12-4.65,4.11,4.11,0,0,0-.38-.45,5.13,5.13,0,0,0-2.08-1.34,3.69,3.69,0,0,0-.9-.13,3,3,0,0,0-2.62,1.69,5,5,0,0,0-.34.59,37.63,37.63,0,0,0-2.18,8.15l-.15.84c-.15.85-.27,1.69-.36,2.55,0,.29-.07.58-.1.87s-.06.58-.1.88l-.09.85c-.13,1.14-.29,2.29-.48,3.42-.07.31-.12.62-.18.93-.27,1.54-.47,3.08-.67,4.64,0,.31-.07.62-.11.94-.4,2.35-.49,7.63-4.16,6.17a3.32,3.32,0,0,1-.73-.49c-1.86-1.71-.81-5.31-1.06-7.89,0-.53,0-1.07.08-1.61C606,57.58,607.4,51.7,608,45.7c.38-3.9.64-8.09-1.93-11.41a1.86,1.86,0,0,0-2.18-.33,4.87,4.87,0,0,0-2.53,2.3c-3.82,9.33-4.61,18.82-6,28.47-.38,2.27-.77,4.54-1.19,6.81s-.86,4.53-1.35,6.78c-.23,1-.45,2-.67,3s-.43,1.83-.64,2.66A9.74,9.74,0,0,1,588.75,90"/><path class="cls-37" d="M456.5,104c-8.29,11.14-16.1,22.45-24.72,33.45,25.52,5.5,50.56,20.94,77.14,12.32,3.26-.66,6.52-1.31,9.79-1.77,1.12-3.14,2.75-6.38,3.95-9.55s2-6.27,1.31-9.1c-5.58-12.22-15.31-22.46-25.83-31.63-8.94-7.64-24.09-12.68-34-4Z"/><ellipse class="cls-38" cx="481.25" cy="164.14" rx="67.86" ry="49.51"/><path class="cls-36" d="M524.31,184.86c1.36,21-10,43.53-30.16,51.72a35.35,35.35,0,0,1-32.07-2.69c-17.39-10.77-25.8-30.73-24.68-50.13.56-11.89,5.05-23.56,13.8-32.19A43.91,43.91,0,0,1,484.62,139c20.53,1.23,38.47,19,39.56,39.43A50.5,50.5,0,0,1,524.31,184.86Z"/><rect class="cls-39" x="446.59" y="165.14" width="24.58" height="5.56" rx="2.78" ry="2.78"/><rect class="cls-39" x="489.33" y="165.14" width="24.58" height="5.56" rx="2.78" ry="2.78"/><rect class="cls-39" x="446.8" y="165.14" width="24.58" height="5.56" rx="2.78" ry="2.78"/><circle class="cls-40" cx="459.2" cy="181.17" r="5.98"/><circle class="cls-40" cx="502.16" cy="181.17" r="5.98"/><path class="cls-41" d="M479.47,179.33a23.71,23.71,0,0,1,6.4,6.62c.25.39.49.8.72,1.22a14.29,14.29,0,0,1,2,5.84c.26,2.9-1.88,6-4.87,6.15a23.39,23.39,0,0,1-8.46-.25c-.94-.26-2.05-1.11-1.63-2.14.94-2,3.77-1.2,5.13-2.31a3.24,3.24,0,0,0,.7-.79,3.05,3.05,0,0,0,.39-.91,4.86,4.86,0,0,0,.16-.69c.29-3.34-1.25-6.41-1.44-9.73-.05-.41-.08-.77-.11-1.07a4.79,4.79,0,0,1,0-1.08S478.4,178.9,479.47,179.33Z"/><path class="cls-42" d="M483.63,198.3c-1,1-2.5,1.72-3.7,1.12-2.39-1.11-4.79-2.31-7.47-1.7a8.78,8.78,0,0,0-1.71.53,20.15,20.15,0,0,0-8.74,8.57,2.72,2.72,0,0,0,.43,3.33,2.58,2.58,0,0,0,2.57.6c3.5-1.11,6.92-2.39,10.57-2.83.68-.09,1.37-.15,2.06-.2a43.58,43.58,0,0,1,10.27.5c.68.11,1.36.24,2,.38,2.33.36,4.38,1.3,6.69,1.89a4.25,4.25,0,0,0,1.38,0,3.87,3.87,0,0,0,1.31-.37,2,2,0,0,0,1.32-2c-.25-4.11-3.84-6.76-6.94-8.88-.47-.3-.93-.58-1.39-.84a11.32,11.32,0,0,0-7.25-.78A5.56,5.56,0,0,0,483.63,198.3Z"/><path class="cls-43" d="M469.86,215.8a11.67,11.67,0,1,0,23.33,0Z"/></svg>