<svg id="레이어_1" data-name="레이어 1" xmlns="http://www.w3.org/2000/svg" xmlns:xlink="http://www.w3.org/1999/xlink" viewBox="0 0 14524.69 681.35"><defs><style>.cls-1,.cls-12,.cls-33{fill:none;}.cls-1,.cls-31{stroke:#131723;}.cls-1,.cls-11,.cls-12,.cls-17,.cls-19,.cls-20,.cls-33,.cls-4{stroke-miterlimit:10;}.cls-1,.cls-33{stroke-width:2px;}.cls-2{fill:#406a48;}.cls-3{fill:#1e4424;}.cls-4{fill:#ff5f06;stroke:#1a1a1a;stroke-width:8px;}.cls-5{fill:#1a1a1a;}.cls-6{fill:#1f201c;}.cls-31,.cls-7{fill:#ccc;}.cls-11,.cls-12,.cls-13,.cls-7{stroke:#4d4d4d;stroke-width:10px;}.cls-13,.cls-31,.cls-7{stroke-linecap:round;stroke-linejoin:round;}.cls-8{font-size:381.6px;letter-spacing:-0.05em;}.cls-8,.cls-9{fill:#ff4500;font-family:Youth, Youth;}.cls-9{font-size:403.81px;letter-spacing:-0.08em;}.cls-10{fill:#333;}.cls-11,.cls-40{fill:#e9e1c4;}.cls-13{fill:#c9c3bc;}.cls-14{fill:#ff4e00;}.cls-15{fill:#4d4d4d;}.cls-16,.cls-17{fill:#160d7c;}.cls-17,.cls-20{stroke:#ff4e00;}.cls-17{stroke-width:0;}.cls-18,.cls-20{fill:#2463cd;}.cls-19,.cls-22{fill:#67e6f6;}.cls-19{stroke:#1a1270;stroke-width:18px;}.cls-20{stroke-width:12px;}.cls-21{fill:#101111;}.cls-23{fill:#222a40;}.cls-24{fill:#131723;}.cls-25{fill:#e54405;}.cls-26{fill:#fe5a27;}.cls-27{fill:#807867;}.cls-28{fill:#e6d8ba;}.cls-29{fill:#49aec0;}.cls-30{fill:#fff0cf;}.cls-31{stroke-width:12.43px;}.cls-32{fill:#d63403;}.cls-33{stroke:#ccc;}.cls-34{clip-path:url(#clip-path);}.cls-35{fill:#6b7080;}.cls-36,.cls-37{fill:#ed970c;}.cls-37{font-size:24.02px;font-family:BusanBada, BusanBada;}.cls-38{fill:#f2b69c;}.cls-39{fill:#d8d2c0;}.cls-41{fill:#c56231;}.cls-42{fill:#273a76;}.cls-43{fill:#f1a992;}.cls-44{fill:#c56133;}.cls-45{fill:#bf3b3e;}</style><clipPath id="clip-path"><path class="cls-1" d="M737.42,102.08C682,102.08,637,146.88,637,202.14V441.38H837.83V202.14C837.83,146.88,792.87,102.08,737.42,102.08Z"/></clipPath></defs><title>main page illustration_color수정</title><path class="cls-2" d="M12295.77,481.84h341V255.31s19.08-202.46-216.57-209.92H12124s-136.08-3.32-267.19,96.25c0,0-14.65,10.53-38.48,32.18-7.94,7.21-16.9,15.66-26.69,25.38-39.22,36.14-76.56,76-95.23,127-17.42,43.56,8.72,99.57,53.51,117.83a182.72,182.72,0,0,0,36.47,11.36l5.29,1.25.21,23.75,216.15,1.45a144.48,144.48,0,0,1,287.35,0Z"/><path class="cls-3" d="M11714.76,289.65a223.79,223.79,0,0,0-18.34,38.11c-17.42,43.56,8.72,99.57,53.51,117.83A182.72,182.72,0,0,0,11786.4,457l5.29,1.24.2,23.76,216.16,1.45a144.48,144.48,0,0,1,287.35,0h341.4V289.65Z"/><rect class="cls-4" x="12297.82" y="173.84" width="183.11" height="221.45" rx="28.35" ry="28.35"/><path class="cls-5" d="M12348.86,173.92c-.65,0-1.31-.08-2-.08h-21a28.19,28.19,0,0,0-28.11,28.11V367.19a28.19,28.19,0,0,0,28.11,28.11h21c.66,0,1.32,0,2-.08Z"/><rect class="cls-5" x="12332.33" y="280.7" width="151.38" height="8.94"/><circle class="cls-6" cx="12152.82" cy="499.29" r="133.69"/><path class="cls-6" d="M12819.52,521.58a36.4,36.4,0,0,0-35.86,30.18h-9.88V482h12V329.7h-143.13V482h118v85.67h23.71a36.41,36.41,0,1,0,35.1-46Z"/><rect class="cls-6" x="12768.79" y="418.48" width="103.31" height="43.56"/><circle class="cls-6" cx="12660.64" cy="300.54" r="7.66"/><rect class="cls-6" x="12659.12" y="306.29" width="2.93" height="23.61"/><rect class="cls-6" x="12646.5" y="325.5" width="15.32" height="2.87" transform="translate(2724.17 8177.4) rotate(-39.81)"/><rect class="cls-6" x="12659.29" y="325.5" width="15.32" height="2.87" transform="translate(22188.14 8687.88) rotate(-140.19)"/><path class="cls-5" d="M12642.67,236.19v7.18c5.13,9.57,13.74,31.73,0,54.87v6.82h0C12667.52,270.81,12643.18,236.89,12642.67,236.19Z"/><circle class="cls-7" cx="12154.44" cy="496.43" r="65.96"/><text class="cls-8" transform="translate(13299.1 449.95)">camper</text><text class="cls-9" transform="translate(12874.63 454.57) scale(1 1.13)">All</text><polygon class="cls-10" points="8913.31 455.95 8861.98 455.95 8855.31 455.95 8452.65 455.95 8452.65 553.82 8861.98 553.82 8861.98 486.49 8913.31 486.49 8913.31 455.95"/><path class="cls-11" d="M7872,464.56s33.86-113.19,63.71-157.76c0,0,6.33-11.27,15.83-26.54s22.17-34.57,34.86-50.67C8082.76,110,8227.76,26,8382.39,16.25q26.16-2.19,52.59-2.68c57.79-1.52,118.43-.57,175.2,12.75,11.36,2.67,22.56,5.83,33.55,9.56,135.62,45.45,231.71,200.77,201.83,344a309.74,309.74,0,0,1-8.31,30.66,344,344,0,0,1-41.66,85l-10.28-.1-668.71-6.45-16.47-.17c-23.17.15-44.9.15-67.78-3.28-44.62-5.71-86.94-12.56-130.35-17.32l-21.42-2.66Z"/><circle class="cls-12" cx="8587.79" cy="189.61" r="57"/><rect class="cls-13" x="8234.12" y="147.61" width="212.67" height="144.33" rx="12" ry="12"/><path class="cls-12" d="M8587.71,75.7A111.25,111.25,0,0,0,8476.46,187V453H8699V187A111.25,111.25,0,0,0,8587.71,75.7Z"/><path class="cls-14" d="M8813.05,289c-20.75,0-37.57,18.91-37.57,42.25s16.82,42.25,37.57,42.25h43.43V289Z"/><rect class="cls-15" x="8062.14" y="492.95" width="776.51" height="38.83"/><circle class="cls-15" cx="8308.56" cy="560.42" r="104.89"/><circle class="cls-7" cx="8308.56" cy="560.42" r="65.96"/><path class="cls-14" d="M8418.74,569.75s-6.79-33.66-26.06-61.95c-1-1.49-2.06-3-3.14-4.42-8.55-11.94-20-21.12-32.9-28a131.72,131.72,0,0,0-20.27-8.56,116.54,116.54,0,0,0-90.62,9.18A107.53,107.53,0,0,0,8226.19,490a96.64,96.64,0,0,0-15.69,18.07c-1.38,2.12-2.78,4.42-4.15,6.9-6.88,12.44-13.3,29.64-15.83,52.56,0,0-20.7,2.41-29.65-2.06,0,0-2.1-70,53.5-122.19,0,0,20.7-24.37,67.72-33.64,0,0,72.09-12.87,122.79,32.1,0,0,28.94,24.45,41.31,61.78,0,0,13.68,41.87,5.26,66.24C8451.45,569.75,8431,573.19,8418.74,569.75Z"/><text class="cls-8" transform="translate(9356.28 474.98)">camper</text><text class="cls-9" transform="translate(8931.8 479.6) scale(1 1.13)">All</text><text></text><rect class="cls-16" x="4296.48" y="459.21" width="289.49" height="62.17"/><rect class="cls-17" x="4615.5" y="471.82" width="346" height="23.21"/><path class="cls-18" d="M3805.47,479.42H4086s21.5-108.83,138.5-109.83c0,0,104.66-5,137.66,109.83H4861.8s22.17-70.79,22.67-152.25a398.57,398.57,0,0,0-4.29-62.29C4851.47,52.18,4589.47,44.18,4420.06,48q-27.36,1.33-54.56,4.51a763.47,763.47,0,0,0-159.89,36.21q-24.78,8.16-49.22,17.49-23.74,9.06-47.17,19.12-11.7,5-23.33,10.27c-89.79,41.94-180.79,81.94-255.79,150.94-15,14-16,37-19.31,57.42-1.1,7.42-2,15.1-2.77,22.86C3802.75,421.15,3805.47,479.42,3805.47,479.42Z"/><rect class="cls-19" x="4456.07" y="127.63" width="246.25" height="228.58" rx="42.52" ry="42.52"/><rect class="cls-20" x="4702.32" y="127.63" width="215.24" height="222.89" rx="34.02" ry="34.02"/><rect class="cls-14" x="3860.62" y="308.56" width="297.33" height="10.5"/><circle class="cls-21" cx="4218.41" cy="504.8" r="126.14"/><path class="cls-22" d="M4088.29,492.14c8.51-68.61,59.3-121.9,130.19-121.9s121.14,53.29,129.66,121.9h18.48c-8.58-74.14-71.73-131.9-148.14-131.9S4078.91,418,4070.34,492.14Z"/><circle class="cls-7" cx="4218.41" cy="504.8" r="65.96"/><text class="cls-8" transform="translate(5407.76 481.11)">camper</text><text class="cls-9" transform="translate(4983.29 485.73) scale(1 1.13)">All</text><text class="cls-8" transform="translate(1643.37 549.08)">camper</text><text class="cls-9" transform="translate(1218.9 553.7) scale(1 1.13)">All</text><path class="cls-23" d="M1160.57,562h60.29V550.9c0-7.42-8.35-9.28-8.35-9.28h-11.13c0-6.49-8.35-6.49-8.35-6.49h-32.46Z"/><path class="cls-23" d="M1191.14,536.32s1.08-11.13-5.41-11.13H1169s-4.64,3.71,0,5.57c0,0,9.27-.93,10.2,1.85l-.15,3.71Z"/><rect class="cls-24" x="190" y="491.59" width="971.78" height="71.26"/><rect class="cls-25" x="961.73" y="337.73" width="111.75" height="136.04"/><rect class="cls-26" x="953.63" y="323.39" width="125.52" height="29.03" rx="8.86" ry="8.86"/><ellipse class="cls-25" cx="1016.39" cy="328.09" rx="61.9" ry="11.53"/><path class="cls-26" d="M964,456.07s33,7.59,52.78,7.59,53.63-7.59,53.63-7.59a8.77,8.77,0,0,1,8.74,8.75V476a8.77,8.77,0,0,1-8.74,8.75H964a8.77,8.77,0,0,1-8.74-8.75V464.82A8.77,8.77,0,0,1,964,456.07Z"/><ellipse class="cls-26" cx="1017.2" cy="479.67" rx="61.11" ry="11.8"/><path class="cls-26" d="M1073.47,370.12h-44.53a8.12,8.12,0,0,0-8.1,8.1v58.3a8.12,8.12,0,0,0,8.1,8.1h44.53Z"/><rect class="cls-27" x="542.26" y="12.2" width="106.89" height="12.96"/><rect class="cls-28" x="536.59" y="4.1" width="118.23" height="9.72" rx="4.86" ry="4.86"/><path class="cls-29" d="M373.82,21.91,357.63,42.16V54.31L355.2,73.74l49.4-1.62,35.63-24.29L429.7,32.44S403,15.44,373.82,21.91Z"/><path class="cls-29" d="M724.46,36.49l2.43-14.58L749.56,4.1s25.92,19.43,21.06,37.25Z"/><path class="cls-30" d="M9.29,474.09s34.1-114,64.15-158.84c0,0,6.38-11.35,15.94-26.73s22.33-34.81,35.1-51c97-120.46,243-205,398.69-214.8q26.33-2.2,53-2.69c58.18-1.53,119.24-.58,176.4,12.84,11.43,2.68,22.71,5.86,33.77,9.62,136.55,45.76,233.3,202.14,203.22,346.39a317.53,317.53,0,0,1-8.36,30.87,346.44,346.44,0,0,1-42,85.62l-10.34-.1-673.3-6.49L239,498.58c-23.33.15-45.21.15-68.25-3.29-44.92-5.75-87.53-12.65-131.24-17.44l-21.56-2.69Z"/><rect class="cls-23" x="208.48" y="502.67" width="781.83" height="39.1"/><circle class="cls-24" cx="456.6" cy="570.6" r="105.61"/><circle class="cls-31" cx="456.6" cy="570.6" r="66.41"/><circle class="cls-24" cx="456.6" cy="570.6" r="16.83"/><path class="cls-26" d="M572.52,584.28s-6.83-33.89-26.23-62.38c-1-1.5-2.08-3-3.17-4.45-8.61-12-20.13-21.26-33.12-28.14a131.32,131.32,0,0,0-20.42-8.63,117.37,117.37,0,0,0-91.24,9.25,108,108,0,0,0-19.69,14,96.91,96.91,0,0,0-15.79,18.2c-1.4,2.13-2.8,4.44-4.19,7C351.75,541.64,345.29,559,342.73,582c0,0-20.84,2.42-29.85-2.08,0,0-2.12-70.5,53.87-123,0,0,20.85-24.53,68.18-33.86,0,0,72.59-13,123.64,32.31,0,0,29.14,24.62,41.59,62.2,0,0,13.78,42.17,5.3,66.7C605.46,584.28,584.88,587.74,572.52,584.28Z"/><rect class="cls-24" x="390.45" y="142.54" width="196.52" height="133.38" rx="11.09" ry="11.09"/><rect class="cls-28" x="400.19" y="151.88" width="177.04" height="115.39" rx="9.79" ry="9.79"/><path class="cls-24" d="M737.82,87.1c-63.76,0-115.45,48.65-115.45,108.66V455.55h230.9V195.76C853.27,135.75,801.58,87.1,737.82,87.1Z"/><path class="cls-26" d="M99.78,271.67s257.5,56.23,405,39.83c0,0,390.93-32.88,477.55,16.33,0,0-117-44.45-470.53,4.76,0,0-262.18,35.14-442.43-11.72Z"/><path class="cls-26" d="M47.17,367.66s178.31,30.45,425.22-14.06c0,0,356.63-68,505.23-21.09,0,0-157.74-42.17-505.23,42.17,0,0-242.33,67.95-443.51,37.49Z"/><path class="cls-26" d="M13.27,461.45l-4.66,16.4,139.78,21.09s221.3-14.13,351.76-82c0,0,97.84-46.93,300.51-77.39,0,0,109.49-14,191,4.76,0,0-93.19-39.83-330.8,9.37C660.89,353.67,125.09,491.91,13.27,461.45Z"/><path class="cls-30" d="M737.42,92.36c-59.93,0-108.52,47.26-108.52,105.56V450.29h217V197.92C845.93,139.62,797.34,92.36,737.42,92.36Z"/><circle class="cls-24" cx="737.74" cy="197.26" r="57.39"/><circle class="cls-28" cx="737.74" cy="197.26" r="49.78"/><circle class="cls-32" cx="1061.33" cy="378.22" r="4.05"/><circle class="cls-32" cx="1049.99" cy="378.22" r="4.05"/><circle class="cls-32" cx="1038.65" cy="378.22" r="4.05"/><circle class="cls-32" cx="1027.32" cy="378.22" r="4.05"/><path class="cls-32" d="M1073.47,374.17a4.05,4.05,0,0,0,0,8.1Z"/><circle class="cls-32" cx="1061.33" cy="392.79" r="4.05"/><circle class="cls-32" cx="1049.99" cy="392.79" r="4.05"/><circle class="cls-32" cx="1038.65" cy="392.79" r="4.05"/><circle class="cls-32" cx="1027.32" cy="392.79" r="4.05"/><path class="cls-32" d="M1073.47,388.75a4,4,0,0,0,0,8.09Z"/><circle class="cls-32" cx="1061.33" cy="407.37" r="4.05"/><circle class="cls-32" cx="1049.99" cy="407.37" r="4.05"/><circle class="cls-32" cx="1038.65" cy="407.37" r="4.05"/><circle class="cls-32" cx="1027.32" cy="407.37" r="4.05"/><path class="cls-32" d="M1073.47,403.32a4.05,4.05,0,0,0,0,8.1Z"/><circle class="cls-32" cx="1061.33" cy="421.95" r="4.05"/><circle class="cls-32" cx="1049.99" cy="421.95" r="4.05"/><circle class="cls-32" cx="1038.65" cy="421.95" r="4.05"/><circle class="cls-32" cx="1027.32" cy="421.95" r="4.05"/><path class="cls-32" d="M1073.47,417.9a4.05,4.05,0,0,0,0,8.1Z"/><circle class="cls-32" cx="1061.33" cy="436.52" r="4.05"/><circle class="cls-32" cx="1049.99" cy="436.52" r="4.05"/><circle class="cls-32" cx="1038.65" cy="436.52" r="4.05"/><circle class="cls-32" cx="1027.32" cy="436.52" r="4.05"/><path class="cls-32" d="M1073.47,432.47a4.05,4.05,0,0,0,0,8.1Z"/><line class="cls-33" x1="1205.47" y1="549.08" x2="1205.47" y2="562.03"/><rect class="cls-27" x="537.4" y="49.46" width="118.23" height="18.62" rx="8.57" ry="8.57"/><rect class="cls-28" x="536.59" y="47.04" width="118.23" height="18.62" rx="8.57" ry="8.57"/><rect class="cls-27" x="264.17" y="137.3" width="42.76" height="54.28"/><rect class="cls-28" x="265.31" y="134.47" width="40.49" height="55.07"/><path class="cls-29" d="M964.53,297.73c-20.88,0-37.81,19-37.81,42.54s16.93,42.54,37.81,42.54h43.74V297.73Z"/><circle class="cls-26" cx="998.17" cy="306.15" r="2.43"/><circle class="cls-26" cx="956.06" cy="311.01" r="2.43"/><circle class="cls-26" cx="935" cy="340.27" r="2.43"/><circle class="cls-26" cx="958.49" cy="371.74" r="2.43"/><circle class="cls-26" cx="998.97" cy="373.36" r="2.43"/><path class="cls-24" d="M479.91,521.14c0-13.2-10.69-29.55-23.89-29.55s-23.89,16.35-23.89,29.55a23.89,23.89,0,0,0,47.78,0Z"/><path class="cls-24" d="M481.3,630.46c0-13.2-10.7-29.55-23.9-29.55s-23.89,16.35-23.89,29.55a23.9,23.9,0,0,0,47.79,0Z"/><path class="cls-24" d="M407.83,547.05c-13.19,0-29.55,10.7-29.55,23.9s16.36,23.89,29.55,23.89a23.9,23.9,0,1,0,0-47.79Z"/><path class="cls-24" d="M510.68,547.05c-13.2,0-29.56,10.7-29.56,23.9s16.36,23.89,29.56,23.89a23.9,23.9,0,0,0,0-47.79Z"/><rect class="cls-24" x="654.82" y="245.41" width="29.96" height="35.63" rx="8.1" ry="8.1"/><g class="cls-34"><path class="cls-14" d="M100.24,271.57s254.58,56.67,400.38,40.14c0,0,386.5-33.13,472.13,16.45,0,0-115.72-44.78-465.18,4.8,0,0-259.21,35.41-437.41-11.81Z"/><path class="cls-14" d="M48.55,368.3S224.79,399,468.81,354.13c0,0,352.47-68.47,499.33-21.25,0,0-155.9-42.49-499.33,42.5,0,0-239.5,68.46-438.33,37.77Z"/><path class="cls-14" d="M14,462.81,9.42,479.33l149.81,20.6s207.41-13.59,336.47-82c0,0,96.79-47.29,297.29-78,0,0,108.32-14.08,189,4.8,0,0-92.19-40.13-327.26,9.45C654.71,354.21,124.65,493.5,14,462.81Z"/></g><path class="cls-1" d="M737.42,102.08C682,102.08,637,146.88,637,202.14V441.38H837.83V202.14C837.83,146.88,792.87,102.08,737.42,102.08Z"/><circle class="cls-35" cx="669.39" cy="263.23" r="5.67"/><circle class="cls-30" cx="748.75" cy="21.1" r="2.43"/><circle class="cls-30" cx="384.35" cy="35.68" r="3.24"/><ellipse class="cls-30" cx="336.98" cy="328.42" rx="61.14" ry="39.27"/><ellipse class="cls-28" cx="336.79" cy="327.72" rx="35.85" ry="26.32"/><path class="cls-36" d="M336.79,302.39c19.21,0,34.84,11.36,34.84,25.33S356,353,336.79,353s-34.85-11.36-34.85-25.32,15.63-25.33,34.85-25.33m0-2c-20.35,0-36.85,12.24-36.85,27.33S316.44,355,336.79,355s36.84-12.23,36.84-27.32-16.5-27.33-36.84-27.33Z"/><path class="cls-29" d="M336.57,302.1c-19.67,0-34.82,11.6-34.82,25.91H372.2C372.2,313.7,356.25,302.1,336.57,302.1Z"/><text class="cls-37" transform="translate(312.74 335.7)">T@G</text><path class="cls-38" d="M588.75,90a5.47,5.47,0,0,1-5,1.33,5.3,5.3,0,0,1-1.76-.66,8.51,8.51,0,0,1-1.87-1.53s-5.74-13.35-9.38-16.51c0,0-7.1-5.2-10.78-3.58,0,0-1.62.78-.8,2.18,0,0,7.22,8.51,8.38,15.66,0,0,1.22,19.95,14.89,28.23,0,0,4.59,1.59,2.8,6.28,0,0-8.42,59.66-21.28,75.14,0,0-1.38,2.22-3.28,5.86-1,1.82-2,4-3.16,6.44-1.28,3-2.58,6-3.78,9.05-2.81,7.12-5.1,14.54-4.67,22.33a40.73,40.73,0,0,0,1.1,7.35,42.76,42.76,0,0,0,2.33,6.93c2.85,7.1,8.67,13.53,16.34,15.16,8,1.59,16.36-3,20.1-10.24a47.93,47.93,0,0,0,3.06-6.27c4.48-11,6-24.34,7.35-35.05.44-2.93.88-5.85,1.34-8.77s.93-5.84,1.44-8.75c.42-2.5.87-5.18,1.34-7.94l1.54-8.94c.18-1,.35-2,.53-3,2.13-11.38,4.31-22.62,6.84-33.89.83-3.49,1.21-7.09,2-10.57.41-1.51.56-3.18.9-4.71a6.48,6.48,0,0,1,2-3.86,36.27,36.27,0,0,0,5.17-5c.51-.61,1-1.22,1.47-1.85a71.6,71.6,0,0,0,3.75-6.47c.38-.74.76-1.49,1.13-2.24s.69-1.63,1.05-2.44.71-1.62,1.07-2.43.57-1.46.87-2.19.59-1.45.9-2.17c.86-2.32,1.74-4.63,2.62-7l.87-2.32c2.59-6.8,4.89-13.63,5.71-20.78.1-.72.19-1.44.26-2.16.29-1.56.13-4-1.5-4.33-4.08-1-4.61,3.63-5.08,7.15-.09.7-.18,1.37-.29,1.93a36.45,36.45,0,0,1-2.87,9.06,5.63,5.63,0,0,1-1.16,1.47,3.82,3.82,0,0,1-1.68.88,3,3,0,0,1-1.75-.44,1.91,1.91,0,0,1-.94-1.46,3.35,3.35,0,0,1,0-.64c.25-1.51.45-3,.76-4.39.07-.36.16-.72.25-1.08s.23-.79.34-1.19.21-.81.31-1.21c.19-.85.38-1.7.6-2.55.1-.43.21-.86.32-1.28.25-.85.49-1.71.72-2.57.12-.43.24-.86.35-1.29,1-3.91,2.11-7.68,3.17-11.57a9,9,0,0,0,.16-1.26,4.6,4.6,0,0,0-2-4.36,4.7,4.7,0,0,0-.69-.39,4.35,4.35,0,0,0-.54-.22,5.44,5.44,0,0,0-.54-.15,4.23,4.23,0,0,0-3.56.63,3.94,3.94,0,0,0-.45.36,5.08,5.08,0,0,0-1.26,1.8c-.09.22-.17.44-.24.67-.18.71-.32,1.43-.45,2.15,0,.25-.09.49-.12.73-.21,1.28-.52,2.59-.65,3.93,0,.23,0,.45-.05.67a4.3,4.3,0,0,1-.08.64c0,.3-.07.6-.11.9-.1.89-.21,1.78-.32,2.66-.06.4-.11.8-.16,1.19s-.09.82-.14,1.23c-.14,1.23-.27,2.45-.47,3.65-.06.42-.14.85-.23,1.27a16.09,16.09,0,0,1-.71,2.5,4.81,4.81,0,0,1-.49.82,3.64,3.64,0,0,1-.67.69,3.05,3.05,0,0,1-.51.27,1.63,1.63,0,0,1-2.14-.93,5.9,5.9,0,0,1-.23-2.48,17.51,17.51,0,0,1,.39-2.56c.1-.47.21-1,.33-1.43.22-.94.44-1.86.55-2.66l.18-.75c.06-.24.12-.49.19-.73s.19-.65.29-1l.28-1c1.06-3.12,1.78-6.18,2.79-9.24l.24-.89c.15-.6.3-1.2.44-1.82.06-.29.11-.58.16-.88.15-.88.26-1.78.34-2.69,0-.33,0-.66,0-1a8.62,8.62,0,0,0-1.12-4.65,4.11,4.11,0,0,0-.38-.45,5.13,5.13,0,0,0-2.08-1.34,3.69,3.69,0,0,0-.9-.13,3,3,0,0,0-2.62,1.69,5,5,0,0,0-.34.59,37.63,37.63,0,0,0-2.18,8.15l-.15.84c-.15.85-.27,1.69-.36,2.55,0,.29-.07.58-.1.87s-.06.58-.1.88l-.09.85c-.13,1.14-.29,2.29-.48,3.42-.07.31-.12.62-.18.93-.27,1.54-.47,3.08-.67,4.64,0,.31-.07.62-.11.94-.4,2.35-.49,7.63-4.16,6.17a3.32,3.32,0,0,1-.73-.49c-1.86-1.71-.81-5.31-1.06-7.89,0-.53,0-1.07.08-1.61C606,57.58,607.4,51.7,608,45.7c.38-3.9.64-8.09-1.93-11.41a1.86,1.86,0,0,0-2.18-.33,4.87,4.87,0,0,0-2.53,2.3c-3.82,9.33-4.61,18.82-6,28.47-.38,2.27-.77,4.54-1.19,6.81s-.86,4.53-1.35,6.78c-.23,1-.45,2-.67,3s-.43,1.83-.64,2.66A9.74,9.74,0,0,1,588.75,90"/><path class="cls-39" d="M456.5,104c-8.29,11.14-16.1,22.45-24.72,33.45,25.52,5.5,50.56,20.94,77.14,12.32,3.26-.66,6.52-1.31,9.79-1.77,1.12-3.14,2.75-6.38,3.95-9.55s2-6.27,1.31-9.1c-5.58-12.22-15.31-22.46-25.83-31.63-8.94-7.64-24.09-12.68-34-4Z"/><ellipse class="cls-40" cx="481.25" cy="164.14" rx="67.86" ry="49.51"/><path class="cls-38" d="M524.31,184.86c1.36,21-10,43.53-30.16,51.72a35.35,35.35,0,0,1-32.07-2.69c-17.39-10.77-25.8-30.73-24.68-50.13.56-11.89,5.05-23.56,13.8-32.19A43.91,43.91,0,0,1,484.62,139c20.53,1.23,38.47,19,39.56,39.43A50.5,50.5,0,0,1,524.31,184.86Z"/><rect class="cls-41" x="446.59" y="165.14" width="24.58" height="5.56" rx="2.78" ry="2.78"/><rect class="cls-41" x="489.33" y="165.14" width="24.58" height="5.56" rx="2.78" ry="2.78"/><rect class="cls-41" x="446.8" y="165.14" width="24.58" height="5.56" rx="2.78" ry="2.78"/><circle class="cls-42" cx="459.2" cy="181.17" r="5.98"/><circle class="cls-42" cx="502.16" cy="181.17" r="5.98"/><path class="cls-43" d="M479.47,179.33a23.71,23.71,0,0,1,6.4,6.62c.25.39.49.8.72,1.22a14.29,14.29,0,0,1,2,5.84c.26,2.9-1.88,6-4.87,6.15a23.39,23.39,0,0,1-8.46-.25c-.94-.26-2.05-1.11-1.63-2.14.94-2,3.77-1.2,5.13-2.31a3.24,3.24,0,0,0,.7-.79,3.05,3.05,0,0,0,.39-.91,4.86,4.86,0,0,0,.16-.69c.29-3.34-1.25-6.41-1.44-9.73-.05-.41-.08-.77-.11-1.07a4.79,4.79,0,0,1,0-1.08S478.4,178.9,479.47,179.33Z"/><path class="cls-44" d="M483.63,198.3c-1,1-2.5,1.72-3.7,1.12-2.39-1.11-4.79-2.31-7.47-1.7a8.78,8.78,0,0,0-1.71.53,20.15,20.15,0,0,0-8.74,8.57,2.72,2.72,0,0,0,.43,3.33,2.58,2.58,0,0,0,2.57.6c3.5-1.11,6.92-2.39,10.57-2.83.68-.09,1.37-.15,2.06-.2a43.58,43.58,0,0,1,10.27.5c.68.11,1.36.24,2,.38,2.33.36,4.38,1.3,6.69,1.89a4.25,4.25,0,0,0,1.38,0,3.87,3.87,0,0,0,1.31-.37,2,2,0,0,0,1.32-2c-.25-4.11-3.84-6.76-6.94-8.88-.47-.3-.93-.58-1.39-.84a11.32,11.32,0,0,0-7.25-.78A5.56,5.56,0,0,0,483.63,198.3Z"/><path class="cls-45" d="M469.86,215.8a11.67,11.67,0,1,0,23.33,0Z"/></svg>