<svg id="레이어_1" data-name="레이어 1" xmlns="http://www.w3.org/2000/svg" viewBox="0 0 9597.85 627.95"><defs><style>.cls-1{fill:#6b6a74;}.cls-2{fill:#34445d;}.cls-3{fill:#162a47;}.cls-4{fill:#585c6a;}.cls-5{fill:#243750;}.cls-6{fill:#1e3044;}.cls-7{fill:#f7fbfe;}.cls-8{fill:#fcfcfc;}.cls-9{fill:#807149;}</style></defs><title>mainmountain</title><path class="cls-1" d="M9582.92,200l-5-6-5,16-6-7-12,4-19,15h-16l-4-22-14,15-16,8-14,14-18,1-10,13-22-11-11,17-23,12-21-1-39-12-21,3-29,11-27-5-39,15-57.94-21-23-25-19,6-25-20-46-19-8-14-20,8-19-6-17-1-10-40-28,19-2-9-8-2-9-28-4-16h-6l-9,1-7,3-10,11-11-7-16,12-3,6-8,3-9,7-18-28h-7l-11-14-11,11-15,4-18,11-16,8-8,2-9,16-3-11-11-15-21-8-12-50-19-26-11,11-13,8h-8l-14,13-26,24-16,16-13,26-7-7-21,25-25,23-33,5-33-15-17-9-7-25-19-20-7-12-19,9-14,8-11,11-6,9-16,14-12,8-9,10-25,10-39,15-5-5-10-9-2-9-3-4h-9l-2-9-19-23-9-5-6,4-8,5-2-8-6.49-14.5-9.49,9.5-5.5,7.5-9.49-13.5-5-3-7,5-4.49,4.5-6.49,3.5-6,3-3.5-9.5-4-5-4,6-8,9-5,14L8068.41,174l-9.5-1.5-4-3-6,6-4.49,8.5-.64.2c-13.18,4.38-38.37,21.88-41.32,26.8s-18,9-18,9c-3,0-2,2-2,2L7954,250.54,7890.58,280l-46.45-80.5-41-31-18-32-18,20L7740.73,178c-4,1-62.66,35.63-62.66,35.63h0S7619.42,179,7615.43,178L7589,156.54l-18-20-18,32-41,31L7465.59,280l-63.43-29.5L7373.7,222s1-2-2-2c0,0-15-4-18-9s-28.14-22.42-41.32-26.8l-.63-.2-4.5-8.5-6-6-4,3-9.49,1.5-10.49-15.5-5-14-8-9-4-6-4,5-3.5,9.5-6-3-6.49-3.5-4.5-4.5-7-5-5,3-9.49,13.5-5.49-7.5-9.49-9.5L7192.9,142l-2,8-8-5-6-4-9,5-19,23-2,9h-9l-3,4-2,9-10,9-5,5L7079,190l-25-10-9-10-12-8-16-14-6-9-11-11-14-8-19-9-7,12-19,20-7,25-17,9-33,15-33-5-25-23-21-25-7,7-13-26-16-16-26-24-14-13h-8l-13-8-11-11-19,26-12,50-21,8-11,15-3,11-9-16-8-2-16-8-18-11-15-4-11-11-11,14h-7l-18,28-9-7-8-3-3-6-16-12-11,7-10-11-7-3-9-1h-6l-4,16-9,28-8,2-2,9-28-19-10,40-17,1-19,6-20-8-8,14-45.95,19-25,20-19-6-23,25-57.94,21-38.95-15-27,5-29-11-21-3-38.95,12-21,1-23-12-11-17-22,11-10-13-18-1-14-14-16-8-14-15-4,22h-16l-19-15-12-4-6,7-5-16-5,6h-30l-5-6-5,16-6-7-12,4-19,15h-16l-4-22-14,15-16,8-14,14-18,1-10,13-22-11-11,17-23,12-21-1-39-12-21,3-29,11-27-5-39,15L5315,259l-23-25-19,6-25-20-45.94-19-8-14-20,8-19-6-17-1-10-40-28,19-2-9-8-2-9-28-4-16h-6l-9,1-7,3-10,11-11-7-16,12-3,6-8,3-9,7-18-28h-7l-11-14-11,11-15,4-18,11-16,8-8,2-9,16-3-11-11-15-21-8-12-50-19-26-11,11-13,8h-8l-14,13-26,24-16,16-13,26-7-7-21,25-25,23-33,5-33-15-17-9-7-25-19-20-7-12-19,9-14,8-11,11-6,9-16,14-12,8-9,10-25,10-38.95,15-5-5-10-9-2-9-3-4h-9l-2-9-19-23-9-5-6,4-8,5-2-8-6.5-14.5-9.49,9.5-5.49,7.5L4293.2,131l-5-3-7,5-4.5,4.5-6.49,3.5-6,3-3.5-9.5-4-5-4,6-8,9-5,14L4229.28,174l-9.49-1.5-4-3-6,6-4.5,8.5-.64.2c-13.17,4.38-38.36,21.88-41.31,26.8s-18,9-18,9c-3,0-2,2-2,2l-28.47,28.5L4051.48,280,4005,199.54l-41-31-18-32-18,20L3901.66,178c-4,1-62.65,35.63-62.65,35.63S3780.36,179,3776.37,178l-26.47-21.5-18-20-18,32-41,31L3626.54,280l-63.42-29.5L3534.65,222s1-2-2-2c0,0-15-4-18-9s-28.13-22.42-41.31-26.8l-.64-.2-4.49-8.5-6-6-4,3-9.49,1.5-10.49-15.5-5-14-8-9-4-6-4,5-3.49,9.5-6-3-6.5-3.5-4.49-4.5-7-5-5,3-9.49,13.5-5.49-7.5-9.49-9.5-6.49,14.5-2,8-8-5-6-4-9,5-19,23-2,9h-9l-3,4-2,9-10,9-5,5-39-15-25-10-9-10-12-8-16-14-6-9-11-11-14-8-19-9-7,12-19,20-7,25-17,9-33,15-33-5-25-23-21-25-7,7-13-26-16-16-26-24-14-13h-8l-13-8-11-11-19,26-12,50-21,8-11,15-3,11-9-16-8-2-16-8-18-11-15-4-11-11-11,14h-7l-18,28-9-7-8-3-3-6-16-12-11,7-10-11-7-3-9-1h-6l-4,16-9,28-8,2-2,9-28-19-10,40-17,1-19,6-20-8-8,14-46,19-25,20-19-6-23,25-57.94,21-39-15-27,5-29-11-21-3-39,12-21,1-23-12-11-17-22,11-10-13-18-1-14-14-16-8-14-15-4,22h-16l-19-15-12-4-6,7-5-16-5,6h-29.94l-5-6-5,16-6-7-12,4-19,15h-16l-4-22-14,15-16,8-14,14-18,1-10,13-22-11-11,17-23,12-21-1-39-12-21,3-29,11-27-5-39,15-57.93-21-23-25-19,6-25-20-45.94-19-8-14-20,8-19-6-17-1-10-40-28,19-2-9-8-2-9-28-4-16h-6l-9,1-7,3-10,11-11-7-16,12-3,6-8,3-9,7-18-28h-7l-11-14-11,11-15,4-18,11-16,8-8,2-9,16-3-11-11-15-21-8-12-50-19-26-11,11-13,8h-8l-14,13-26,24-16,16-13,26-7-7-21,25-25,23-33,5-33-15-17-9-7-25-19-20-7-12-19,9-14,8-11,11-6,9-16,14-12,8-9,10-25,10-39,15-5-5-10-9-2-9-3-4h-9l-2-9-19-23-9-5-6,4-8,5-2-8-6.49-14.5-9.49,9.5-5.49,7.5L454.24,131l-5-3-7,5-4.49,4.5-6.49,3.5-6,3-3.49-9.5-4-5-4,6-8,9-5,14L390.31,174l-9.49-1.5-4-3-6,6-4.5,8.5-.64.2c-13.18,4.38-38.36,21.88-41.31,26.8s-18,9-18,9c-3,0-2,2-2,2L276,250.54,212.52,280l-46.45-80.5-40.95-31-18-32-18,20L62.69,178c-4,1-62.64,35.63-62.64,35.63V521.25L1919.53,521l1919.48.21L5758.5,521l1919.57.21h0L9597.91,521V200Z"/><path class="cls-2" d="M1405.38,311.06l28.72-71,37.72,78.11-13.63,29.18s-54.47-7.79-54.47-10.71S1405.38,311.06,1405.38,311.06Z"/><path class="cls-2" d="M1563.16,270l-28,11-9.86,24.5L1510.71,322l-29,28.17L1470.82,358s32.1,11.68,33.07,11.68,18.48,1.95,18.48,0S1563.16,270,1563.16,270Z"/><path class="cls-2" d="M1649.85,256l-19.46,21.39-16.54,28.21s0,28.21,1.93,28.21S1732,351.38,1732,351.38l-54.25-77.57Z"/><path class="cls-3" d="M733.22,264.23l4-49-10-24-6-26-12-28h14l4.33-4.1,9.41,9.89,7.27,25.14L794,192l28.51-4.31-14.2,18.52,14,28,22,30-39.05,93h-26c-5,0-36-16-35-20S733.22,264.23,733.22,264.23Z"/><polygon class="cls-2" points="1057.96 191.18 1041.93 257.18 1005.89 257.18 1001.88 201.18 1011.61 123.97 1032.64 131.97 1043.65 146.97 1046.61 157.18 1053.95 143.18 1054.95 142.18 1062.23 140.37 1062.96 141.18 1057.96 191.18"/><path class="cls-2" d="M1158.43,173l1-25,9-7,8-3,2.94-6,11.08,20h10l15,28,9,20,16,95s-39,18-41,19-40-5-40-5Z"/><path class="cls-4" d="M841.65,262.75,927,231.56l26-16,19-24h31l19.07,31,85.11-44,51.62-17,7.46,33,12,15,21.38,42.74,12.67,39.26s-98.13,49-103.14,54-52.07,16-106.14,17-176.23-26-176.23-26Z"/><path class="cls-2" d="M1261.3,167l28-19,10,40-11.73,17.21,10,9-5,16,13,41,20,34,30,46s-10,18-14,18-72.09-13-72.09-13l21-38-15-69-13-15Z"/><path class="cls-4" d="M2097.75,258.35l-27,21-13-13-16,6-22,12-6-41-13,13-20-20-21,17-7,28-15,32-11.64,7.89-3.34-2.27-15-32-7-28-21-17-20,20-13-13-6,41-22-12-16-6-13,13-27-21-24,69s80.11,136,90.12,139,72.1-2,81.11,0c3.1.69,13.89-3.7,26.8-9.77,7,2.9,12.2,4.6,14.2,4.15,9-2,71,3,81,0s90-139,90-139Z"/><polygon class="cls-2" points="2006.35 305.11 2020.15 284.11 2013.78 243.11 1999.99 257.11 1973.46 277.11 1960.73 292.11 1959.66 317.11 1918.94 365.37 1878.22 317.11 1877.16 292.11 1864.43 277.11 1837.9 257.11 1824.11 243.11 1817.74 284.11 1831.53 305.11 1852.76 311.11 1865.49 334.11 1851.69 358.11 1865.49 409.11 1845.33 446.11 1895.2 478.11 1919.14 472.1 1919.14 472.1 1942.69 478.11 1992.56 446.11 1972.4 409.11 1986.19 358.11 1972.4 334.11 1985.13 311.11 2006.35 305.11"/><path class="cls-2" d="M570.24,236.3l-9.77-31.4,26.9-10.36,29.17,33.36,17,16,26,12,47.06,11h35l37,15,19,46-19,15-2,52s-15,34-20,36-52.06,11-77.1,14-79.1-13-79.1-16-13-52-13-52Z"/><polygon class="cls-3" points="501.19 141.04 516.21 160.04 525.71 177.52 532.72 186.52 546.74 199.52 559.04 232.39 571.06 238.44 560.55 204.87 549.74 194.52 545.74 191.52 543.73 182.52 540.73 177.52 533.72 177.52 531.72 174.52 530.72 170.52 510.69 145.52 501.19 141.04"/><path class="cls-4" d="M354.1,302.56l26-47,29-14,30-32,16-31,3-17,22,46,14-2,14,2,30,24s16,1,19,0,42,24,42,24l24,62-49.06-41-21-18-35,27s-58.08,7-69.1,8S354.1,302.56,354.1,302.56Z"/><polygon class="cls-3" points="980.63 48.04 976.91 67.25 976.91 89.25 967.89 86.25 966.89 97.25 958.88 99.25 971.9 106.25 994.93 123.25 994.93 152.25 994.93 180.25 1003.09 191.56 1006.95 169.25 1011.66 124 999.65 74.04 980.63 48.04"/><polygon class="cls-3" points="74.89 285.25 100.92 200.25 107.14 136.54 125.17 168.54 166.22 199.54 212.61 279.87 251.1 262.09 295.18 302.25 354.25 302.25 409.32 285.25 409.32 396.25 357.26 414.25 309.19 406.25 221.08 438.25 167.01 394.25 74.89 285.25"/><path class="cls-2" d="M2435.41,309.43l-28.72-71L2369,316.53l13.63,29.18s54.47-7.8,54.47-10.72S2435.41,309.43,2435.41,309.43Z"/><path class="cls-2" d="M2277.63,268.38l28,11,9.87,24.51,14.59,16.53,29,28.17,10.87,7.81s-32.09,11.68-33.06,11.68-18.49,1.95-18.49,0S2277.63,268.38,2277.63,268.38Z"/><path class="cls-2" d="M2190.94,254.41l19.46,21.4L2227,304s0,28.21-1.94,28.21-116.22,17.54-116.22,17.54L2163,272.18Z"/><path class="cls-3" d="M3107.58,262.6l-4-49,10-24,6-26,12-28h-14l-4.33-4.09-9.4,9.88-7.28,25.14-49.8,23.86-28.51-4.31,14.21,18.52-14,28-22,30,39.05,93h26c5,0,36-16,35-20S3107.58,262.6,3107.58,262.6Z"/><polygon class="cls-2" points="2782.84 189.55 2798.86 255.55 2834.91 255.55 2838.91 199.55 2829.18 122.34 2808.16 130.34 2797.14 145.34 2794.19 155.55 2786.84 141.55 2785.84 140.55 2778.57 138.75 2777.83 139.55 2782.84 189.55"/><path class="cls-2" d="M2682.36,171.39l-1-25-9-7-8-3-2.94-6-11.08,20h-10l-15,28-9,20-16,95s39.05,18,41.06,19,40.05-5,40.05-5Z"/><path class="cls-4" d="M2999.15,261.13l-85.39-31.19-26-16-19-24h-31l-19.06,31-85.11-44-51.63-17-7.45,33-12,15-21.38,42.74-12.66,39.26s98.13,49,103.13,54,52.07,16,106.14,17,176.23-26,176.23-26Z"/><path class="cls-2" d="M2579.49,165.4l-28-19-10,40,11.74,17.21-10,9,5,16-13,41-20,34-30,46s10,18,14,18,72.1-13,72.1-13l-21-38,15-69,13-15Z"/><path class="cls-2" d="M3270.55,234.68l9.78-31.41-26.91-10.35-29.17,33.35-17,16-26,12-47.06,11h-35l-37.05,15-19,46,19,15,2,52s15,34,20,36,52.07,11,77.1,14,79.1-13,79.1-16,13-52,13-52Z"/><polygon class="cls-3" points="3339.61 139.41 3324.59 158.41 3315.08 175.89 3308.07 184.89 3294.06 197.89 3281.75 230.76 3269.74 236.81 3280.24 203.24 3291.05 192.89 3295.06 189.89 3297.06 180.89 3300.06 175.89 3307.07 175.89 3309.08 172.89 3310.08 168.89 3330.1 143.89 3339.61 139.41"/><path class="cls-4" d="M3486.69,300.94l-26-47-29-14-30-32-16-31-3-17-22,46-14-2-14,2-30,24s-16,1-19,0-42.06,24-42.06,24l-24,62,49.07-41,21-18,35.05,27s58.08,7,69.09,8S3486.69,300.94,3486.69,300.94Z"/><polygon class="cls-3" points="2860.17 46.41 2863.89 65.62 2863.89 87.62 2872.9 84.62 2873.9 95.62 2881.91 97.62 2868.89 104.62 2845.86 121.62 2845.86 150.62 2845.86 178.62 2837.7 189.94 2833.85 167.62 2829.14 122.37 2841.14 72.41 2860.17 46.41"/><polygon class="cls-3" points="3764.24 285.29 3738.21 200.29 3731.98 136.58 3713.96 168.58 3672.91 199.58 3626.52 279.91 3588.03 262.13 3543.95 302.29 3484.88 302.29 3429.8 285.29 3429.8 396.29 3481.87 414.29 3529.93 406.29 3618.05 438.29 3672.12 394.29 3764.24 285.29"/><path class="cls-2" d="M5244.94,309.18l28.72-71,37.72,78.12-13.63,29.17s-54.47-7.79-54.47-10.71S5244.94,309.18,5244.94,309.18Z"/><path class="cls-2" d="M5402.72,268.12l-28,11-9.86,24.5-14.6,16.54-29,28.17-10.87,7.81s32.1,11.68,33.07,11.68,18.48,1.95,18.48,0S5402.72,268.12,5402.72,268.12Z"/><path class="cls-2" d="M5489.41,254.16,5470,275.55l-16.54,28.21s0,28.21,1.93,28.21,116.23,17.53,116.23,17.53l-54.25-77.57Z"/><path class="cls-3" d="M4572.78,262.35l4-49-10-24-6-26-12-28h14l4.33-4.1,9.41,9.89,7.27,25.14,49.8,23.86,28.51-4.31-14.2,18.52,14,28,22,30-39.05,93h-26c-5,0-36.05-16-35.05-20S4572.78,262.35,4572.78,262.35Z"/><polygon class="cls-2" points="4897.52 189.3 4881.49 255.3 4845.45 255.3 4841.44 199.3 4851.17 122.09 4872.2 130.09 4883.21 145.09 4886.17 155.3 4893.51 141.3 4894.51 140.3 4901.79 138.49 4902.52 139.3 4897.52 189.3"/><path class="cls-2" d="M4998,171.14l1-25,9-7,8.05-3,2.94-6,11.08,20h10l15,28,9,20,16,95s-39.05,18-41.05,19-40.05-5-40.05-5Z"/><path class="cls-4" d="M4681.21,260.87l85.38-31.19,26-16,19-24h31l19.07,31,85.11-44,51.62-17,7.46,33,12,15,21.38,42.74L5052,289.68s-98.13,49-103.14,54-52.07,16-106.14,17-176.23-26-176.23-26Z"/><path class="cls-2" d="M5100.86,165.15l28-19,10,40-11.73,17.2,10,9-5,16,13,41,20,34,30,46s-10,18-14,18-72.09-13-72.09-13l21-38-15-69-13-15Z"/><path class="cls-4" d="M5937.31,256.47l-27,21-13-13-16,6-22,12-6-41-13,13-20-20-21,17-7,28-15,32-11.64,7.89-3.34-2.27-15-32-7-28-21-17-20,20-13-13-6,41-22-12-16-6-13,13-27-21-24,69s80.11,136,90.12,139,72.1-2,81.11,0c3.1.69,13.89-3.7,26.8-9.77,7,2.9,12.2,4.6,14.2,4.15,9-2,71,3,81,0s90-139,90-139Z"/><polygon class="cls-2" points="5845.91 303.23 5859.71 282.23 5853.34 241.23 5839.55 255.23 5813.02 275.23 5800.29 290.23 5799.23 315.23 5758.5 363.49 5717.78 315.23 5716.72 290.23 5703.99 275.23 5677.46 255.23 5663.67 241.23 5657.3 282.23 5671.09 303.23 5692.32 309.23 5705.05 332.23 5691.26 356.23 5705.05 407.23 5684.89 444.23 5734.76 476.23 5758.7 470.22 5758.7 470.22 5782.25 476.23 5832.12 444.23 5811.96 407.23 5825.75 356.23 5811.96 332.23 5824.69 309.23 5845.91 303.23"/><path class="cls-2" d="M4409.8,234.42,4400,203l26.9-10.36L4456.1,226l17,16,26,12,47.06,11h35l37.05,15,19,46-19,15-2,52s-15,34-20,36-52.06,11-77.1,14-79.1-13-79.1-16-13-52-13-52Z"/><polygon class="cls-3" points="4340.75 139.16 4355.77 158.16 4365.27 175.64 4372.28 184.64 4386.3 197.64 4398.6 230.51 4410.62 236.56 4400.11 202.99 4389.3 192.64 4385.3 189.64 4383.29 180.64 4380.29 175.64 4373.28 175.64 4371.28 172.64 4370.28 168.64 4350.25 143.64 4340.75 139.16"/><path class="cls-4" d="M4193.66,300.68l26-47,29-14,30-32,16-31,3-17,22,46,14-2,14,2,30,24s16,1,19,0,42,24,42,24l24,62-49.06-41-21-18-35,27s-58.08,7-69.1,8S4193.66,300.68,4193.66,300.68Z"/><polygon class="cls-3" points="4820.19 46.16 4816.47 65.37 4816.47 87.37 4807.45 84.37 4806.45 95.37 4798.44 97.37 4811.46 104.37 4834.49 121.37 4834.49 150.37 4834.49 178.37 4842.65 189.68 4846.51 167.37 4851.22 122.12 4839.21 72.16 4820.19 46.16"/><polygon class="cls-3" points="3913.9 285.29 3939.94 200.29 3946.16 136.58 3964.19 168.58 4005.24 199.58 4051.63 279.92 4090.11 262.13 4134.19 302.29 4193.27 302.29 4248.34 285.29 4248.34 396.29 4196.27 414.29 4148.21 406.29 4060.1 438.29 4006.03 394.29 3913.9 285.29"/><path class="cls-2" d="M9083.42,309.06l28.72-71,37.72,78.11-13.63,29.18s-54.47-7.79-54.47-10.71S9083.42,309.06,9083.42,309.06Z"/><path class="cls-2" d="M9241.2,268l-28,11-9.86,24.5L9188.75,320l-29,28.18-10.87,7.8s32.1,11.69,33.07,11.69,18.48,1.95,18.48,0S9241.2,268,9241.2,268Z"/><path class="cls-2" d="M9327.89,254l-19.46,21.39-16.54,28.21s0,28.21,1.93,28.21,116.23,17.53,116.23,17.53l-54.25-77.57Z"/><path class="cls-3" d="M8411.26,262.23l4-49-10-24-6-26-12-28h14l4.33-4.1L8415,141l7.27,25.14,49.8,23.86,28.51-4.32-14.2,18.53,14,28,22,30-39,93h-26c-5,0-36-16-35-20S8411.26,262.23,8411.26,262.23Z"/><polygon class="cls-2" points="8736 189.17 8719.97 255.17 8683.93 255.17 8679.92 199.17 8689.65 121.97 8710.68 129.97 8721.69 144.97 8724.65 155.17 8731.99 141.17 8732.99 140.17 8740.27 138.37 8741 139.17 8736 189.17"/><path class="cls-2" d="M8836.47,171l1-25,9-7,8-3,2.94-6,11.08,20h10l15,28,9,20,16,95s-39,18-41,19-40.05-5-40.05-5Z"/><path class="cls-4" d="M8519.69,260.75l85.38-31.19,26-16,19-24h31l19.07,31,85.11-44,51.62-17,7.46,33,12,15,21.38,42.74,12.67,39.26s-98.13,49-103.14,54-52.07,16-106.14,17-176.23-26-176.23-26Z"/><path class="cls-2" d="M8939.34,165l28-19,10,40-11.73,17.21,10,9-5,16,13,41,20,34,30,46s-10,18-14,18-72.1-13-72.1-13l21-38-15-69-13-15Z"/><path class="cls-4" d="M9775.79,256.35l-27,21-13-13-16,6-22,12-6-41-13,13-20-20-21,17-7,28-15,32-11.64,7.89L9600.8,317l-15-32-7-28-21-17-20,20-13-13-6,41-22-12-16-6-13,13-27-21-24,69s80.11,136,90.12,139,72.1-2,81.11,0c3.1.69,13.89-3.71,26.8-9.77,7,2.9,12.2,4.59,14.2,4.15,9-2,71,3,81,0s90-139,90-139Z"/><polygon class="cls-2" points="9684.39 303.11 9698.19 282.11 9691.82 241.1 9678.03 255.1 9651.5 275.11 9638.77 290.11 9637.7 315.11 9596.98 363.37 9556.26 315.11 9555.2 290.11 9542.47 275.11 9515.94 255.1 9502.15 241.1 9495.78 282.11 9509.57 303.11 9530.8 309.11 9543.53 332.11 9529.74 356.11 9543.53 407.11 9523.37 444.11 9573.24 476.11 9597.18 470.1 9597.18 470.1 9620.73 476.11 9670.6 444.11 9650.44 407.11 9664.23 356.11 9650.44 332.11 9663.17 309.11 9684.39 303.11"/><path class="cls-2" d="M8248.28,234.3l-9.77-31.4,26.9-10.36,29.17,33.36,17,16,26,12,47.06,11h35l37.05,15,19,46-19,15-2,52s-15,34-20,36-52.06,11-77.1,14-79.1-13-79.1-16-13-52-13-52Z"/><polygon class="cls-3" points="8179.23 139.04 8194.25 158.04 8203.75 175.52 8210.76 184.52 8224.78 197.52 8237.08 230.39 8249.1 236.44 8238.59 202.87 8227.78 192.52 8223.78 189.52 8221.77 180.52 8218.77 175.52 8211.76 175.52 8209.76 172.52 8208.76 168.52 8188.73 143.52 8179.23 139.04"/><path class="cls-4" d="M8032.14,300.56l26-47,29-14,30-32,16-31,3-17,22,46,14-2,14,2,30,24s16,1,19,0,42,24,42,24l24,62-49.06-41-21-18-35,27s-58.08,7-69.1,8S8032.14,300.56,8032.14,300.56Z"/><polygon class="cls-3" points="8658.67 46.04 8654.95 65.25 8654.95 87.25 8645.93 84.25 8644.93 95.25 8636.92 97.25 8649.94 104.25 8672.97 121.25 8672.97 150.25 8672.97 178.25 8681.13 189.56 8684.99 167.25 8689.7 122 8677.69 72.04 8658.67 46.04"/><polygon class="cls-3" points="7755 285.38 7781.04 200.38 7785.18 136.67 7805.29 168.67 7846.34 199.67 7892.73 280 7931.22 262.22 7975.29 302.38 8034.37 302.38 8089.44 285.38 8089.44 396.38 8037.38 414.38 7989.31 406.38 7901.2 438.38 7847.13 394.38 7755 285.38"/><path class="cls-2" d="M6272.74,309.06,6244,238l-37.71,78.11,13.62,29.18s54.47-7.79,54.47-10.71S6272.74,309.06,6272.74,309.06Z"/><path class="cls-2" d="M6115,268l28,11,9.87,24.5,14.6,16.54,29,28.17L6207.3,356s-32.1,11.68-33.07,11.68-18.48,1.95-18.48,0S6115,268,6115,268Z"/><path class="cls-2" d="M6028.27,254l19.46,21.39,16.54,28.21s0,28.21-1.94,28.21-116.22,17.53-116.22,17.53l54.25-77.57Z"/><path class="cls-3" d="M6944.9,262.23l-4-49,10-24,6-26,12-28h-14l-4.33-4.1-9.4,9.89-7.27,25.14L6884.11,190l-28.51-4.31,14.2,18.52-14,28-22,30,39.05,93h26c5,0,36.05-16,35.05-20S6944.9,262.23,6944.9,262.23Z"/><polygon class="cls-2" points="6620.16 189.18 6636.18 255.18 6672.23 255.18 6676.24 199.18 6666.51 121.97 6645.48 129.97 6634.47 144.97 6631.51 155.18 6624.17 141.18 6623.17 140.18 6615.89 138.37 6615.16 139.18 6620.16 189.18"/><path class="cls-2" d="M6519.68,171l-1-25-9-7-8.05-3-2.94-6-11.08,20h-10l-15,28-9,20-16,95s39.05,18,41.05,19,40.05-5,40.05-5Z"/><path class="cls-4" d="M6836.47,260.75l-85.38-31.19-26-16-19-24h-31l-19.06,31-85.11-44-51.63-17-7.45,33-12,15-21.38,42.74-12.67,39.26s98.13,49,103.14,54,52.07,16,106.14,17,176.23-26,176.23-26Z"/><path class="cls-2" d="M6416.82,165l-28-19-10,40,11.73,17.21-10,9,5,16-13,41-20,34-30,46s10,18,14,18,72.09-13,72.09-13l-21-38,15-69,13-15Z"/><path class="cls-2" d="M7107.88,234.3l9.77-31.4-26.9-10.36-29.17,33.36-17,16-26,12-47.06,11h-35.05l-37.05,15-19,46,19,15,2,52s15,34,20,36,52.07,11,77.1,14,79.11-13,79.11-16,13-52,13-52Z"/><polygon class="cls-3" points="7176.93 139.04 7161.91 158.04 7152.41 175.52 7145.4 184.52 7131.38 197.52 7119.07 230.39 7107.06 236.44 7117.56 202.87 7128.38 192.52 7132.38 189.52 7134.38 180.52 7137.39 175.52 7144.4 175.52 7146.4 172.52 7147.4 168.52 7167.43 143.52 7176.93 139.04"/><path class="cls-4" d="M7324,300.56l-26-47-29-14-30-32-16-31-3-17-22,46-14-2-14,2-30,24s-16,1-19,0-42.05,24-42.05,24l-24,62,49.07-41,21-18,35,27s58.08,7,69.09,8S7324,300.56,7324,300.56Z"/><polygon class="cls-3" points="6697.49 46.04 6701.21 65.25 6701.21 87.25 6710.22 84.25 6711.22 95.25 6719.23 97.25 6706.22 104.25 6683.19 121.25 6683.19 150.25 6683.19 178.25 6675.02 189.56 6671.17 167.25 6666.46 122 6678.47 72.04 6697.49 46.04"/><polygon class="cls-3" points="7603.23 283.25 7577.2 198.25 7570.97 134.54 7552.95 166.54 7511.9 197.54 7465.51 277.87 7427.02 260.09 7382.94 300.25 7323.87 300.25 7268.79 283.25 7268.79 394.25 7320.86 412.25 7368.93 404.25 7457.04 436.25 7511.11 392.25 7603.23 283.25"/><polygon class="cls-5" points="9571.12 448.39 9527.11 418.39 9457.1 336.39 9389.1 320.39 9325.09 285.39 9277.09 302.39 9195.08 354.39 9165.08 346.39 9151.08 318.39 9085.07 310.39 9017.07 270.39 9009.07 285.39 9031.07 356.39 8849.05 246.39 8819.05 234.39 8787.05 274.39 8697.04 306.39 8640.03 266.39 8557.02 302.39 8497.02 256.39 8475.02 328.39 8451.01 347.39 8387.01 416.39 8285 296.39 8241 256.39 8172.99 256.39 8088.98 285.39 8088.98 396.39 8036.98 414.39 7988.97 406.39 7900.97 438.39 7846.96 394.39 7798.96 332.39 7754.95 285.39 7679.1 256.47 7603.71 285.39 7559.71 332.39 7511.71 394.39 7457.7 438.39 7369.69 406.39 7321.69 414.39 7269.69 396.39 7269.69 285.39 7185.68 256.39 7117.68 256.39 7073.67 296.39 6971.66 416.39 6907.66 347.39 6883.65 328.39 6861.65 256.39 6801.65 302.39 6718.64 266.39 6661.64 306.39 6571.63 274.39 6539.63 234.39 6509.63 246.39 6327.61 356.39 6349.61 285.39 6341.61 270.39 6273.61 310.39 6207.6 318.39 6193.6 346.39 6163.6 354.39 6081.59 302.39 6033.59 285.39 5969.58 320.39 5901.57 336.39 5831.57 418.39 5787.57 448.39 5758.73 410.76 5730.89 448.39 5686.89 418.39 5616.89 336.39 5548.89 320.39 5484.88 285.39 5436.88 302.39 5354.88 354.39 5324.88 346.39 5310.88 318.39 5244.87 310.39 5176.87 270.39 5168.87 285.39 5190.87 356.39 5008.86 246.39 4978.86 234.39 4946.86 274.39 4856.86 306.39 4799.85 266.39 4716.85 302.39 4656.85 256.39 4634.85 328.39 4610.85 347.39 4546.85 416.39 4444.84 296.39 4400.84 256.39 4332.84 256.39 4248.83 285.39 4248.83 396.39 4196.83 414.39 4148.83 406.39 4060.82 438.39 4007.41 394.17 3958.82 332.39 3914.82 285.39 3839.82 256.39 3839.82 256.39 3839.82 256.39 3839.82 256.39 3839.82 256.39 3765.3 285.41 3721.3 332.41 3673.3 394.41 3619.29 438.41 3531.29 406.41 3483.29 414.41 3431.29 396.41 3431.29 285.41 3347.28 256.41 3279.28 256.41 3235.28 296.41 3133.27 416.41 3069.27 347.41 3045.27 328.41 3023.27 256.41 2963.27 302.41 2880.26 266.41 2823.26 306.41 2733.26 274.41 2701.26 234.41 2671.25 246.41 2489.25 356.41 2511.25 285.41 2503.25 270.41 2435.24 310.41 2369.24 318.41 2355.24 346.41 2325.24 354.41 2243.24 302.41 2195.23 285.41 2131.23 320.41 2063.23 336.41 1993.23 418.41 1949.22 448.41 1919.43 407.95 1892.14 448.25 1848.11 418.25 1778.07 336.25 1710.03 320.25 1646 285.25 1597.97 302.25 1515.92 354.25 1485.9 346.25 1471.89 318.25 1405.86 310.25 1337.82 270.25 1329.81 285.25 1351.83 356.25 1169.72 246.25 1139.7 234.25 1107.68 274.25 1017.63 306.25 960.6 266.25 877.55 302.25 817.52 256.25 795.5 328.25 771.49 347.25 707.45 416.25 605.39 296.25 561.37 256.25 493.33 256.25 409.28 285.25 409.28 396.25 357.25 414.25 309.22 406.25 221.17 438.25 167.14 394.25 119.11 332.25 75.09 285.25 0.04 256.25 0.04 521.25 1920.22 521.25 1920.22 521.41 3840.3 521.41 3840.3 521.39 5758.26 521.39 5759.9 521.39 7679.13 521.39 7679.23 521.39 9600.12 521.39 9600.34 410.92 9571.12 448.39"/><path class="cls-6" d="M9569.34,484.46l-34,6-21-12h-24l-32,9-34-16-31,22-68,18-45-26-52,5-23,29-131-26-33-15-26-17-16,17v16l-23,6-81-29-66,5-76-18-16,20-97,22-96-33-43-25-65,20-48,12-31-12-61,4-63,8-63-1-46,10s-23-9-26-10-31-7-31-7l-38,12-54-12-22-27-17-14-16-12-21-12-15,11h-50l-35,19-54,34-65.17,12.74h0l-64.31-12.79-54.16-33.93-35-19h-50l-15-11-21,12-16,12-17,14-22,27-54,12-38-12s-28,6-31,7-26,10-26,10l-46-10-63,1-63-8-61-4-31,12-48-12-65-20-43,25-96,33-97-22-16-20-76,18-66-5-81,29-23-6v-16l-16-17-26,17-33,15-131,26-23-29-52-5-45,26-68-18-31-22-34,16-32-9h-24l-21,12-34-6-32.75,15.76-31-27-34,6-21-12h-24l-32,9-34-16-31,22-68,18-45-26-52,5-23,29-131-26-33-15-26-17-16,17v16l-23,6-81-29-66,5-76-18-16,20-97,22-96-33-43-25-65,20-48,12-31-12-61,4-63,8-63-1-46,10s-23-9-26-10-31-7-31-7l-38,12-54-12-22-27-17-14-16-12-21-12-15,11h-50l-35,19-54,34-66.09,9.56L3773,454.24l-54-34-35-19h-50l-15-11-21,12-16,12-17,14-22,27-54,12-38-12s-28,6-31,7-26,10-26,10l-46-10-63,1-63-8-61-4-31,12-48-12-65-20-43,25-96,33-97-22-16-20-76,18-66-5-81,29-23-6v-16l-16-17-26,17-33,15-131,26-23-29-52-5-45,26-68-18-31-22-34,16-32-9h-24l-21,12-34-6-32,21.13-29.36-23-34,6-21-12h-24l-32,9-34-16-31,22-68,18-45-26-52,5-23,29-130.9-26-33-15-26-17-16,17v16l-23,6-80.94-29-65.95,5-75.94-18-16,20-96.92,22-95.93-33-43-25-64.95,20-48,12-31-12-61,4-63,8-62.95-1-46,10s-23-9-26-10-31-7-31-7l-38,12-54-12-22-27-17-14-16-12-21-12-15,11h-50l-35,19-54,34-64.95,13v46L1917,528.87l1921-15.68h0l1920.85,24,1921.52-12.75,1920,24v-37Z"/><polygon class="cls-7" points="1307.98 195.3 1297.1 204.21 1302.05 207.18 1313.92 209.16 1326.78 215.1 1338.65 223.02 1363.39 225.99 1387.14 218.08 1362.41 206.2 1353.51 192.35 1336.68 198.28 1313.92 192.34 1307.98 195.3"/><polygon class="cls-7" points="1397.84 221.86 1366.17 229.76 1397.84 242.64 1411.69 243.63 1421.58 243.63 1425.54 234.73 1397.84 221.86"/><polygon class="cls-7" points="1216.51 116.83 1206.84 127.83 1207.84 147.83 1206.56 163.34 1214.38 177.9 1220.86 177.83 1241.88 175.83 1233.88 168.83 1239.88 162.83 1232.87 157.83 1237.88 153.83 1229.87 148.83 1236.88 143.83 1244.89 136.83 1243.89 130.83 1239.88 134.83 1225.86 147.83 1213.85 147.83 1210.85 135.83 1210.85 126.83 1216.51 116.83"/><polygon class="cls-7" points="1294.97 231 1309.99 226 1315 214 1336.03 224 1336.03 235 1347.04 230 1331.02 249 1336.03 263 1336.03 270 1318 267 1304.76 262.08 1294.97 231"/><path class="cls-7" d="M607.31,215.23l7.45-7,16,4,20-7h16l3,10s-32,1-20,12c0,0,7,4,14,0,0,0,26,39,42.06,37l2,10H647.8c-3,0-40-35-40-35Z"/><path class="cls-7" d="M1713,274.64h-20.78l-15.84-5.94,6.93,6.93,12.86,10.89s15.83,1,16.82,0,28.7-11.86,28.7-11.86l8.92-20.78s-5.94-7.92-5-7.92-8.91,16.82-8.91,16.82Z"/><path class="cls-7" d="M1713,274.64h-20.78l-15.84-5.94,6.93,6.93,12.86,10.89s15.83,1,16.82,0,28.7-11.86,28.7-11.86l8.92-20.78s-5.94-7.92-5-7.92-8.91,16.82-8.91,16.82Z"/><polygon class="cls-8" points="105.08 140.46 92.08 157.46 66.08 179.46 101.08 171.46 105.08 140.46"/><path class="cls-7" d="M58.24,193s-16,10-15,10,15,15,15,15h15l24.53-14.29L117.32,199V189h-15l1.22-15.4L89.28,179Z"/><polygon class="cls-7" points="164.98 201.05 144.59 185.66 132.94 202.05 170.95 211.43 164.98 201.05"/><polygon class="cls-7" points="304.79 223.44 277.01 251.75 253.32 262.37 270.17 277.14 310.07 270.07 322.09 243.07 304.79 223.44"/><polygon class="cls-7" points="417.83 130.55 414.26 135.92 406.26 144.8 401.42 158.9 391.19 174.27 411.82 163.55 436.86 170.55 438.86 139.51 424.84 157.55 413.83 145.55 420.19 133.58 417.83 130.55"/><polygon class="cls-7" points="449.16 128.8 438.79 139.6 458.17 161.27 463.38 145.35 453.92 131.65 449.16 128.8"/><polygon class="cls-7" points="487.92 160.55 481.92 174.55 498.94 174.55 504.95 158.55 487.92 160.55"/><path class="cls-7" d="M499.94,174.55l2,9,5,5,5,7a10,10,0,0,0,1,4c1,2,5,2,5,2l1-7s0-3,1-4-8-5-8-5l-4-2-1-6Z"/><polygon class="cls-7" points="588.64 194.88 624.22 180.85 624.69 184.88 637.7 197.88 624.69 202.88 619.68 197.88 614.67 200.88 603.66 201.88 598.65 199.88 595.06 202.24 588.64 194.88"/><polygon class="cls-7" points="678.42 129.15 668.26 139.31 661.64 148.67 645.72 162.44 639.3 166.73 633.67 170.6 642.21 190.06 653.23 195.06 663.24 170.06 671.25 171.06 682.26 177.06 692.28 191.06 713.3 199.06 727.07 190.56 721.32 165.06 709.42 137.34 723.2 137.23 711.3 124.06 701.29 131.06 690.27 135.06 678.42 129.15"/><polygon class="cls-7" points="710.38 112.21 692.36 121.21 686.35 124.21 691.36 127.21 698.37 128.21 711.39 118.21 713.39 116.21 710.38 112.21"/><polygon class="cls-7" points="814.69 199.32 809.17 206.46 822.38 232.31 847.07 214.49 864.09 211.49 885.12 190.49 898.13 205.49 938.18 224.49 922.16 204.49 942.19 194.49 965.22 194.49 994.93 180.25 982.51 150.56 954.26 135.31 929.17 156.49 853.07 183.49 814.69 199.32"/><polygon class="cls-7" points="948.94 67.98 932.54 83.17 945.8 84.93 958.82 80.93 963.83 71.93 976.14 80.93 976.13 67.14 979.6 49.93 968.83 60.93 957.24 67.93 948.94 67.98"/><polygon class="cls-7" points="887.17 133.81 880.8 146.36 896.27 151.18 901.28 140.18 893.77 120.69 890.42 127.18 887.17 133.81"/><polygon class="cls-7" points="904.36 110.11 904.37 121.51 913.24 127.03 922.12 132.55 930.8 123.51 913.41 118.79 904.36 110.11"/><polygon class="cls-7" points="905.26 109.81 913.86 117.77 923.76 120.69 923.76 109.81 916.51 110.11 905.26 109.81"/><polygon class="cls-7" points="924.17 90.93 905.81 108.93 924.17 108.93 948.2 116.93 954.21 94.93 945.06 86.52 931.92 84.68 924.17 90.93"/><polygon class="cls-7" points="1064.13 141.03 1062.96 154.03 1071.14 154.03 1073.14 150.03 1084.15 146.03 1084.15 134.03 1078.15 134.03 1064.13 141.03"/><polygon class="cls-7" points="1084.44 146.87 1074.13 150.75 1085.44 156.87 1088.45 151.87 1093.46 146.87 1084.44 146.87"/><polygon class="cls-7" points="1086.22 157.4 1095.23 170.4 1106.25 164.4 1096.23 157.4 1092.23 149.4 1086.22 157.4"/><polygon class="cls-7" points="1112.5 118.53 1097.48 122.53 1100.49 130.53 1117.51 132.53 1135.54 138.53 1145.55 138.53 1133.53 125.53 1115.51 120.53 1112.5 118.53"/><polygon class="cls-7" points="1781.68 245.63 1797.7 244.63 1800.7 251.63 1795.69 259.63 1790.69 255.63 1794.69 250.63 1787.68 250.63 1780.67 254.63 1775.67 262.63 1769.66 258.63 1780.67 243.63 1781.68 245.63"/><polygon class="cls-7" points="1835.16 211.49 1824.14 225.49 1831.15 236.49 1833.16 244.49 1844.17 246.49 1860.19 240.49 1874.21 228.49 1874.21 218.49 1863.2 228.49 1857.19 231.49 1849.18 233.49 1844.17 231.49 1838.16 230.49 1835.16 211.49"/><polygon class="cls-7" points="1901.91 202.49 1897.91 216.49 1901.91 219.49 1908.92 220.49 1906.92 208.49 1901.91 202.49"/><polygon class="cls-7" points="1215.51 180.01 1224.52 200.01 1239.42 288.35 1268.7 306.03 1270.75 307.27 1282.51 291.06 1274.17 250.65 1262.22 236.5 1260.22 245.54 1236.19 228.54 1236.19 219.54 1244.2 225.54 1250.21 208.54 1239.19 208.54 1244.2 198.54 1231.18 186.54 1214.38 177.9 1215.51 180.01"/><polygon class="cls-7" points="1452.06 236.63 1437.55 241.9 1446.26 259.5 1464.13 295.19 1518.09 301.09 1532.45 283.15 1499.3 270.41 1475.26 261.31 1458.01 243.77 1452.06 236.63"/><polygon class="cls-7" points="1570.11 268.86 1558.26 287.44 1595.42 275.11 1570.11 268.86"/><polygon class="cls-7" points="1632.01 262.63 1613.04 269.01 1588.63 284.38 1579.63 296.02 1600.38 288.33 1628.86 273.24 1643.07 262.69 1632.01 262.63"/><polygon class="cls-7" points="8985.83 195.87 8974.94 204.77 8979.89 207.74 8991.76 209.72 9004.63 215.66 9016.5 223.59 9041.24 226.56 9064.99 218.65 9040.25 206.77 9031.35 192.91 9014.53 198.84 8991.77 192.9 8985.83 195.87"/><polygon class="cls-7" points="9075.68 222.42 9044.02 230.33 9075.68 243.2 9089.53 244.2 9099.43 244.2 9103.39 235.29 9075.68 222.42"/><polygon class="cls-7" points="8894.35 117.4 8884.68 128.4 8885.68 148.4 8884.41 163.9 8892.22 178.47 8898.7 178.4 8919.73 176.4 8911.72 169.4 8917.73 163.4 8910.72 158.4 8915.72 154.4 8907.71 149.4 8914.72 144.4 8922.73 137.4 8921.73 131.4 8917.73 135.4 8903.71 148.4 8891.69 148.4 8888.69 136.4 8888.69 127.4 8894.35 117.4"/><polygon class="cls-7" points="8972.82 231.57 8987.83 226.57 8992.84 214.57 9013.87 224.57 9013.87 235.57 9024.88 230.57 9008.86 249.57 9013.87 263.57 9013.87 270.57 8995.85 267.57 8982.6 262.64 8972.82 231.57"/><path class="cls-7" d="M8285.15,215.79l7.45-7,16,4,20-7h16l3,10s-32,1-20,12c0,0,7,4,14,0,0,0,26,39,42.06,37l2,10h-60.08c-3,0-40-35-40-35Z"/><path class="cls-7" d="M9390.8,275.21H9370l-15.83-5.94,6.92,6.93L9374,287.08s15.84,1,16.83,0,28.7-11.87,28.7-11.87l8.91-20.78s-5.94-7.91-5-7.91-8.91,16.82-8.91,16.82Z"/><path class="cls-7" d="M9390.8,275.21H9370l-15.83-5.94,6.92,6.93L9374,287.08s15.84,1,16.83,0,28.7-11.87,28.7-11.87l8.91-20.78s-5.94-7.91-5-7.91-8.91,16.82-8.91,16.82Z"/><polygon class="cls-8" points="7782.93 141.02 7769.93 158.02 7743.93 180.02 7778.93 172.02 7782.93 141.02"/><path class="cls-7" d="M7736.08,193.52s-16,10-15,10,15,15,15,15h15l24.54-14.28,19.52-4.72v-10h-15l1.23-15.39-14.25,5.39Z"/><polygon class="cls-7" points="7842.82 201.62 7822.43 186.22 7810.78 202.62 7848.79 211.99 7842.82 201.62"/><polygon class="cls-7" points="7982.63 224 7954.85 252.31 7931.16 262.94 7948.02 277.71 7987.92 270.64 7999.94 243.64 7982.63 224"/><polygon class="cls-7" points="8095.68 131.12 8092.11 136.48 8084.11 145.37 8079.27 159.46 8069.04 174.84 8089.67 164.12 8114.7 171.12 8116.7 140.08 8102.68 158.12 8091.67 146.12 8098.04 134.15 8095.68 131.12"/><polygon class="cls-7" points="8127.01 129.37 8116.63 140.17 8136.02 161.84 8141.23 145.92 8131.76 132.21 8127.01 129.37"/><polygon class="cls-7" points="8165.77 161.12 8159.76 175.12 8176.78 175.12 8182.79 159.12 8165.77 161.12"/><path class="cls-7" d="M8177.78,175.12l2,9,5,5,5,7a10,10,0,0,0,1,4c1,2,5,2,5,2l1-7s0-3,1-4-8-5-8-5l-4-2-1-6Z"/><polygon class="cls-7" points="8266.48 195.44 8302.07 181.42 8302.53 185.44 8315.55 198.44 8302.53 203.44 8297.52 198.44 8292.52 201.44 8281.5 202.44 8276.5 200.44 8272.9 202.8 8266.48 195.44"/><polygon class="cls-7" points="8356.27 129.71 8346.1 139.88 8339.48 149.23 8323.56 163 8317.14 167.29 8311.52 171.17 8320.06 190.63 8331.07 195.63 8341.08 170.63 8349.09 171.63 8360.11 177.63 8370.12 191.63 8391.15 199.63 8404.91 191.13 8399.16 165.63 8387.26 137.9 8401.05 137.79 8389.15 124.63 8379.13 131.63 8368.12 135.63 8356.27 129.71"/><polygon class="cls-7" points="8388.23 112.78 8370.2 121.78 8364.2 124.78 8369.2 127.78 8376.21 128.78 8389.23 118.78 8391.23 116.78 8388.23 112.78"/><polygon class="cls-7" points="8492.54 199.88 8487.02 207.03 8500.23 232.88 8524.91 215.06 8541.93 212.06 8562.96 191.06 8575.98 206.06 8616.03 225.06 8600.01 205.06 8620.03 195.06 8643.06 195.06 8672.77 180.81 8660.35 151.13 8632.1 135.88 8607.02 157.06 8530.92 184.06 8492.54 199.88"/><polygon class="cls-7" points="8626.79 68.54 8610.39 83.73 8623.65 85.5 8636.67 81.5 8641.67 72.5 8653.98 81.5 8653.98 67.71 8657.44 50.5 8646.68 61.5 8635.08 68.5 8626.79 68.54"/><polygon class="cls-7" points="8565.02 134.38 8558.64 146.92 8574.11 151.75 8579.12 140.75 8571.61 121.25 8568.27 127.75 8565.02 134.38"/><polygon class="cls-7" points="8582.2 110.68 8582.21 122.08 8591.09 127.6 8599.96 133.12 8608.65 124.08 8591.26 119.35 8582.2 110.68"/><polygon class="cls-7" points="8583.1 110.38 8591.71 118.33 8601.6 121.25 8601.6 110.38 8594.35 110.68 8583.1 110.38"/><polygon class="cls-7" points="8602.01 91.5 8583.66 109.5 8602.01 109.5 8626.05 117.5 8632.05 95.5 8622.91 87.08 8609.76 85.25 8602.01 91.5"/><polygon class="cls-7" points="8741.97 141.59 8740.81 154.59 8748.98 154.59 8750.98 150.59 8762 146.59 8762 134.59 8755.99 134.59 8741.97 141.59"/><polygon class="cls-7" points="8762.29 147.44 8751.98 151.31 8763.29 157.44 8766.29 152.44 8771.3 147.44 8762.29 147.44"/><polygon class="cls-7" points="8764.07 157.97 8773.08 170.97 8784.09 164.97 8774.08 157.97 8770.07 149.97 8764.07 157.97"/><polygon class="cls-7" points="8790.35 119.09 8775.33 123.09 8778.33 131.09 8795.35 133.09 8813.38 139.09 8823.39 139.09 8811.38 126.09 8793.35 121.09 8790.35 119.09"/><polygon class="cls-7" points="9459.52 246.2 9475.54 245.2 9478.55 252.2 9473.54 260.2 9468.53 256.2 9472.54 251.2 9465.53 251.2 9458.52 255.2 9453.51 263.2 9447.5 259.2 9458.52 244.2 9459.52 246.2"/><polygon class="cls-7" points="9513 212.06 9501.99 226.06 9509 237.06 9511 245.06 9522.01 247.06 9538.03 241.06 9552.05 229.06 9552.05 219.06 9541.04 229.06 9535.03 232.06 9527.02 234.06 9522.01 232.06 9516.01 231.06 9513 212.06"/><polygon class="cls-7" points="9579.75 203.06 9575.75 217.06 9579.75 220.06 9586.76 221.06 9584.76 209.06 9579.75 203.06"/><polygon class="cls-7" points="8893.35 180.58 8902.36 200.58 8917.26 288.91 8946.54 306.6 8948.59 307.84 8960.35 291.63 8952.02 251.21 8940.07 237.06 8938.07 246.1 8914.03 229.1 8914.03 220.1 8922.05 226.1 8928.05 209.1 8917.04 209.1 8922.05 199.1 8909.03 187.1 8892.22 178.47 8893.35 180.58"/><polygon class="cls-7" points="9129.9 237.19 9115.39 242.46 9124.1 260.06 9141.98 295.75 9195.93 301.66 9210.29 283.72 9177.14 270.98 9153.1 261.88 9135.85 244.34 9129.9 237.19"/><polygon class="cls-7" points="9247.95 269.43 9236.1 288.01 9273.27 275.68 9247.95 269.43"/><polygon class="cls-7" points="9309.85 263.2 9290.88 269.57 9266.47 284.95 9257.48 296.59 9278.22 288.9 9306.7 273.81 9320.92 263.25 9309.85 263.2"/><polygon class="cls-7" points="5147.38 193.3 5136.49 202.21 5141.44 205.18 5153.31 207.16 5166.18 213.1 5178.05 221.02 5202.79 223.99 5226.54 216.08 5201.8 204.2 5192.9 190.35 5176.08 196.28 5153.32 190.34 5147.38 193.3"/><polygon class="cls-7" points="5237.23 219.86 5205.57 227.76 5237.23 240.64 5251.08 241.63 5260.98 241.63 5264.94 232.73 5237.23 219.86"/><polygon class="cls-7" points="5055.9 114.83 5046.23 125.83 5047.24 145.83 5045.96 161.34 5053.77 175.9 5060.25 175.83 5081.28 173.83 5073.27 166.83 5079.28 160.83 5072.27 155.83 5077.27 151.83 5069.27 146.83 5076.27 141.83 5084.28 134.83 5083.28 128.83 5079.28 132.83 5065.26 145.83 5053.24 145.83 5050.24 133.83 5050.24 124.83 5055.9 114.83"/><polygon class="cls-7" points="5134.37 229 5149.39 224 5154.39 212 5175.42 222 5175.42 233 5186.44 228 5170.41 247 5175.42 261 5175.42 268 5157.4 265 5144.15 260.08 5134.37 229"/><path class="cls-7" d="M4446.7,213.23l7.45-7,16,4,20-7h16l3,10s-32,1-20,12c0,0,7,4,14,0,0,0,26,39,42.05,37l2,10h-60.08c-3,0-40-35-40-35Z"/><path class="cls-7" d="M5552.35,272.64h-20.78l-15.83-5.94,6.92,6.93,12.87,10.89s15.83,1,16.82,0,28.7-11.86,28.7-11.86l8.91-20.78S5584,244,5585,244s-8.92,16.82-8.92,16.82Z"/><path class="cls-7" d="M5552.35,272.64h-20.78l-15.83-5.94,6.92,6.93,12.87,10.89s15.83,1,16.82,0,28.7-11.86,28.7-11.86l8.91-20.78S5584,244,5585,244s-8.92,16.82-8.92,16.82Z"/><polygon class="cls-8" points="3944.48 138.46 3931.48 155.46 3905.48 177.46 3940.48 169.46 3944.48 138.46"/><path class="cls-7" d="M3897.64,191s-16,10-15,10,15,15,15,15h15l24.53-14.29,19.52-4.71V187h-15l1.23-15.4-14.24,5.4Z"/><polygon class="cls-7" points="4004.37 199.05 3983.98 183.66 3972.33 200.05 4010.35 209.43 4004.37 199.05"/><polygon class="cls-7" points="4144.18 221.44 4116.4 249.75 4092.71 260.37 4109.57 275.14 4149.47 268.07 4161.49 241.07 4144.18 221.44"/><polygon class="cls-7" points="4257.23 128.55 4253.66 133.92 4245.66 142.8 4240.82 156.9 4230.59 172.27 4251.22 161.55 4276.25 168.55 4278.25 137.51 4264.24 155.55 4253.22 143.55 4259.59 131.58 4257.23 128.55"/><polygon class="cls-7" points="4288.56 126.8 4278.18 137.6 4297.57 159.27 4302.78 143.35 4293.31 129.65 4288.56 126.8"/><polygon class="cls-7" points="4327.32 158.55 4321.31 172.55 4338.33 172.55 4344.34 156.55 4327.32 158.55"/><path class="cls-7" d="M4339.33,172.55l2,9,5,5,5,7a10,10,0,0,0,1,4c1,2,5,2,5,2l1-7s0-3,1-4-8-5-8-5l-4-2-1-6Z"/><polygon class="cls-7" points="4428.03 192.88 4463.62 178.85 4464.08 182.88 4477.1 195.88 4464.08 200.88 4459.08 195.88 4454.07 198.88 4443.06 199.88 4438.05 197.88 4434.45 200.24 4428.03 192.88"/><polygon class="cls-7" points="4517.82 127.14 4507.65 137.31 4501.03 146.67 4485.11 160.44 4478.69 164.73 4473.07 168.6 4481.61 188.06 4492.62 193.06 4502.64 168.06 4510.65 169.06 4521.66 175.06 4531.67 189.06 4552.7 197.06 4566.46 188.56 4560.71 163.06 4548.81 135.34 4562.6 135.23 4550.7 122.06 4540.69 129.06 4529.67 133.06 4517.82 127.14"/><polygon class="cls-7" points="4549.78 110.21 4531.76 119.21 4525.75 122.21 4530.76 125.21 4537.76 126.21 4550.78 116.21 4552.78 114.21 4549.78 110.21"/><polygon class="cls-7" points="4654.09 197.32 4648.57 204.46 4661.78 230.31 4686.46 212.49 4703.48 209.49 4724.51 188.49 4737.53 203.49 4777.58 222.49 4761.56 202.49 4781.59 192.49 4804.62 192.49 4834.33 178.25 4821.9 148.56 4793.65 133.31 4768.57 154.49 4692.47 181.49 4654.09 197.32"/><polygon class="cls-7" points="4788.34 65.98 4771.94 81.17 4785.2 82.93 4798.22 78.93 4803.22 69.93 4815.53 78.93 4815.53 65.14 4818.99 47.93 4808.23 58.93 4796.63 65.93 4788.34 65.98"/><polygon class="cls-7" points="4726.57 131.81 4720.19 144.36 4735.67 149.18 4740.67 138.18 4733.16 118.69 4729.82 125.18 4726.57 131.81"/><polygon class="cls-7" points="4743.76 108.11 4743.76 119.51 4752.64 125.03 4761.51 130.55 4770.2 121.51 4752.81 116.79 4743.76 108.11"/><polygon class="cls-7" points="4744.65 107.81 4753.26 115.77 4763.15 118.69 4763.15 107.81 4755.9 108.11 4744.65 107.81"/><polygon class="cls-7" points="4763.56 88.93 4745.21 106.93 4763.56 106.93 4787.6 114.93 4793.6 92.93 4784.46 84.52 4771.31 82.68 4763.56 88.93"/><polygon class="cls-7" points="4903.52 139.03 4902.36 152.03 4910.53 152.03 4912.54 148.03 4923.55 144.03 4923.55 132.03 4917.54 132.03 4903.52 139.03"/><polygon class="cls-7" points="4923.84 144.87 4913.53 148.75 4924.84 154.87 4927.84 149.87 4932.85 144.87 4923.84 144.87"/><polygon class="cls-7" points="4925.62 155.4 4934.63 168.4 4945.64 162.4 4935.63 155.4 4931.63 147.4 4925.62 155.4"/><polygon class="cls-7" points="4951.9 116.53 4936.88 120.53 4939.88 128.53 4956.91 130.53 4974.93 136.53 4984.94 136.53 4972.93 123.53 4954.9 118.53 4951.9 116.53"/><polygon class="cls-7" points="5621.07 243.63 5637.09 242.63 5640.1 249.63 5635.09 257.63 5630.08 253.63 5634.09 248.63 5627.08 248.63 5620.07 252.63 5615.06 260.63 5609.06 256.63 5620.07 241.63 5621.07 243.63"/><polygon class="cls-7" points="5674.55 209.49 5663.54 223.49 5670.55 234.49 5672.55 242.49 5683.57 244.49 5699.59 238.49 5713.6 226.49 5713.6 216.49 5702.59 226.49 5696.58 229.49 5688.57 231.49 5683.57 229.49 5677.56 228.49 5674.55 209.49"/><polygon class="cls-7" points="5741.31 200.49 5737.3 214.49 5741.31 217.49 5748.32 218.49 5746.31 206.49 5741.31 200.49"/><polygon class="cls-7" points="5054.9 178.01 5063.92 198.01 5078.81 286.35 5108.09 304.03 5110.14 305.27 5121.9 289.06 5113.57 248.65 5101.62 234.5 5099.62 243.54 5075.59 226.54 5075.59 217.54 5083.6 223.54 5089.6 206.54 5078.59 206.54 5083.6 196.54 5070.58 184.54 5053.77 175.9 5054.9 178.01"/><polygon class="cls-7" points="5291.45 234.63 5276.94 239.9 5285.65 257.5 5303.53 293.19 5357.48 299.09 5371.84 281.15 5338.69 268.41 5314.65 259.31 5297.4 241.77 5291.45 234.63"/><polygon class="cls-7" points="5409.5 266.86 5397.65 285.44 5434.82 273.11 5409.5 266.86"/><polygon class="cls-7" points="5471.4 260.63 5452.43 267.01 5428.02 282.38 5419.03 294.02 5439.77 286.33 5468.26 271.24 5482.47 260.69 5471.4 260.63"/><polygon class="cls-7" points="2533.24 193.3 2544.13 202.21 2539.18 205.18 2527.31 207.16 2514.45 213.1 2502.57 221.02 2477.84 223.99 2454.09 216.08 2478.82 204.2 2487.72 190.35 2504.55 196.28 2527.31 190.34 2533.24 193.3"/><polygon class="cls-7" points="2443.39 219.86 2475.06 227.76 2443.39 240.64 2429.54 241.63 2419.65 241.63 2415.68 232.73 2443.39 219.86"/><polygon class="cls-7" points="2624.72 114.83 2634.39 125.83 2633.39 145.83 2634.67 161.34 2626.85 175.9 2620.37 175.83 2599.34 173.83 2607.36 166.83 2601.35 160.83 2608.36 155.83 2603.35 151.83 2611.36 146.83 2604.35 141.83 2596.34 134.83 2597.34 128.83 2601.35 132.83 2615.36 145.83 2627.38 145.83 2630.39 133.83 2630.39 124.83 2624.72 114.83"/><polygon class="cls-7" points="2546.26 229 2531.24 224 2526.23 212 2505.2 222 2505.2 233 2494.19 228 2510.21 247 2505.2 261 2505.2 268 2523.23 265 2536.47 260.08 2546.26 229"/><path class="cls-7" d="M3233.92,213.23l-7.45-7-16,4-20-7h-16l-3,10s32,1,20,12c0,0-7,4-14,0,0,0-26,39-42.06,37l-2,10h60.08c3,0,40.05-35,40.05-35Z"/><path class="cls-7" d="M2128.27,269.8h20.78l15.84-5.94-6.93,6.93-12.86,10.89s-15.83,1-16.82,0-22.9-16.42-22.9-16.42l-16-19.69s7.22-4.45,6.23-4.45,8.91,16.82,8.91,16.82Z"/><polygon class="cls-8" points="3734.02 138.46 3747.02 155.46 3773.02 177.46 3738.02 169.46 3734.02 138.46"/><path class="cls-7" d="M3780.74,191s16,10,15,10-15,15-15,15h-15l-24.53-14.29L3721.66,197V187h15l-1.22-15.4,14.24,5.4Z"/><polygon class="cls-7" points="3676.25 199.05 3696.64 183.66 3708.3 200.05 3670.28 209.43 3676.25 199.05"/><polygon class="cls-7" points="3532.61 221.44 3560.39 249.75 3584.08 260.37 3567.22 275.14 3527.32 268.07 3515.3 241.07 3532.61 221.44"/><polygon class="cls-7" points="3421.73 128.55 3425.3 133.92 3433.3 142.8 3438.14 156.9 3448.37 172.27 3427.74 161.55 3402.71 168.55 3400.7 137.51 3414.72 155.55 3425.74 143.55 3419.37 131.58 3421.73 128.55"/><polygon class="cls-7" points="3390.4 126.8 3400.78 137.6 3381.39 159.27 3376.18 143.35 3385.65 129.65 3390.4 126.8"/><polygon class="cls-7" points="3353.31 158.55 3359.31 172.55 3342.29 172.55 3336.28 156.55 3353.31 158.55"/><path class="cls-7" d="M3341.29,172.55l-2,9-5,5-5,7a10,10,0,0,1-1,4c-1,2-5,2-5,2l-1-7s0-3-1-4,8-5,8-5l4-2,1-6Z"/><polygon class="cls-7" points="3250.67 192.88 3215.09 178.85 3214.63 182.88 3201.61 195.88 3214.63 200.88 3219.63 195.88 3224.64 198.88 3235.65 199.88 3240.66 197.88 3244.26 200.24 3250.67 192.88"/><polygon class="cls-7" points="3160.72 127.14 3170.89 137.31 3177.51 146.67 3193.43 160.44 3199.85 164.73 3205.47 168.6 3196.93 188.06 3185.92 193.06 3175.91 168.06 3167.9 169.06 3156.88 175.06 3146.87 189.06 3125.84 197.06 3112.08 188.56 3117.83 163.06 3129.73 135.34 3115.94 135.23 3127.84 122.06 3137.86 129.06 3148.87 133.06 3160.72 127.14"/><polygon class="cls-7" points="3128.76 110.21 3146.78 119.21 3152.79 122.21 3147.79 125.21 3140.78 126.21 3127.76 116.21 3125.76 114.21 3128.76 110.21"/><polygon class="cls-7" points="3024.54 197.32 3030.06 204.46 3016.85 230.31 2992.16 212.49 2975.14 209.49 2954.11 188.49 2941.1 203.49 2901.05 222.49 2917.07 202.49 2897.04 192.49 2874.01 192.49 2844.3 178.25 2856.72 148.56 2884.97 133.31 2910.06 154.49 2986.16 181.49 3024.54 197.32"/><polygon class="cls-7" points="2891.04 67.48 2907.43 82.67 2894.18 84.43 2881.16 80.43 2876.15 71.43 2863.84 80.43 2863.85 66.64 2860.38 49.43 2871.14 60.43 2882.74 67.43 2891.04 67.48"/><polygon class="cls-7" points="2952.81 133.31 2959.18 145.86 2943.71 150.68 2938.7 139.68 2946.21 120.19 2949.56 126.68 2952.81 133.31"/><polygon class="cls-7" points="2935.62 109.61 2935.61 121.01 2926.74 126.53 2917.86 132.05 2909.18 123.01 2926.57 118.29 2935.62 109.61"/><polygon class="cls-7" points="2934.72 109.31 2926.12 117.27 2916.22 120.19 2916.22 109.31 2923.47 109.61 2934.72 109.31"/><polygon class="cls-7" points="2915.81 90.43 2934.17 108.43 2915.81 108.43 2891.78 116.43 2885.77 94.43 2894.92 86.02 2908.06 84.18 2915.81 90.43"/><polygon class="cls-7" points="2773.27 140.31 2774.43 153.31 2766.26 153.31 2764.26 149.31 2753.24 145.31 2753.24 133.31 2759.25 133.31 2773.27 140.31"/><polygon class="cls-7" points="2752.95 146.16 2763.26 150.03 2751.95 156.16 2748.95 151.16 2743.94 146.16 2752.95 146.16"/><polygon class="cls-7" points="2751.18 156.69 2742.16 169.69 2731.15 163.69 2741.16 156.69 2745.17 148.69 2751.18 156.69"/><polygon class="cls-7" points="2726.72 116.53 2741.74 120.53 2738.74 128.53 2721.72 130.53 2703.7 136.53 2693.68 136.53 2705.7 123.53 2723.72 118.53 2726.72 116.53"/><polygon class="cls-7" points="2059.55 240.04 2043.53 239.04 2040.53 246.04 2045.54 254.04 2050.54 250.04 2046.54 245.04 2053.55 245.04 2060.55 249.04 2065.56 257.04 2071.57 253.04 2060.55 238.04 2059.55 240.04"/><polygon class="cls-7" points="2006.07 209.49 2017.09 223.49 2010.08 234.49 2008.07 242.49 1997.06 244.49 1981.04 238.49 1967.02 226.49 1967.02 216.49 1978.03 226.49 1984.04 229.49 1992.05 231.49 1997.06 229.49 2003.07 228.49 2006.07 209.49"/><polygon class="cls-7" points="1939.32 200.49 1943.32 214.49 1939.32 217.49 1932.31 218.49 1934.31 206.49 1939.32 200.49"/><polygon class="cls-7" points="2625.72 178.01 2616.71 198.01 2601.81 286.35 2572.53 304.03 2570.48 305.27 2558.72 289.06 2567.06 248.65 2579.01 234.5 2581.01 243.54 2605.04 226.54 2605.04 217.54 2597.03 223.54 2591.02 206.54 2602.03 206.54 2597.03 196.54 2610.05 184.54 2626.85 175.9 2625.72 178.01"/><polygon class="cls-7" points="2386.78 234.63 2401.29 239.9 2392.59 257.5 2374.71 293.19 2320.75 299.09 2306.39 281.15 2339.55 268.41 2363.59 259.31 2380.84 241.77 2386.78 234.63"/><polygon class="cls-7" points="2271.12 266.86 2282.97 285.44 2245.81 273.11 2271.12 266.86"/><polygon class="cls-7" points="2209.22 260.63 2228.19 267.01 2252.61 282.38 2261.6 294.02 2240.85 286.33 2212.37 271.24 2198.16 260.69 2209.22 260.63"/><polygon class="cls-7" points="6371.67 194.3 6382.56 203.21 6377.61 206.18 6365.74 208.16 6352.88 214.1 6341 222.02 6316.27 224.99 6292.51 217.08 6317.25 205.2 6326.15 191.35 6342.98 197.28 6365.73 191.34 6371.67 194.3"/><polygon class="cls-7" points="6281.82 220.86 6313.49 228.76 6281.82 241.64 6267.97 242.63 6258.07 242.63 6254.11 233.73 6281.82 220.86"/><polygon class="cls-7" points="6463.15 115.83 6472.82 126.83 6471.82 146.83 6473.1 162.34 6465.28 176.9 6458.8 176.83 6437.77 174.83 6445.78 167.83 6439.77 161.83 6446.78 156.83 6441.78 152.83 6449.79 147.83 6442.78 142.83 6434.77 135.83 6435.77 129.83 6439.77 133.83 6453.79 146.83 6465.81 146.83 6468.81 134.83 6468.81 125.83 6463.15 115.83"/><polygon class="cls-7" points="6384.69 230 6369.67 225 6364.66 213 6343.63 223 6343.63 234 6332.62 229 6348.64 248 6343.63 262 6343.63 269 6361.66 266 6374.9 261.08 6384.69 230"/><path class="cls-7" d="M7072.35,214.23l-7.45-7-16,4-20-7h-16l-3,10s32,1,20,12c0,0-7,4-14,0,0,0-26,39-42.06,37l-2,10h60.08c3,0,40.05-35,40.05-35Z"/><path class="cls-7" d="M5966.7,270.8h20.78l15.83-5.94-6.92,6.93-12.86,10.89s-15.84,1-16.83,0-22.89-16.42-22.89-16.42l-16-19.69s7.22-4.45,6.23-4.45,8.91,16.82,8.91,16.82Z"/><polygon class="cls-8" points="7572.45 139.46 7585.45 156.46 7611.45 178.46 7576.45 170.46 7572.45 139.46"/><path class="cls-7" d="M7619.17,192s16,10,15,10-15,15-15,15h-15l-24.53-14.29L7560.09,198V188h15l-1.22-15.4,14.24,5.4Z"/><polygon class="cls-7" points="7514.68 200.05 7535.07 184.66 7546.72 201.05 7508.71 210.43 7514.68 200.05"/><polygon class="cls-7" points="7371.04 222.44 7398.82 250.75 7422.51 261.37 7405.65 276.14 7365.75 269.07 7353.73 242.07 7371.04 222.44"/><polygon class="cls-7" points="7260.16 129.55 7263.73 134.92 7271.73 143.8 7276.57 157.9 7286.8 173.27 7266.17 162.55 7241.14 169.55 7239.13 138.51 7253.15 156.55 7264.16 144.55 7257.8 132.58 7260.16 129.55"/><polygon class="cls-7" points="7228.83 127.8 7239.2 138.6 7219.82 160.27 7214.61 144.35 7224.07 130.65 7228.83 127.8"/><polygon class="cls-7" points="7191.73 159.55 7197.74 173.55 7180.72 173.55 7174.71 157.55 7191.73 159.55"/><path class="cls-7" d="M7179.72,173.55l-2,9-5,5-5,7a10,10,0,0,1-1,4c-1,2-5,2-5,2l-1-7s0-3-1-4,8-5,8-5l4-2,1-6Z"/><polygon class="cls-7" points="7089.1 193.88 7053.52 179.85 7053.05 183.88 7040.04 196.88 7053.05 201.88 7058.06 196.88 7063.07 199.88 7074.08 200.88 7079.09 198.88 7082.69 201.24 7089.1 193.88"/><polygon class="cls-7" points="6999.15 128.15 7009.32 138.31 7015.94 147.67 7031.86 161.44 7038.28 165.73 7043.9 169.6 7035.36 189.06 7024.35 194.06 7014.34 169.06 7006.32 170.06 6995.31 176.06 6985.3 190.06 6964.27 198.06 6950.51 189.56 6956.26 164.06 6968.16 136.34 6954.37 136.23 6966.27 123.06 6976.28 130.06 6987.3 134.06 6999.15 128.15"/><polygon class="cls-7" points="6967.19 111.21 6985.21 120.21 6991.22 123.21 6986.22 126.21 6979.2 127.21 6966.19 117.21 6964.19 115.21 6967.19 111.21"/><polygon class="cls-7" points="6862.96 198.32 6868.48 205.46 6855.28 231.31 6830.59 213.49 6813.57 210.49 6792.54 189.49 6779.52 204.49 6739.47 223.49 6755.49 203.49 6735.47 193.49 6712.44 193.49 6682.73 179.25 6695.15 149.56 6723.4 134.31 6748.48 155.49 6824.58 182.49 6862.96 198.32"/><polygon class="cls-7" points="6729.46 68.48 6745.86 83.67 6732.6 85.43 6719.59 81.43 6714.58 72.43 6702.27 81.43 6702.28 67.64 6698.81 50.43 6709.57 61.43 6721.17 68.43 6729.46 68.48"/><polygon class="cls-7" points="6791.23 134.31 6797.61 146.86 6782.14 151.68 6777.13 140.68 6784.64 121.19 6787.98 127.68 6791.23 134.31"/><polygon class="cls-7" points="6774.05 110.61 6774.04 122.01 6765.16 127.53 6756.29 133.05 6747.6 124.01 6764.99 119.29 6774.05 110.61"/><polygon class="cls-7" points="6773.15 110.31 6764.54 118.27 6754.65 121.19 6754.65 110.31 6761.9 110.61 6773.15 110.31"/><polygon class="cls-7" points="6754.24 91.43 6772.6 109.43 6754.24 109.43 6730.21 117.43 6724.2 95.43 6733.35 87.02 6746.49 85.18 6754.24 91.43"/><polygon class="cls-7" points="6611.7 141.31 6612.86 154.31 6604.69 154.31 6602.68 150.31 6591.67 146.31 6591.67 134.31 6597.68 134.31 6611.7 141.31"/><polygon class="cls-7" points="6591.38 147.16 6601.69 151.03 6590.38 157.16 6587.38 152.16 6582.37 147.16 6591.38 147.16"/><polygon class="cls-7" points="6589.6 157.69 6580.59 170.69 6569.58 164.69 6579.59 157.69 6583.6 149.69 6589.6 157.69"/><polygon class="cls-7" points="6565.15 117.53 6580.17 121.53 6577.17 129.53 6560.15 131.53 6542.12 137.53 6532.11 137.53 6544.13 124.53 6562.15 119.53 6565.15 117.53"/><polygon class="cls-7" points="5897.98 241.04 5881.96 240.04 5878.96 247.04 5883.96 255.04 5888.97 251.04 5884.96 246.04 5891.97 246.04 5898.98 250.04 5903.99 258.04 5910 254.04 5898.98 239.04 5897.98 241.04"/><polygon class="cls-7" points="5844.5 210.49 5855.51 224.49 5848.5 235.49 5846.5 243.49 5835.49 245.49 5819.47 239.49 5805.45 227.49 5805.45 217.49 5816.46 227.49 5822.47 230.49 5830.48 232.49 5835.49 230.49 5841.49 229.49 5844.5 210.49"/><polygon class="cls-7" points="5777.75 201.49 5781.75 215.49 5777.75 218.49 5770.74 219.49 5772.74 207.49 5777.75 201.49"/><polygon class="cls-7" points="6464.15 179.01 6455.14 199.01 6440.24 287.35 6410.96 305.03 6408.91 306.27 6397.15 290.06 6405.48 249.65 6417.43 235.5 6419.44 244.54 6443.47 227.54 6443.47 218.54 6435.46 224.54 6429.45 207.54 6440.46 207.54 6435.46 197.54 6448.47 185.54 6465.28 176.9 6464.15 179.01"/><polygon class="cls-7" points="6225.21 235.63 6239.72 240.9 6231.01 258.5 6213.14 294.19 6159.18 300.09 6144.82 282.15 6177.97 269.41 6202.01 260.31 6219.26 242.77 6225.21 235.63"/><polygon class="cls-7" points="6109.55 267.86 6121.4 286.44 6084.23 274.11 6109.55 267.86"/><polygon class="cls-7" points="6047.65 261.63 6066.62 268.01 6091.03 283.38 6100.03 295.02 6079.28 287.33 6050.8 272.24 6036.59 261.69 6047.65 261.63"/><rect class="cls-6" x="0.09" y="508.41" width="6110.87" height="80"/><rect class="cls-6" x="6100.03" y="518.52" width="3220.89" height="47.71"/><path class="cls-9" d="M9604.36,629.35l-3.45-102.46-813.45,27.47-615-5.8c-187.84-29.35-492.48-16.93-493-16.91h0s-305-12.46-493,16.91l-615,5.8L5759,527.47h0l-812.76,26.92L4331,548.58c-175-27.36-452.53-18.63-490.32-17.28-18-.64-76.24-2.49-150.53-2.41-103.91-.11-242.29,3.42-345.46,19.58l-608.32,5.75-808.65-29v.31l-8.66-.31h0l-810.79,30.34-615-5C305,521.4.09,534.27.09,534.27V632l1920.79-2.49v0h3837.6v-.1H9604.36Z"/></svg>