<svg xmlns="http://www.w3.org/2000/svg" viewBox="0 0 45 45"><title>facilities icons</title><g id="전자렌즈"><path d="M38.38,10.83H7.05A1.54,1.54,0,0,0,5.5,12.38V30.49A1.55,1.55,0,0,0,7.05,32H8.19v1.27a1.54,1.54,0,0,0,1.55,1.55h4.59a1.54,1.54,0,0,0,1.55-1.55V32H29.55v1.27a1.55,1.55,0,0,0,1.55,1.55h4.59a1.54,1.54,0,0,0,1.55-1.55V32h1.14a1.55,1.55,0,0,0,1.55-1.55V12.38A1.54,1.54,0,0,0,38.38,10.83ZM14.94,33.31a.61.61,0,0,1-.61.61H9.74a.61.61,0,0,1-.61-.61V32h5.81Zm21.36,0a.61.61,0,0,1-.61.61H31.1a.61.61,0,0,1-.61-.61V32H36.3ZM39,30.49a.62.62,0,0,1-.61.61H7.05a.62.62,0,0,1-.61-.61V12.38a.61.61,0,0,1,.61-.61H38.38a.61.61,0,0,1,.61.61Z"/><path d="M35.5,13.52h-1a1.74,1.74,0,0,0,0,3.48h1a1.74,1.74,0,0,0,0-3.48Zm0,2.53h-1a.79.79,0,0,1-.79-.79.8.8,0,0,1,.79-.8h1a.81.81,0,0,1,.79.81A.8.8,0,0,1,35.5,16.05Z"/><path d="M35.5,18.75h-1a1.74,1.74,0,0,0,0,3.47h1a1.74,1.74,0,1,0,0-3.47Zm0,2.53h-1a.8.8,0,0,1-.79-.8.79.79,0,0,1,.79-.79h1a.79.79,0,0,1,.8.79A.8.8,0,0,1,35.5,21.28Z"/><path d="M30.52,13.52H8.66a.47.47,0,0,0-.47.47V28.88a.47.47,0,0,0,.47.47H30.52a.47.47,0,0,0,.47-.47V14A.47.47,0,0,0,30.52,13.52Zm-.47,14.89H9.13V14.46H30.05Z"/><path d="M17.49,24a.47.47,0,0,0,.33-.14C19.28,22.38,21.66,20,22,19.72a.47.47,0,0,0-.27-.86c-.26,0-.26,0-4.54,4.35a.46.46,0,0,0,0,.66.45.45,0,0,0,.33.14Z"/><path d="M13,23.14A.47.47,0,0,0,13.3,23c.84-.85,2.22-2.25,2.42-2.43a.46.46,0,0,0,.1-.65.47.47,0,0,0-.38-.19c-.23,0-.23,0-2.81,2.61a.47.47,0,0,0,0,.67A.49.49,0,0,0,13,23.14Z"/><path d="M23.73,23.14a.48.48,0,0,0,.34-.14c.84-.85,2.22-2.25,2.42-2.43a.46.46,0,0,0,.1-.65.47.47,0,0,0-.38-.19c-.24,0-.24,0-2.81,2.61a.47.47,0,0,0,0,.67.46.46,0,0,0,.32.13Z"/><path d="M36.77,24H33.21a.47.47,0,0,0,0,.94h3.56a.47.47,0,0,0,0-.94Z"/><path d="M36.77,26.66H33.21a.47.47,0,0,0,0,.94h3.56a.47.47,0,0,0,0-.94Z"/></g></svg>