<svg id="레이어_1" data-name="레이어 1" xmlns="http://www.w3.org/2000/svg" viewBox="0 0 118.5 60.03">
  <defs>
    <style>
      .cls-1 {
        fill: none;
        stroke: #fff;
        stroke-linejoin: round;
      }
    </style>
  </defs>
  <title>motorhome</title><circle class="cls-1" cx="36.98" cy="48.75" r="7.19"/><circle class="cls-1" cx="36.98" cy="48.75" r="4.62"/><circle class="cls-1" cx="103.49" cy="48.75" r="4.62"/><circle class="cls-1" cx="103.49" cy="48.75" r="7.19"/><path
    class="cls-1"
    d="M58.07,46.81H82.2V18.69l22.76.79s.88,0,1.86.05a10.86,10.86,0,0,0,2.44-.16,3.45,3.45,0,0,0,2.36-2.15c1.26-5.29-3.62-9.7-8.18-11.42A19.38,19.38,0,0,0,100.86,5a32.32,32.32,0,0,0-8.07-.83c-1.22,0-2.51,0-3.89,0s-2.84.21-4.39.41l-27.23,3-36.77,1L6.82,8.83s-2.2-.16-2.46,1.84V46.81h25.7"/><line class="cls-1" x1="43.9" y1="46.81" x2="47" y2="46.81"/><polyline class="cls-1" points="6.72 46.81 6.72 49.01 20.35 49.01 24.39 50.79 30.09 50.79"/><polyline class="cls-1" points="43.87 50.79 81.62 50.79 81.62 49.92 81.62 46.81"/><line class="cls-1" x1="81.62" y1="49.9" x2="96.41" y2="49.9"/><path
    class="cls-1"
    d="M110.59,49.9h4.34s.1-6,0-7.18a3.14,3.14,0,0,0-1-1.94,5.69,5.69,0,0,0-1-2.68,7.35,7.35,0,0,0-.88-1.1c-1.89-2.2-5-2.83-7.5-4A9.93,9.93,0,0,1,103,32a14.46,14.46,0,0,1-1.42-1.17c-2.53-2.45-4.52-5.44-7.3-7.58a13.62,13.62,0,0,0-1.77-1.18,15.6,15.6,0,0,0-1.66-.6c-2.68-.8-5.18-.95-8.65-1.68h0"/><rect class="cls-1" x="6.4" y="26.19" width="9.44" height="18.67" rx="0.63" ry="0.63"/><rect class="cls-1" x="47" y="14.81" width="11.07" height="34.04" rx="0.63" ry="0.63"/><path class="cls-1" d="M99.82,31.65l-5.56-6.51a6.21,6.21,0,0,0-3.41-2L82.2,21.47H70.45a.63.63,0,0,0-.63.63V32.8a.63.63,0,0,0,.63.63H99.82s1.79.11,1-.73Z"/><path class="cls-1" d="M108.27,15.65l-20.41-.89-4.8-6.11s-.86-1.08,1-1.39c0,0,8.55-1.84,13.85-.47,0,0,7.24,1.1,10.39,5.71,0,0,1.41,2.15.73,2.94C109,15.44,108.9,15.7,108.27,15.65Z"/><path class="cls-1" d="M82.2,41.56H94.79a13.72,13.72,0,0,1,1.88-2,8.46,8.46,0,0,1,5.71-2.27,11.4,11.4,0,0,1,2.11.1c2.1.26,4.35,1.05,5.56,3s2,5.14,5,4.56"/><path class="cls-1" d="M112.1,37H110l1.57,2.83a1.75,1.75,0,0,0,1.42.89l1,.06"/><line class="cls-1" x1="87.31" y1="33.44" x2="87.31" y2="49.9"/></svg>
