<svg xmlns="http://www.w3.org/2000/svg" viewBox="0 0 100 100"><defs><style>.cls-1{fill:none;}.cls-1,.cls-2,.cls-3{stroke:#000;stroke-miterlimit:10;}.cls-2,.cls-3{fill:#fff;}.cls-2{stroke-linecap:round;}</style></defs><title>mypage</title><g id="마이페이지"><polyline class="cls-1" points="27.07 37.17 33.07 27.17 40.07 37.17"/><polyline class="cls-1" points="37.07 32.67 49.07 13.17 61.57 32.67"/><polyline class="cls-1" points="43.71 21.88 45.07 25.17 49.07 20.17 52.07 25.17 54.04 20.91"/><polyline class="cls-1" points="30.07 32.17 32.07 34.17 33.07 32.17 35.07 34.17 36.34 31.83"/><polyline class="cls-1" points="58.07 37.17 64.07 27.17 71.07 37.17"/><polyline class="cls-1" points="61.07 32.17 63.07 34.17 64.07 32.17 66.07 34.17 67.34 31.83"/><path class="cls-1" d="M28.89,22a1.89,1.89,0,0,0,.18-.82,2,2,0,0,0-2-2,2,2,0,0,0-1.17.38,2.5,2.5,0,0,0-3.83,2.12,1.84,1.84,0,0,0,.05.41,2,2,0,0,0-1.05,1.59c0,1.38,2,2.5,4.5,2.5s4.5-1.12,4.5-2.5A2.08,2.08,0,0,0,28.89,22Z"/><path class="cls-1" d="M76.89,22a1.89,1.89,0,0,0,.18-.82,2,2,0,0,0-2-2,2,2,0,0,0-1.17.38,2.5,2.5,0,0,0-3.83,2.12,1.84,1.84,0,0,0,.05.41,2,2,0,0,0-1.05,1.59c0,1.38,2,2.5,4.5,2.5s4.5-1.12,4.5-2.5A2.08,2.08,0,0,0,76.89,22Z"/><circle class="cls-1" cx="56.07" cy="9.17" r="3"/><line class="cls-2" x1="40.07" y1="53.74" x2="40.07" y2="90.17"/><line class="cls-2" x1="59.07" y1="53.74" x2="59.07" y2="90.17"/><rect class="cls-3" x="31.72" y="42.17" width="34.71" height="11.57"/><polyline class="cls-1" points="38.33 51.46 34.82 47.95 38.33 44.45"/><line class="cls-2" x1="45.77" y1="46.51" x2="54.03" y2="46.51"/><line class="cls-2" x1="45.77" y1="49.81" x2="63.12" y2="49.81"/><rect class="cls-3" x="31.72" y="71.1" width="34.71" height="11.57"/><polyline class="cls-1" points="38.33 80.39 34.82 76.88 38.33 73.37"/><line class="cls-2" x1="45.77" y1="75.43" x2="54.03" y2="75.43"/><line class="cls-2" x1="45.77" y1="78.74" x2="63.12" y2="78.74"/><rect class="cls-3" x="31.72" y="57.04" width="34.71" height="11.57" transform="translate(98.15 125.66) rotate(-180)"/><polyline class="cls-1" points="59.82 66.34 63.32 62.83 59.82 59.32"/><line class="cls-2" x1="52.38" y1="61.38" x2="44.11" y2="61.38"/><line class="cls-2" x1="52.38" y1="64.69" x2="35.02" y2="64.69"/><line class="cls-3" x1="15.95" y1="90.17" x2="83.95" y2="90.17"/></g></svg>