<svg id="네비게이션" xmlns="http://www.w3.org/2000/svg" viewBox="0 0 45 45"><defs><style>.cls-1{fill:none;}.cls-1,.cls-2{stroke:#000;stroke-miterlimit:10;}.cls-2{fill:#fff;}</style></defs><title>facilities icons</title><polyline class="cls-1" points="4.92 0.5 4.92 11.07 21.43 11.07 21.43 18.5 5 18.5 5 34.25 0.5 34.25"/><line class="cls-1" x1="0.5" y1="39.13" x2="29.75" y2="39.2"/><rect class="cls-1" x="9.05" y="23" width="12.15" height="11.25"/><polyline class="cls-1" points="34.7 8.6 34.7 18.05 26.15 18.05 26.15 5.9 10.03 5.9 10 0.5"/><circle class="cls-2" cx="33.8" cy="30.2" r="9.9"/><polygon class="cls-2" points="34.02 23.86 27.95 34.38 40.1 34.38 34.02 23.86"/><polyline class="cls-1" points="38.75 8.6 38.75 18.05 44.5 18.05"/><path class="cls-2" d="M39.88,6.05c0,1.76-3.15,6.38-3.15,6.38s-3.16-4.62-3.16-6.38a3.16,3.16,0,1,1,6.31,0Z"/><ellipse class="cls-2" cx="36.73" cy="5.78" rx="1.31" ry="1.33"/><path class="cls-2" d="M10.63,19.55c0,1.76-3.16,6.38-3.16,6.38s-3.15-4.62-3.15-6.38a3.16,3.16,0,1,1,6.31,0Z"/><ellipse class="cls-2" cx="7.47" cy="19.28" rx="1.31" ry="1.33"/><polyline points="38.5 21.86 38.5 21.5 44.5 21.5 44.5 22.5 39.54 22.5"/></svg>