<svg xmlns="http://www.w3.org/2000/svg" width="36.408" height="58.338" viewBox="0 0 36.408 58.338">
  <g id="page_top" data-name="page top" transform="translate(235.483 228.538) rotate(180)">
    <g id="Group_242" data-name="Group 242" transform="translate(200.575 171.7)">
      <g id="Group_241" data-name="Group 241" transform="translate(0 0)">
        <path id="Path_364" data-name="Path 364" d="M217.2,171.7h0a3.287,3.287,0,0,0-3.277,3.277l.033,41.223-7.8-7.8a3.263,3.263,0,0,0-4.62,0h0a3.263,3.263,0,0,0,0,4.62l12.813,12.813a4.173,4.173,0,0,0,5.866,0l12.813-12.813a3.263,3.263,0,0,0,0-4.62h0a3.263,3.263,0,0,0-4.62,0l-7.9,7.832-.033-41.256A3.286,3.286,0,0,0,217.2,171.7Z" transform="translate(-200.575 -171.7)" fill="none" stroke="#f82228" stroke-miterlimit="10" stroke-width="3"/>
      </g>
    </g>
  </g>
</svg>
