<svg xmlns="http://www.w3.org/2000/svg" viewBox="0 0 100 100"><defs><style>.cls-1,.cls-3{fill:none;}.cls-1,.cls-2,.cls-3{stroke:#fff;}.cls-1{stroke-linejoin:round;}.cls-2{fill:none;}.cls-2,.cls-3{stroke-miterlimit:10;}</style></defs><title>postdiycamper</title><g id="제작기"><circle class="cls-1" cx="31.72" cy="69.55" r="5.89"/><circle class="cls-1" cx="31.72" cy="69.55" r="3.78"/><circle class="cls-1" cx="86.24" cy="69.55" r="3.78"/><circle class="cls-1" cx="86.24" cy="69.55" r="5.89"/><path class="cls-1" d="M49,68H68.79v-23l18.66.65s.72,0,1.52,0a9.23,9.23,0,0,0,2-.13,2.86,2.86,0,0,0,1.94-1.76c1-4.34-3-8-6.71-9.37a17.24,17.24,0,0,0-2.11-.67A26.94,26.94,0,0,0,77.47,33c-1,0-2.06,0-3.19,0s-2.33.17-3.6.34L48.36,35.84l-30.14.86L7,36.83s-1.81-.13-2,1.51V68H26.05"/><line class="cls-1" x1="37.4" y1="67.96" x2="39.94" y2="67.96"/><polyline class="cls-1" points="6.91 67.96 6.91 69.77 18.09 69.77 21.4 71.23 26.07 71.23"/><polyline class="cls-1" points="37.37 71.23 68.31 71.23 68.31 70.51 68.31 67.96"/><line class="cls-1" x1="68.31" y1="70.5" x2="80.44" y2="70.5"/><path class="cls-1" d="M92.06,70.5h3.56s.08-4.9,0-5.89A2.58,2.58,0,0,0,94.84,63a4.71,4.71,0,0,0-.82-2.2,5.91,5.91,0,0,0-.72-.9c-1.55-1.81-4.09-2.32-6.15-3.31a8.84,8.84,0,0,1-1.3-.76,13.12,13.12,0,0,1-1.16-1c-2.07-2-3.7-4.46-6-6.22a13,13,0,0,0-1.45-1,13.82,13.82,0,0,0-1.36-.49c-2.21-.66-4.25-.78-7.09-1.38h0"/><path class="cls-1" d="M83.23,55.53,78.68,50.2a5.09,5.09,0,0,0-2.8-1.67l-7.09-1.34H59.16a.52.52,0,0,0-.52.52v8.77a.52.52,0,0,0,.52.52H83.23s1.47.08.82-.61Z"/><path class="cls-1" d="M90.16,42.42l-16.73-.73-3.93-5s-.71-.88.79-1.14c0,0,7-1.5,11.35-.39,0,0,5.94.91,8.52,4.69,0,0,1.16,1.76.6,2.41C90.76,42.25,90.67,42.46,90.16,42.42Z"/><path class="cls-1" d="M93.3,59.92H91.58l1.29,2.32A1.42,1.42,0,0,0,94,63l.81.05"/><rect class="cls-1" x="40.16" y="45.69" width="9" height="23" rx="1" ry="1"/><rect class="cls-1" x="8.16" y="39.69" width="11" height="8" rx="1" ry="1"/><path class="cls-2" d="M83.18,24.64,18,42.94a1.1,1.1,0,0,1-1.4-.66l-2.52-4.64a1.12,1.12,0,0,1,.85-1.3L81.53,18.78S86.85,20.45,83.18,24.64Z"/><path class="cls-2" d="M65.62,42.49,64.18,17.26l10.48-2.94L86.57,36.61S79.91,48.09,65.62,42.49Z"/><line class="cls-2" x1="84.5" y1="33.21" x2="65.62" y2="38.51"/><circle class="cls-3" cx="71.81" cy="24.3" r="1.36"/><path class="cls-2" d="M17.46,79,82.63,60.69a1.09,1.09,0,0,1,1.39.66L86.54,66a1.1,1.1,0,0,1-.85,1.29L19.1,84.84S13.78,83.18,17.46,79Z"/><path class="cls-2" d="M35,61.14l1.43,25.23L26,89.31,14.06,67S20.73,55.53,35,61.14Z"/><line class="cls-2" x1="16.14" y1="70.42" x2="35.01" y2="65.12"/><circle class="cls-3" cx="28.82" cy="79.33" r="1.36"/></g></svg>
