<svg xmlns="http://www.w3.org/2000/svg" viewBox="0 0 45 45"><title>facilities icons</title><g id="냉장고"><path d="M27.85,19.57a7.63,7.63,0,0,1-.85-1c-.09-.12-.17-.24-.25-.37A8,8,0,0,1,25.57,14a8.08,8.08,0,0,1,1.17-4.17L27,9.4a.61.61,0,0,0-.1-.82,3.07,3.07,0,0,0-2-.71H11.47a3.06,3.06,0,0,0-3.06,3.06V36.07a3.07,3.07,0,0,0,3.06,3.07H25A3.07,3.07,0,0,0,28,36.07V20A.63.63,0,0,0,27.85,19.57ZM26.8,36.07A1.84,1.84,0,0,1,25,37.91H11.47a1.84,1.84,0,0,1-1.84-1.84V10.93A1.83,1.83,0,0,1,11.47,9.1H25a1.67,1.67,0,0,1,.73.14,9.28,9.28,0,0,0-1.22,3.25A8.47,8.47,0,0,0,24.34,14a9.15,9.15,0,0,0,1.38,4.83,3.4,3.4,0,0,0,.28.42,8.55,8.55,0,0,0,.8,1V36.07Z"/><path d="M14.54,37.91H11.47a.61.61,0,0,0-.61.61v1.23a1.84,1.84,0,0,0,1.84,1.84h.61a1.84,1.84,0,0,0,1.84-1.84V38.52A.61.61,0,0,0,14.54,37.91Zm-.62,1.84a.61.61,0,0,1-.61.61H12.7a.61.61,0,0,1-.62-.61v-.61h1.84v.61Z"/><path d="M25,37.91H21.89a.61.61,0,0,0-.61.61v1.23a1.84,1.84,0,0,0,1.84,1.84h.61a1.84,1.84,0,0,0,1.84-1.84V38.52A.61.61,0,0,0,25,37.91Zm-.62,1.84a.61.61,0,0,1-.61.61h-.61a.61.61,0,0,1-.61-.61v-.61h1.83v.61Z"/><path d="M26.5,18.29H9a.62.62,0,0,0,0,1.23H26.5a.62.62,0,1,0,0-1.23Z"/><path d="M11.47,20.74a.61.61,0,0,0-.61.62V25a.61.61,0,1,0,1.22,0V21.36A.61.61,0,0,0,11.47,20.74Z"/><path d="M11.47,12.16a.61.61,0,0,0-.61.61v3.68a.61.61,0,1,0,1.22,0V12.77A.61.61,0,0,0,11.47,12.16Z"/><path d="M38.84,6.51A9.19,9.19,0,0,0,26,8.7l-.33.49a9.27,9.27,0,0,0-1.22,3.3A8.47,8.47,0,0,0,24.34,14a9.14,9.14,0,0,0,1.37,4.83c.09.15.19.3.28.42a9.3,9.3,0,0,0,1,1.18,8.46,8.46,0,0,0,.89.8,9.17,9.17,0,0,0,11.36,0A9.58,9.58,0,0,0,41,19.33,9.21,9.21,0,0,0,38.84,6.51Zm1,12.37a8,8,0,0,1-11.18,1.38,7.36,7.36,0,0,1-.79-.69,7.63,7.63,0,0,1-.85-1c-.09-.12-.17-.24-.25-.37A8,8,0,0,1,25.57,14a7.26,7.26,0,0,1,.12-1.31,7.69,7.69,0,0,1,1.06-2.85c.09-.14.18-.29.28-.43a8,8,0,1,1,12.79,9.47Z"/><path d="M33.54,7.26a.61.61,0,0,0-.61.61V20.13a.61.61,0,1,0,1.22,0V7.87A.61.61,0,0,0,33.54,7.26Z"/><path d="M33.88,9.2,32,8a.61.61,0,0,0-.8.16.62.62,0,0,0,.12.86l1.84,1.23a.67.67,0,0,0,.34.1.6.6,0,0,0,.51-.27A.61.61,0,0,0,33.88,9.2Z"/><path d="M35.88,8.19A.62.62,0,0,0,35,8L33.2,9.2a.61.61,0,0,0-.27.51.61.61,0,0,0,.61.61.67.67,0,0,0,.34-.1L35.72,9A.62.62,0,0,0,35.88,8.19Z"/><path d="M34.06,17.9a.62.62,0,0,0-.86-.12L31.36,19a.61.61,0,0,0,.34,1.12A.67.67,0,0,0,32,20l1.84-1.23a.1.1,0,0,0,0,0A.62.62,0,0,0,34.06,17.9Z"/><path d="M35.72,19l-1.84-1.23a.61.61,0,0,0-.8.16.62.62,0,0,0,.12.86L35,20a.67.67,0,0,0,.34.1A.61.61,0,0,0,35.72,19Z"/><path d="M39.67,13.39H27.41a.61.61,0,1,0,0,1.22H39.67a.61.61,0,0,0,0-1.22Z"/><path d="M29.6,13.54a.62.62,0,0,0-.86.12L27.51,15.5a.67.67,0,0,0-.1.34.61.61,0,0,0,.61.61.6.6,0,0,0,.51-.27l1.23-1.84A.61.61,0,0,0,29.6,13.54Z"/><path d="M29.76,13.66l-1.23-1.84a.61.61,0,0,0-.8-.16.62.62,0,0,0-.22.84l1.23,1.84a.6.6,0,0,0,.51.27.59.59,0,0,0,.34-.1A.61.61,0,0,0,29.76,13.66Z"/><path d="M39.57,15.5l-1.23-1.84a.61.61,0,0,0-.8-.16.62.62,0,0,0-.22.84l1.23,1.84a.6.6,0,0,0,.51.27.59.59,0,0,0,.34-.1A.61.61,0,0,0,39.57,15.5Z"/><path d="M39.41,11.7a.62.62,0,0,0-.86.12l-1.23,1.84a.67.67,0,0,0-.1.34.61.61,0,0,0,1.12.34l1.23-1.84A.61.61,0,0,0,39.41,11.7Z"/><path d="M37,16.64,30.9,10.51a.6.6,0,0,0-.79,0,.61.61,0,0,0-.07.86l6.13,6.13a.6.6,0,0,0,.44.18A.64.64,0,0,0,37,17.5.6.6,0,0,0,37,16.64Z"/><path d="M37,10.57a.61.61,0,0,0-.86-.07L30,16.63a.6.6,0,0,0-.18.44.61.61,0,0,0,.62.61.57.57,0,0,0,.42-.19L37,11.36A.6.6,0,0,0,37,10.57Z"/></g></svg>