<svg id="레이어_1" data-name="레이어 1" xmlns="http://www.w3.org/2000/svg" viewBox="0 0 150 137">
  <defs>
    <style>
      .cls-1 {
        fill: none;
        stroke: #fff;
        stroke-miterlimit: 15;
        stroke-width:2;
      }
    </style>
  </defs>
  <title>review_all</title><path class="cls-1" d="M140,68.5A65,65,0,1,1,65,4.26,65.94,65.94,0,0,1,75,3.5,65,65,0,0,1,140,68.5Z"/><polyline
    class="cls-1"
    points="17.5 38.15 22.83 48.26 29.1 48.83 32.52 52.25 37.08 53.96 33.09 61.37 38.79 69.36 42.22 76.2 48.49 82.47 47.35 95.01 51.34 101.28 54.76 111.55 61.03 111.55 59.89 99.58 64.45 95.58 65.02 92.16 67.3 89.88 70.72 82.47 78.71 79.05 79.28 69.36 83.84 63.65 81.56 60.23 71.86 57.38 65.59 47.69 60.46 48.26 53.05 41.42 45.07 43.7 36.51 44.84 35.37 39.14 30.24 39.14 28.53 37.42 31.38 32.86 35.37 32.29 43.35 34 43.92 28.87 48.49 26.59 58.75 17.47 68.44 16.9 69.58 12.91 66.16 6.07 65.25 4.23"/><polyline class="cls-1" points="94.48 6.47 91.82 12.91 94.1 16.9 99.8 16.9 101.51 22.6 105.5 30.01 102.08 38 101.51 44.84 106.08 50.54 111.21 56.24 122.04 57.95 125.46 69.92 121.47 80.19 121.47 90.45 118.05 97.86 121.47 101.86 136.45 89.74"/><polyline class="cls-1" points="102.61 127.36 98.09 121.81 87.83 121.24 82.7 118.96 78.14 121.81 67.87 124.09 67.87 117.82 66.16 114.97 60.46 117.82 58.75 121.24 52.48 123.52 50.33 128.66"/></svg>
