<svg xmlns="http://www.w3.org/2000/svg" viewBox="0 0 130 135"><defs><style>.cls-1{fill:none;}.cls-1,.cls-2{stroke:#000;stroke-miterlimit:10;}.cls-2{fill:#fff;}</style></defs><title>review</title><g id="캠핑카여행후기"><polyline class="cls-1" points="78.3 44.42 85.8 31.92 94.55 44.42"/><polyline class="cls-1" points="90.8 38.79 105.8 14.42 121.43 38.79"/><polygon class="cls-2" points="65.61 21.59 25.43 95.67 105.8 95.67 65.61 21.59"/><line class="cls-2" x1="65.8" y1="94.42" x2="65.8" y2="21.92"/><rect class="cls-2" x="52.55" y="108.19" width="25.18" height="4.28" transform="translate(-34.64 29.95) rotate(-20.59)"/><rect class="cls-2" x="52.55" y="108.19" width="25.18" height="4.28" transform="translate(87.32 236.52) rotate(-159.41)"/><path class="cls-2" d="M73,97.3a7.46,7.46,0,0,1-14.92,0c0-4.12,7.46-14,7.46-14S73,93.18,73,97.3Z"/><path class="cls-2" d="M70.76,99.43a5.2,5.2,0,0,1-10.38,0c0-2.69,5.19-9.12,5.19-9.12S70.76,96.74,70.76,99.43Z"/><path class="cls-1" d="M25.8,95.67c42.5-11.25,40-72.5,40-72.5s-2.5,61.25,40,72.5"/><path class="cls-1" d="M42.6,37.51a11.81,11.81,0,0,1-4.49-19.64A11.81,11.81,0,1,0,48.09,38,11.63,11.63,0,0,1,42.6,37.51Z"/><line class="cls-1" x1="30.8" y1="101.92" x2="48.3" y2="101.92"/><line class="cls-1" x1="39.55" y1="106.92" x2="48.3" y2="106.92"/><line class="cls-1" x1="43.93" y1="111.92" x2="48.93" y2="111.92"/><line class="cls-1" x1="100.18" y1="101.92" x2="82.68" y2="101.92"/><line class="cls-1" x1="91.43" y1="106.92" x2="82.68" y2="106.92"/><line class="cls-1" x1="87.05" y1="111.92" x2="82.05" y2="111.92"/><polyline class="cls-1" points="99.1 25.31 100.8 29.42 105.8 23.17 109.55 29.42 112 24.09"/><polyline class="cls-1" points="82.05 38.17 84.55 40.67 85.8 38.17 88.3 40.67 89.88 37.75"/></g></svg>