<svg xmlns="http://www.w3.org/2000/svg" viewBox="0 0 100 100">
  <defs>
    <style>
      .cls-1 {
        fill: none;
      }
      .cls-1,
      .cls-2 {
        stroke: #fff;
        stroke-miterlimit: 10;
      }
      .cls-2 {
        fill: #fff;
      }
    </style>
  </defs>
  <title>reivew</title>
  <g id="캠핑카여행후기"><polyline class="cls-1" points="58.5 31.5 64.5 21.5 71.5 31.5"/><polyline class="cls-1" points="68.5 27 80.5 7.5 93 27"/><polygon class="cls-1" points="48.35 13.24 16.2 72.5 80.5 72.5 48.35 13.24"/><line class="cls-2" x1="48.5" y1="72.67" x2="48.5" y2="13.5"/><rect class="cls-1" x="37.9" y="82.52" width="20.15" height="3.42" transform="translate(-26.56 22.25) rotate(-20.59)"/><rect class="cls-1" x="37.9" y="82.52" width="20.15" height="3.42" transform="translate(63.25 179.95) rotate(-159.41)"/><path class="cls-1" d="M54.28,73.81a6,6,0,0,1-11.94,0c0-3.3,6-11.19,6-11.19S54.28,70.51,54.28,73.81Z"/><path class="cls-1" d="M52.47,75.51a4.16,4.16,0,0,1-8.31,0c0-2.15,4.15-7.3,4.15-7.3S52.47,73.36,52.47,75.51Z"/><path class="cls-1" d="M16.5,72.5c34-9,32-58,32-58s-2,49,32,58"/><path class="cls-1" d="M29.94,26A9.45,9.45,0,0,1,24,14a9.32,9.32,0,0,1,2.35-3.73,9.45,9.45,0,1,0,8,16.1A9.32,9.32,0,0,1,29.94,26Z"/><line class="cls-1" x1="20.5" y1="77.5" x2="34.5" y2="77.5"/><line class="cls-1" x1="27.5" y1="81.5" x2="34.5" y2="81.5"/><line class="cls-1" x1="31" y1="85.5" x2="35" y2="85.5"/><line class="cls-1" x1="76" y1="77.5" x2="62" y2="77.5"/><line class="cls-1" x1="69" y1="81.5" x2="62" y2="81.5"/><line class="cls-1" x1="65.5" y1="85.5" x2="61.5" y2="85.5"/><polyline class="cls-1" points="75.14 16.22 76.5 19.5 80.5 14.5 83.5 19.5 85.46 15.24"/><polyline class="cls-1" points="61.5 26.5 63.5 28.5 64.5 26.5 66.5 28.5 67.77 26.16"/></g>
</svg>
