<svg xmlns="http://www.w3.org/2000/svg" viewBox="0 0 85 85"><defs><style>.cls-1,.cls-2,.cls-3,.cls-4{fill:none;}.cls-1,.cls-2,.cls-3,.cls-4,.cls-5{stroke:#000;}.cls-1,.cls-2,.cls-3,.cls-5{stroke-linejoin:round;}.cls-2,.cls-3,.cls-4{stroke-width:2px;}.cls-3{stroke-dasharray:3.04 3.04;}.cls-4{stroke-miterlimit:10;}.cls-5{fill:#fff;}.cls-6{font-size:33.73px;font-family:MalgunGothic-Semilight, Malgun Gothic;}</style></defs><title>selling</title><g id="캠핑카팔기"><circle class="cls-1" cx="26.57" cy="57.1" r="5.07"/><circle class="cls-1" cx="26.57" cy="57.1" r="3.26"/><circle class="cls-1" cx="73.48" cy="57.1" r="3.26"/><circle class="cls-1" cx="73.48" cy="57.1" r="5.07"/><path class="cls-1" d="M41.45,55.73h17V35.9l16.06.56,1.3,0a8.41,8.41,0,0,0,1.73-.11,2.44,2.44,0,0,0,1.66-1.52c.89-3.73-2.55-6.84-5.77-8a14.7,14.7,0,0,0-1.81-.59,23.34,23.34,0,0,0-5.7-.58c-.86,0-1.77,0-2.74,0s-2,.14-3.1.29L40.89,28.1,15,28.83,5.3,29s-1.55-.12-1.73,1.29V55.73H21.69"/><line class="cls-1" x1="31.46" y1="55.73" x2="33.64" y2="55.73"/><polyline class="cls-1" points="5.23 55.73 5.23 57.28 14.85 57.28 17.7 58.54 21.71 58.54"/><polyline class="cls-1" points="31.43 58.54 58.05 58.54 58.05 57.92 58.05 55.73"/><line class="cls-1" x1="58.05" y1="57.91" x2="68.49" y2="57.91"/><path class="cls-1" d="M78.48,57.91h3.06s.08-4.22,0-5.07a2.21,2.21,0,0,0-.66-1.37,4.07,4.07,0,0,0-.71-1.88,5.6,5.6,0,0,0-.62-.78c-1.33-1.55-3.52-2-5.29-2.85a6.54,6.54,0,0,1-1.12-.65,9.78,9.78,0,0,1-1-.83C70.36,42.76,69,40.64,67,39.13a10.84,10.84,0,0,0-1.25-.83,11.61,11.61,0,0,0-1.17-.42c-1.9-.56-3.66-.67-6.1-1.18h0"/><path class="cls-1" d="M70.89,45,67,40.45A4.4,4.4,0,0,0,64.57,39l-6.11-1.15H50.18a.45.45,0,0,0-.45.44v7.55a.45.45,0,0,0,.45.45H70.89s1.26.07.7-.52Z"/><path class="cls-1" d="M76.85,33.75l-14.39-.62-3.39-4.31s-.61-.76.69-1c0,0,6-1.3,9.76-.34,0,0,5.11.78,7.33,4,0,0,1,1.51.51,2.07C77.36,33.61,77.29,33.79,76.85,33.75Z"/><path class="cls-1" d="M79.55,48.81H78.07l1.11,2a1.23,1.23,0,0,0,1,.63l.7,0"/><rect class="cls-1" x="33.83" y="36.57" width="7.74" height="19.79" rx="0.86" ry="0.86"/><rect class="cls-1" x="6.3" y="31.41" width="9.46" height="6.88" rx="0.86" ry="0.86"/><path class="cls-2" d="M70.19,61.41c-.27.42-.55.83-.84,1.24"/><path class="cls-3" d="M67.48,65.05a34,34,0,0,1-52.11-.46"/><path class="cls-2" d="M14.44,63.4c-.3-.4-.59-.81-.88-1.22"/><polyline class="cls-4" points="69.78 18.76 69.25 23.03 64.98 22.5"/><path class="cls-2" d="M12.54,25.41A34,34,0,0,1,68,21.61"/><circle class="cls-5" cx="42.02" cy="43.31" r="18.91"/><text class="cls-6" transform="translate(35.07 51.72)">s</text><rect x="41.94" y="29.3" width="1.18" height="4.73"/><rect x="41.94" y="50.58" width="1.18" height="4.73"/><polyline class="cls-4" points="17.34 60.24 19.02 56.83 22.43 58.51"/></g></svg>