<svg xmlns="http://www.w3.org/2000/svg" viewBox="0 0 100 100"><defs><style>.cls-1,.cls-2,.cls-3,.cls-4{fill:none;stroke:#000;}.cls-1,.cls-2,.cls-3{stroke-linejoin:round;}.cls-2,.cls-3,.cls-4{stroke-width:2px;}.cls-3{stroke-dasharray:2.99 2.99;}.cls-4{stroke-miterlimit:10;}.cls-5{font-size:39.2px;font-family:MalgunGothic-Semilight, Malgun Gothic;}</style></defs><title>selling</title><g id="캠핑장비"><path class="cls-1" d="M37.14,68.66a5.89,5.89,0,1,1-7-7.81"/><path class="cls-1" d="M35.35,67.28a3.78,3.78,0,1,1-4-4.5"/><circle class="cls-1" cx="86.16" cy="66.55" r="3.78"/><circle class="cls-1" cx="86.16" cy="66.55" r="5.89"/><path class="cls-1" d="M36.08,33.19l-17.94.51-11.22.13s-1.81-.13-2,1.51V65H26"/><path class="cls-1" d="M69.84,42l17.53.61s.72,0,1.52,0a9.23,9.23,0,0,0,2-.13,2.86,2.86,0,0,0,1.94-1.76c1-4.34-3-8-6.71-9.37A17.81,17.81,0,0,0,84,30.67,26.94,26.94,0,0,0,77.39,30c-1,0-2.06,0-3.19,0s-2.33.17-3.6.34l-10,1.12"/><polyline class="cls-1" points="66.17 64.96 68.7 64.96 68.7 61.36"/><polyline class="cls-1" points="6.83 64.96 6.83 66.77 18.01 66.77 21.32 68.23 25.99 68.23"/><polyline class="cls-1" points="62.63 68.23 68.23 68.23 68.23 67.51 68.23 64.96"/><line class="cls-1" x1="68.23" y1="67.5" x2="80.36" y2="67.5"/><path class="cls-1" d="M92,67.5h3.55s.09-4.9,0-5.89A2.54,2.54,0,0,0,94.76,60a4.71,4.71,0,0,0-.82-2.2,5.58,5.58,0,0,0-.73-.9c-1.55-1.81-4.08-2.32-6.15-3.31a9.28,9.28,0,0,1-1.29-.76,11.82,11.82,0,0,1-1.16-1c-2.08-2-3.71-4.46-6-6.22a12.26,12.26,0,0,0-1.46-1,12.78,12.78,0,0,0-1.35-.49,49.56,49.56,0,0,0-5.52-1.08"/><path class="cls-1" d="M71.3,54H83.15s1.46.08.82-.61l-.82-.86L78.59,47.2a5,5,0,0,0-2.79-1.67l-5-1"/><path class="cls-1" d="M90.07,39.42l-16.72-.73-3.94-5s-.71-.88.8-1.14c0,0,7-1.5,11.35-.39,0,0,5.93.91,8.51,4.69,0,0,1.16,1.76.61,2.41C90.68,39.25,90.59,39.46,90.07,39.42Z"/><path class="cls-1" d="M93.21,56.92H91.49l1.29,2.32a1.44,1.44,0,0,0,1.16.73l.82.05"/><rect class="cls-1" x="8.07" y="36.69" width="11" height="8" rx="1" ry="1"/><path class="cls-2" d="M82.34,71.56c-.27.42-.55.84-.84,1.24"/><path class="cls-3" d="M79.7,75.19a39.5,39.5,0,0,1-61.4-.33"/><path class="cls-2" d="M17.39,73.68c-.3-.4-.59-.81-.87-1.22"/><polyline class="cls-4" points="81.86 21.99 81.25 26.95 76.29 26.34"/><path class="cls-2" d="M15.33,29.72a39.51,39.51,0,0,1,64.5-4.41"/><circle class="cls-1" cx="49.59" cy="50.53" r="21.98"/><text class="cls-5" transform="translate(41.51 60.3)">s</text><rect x="49.5" y="34.24" width="1.37" height="5.5"/><rect x="49.5" y="58.97" width="1.37" height="5.5"/><polyline class="cls-4" points="12.81 72.28 14.96 67.9 19.34 70.06"/></g></svg>