<svg xmlns="http://www.w3.org/2000/svg" viewBox="0 0 85 85"><defs><style>.cls-1,.cls-2{fill:none;}.cls-1,.cls-2,.cls-3{stroke:#000;}.cls-1{stroke-linejoin:round;}.cls-2,.cls-3{stroke-miterlimit:10;}.cls-3{fill:#fff;}.cls-4{font-size:36.08px;font-family:MalgunGothic-Semilight, Malgun Gothic;}</style></defs><title>sharing</title><g id="캠핑카공유-2" data-name="캠핑카공유"><circle class="cls-1" cx="28.62" cy="55.88" r="4.98"/><circle class="cls-1" cx="28.62" cy="55.88" r="3.2"/><circle class="cls-1" cx="74.69" cy="55.88" r="3.2"/><circle class="cls-1" cx="74.69" cy="55.88" r="4.98"/><path class="cls-1" d="M43.22,54.54H59.93V35.07l15.77.54s.61,0,1.29,0a7.48,7.48,0,0,0,1.69-.1,2.43,2.43,0,0,0,1.64-1.49c.87-3.67-2.51-6.72-5.67-7.92a13.8,13.8,0,0,0-1.79-.57A22.89,22.89,0,0,0,67.27,25c-.84,0-1.74,0-2.69,0s-2,.14-3,.28L42.68,27.4l-25.47.73-9.49.11S6.2,28.13,6,29.51v25h17.8"/><line class="cls-1" x1="33.41" y1="54.54" x2="35.56" y2="54.54"/><polyline class="cls-1" points="7.65 54.54 7.65 56.07 17.1 56.07 19.9 57.3 23.84 57.3"/><polyline class="cls-1" points="33.39 57.3 59.53 57.3 59.53 56.7 59.53 54.54"/><line class="cls-1" x1="59.54" y1="56.68" x2="69.78" y2="56.68"/><path class="cls-1" d="M79.6,56.68h3s.07-4.14,0-5A2.22,2.22,0,0,0,82,50.36a4,4,0,0,0-.69-1.85,5.31,5.31,0,0,0-.62-.76c-1.3-1.53-3.45-2-5.19-2.8a6.28,6.28,0,0,1-1.09-.65,8.35,8.35,0,0,1-1-.81c-1.75-1.69-3.13-3.76-5.05-5.25a8.71,8.71,0,0,0-1.23-.81A9.29,9.29,0,0,0,65.94,37c-1.86-.55-3.59-.65-6-1.16h0"/><path class="cls-1" d="M72.14,44l-3.85-4.51a4.35,4.35,0,0,0-2.36-1.41l-6-1.13H51.8a.44.44,0,0,0-.44.44v7.41a.44.44,0,0,0,.44.44H72.14s1.24.07.69-.51Z"/><path class="cls-1" d="M78,33l-14.13-.62-3.33-4.23s-.6-.75.68-1c0,0,5.92-1.28,9.59-.33,0,0,5,.76,7.19,4,0,0,1,1.49.51,2C78.5,32.81,78.43,33,78,33Z"/><path class="cls-1" d="M80.64,47.75H79.19l1.09,2a1.22,1.22,0,0,0,1,.62l.69,0"/><rect class="cls-1" x="35.74" y="35.72" width="7.61" height="19.44" rx="0.85" ry="0.85"/><path class="cls-1" d="M9.55,30.65h7.61a.84.84,0,0,1,.84.84v5.07a.85.85,0,0,1-.85.85H9.55a.84.84,0,0,1-.84-.84V31.5A.84.84,0,0,1,9.55,30.65Z"/><polygon class="cls-2" points="43.36 8.87 19.44 18.07 9.31 42 19.44 65.92 43.36 76.05 67.29 65.92 77.42 42 67.29 18.07 43.36 8.87"/><line class="cls-3" x1="42.9" y1="9.33" x2="42.9" y2="76.51"/><line class="cls-3" x1="19.15" y1="19.17" x2="66.66" y2="66.67"/><line class="cls-3" x1="9.31" y1="42.92" x2="76.49" y2="42.92"/><line class="cls-3" x1="19.15" y1="66.67" x2="66.66" y2="19.17"/><circle class="cls-3" cx="43.14" cy="42.05" r="16.56"/><circle class="cls-3" cx="77.19" cy="42.05" r="4.6"/><circle class="cls-3" cx="9.09" cy="42.05" r="4.6"/><circle class="cls-3" cx="19.21" cy="18.12" r="4.6"/><circle class="cls-3" cx="67.07" cy="65.98" r="4.6"/><circle class="cls-3" cx="43.14" cy="8.92" r="4.6"/><circle class="cls-3" cx="43.14" cy="76.1" r="4.6"/><circle class="cls-3" cx="19.21" cy="65.98" r="4.6"/><circle class="cls-3" cx="67.07" cy="18.12" r="4.6"/><rect x="52.52" y="41.84" width="2.61" height="2.61"/><rect x="31.62" y="41.84" width="2.61" height="2.61"/><text class="cls-4" transform="translate(35.71 52.18)">s</text><rect x="43.06" y="28.65" width="1.26" height="4.61"/><rect x="43.06" y="50.97" width="1.26" height="5.06"/></g></svg>