<svg xmlns="http://www.w3.org/2000/svg" viewBox="0 0 961 786.83"><defs><style>.cls-1{fill:#54cae1;}.cls-2{fill:#fcfcf8;}.cls-16,.cls-3{fill:#dff1f1;}.cls-4{fill:#36393e;}.cls-5{fill:#30b6d1;}.cls-6{fill:#f5b96b;}.cls-7{fill:#f337a9;}.cls-8{fill:#f19acf;}.cls-9{fill:#494949;}.cls-10{fill:#383838;}.cls-11,.cls-12,.cls-17{fill:none;}.cls-11{stroke:#30b6d1;}.cls-11,.cls-12,.cls-16,.cls-17{stroke-miterlimit:10;}.cls-12{stroke:#54cae1;}.cls-13{fill:#a5a6d5;}.cls-14{fill:#fc827d;}.cls-15{fill:#fc433d;}.cls-16,.cls-17{stroke:#a0691c;}.cls-16{stroke-width:3px;}.cls-17{stroke-width:2px;}.cls-18{fill:#8788c9;}.cls-19{fill:#f976c5;}.cls-20{fill:#a0691c;}.cls-21{fill:#403824;}</style></defs><title>share_camper</title><g id="레이어_3" data-name="레이어 3"><path class="cls-1" d="M3.23,527.53v73.76S2.48,638.92,68,648l855,63.23s14.3-.76,22.58-16.56c0,0,39.89-92.58-25.59-254.4,0,0-65.48-167.84-83.54-186.66,0,0-15.81-35.37-30.86-33.11L174.08,304.74S112.36,319,87.53,352.16C87.53,352.16-5,468.07,3.23,527.53Z"/><path class="cls-2" d="M457.08,657.74l-193.43-15a22.67,22.67,0,0,1-22.59-22.59c-7.52-77.52-18.81-155-10.8-233.13q.63-12.29,1.3-24.55t1.23-24.56a22.65,22.65,0,0,1,22.58-22.58L442,288.94a22.65,22.65,0,0,1,22.58,22.58l15.05,323.64A22.65,22.65,0,0,1,457.08,657.74Z"/><path class="cls-3" d="M457.08,657.74l-193.43-15a22.67,22.67,0,0,1-22.59-22.59c-7.52-77.52-18.81-155-10.8-233.13q.63-12.29,1.3-24.55t1.23-24.56a22.65,22.65,0,0,1,22.58-22.58L442,288.94a22.65,22.65,0,0,1,22.58,22.58l15.05,323.64A22.65,22.65,0,0,1,457.08,657.74Z"/><path class="cls-4" d="M749.86,698.38c0-49.88,34.08-78.27,76.77-78.27s77.31,40.43,77.31,90.31l-139.78-9.78Z"/><path d="M826.63,635.05c-17,0-32.41,7.84-43.77,20.57,9.48,47.71,16.68,57.06,16.68,57.06l-36.12-3c.37,40.42,28.52,73.06,63.21,73.06,34.92,0,63.23-33.07,63.23-73.86S861.55,635.05,826.63,635.05Z"/><path class="cls-4" d="M826.63,670.52c-8.83,0-16.84,4.07-22.75,10.69,4.93,24.8,8.67,29.67,8.67,29.67l-18.78-1.55c.2,21,14.83,38,32.86,38s32.87-17.19,32.87-38.4S844.79,670.52,826.63,670.52Z"/><ellipse cx="685.13" cy="701.39" rx="63.22" ry="73.86"/><ellipse class="cls-4" cx="685.13" cy="701.39" rx="37.37" ry="43.66"/><path class="cls-5" d="M745.35,218.94,442,254.32s-27.1,103.11-18.82,229.56c0,0,8.28,161.82,16.56,178.37l11.29,21.83,348.48,28.6S761.9,663.76,745.35,218.94Z"/><path class="cls-4" d="M715.32,409.79,465,421.93a22.64,22.64,0,0,1-24.6-20.36l3-85.44a22.65,22.65,0,0,1,20.36-24.61l239.78-22.67a22.64,22.64,0,0,1,24.6,20.35l7.51,96A22.64,22.64,0,0,1,715.32,409.79Z"/><path class="cls-6" d="M469.73,421.7l-5.12-110.18a22.59,22.59,0,0,0-8.69-17.77s-11.93,5.17-12.54,18.62-3.61,89.47-3.61,89.47.6,11.5,10.46,16.28A25.08,25.08,0,0,0,469.73,421.7Z"/><path class="cls-4" d="M864.38,378.22l-36.12-91.59c-5.39-14.25-14.42-19.52-24.6-19.42L748,272.36c2.26,49.91,4.82,94.06,7.57,133.09L844,401.69C865.77,401.08,868.78,393.56,864.38,378.22Z"/><rect class="cls-7" x="422.4" y="434.93" width="335.11" height="5.3" transform="translate(-15.92 22.32) rotate(-2.14)"/><rect class="cls-7" x="756.56" y="426.61" width="143.13" height="5.3" transform="translate(-14.19 28.55) rotate(-1.96)"/><rect class="cls-8" x="755.81" y="423.6" width="143.13" height="5.3" transform="translate(-14.09 28.53) rotate(-1.96)"/><rect class="cls-8" x="421.65" y="431.92" width="335.11" height="5.3" transform="matrix(1, -0.04, 0.04, 1, -15.8, 22.29)"/><polygon class="cls-7" points="430.74 596.02 956.7 605.82 956.56 613.59 431.49 603.55 430.74 596.02"/><path class="cls-9" d="M57.42,646.45c0-49.88,34.08-78.28,76.77-78.28s77.31,40.44,77.31,90.32L71.72,648.71Z"/><polygon points="431.49 600.54 956.48 610.68 957.27 629.15 433.01 618.65 431.49 600.54"/><path class="cls-6" d="M105.27,473.34H197c13.07,0,23.77-4.68,23.77-17.75l6-109.77c0-13.07,3.29-25.27-9.79-25.27l-71.06,9s-17,3-38.07,25.59c0,0-66.23,79-76,105.37,0,0-5.27,11.29,0,12.8Z"/><rect class="cls-10" x="163.55" y="486.13" width="51.18" height="13.55" rx="6.77" ry="6.77"/><ellipse cx="134.19" cy="658.49" rx="63.22" ry="73.86"/><ellipse class="cls-4" cx="134.19" cy="658.49" rx="30.31" ry="35.41"/><path class="cls-9" d="M857.7,627.7a67.73,67.73,0,0,0-31.07-7.59,84.6,84.6,0,0,0-32.55,6.22Z"/><path class="cls-11" d="M230.55,513.21s-4.53,5.29-14.32,4.54l-210-2.26-3.39-.38"/><path class="cls-11" d="M11.89,515.52l-.38,85s2.43,29.37,46.75,32.75"/><path class="cls-11" d="M50.32,632.34s-2.68-77,83.87-74c0,0,73.72-4.65,85,87.24"/><line class="cls-11" x1="210.64" y1="644.98" x2="439.77" y2="662.25"/><line class="cls-11" x1="66.45" y1="473.34" x2="66.45" y2="584.13"/><path class="cls-12" d="M424.52,507.44s297.49,1.27,329.11-7.76a14.49,14.49,0,0,0,8.11-5.38"/><path class="cls-11" d="M761,494.17s124,2.12,167.62-4.65c0,0,5.27-.75,7.52-4.52"/><path class="cls-13" d="M232,115.08s39.13,87.62-12.8,152l533.63-70s-50.42-67.73-31.61-176.87Z"/><path class="cls-14" d="M804.62,72.17,728.89,53.36l-13.65,1.5L716,83.37s1.5,85.9,37.1,114.5h82.53s-26.5-63.23-25.74-94.84Z"/><path class="cls-15" d="M740.08,3.68l81.46,44.66,2.18,1.19c9.69,6.09,20.22,10.6,27.15,20.29a38.59,38.59,0,0,1,2.29,3.77c4.14,7.8,5.08,17-7.71,22.67l-32.36,5.27s-5.27-.75-2.26,14.3c0,0-9.79-29.36-38.39-37.63L734.81,66.91s-9.79.75-14.3,14.3L716,85.72,715.24,24l1.51-14.3Z"/><rect class="cls-16" x="321.08" y="121.27" width="90.81" height="76.89" transform="translate(-17.32 47.83) rotate(-7.3)"/><rect class="cls-16" x="496.23" y="93.06" width="143.93" height="76.89" transform="translate(-12.1 73.22) rotate(-7.3)"/><line class="cls-17" x1="353.58" y1="249.49" x2="452.94" y2="74.06"/><line class="cls-17" x1="357.73" y1="93.25" x2="496.22" y2="231.74"/><line class="cls-17" x1="727.66" y1="19.87" x2="817.22" y2="197.49"/><line class="cls-17" x1="553.04" y1="59" x2="640.89" y2="211.8"/><path class="cls-18" d="M739.68,3.74,201.93,100.12c-5.25.93-2.76,6-1.83,11.24h0c.94,5.25,14.63,9.74,20.28,9.35L726.51,30.35a12.49,12.49,0,0,0,2.83-.88c7.73-2.45,16.76-10.73,15-18.56-.1-1-.22-2-.39-2.94C743.37,5.24,742.3,3.27,739.68,3.74Z"/><line class="cls-17" x1="812.33" y1="83.46" x2="761.4" y2="197.87"/><rect class="cls-7" x="168.54" y="230.14" width="653.49" height="33.12" transform="translate(-27.32 64.89) rotate(-7.3)"/><path class="cls-19" d="M183.58,288.09c.11,9.14-5.53,16.62-12.6,16.7s-12.88-7.26-13-16.4,4-16.61,11.09-16.69S183.47,278.94,183.58,288.09Z"/><path class="cls-19" d="M829.93,205.19c.11,9.15-5.53,16.63-12.6,16.71s-12.88-7.26-13-16.41,4-16.6,11.09-16.69S829.82,196.05,829.93,205.19Z"/><path class="cls-20" d="M428.32,566l-194-11.13,6.75,66.76s-.66,7.42,7.37,15.19c0,0,5.18,5.23,10.65,5.9l1,.22L438,656.78C434.47,641.46,431,602.84,428.32,566Z"/><polygon class="cls-21" points="428.95 583.72 236.55 572.69 235.8 568.17 429.17 579.96 428.95 583.72"/><polyline class="cls-21" points="250.85 614.09 249.35 572.69 253.11 572.69"/><polyline class="cls-21" points="268.92 614.09 267.41 572.69 271.18 572.69"/><polyline class="cls-21" points="284.72 616.34 283.22 574.95 286.98 574.95"/><polyline class="cls-21" points="302.03 617.1 300.53 575.7 304.29 575.7"/><polyline class="cls-21" points="320.1 617.85 318.59 576.45 322.36 576.45"/><polyline class="cls-21" points="337.41 619.35 335.9 577.96 339.67 577.96"/><polyline class="cls-21" points="354.72 620.11 353.21 578.71 356.98 578.71"/><polyline class="cls-21" points="372.78 620.86 371.28 579.46 375.04 579.46"/><polyline class="cls-21" points="391.6 622.36 390.09 580.97 393.86 580.97"/><polyline class="cls-21" points="411.17 623.87 409.66 582.47 413.43 582.47"/><polyline class="cls-2" points="196.66 473.34 192.9 473.34 192.9 405.6"/><polyline class="cls-2" points="189.13 473.34 185.37 473.34 185.37 428.18"/><polyline class="cls-2" points="180.1 473.34 176.34 473.34 176.34 445.49"/></g></svg>