<svg xmlns="http://www.w3.org/2000/svg" viewBox="0 0 130 135"><defs><style>.cls-1{fill:#fff;}.cls-1,.cls-2{stroke:#000;stroke-miterlimit:10;}.cls-2{fill:none;}</style></defs><title>share</title><g id="캠핑카공유"><polygon class="cls-1" points="29.7 28.3 22.71 40.74 27.37 40.74 20.38 53.95 38.26 53.95 31.26 40.74 35.92 40.74 29.7 28.3"/><line class="cls-2" x1="29.72" y1="50.88" x2="29.72" y2="63.07"/><line class="cls-2" x1="27.29" y1="62.66" x2="31.22" y2="62.66"/><polygon class="cls-1" points="67.78 28.3 60.79 40.74 65.45 40.74 58.46 53.95 76.34 53.95 69.34 40.74 74 40.74 67.78 28.3"/><line class="cls-2" x1="67.8" y1="50.88" x2="67.8" y2="63.07"/><line class="cls-2" x1="65.37" y1="62.66" x2="69.3" y2="62.66"/><polygon class="cls-1" points="103.48 28.3 96.49 40.74 101.15 40.74 94.16 53.95 112.04 53.95 105.04 40.74 109.7 40.74 103.48 28.3"/><line class="cls-2" x1="103.5" y1="50.88" x2="103.5" y2="63.07"/><path class="cls-2" d="M95.61,71.72c-.51-.65-1.91-.65-1.91-.65h-22a.43.43,0,0,0-.43.43v6.55a.43.43,0,0,0,.43.43h29c.23,0,.75-.11.5-.47Z"/><line class="cls-2" x1="88.63" y1="82.51" x2="108.7" y2="82.51"/><line class="cls-2" x1="25.86" y1="88.09" x2="49.87" y2="87.96"/><line class="cls-2" x1="69.18" y1="88.09" x2="89.36" y2="88.09"/><path class="cls-1" d="M57.9,91.47H89.09c.69-.14.58-1.15.58-1.15L86.93,69.74l-.19-1.64a15.77,15.77,0,0,1,4.35.62l.49.12c1.48.37,3,.77,4.55,1.1.43.1.36-.69,0-1a70.13,70.13,0,0,0-5.49-4.82c-.3-.21-.59-.4-.89-.58a14.11,14.11,0,0,0-7.67-1.92H28.75c-2.55.07-2.89,3.22-2.89,3.22V89.18l0,1.35s-.14.94.65.94H48.83"/><circle class="cls-2" cx="53.37" cy="90.89" r="4.57"/><circle class="cls-2" cx="53.37" cy="90.89" r="2.81"/><circle class="cls-2" cx="101.76" cy="90.89" r="2.81"/><circle class="cls-2" cx="101.76" cy="90.89" r="4.57"/><path class="cls-2" d="M95.3,69.76a34.37,34.37,0,0,1,7.25,7,5.54,5.54,0,0,0,2.7,2.19s1.94.51,2.52,1.62l.93,2a3,3,0,0,1,1.62,2l.15,2.26a.66.66,0,0,1,.53.69v1.72a2.08,2.08,0,0,1-2.25,1.89l-.52,0h-1.91"/><line class="cls-2" x1="97.2" y1="91.18" x2="89.5" y2="91.18"/><rect class="cls-2" x="28.72" y="64.6" width="13.09" height="9.52" rx="1.19" ry="1.19"/><rect class="cls-2" x="59.66" y="70.55" width="9.52" height="19.04" rx="1.19" ry="1.19"/><line class="cls-2" x1="16.82" y1="101.49" x2="114.4" y2="101.49"/><line class="cls-2" x1="16.82" y1="76.5" x2="25.86" y2="76.55"/><line class="cls-2" x1="102.5" y1="76.5" x2="114.4" y2="76.5"/><circle class="cls-2" cx="114.4" cy="19.38" r="3.57"/></g></svg>