<svg xmlns="http://www.w3.org/2000/svg" viewBox="0 0 961 786.83"><defs><style>.cls-1{fill:#54cae1;}.cls-2{fill:#fcfcf8;}.cls-16,.cls-3{fill:#dff1f1;}.cls-4{fill:#36393e;}.cls-5{fill:#30b6d1;}.cls-6{fill:#f5b96b;}.cls-7{fill:#f337a9;}.cls-8{fill:#f19acf;}.cls-9{fill:#494949;}.cls-10{fill:#383838;}.cls-11,.cls-12,.cls-17,.cls-25{fill:none;}.cls-11{stroke:#30b6d1;}.cls-11,.cls-12,.cls-16,.cls-17,.cls-25{stroke-miterlimit:10;}.cls-12{stroke:#54cae1;}.cls-13{fill:#a5a6d5;}.cls-14{fill:#fc827d;}.cls-15{fill:#fc433d;}.cls-16,.cls-17{stroke:#a0691c;}.cls-16{stroke-width:3px;}.cls-17,.cls-25{stroke-width:2px;}.cls-18{fill:#8788c9;}.cls-19{fill:#f976c5;}.cls-20{fill:#a0691c;}.cls-21{fill:#403824;}.cls-22{fill:#f2b79c;}.cls-23{fill:#cc9883;}.cls-24{fill:#f2b69c;}.cls-25{stroke:#a54d25;stroke-linecap:round;}.cls-26{fill:#a54d25;}.cls-27{fill:#16436a;}.cls-28{fill:#0d2840;}</style></defs><title>sharecamper</title><g id="레이어_3" data-name="레이어 3"><path class="cls-1" d="M4.23,528.53v73.76S3.48,639.92,69,649l855,63.23s14.3-.76,22.58-16.56c0,0,39.89-92.58-25.59-254.4,0,0-65.48-167.84-83.54-186.66,0,0-15.81-35.37-30.86-33.11L175.08,305.74S113.36,320,88.53,353.16C88.53,353.16-4,469.07,4.23,528.53Z"/><path class="cls-2" d="M458.08,658.74l-193.43-15a22.67,22.67,0,0,1-22.59-22.59c-7.52-77.52-18.81-155-10.8-233.13q.63-12.29,1.3-24.55t1.23-24.56a22.65,22.65,0,0,1,22.58-22.58L443,289.94a22.65,22.65,0,0,1,22.58,22.58l15.05,323.64A22.65,22.65,0,0,1,458.08,658.74Z"/><path class="cls-3" d="M458.08,658.74l-193.43-15a22.67,22.67,0,0,1-22.59-22.59c-7.52-77.52-18.81-155-10.8-233.13q.63-12.29,1.3-24.55t1.23-24.56a22.65,22.65,0,0,1,22.58-22.58L443,289.94a22.65,22.65,0,0,1,22.58,22.58l15.05,323.64A22.65,22.65,0,0,1,458.08,658.74Z"/><path class="cls-4" d="M750.86,699.38c0-49.88,34.08-78.27,76.77-78.27s77.31,40.43,77.31,90.31l-139.78-9.78Z"/><path d="M827.63,636.05c-17,0-32.41,7.84-43.77,20.57,9.48,47.71,16.68,57.06,16.68,57.06l-36.12-3c.37,40.42,28.52,73.06,63.21,73.06,34.92,0,63.23-33.07,63.23-73.86S862.55,636.05,827.63,636.05Z"/><path class="cls-4" d="M827.63,671.52c-8.83,0-16.84,4.07-22.75,10.69,4.93,24.8,8.67,29.67,8.67,29.67l-18.78-1.55c.2,21,14.83,38,32.86,38s32.87-17.19,32.87-38.4S845.79,671.52,827.63,671.52Z"/><ellipse cx="686.13" cy="702.39" rx="63.22" ry="73.86"/><ellipse class="cls-4" cx="686.13" cy="702.39" rx="37.37" ry="43.66"/><path class="cls-5" d="M746.35,219.94,443,255.32s-27.1,103.11-18.82,229.56c0,0,8.28,161.82,16.56,178.37l11.29,21.83,348.48,28.6S762.9,664.76,746.35,219.94Z"/><path class="cls-4" d="M716.32,410.79,466,422.93a22.64,22.64,0,0,1-24.6-20.36l3-85.44a22.65,22.65,0,0,1,20.36-24.61l239.78-22.67a22.64,22.64,0,0,1,24.6,20.35l7.51,96A22.64,22.64,0,0,1,716.32,410.79Z"/><path class="cls-6" d="M470.73,422.7l-5.12-110.18a22.59,22.59,0,0,0-8.69-17.77s-11.93,5.17-12.54,18.62-3.61,89.47-3.61,89.47.6,11.5,10.46,16.28A25.08,25.08,0,0,0,470.73,422.7Z"/><path class="cls-4" d="M865.38,379.22l-36.12-91.59c-5.39-14.25-14.42-19.52-24.6-19.42L749,273.36c2.26,49.91,4.82,94.06,7.57,133.09L845,402.69C866.77,402.08,869.78,394.56,865.38,379.22Z"/><rect class="cls-7" x="423.4" y="435.93" width="335.11" height="5.3" transform="translate(-15.95 22.36) rotate(-2.14)"/><rect class="cls-7" x="757.56" y="427.61" width="143.13" height="5.3" transform="translate(-14.22 28.59) rotate(-1.96)"/><rect class="cls-8" x="756.81" y="424.6" width="143.13" height="5.3" transform="translate(-14.12 28.56) rotate(-1.96)"/><rect class="cls-8" x="422.65" y="432.92" width="335.11" height="5.3" transform="translate(-15.84 22.33) rotate(-2.14)"/><polygon class="cls-7" points="431.74 597.02 957.7 606.82 957.56 614.59 432.49 604.55 431.74 597.02"/><path class="cls-9" d="M58.42,647.45c0-49.88,34.08-78.28,76.77-78.28s77.31,40.44,77.31,90.32L72.72,649.71Z"/><polygon points="432.49 601.54 957.48 611.68 958.27 630.15 434.01 619.65 432.49 601.54"/><path class="cls-6" d="M106.27,474.34H198c13.07,0,23.77-4.68,23.77-17.75l6-109.77c0-13.07,3.29-25.27-9.79-25.27l-71.06,9s-17,3-38.07,25.59c0,0-66.23,79-76,105.37,0,0-5.27,11.29,0,12.8Z"/><rect class="cls-10" x="164.55" y="487.13" width="51.18" height="13.55" rx="6.77" ry="6.77"/><ellipse cx="135.19" cy="659.49" rx="63.22" ry="73.86"/><ellipse class="cls-4" cx="135.19" cy="659.49" rx="30.31" ry="35.41"/><path class="cls-9" d="M858.7,628.7a67.73,67.73,0,0,0-31.07-7.59,84.6,84.6,0,0,0-32.55,6.22Z"/><path class="cls-11" d="M231.55,514.21s-4.53,5.29-14.32,4.54l-210-2.26-3.39-.38"/><path class="cls-11" d="M12.89,516.52l-.38,85s2.43,29.37,46.75,32.75"/><path class="cls-11" d="M51.32,633.34s-2.68-77,83.87-74c0,0,73.72-4.65,85,87.24"/><line class="cls-11" x1="211.64" y1="645.98" x2="440.77" y2="663.25"/><line class="cls-11" x1="67.45" y1="474.34" x2="67.45" y2="585.13"/><path class="cls-12" d="M425.52,508.44s297.49,1.27,329.11-7.76a14.49,14.49,0,0,0,8.11-5.38"/><path class="cls-11" d="M762,495.17s124,2.12,167.62-4.65c0,0,5.27-.75,7.52-4.52"/><path class="cls-13" d="M233,116.08s39.13,87.62-12.8,152l533.63-70s-50.42-67.73-31.61-176.87Z"/><path class="cls-14" d="M805.62,73.17,729.89,54.36l-13.65,1.5L717,84.37s1.5,85.9,37.1,114.5h82.53s-26.5-63.23-25.74-94.84Z"/><path class="cls-15" d="M741.08,4.68l81.46,44.66,2.18,1.19c9.69,6.09,20.22,10.6,27.15,20.29a38.59,38.59,0,0,1,2.29,3.77c4.14,7.8,5.08,17-7.71,22.67l-32.36,5.27s-5.27-.75-2.26,14.3c0,0-9.79-29.36-38.39-37.63L735.81,67.91s-9.79.75-14.3,14.3L717,86.72,716.24,25l1.51-14.3Z"/><rect class="cls-16" x="322.08" y="122.27" width="90.81" height="76.89" transform="translate(-17.44 47.97) rotate(-7.3)"/><rect class="cls-16" x="497.23" y="94.06" width="143.93" height="76.89" transform="translate(-12.22 73.36) rotate(-7.3)"/><line class="cls-17" x1="354.58" y1="250.49" x2="453.94" y2="75.06"/><line class="cls-17" x1="358.73" y1="94.25" x2="497.22" y2="232.74"/><line class="cls-17" x1="728.66" y1="20.87" x2="818.22" y2="198.49"/><line class="cls-17" x1="554.04" y1="60" x2="641.89" y2="212.8"/><path class="cls-18" d="M740.68,4.74,202.93,101.12c-5.25.93-2.76,6-1.83,11.24h0c.94,5.25,14.63,9.74,20.28,9.35L727.51,31.35a12.49,12.49,0,0,0,2.83-.88c7.73-2.45,16.76-10.73,15-18.56-.1-1-.22-2-.39-2.94C744.37,6.24,743.3,4.27,740.68,4.74Z"/><line class="cls-17" x1="813.33" y1="84.46" x2="762.4" y2="198.87"/><rect class="cls-7" x="169.54" y="231.14" width="653.49" height="33.12" transform="translate(-27.44 65.03) rotate(-7.3)"/><path class="cls-19" d="M184.58,289.09c.11,9.14-5.53,16.62-12.6,16.7s-12.88-7.26-13-16.4,4-16.61,11.09-16.69S184.47,279.94,184.58,289.09Z"/><path class="cls-19" d="M830.93,206.19c.11,9.15-5.53,16.63-12.6,16.71s-12.88-7.26-13-16.41,4-16.6,11.09-16.69S830.82,197.05,830.93,206.19Z"/><path class="cls-20" d="M429.32,567l-194-11.13,6.75,66.76s-.66,7.42,7.37,15.19c0,0,5.18,5.23,10.65,5.9l1,.22L439,657.78C435.47,642.46,432,603.84,429.32,567Z"/><polygon class="cls-21" points="429.95 584.72 237.55 573.69 236.8 569.17 430.17 580.96 429.95 584.72"/><polyline class="cls-21" points="251.85 615.09 250.35 573.69 254.11 573.69"/><polyline class="cls-21" points="269.92 615.09 268.41 573.69 272.18 573.69"/><polyline class="cls-21" points="285.72 617.34 284.22 575.95 287.98 575.95"/><polyline class="cls-21" points="303.03 618.1 301.53 576.7 305.29 576.7"/><polyline class="cls-21" points="321.1 618.85 319.59 577.45 323.36 577.45"/><polyline class="cls-21" points="338.41 620.35 336.9 578.96 340.67 578.96"/><polyline class="cls-21" points="355.72 621.11 354.21 579.71 357.98 579.71"/><polyline class="cls-21" points="373.78 621.86 372.28 580.46 376.04 580.46"/><polyline class="cls-21" points="392.6 623.36 391.09 581.97 394.86 581.97"/><polyline class="cls-21" points="412.17 624.87 410.66 583.47 414.43 583.47"/><polyline class="cls-2" points="197.66 474.34 193.9 474.34 193.9 406.6"/><polyline class="cls-2" points="190.13 474.34 186.37 474.34 186.37 429.18"/><polyline class="cls-2" points="181.1 474.34 177.34 474.34 177.34 446.49"/><rect class="cls-22" x="254.44" y="733.35" width="64.7" height="23.16" rx="11.58" ry="11.58" transform="translate(174.79 -45.4) rotate(12.99)"/><rect class="cls-22" x="333.81" y="722.44" width="52.06" height="23.16" rx="10.91" ry="10.91" transform="translate(-115.84 69.19) rotate(-9.47)"/><path class="cls-22" d="M308.62,756.4l-5.09,1.14a16.07,16.07,0,0,1-18.37-13.26l-11-68.08a16.07,16.07,0,0,1,13.26-18.37l7.1-1.14A16.06,16.06,0,0,1,312.9,670l5.6,70.72C319.9,749.36,317.32,755,308.62,756.4Z"/><path class="cls-22" d="M348.46,746.77l-4.3.45c-7.3.2-13.46-6.83-13.72-15.64l-1.95-68.94c-.25-8.8,5.51-16.18,12.8-16.38l5.95-.17c7.29-.21,13.46,6.82,13.71,15.63l-2.74,70.82C358.46,741.34,355.75,746.57,348.46,746.77Z"/><path class="cls-22" d="M448.14,318.74,387.5,360.67c-8.07,2.79-19.2-21.65-22-29.73h0c-2.8-8.07-2.08-19.48,6-22.27L438,289.39A15.59,15.59,0,0,1,457.73,299h0A15.58,15.58,0,0,1,448.14,318.74Z"/><path class="cls-23" d="M287.7,331.65c-5.57-6.79-24.1-.77-41.38,13.44s-29.4,27.79-23.82,34.58,26.75,4.19,44-10S293.28,338.43,287.7,331.65Z"/><path class="cls-22" d="M321.5,282.67s-10.5,27-34.5,28c0,0-20-6-33,15l-32,41s-4,9,0,13c0,0,5,7,16,0l27-28s9-6,8,7c0,0,11,80,4,98,0,0,64,5,84,0,0,0,.81-4.25,2.16-10.8.67-3.27,1.47-7.12,2.37-11.3,5-21.9,10-42.9,19-63.9a116.43,116.43,0,0,0,5.78-27.37,48.87,48.87,0,0,0-.41-11.93,22.46,22.46,0,0,0-3.87-9.7,47,47,0,0,0-20-15s-19-10-11-24Z"/><path class="cls-22" d="M366,247.67a5.11,5.11,0,0,0-1.91.37c-3.59-12.59-13.69-21.66-25.59-21.66-14.91,0-27,14.23-27,31.79S323.59,290,338.5,290c14.49,0,26.32-13.45,27-30.32a4.58,4.58,0,0,0,.53,0,6,6,0,0,0,0-12Z"/><path class="cls-24" d="M379,211.17a4.07,4.07,0,0,1-3.12,3.55,6.31,6.31,0,0,1-1.69.12s-9.32-4.11-12.7-4c0,0-6.12.72-7.23,3.31,0,0-.46,1.17.63,1.5,0,0,7.77.92,11.77,4,0,0,10.15,9.64,21.12,7.36a3.25,3.25,0,0,1,4.44,1.88s24.18,34.61,25,48.69c0,0,.35,1.79,1.12,4.57.38,1.39.86,3,1.45,4.81.76,2.12,1.53,4.3,2.39,6.44,2,5,4.33,9.9,8.27,13.68a28.58,28.58,0,0,0,4.07,3.25A29.28,29.28,0,0,0,439,312.8c4.85,2.28,10.9,2.81,15.61,0s6.94-9.37,5.42-14.85a33.84,33.84,0,0,0-1.43-4.68c-3-7.79-8.57-15.32-13-21.48l-3.5-5.13c-1.16-1.72-2.31-3.44-3.44-5.18-1-1.48-2-3.07-3.1-4.71s-2.31-3.52-3.48-5.32c-.4-.6-.79-1.2-1.18-1.8-4.34-6.86-8.59-13.66-12.68-20.65-1.24-2.18-2.76-4.21-4-6.38-.51-1-1.23-1.9-1.79-2.85a4.51,4.51,0,0,1-.8-2.95,24.68,24.68,0,0,0,.25-5.05c0-.55-.07-1.1-.12-1.65a50.37,50.37,0,0,0-1.18-5.11c-.15-.56-.32-1.12-.49-1.68l-.63-1.76-.6-1.75c-.21-.51-.41-1-.61-1.54l-.57-1.54c-.67-1.6-1.32-3.21-2-4.81l-.66-1.61a60.66,60.66,0,0,0-7-13.39q-.43-.61-.9-1.23c-.6-.93-1.82-2.08-2.84-1.5a2.18,2.18,0,0,0-1.09,2.83,7.68,7.68,0,0,0,.81,1.66c.34.55.73,1.09,1.09,1.6s.56.79.77,1.13a25.23,25.23,0,0,1,2.86,6,4.18,4.18,0,0,1,.11,1.31,2.57,2.57,0,0,1-.45,1.24,2,2,0,0,1-1.1.62,1.33,1.33,0,0,1-1.18-.3,2.42,2.42,0,0,1-.32-.32c-.6-.89-1.19-1.73-1.71-2.61-.13-.22-.26-.44-.38-.67l-.4-.78-.42-.76c-.31-.53-.61-1.06-.91-1.6l-.44-.8c-2.08-4.08-3.08-10.08-7.08-9.08-7,2,0,9,3,12.78a3.87,3.87,0,0,1,.67,1.94,4.17,4.17,0,0,1-.67,2.28,6.32,6.32,0,0,1-1.95-1.59c-4.05-4.41-5.05-16.41-12.05-10.41-5,4,5,7,7.19,11.19.7,1.14.81,2.14-.19,2.81a3.37,3.37,0,0,1-2.41-.19,6.52,6.52,0,0,1-2.09-1.67c-3.5-3.14-3.5-10.14-10.26-10.44a6.34,6.34,0,0,0-3,1.53,3.77,3.77,0,0,0-.24,1.81,4.39,4.39,0,0,0,.8,2,13.81,13.81,0,0,0,1.43,2.74,17.78,17.78,0,0,0,4.17,4.43,16.34,16.34,0,0,1,1.43,2.16l1.33,2c.44.67.88,1.35,1.31,2,.87,1.37,1.72,2.74,2.55,4.13l1.08,1.84c.34.59.66,1.15.94,1.68a6.76,6.76,0,0,1,1.47,4.44"/><ellipse class="cls-24" cx="363.5" cy="185.67" rx="5" ry="3" transform="translate(47.45 443.97) rotate(-66.32)"/><ellipse class="cls-24" cx="374.79" cy="181.45" rx="4.65" ry="3" transform="translate(7.38 377.41) rotate(-53.91)"/><ellipse class="cls-24" cx="383.79" cy="177.45" rx="4.65" ry="3" transform="translate(14.31 383.04) rotate(-53.91)"/><path class="cls-25" d="M312.5,212.67s-9,8-4,18"/><path class="cls-26" d="M332.11,215.67a31.15,31.15,0,0,0-25.35,13.51c-5.62,2-10,9.59-10.25,18.88-.25,8.42,2.93,15.71,7.61,18.75,5.44,10.64,15.93,17.86,28,17.86,17.64,0,31.95-15.45,31.95-34.5S349.75,215.67,332.11,215.67Z"/><path class="cls-27" d="M316.5,460.67l5.63,43.27-2.95,54.51,5.2,55.76,5.76,61.73s21.56,5,30.87-2.88c0,0-.12-1.31-.28-3.58,0-1.65,0-3.29,0-4.91.27-12.6,1.05-25.73.62-39.13q-.09-4.94-.16-9.8c0-3.24-.08-6.45-.11-9.6q.22-1.75.45-3.48c.23-1.73.46-3.46.68-5.19s.44-3.47.64-5.22a217.32,217.32,0,0,0-.32-41.67c-.13-1.52-.27-3-.41-4.55s-.29-3-.43-4.5q.86-2.19,1.68-4.41c.54-1.48,1.07-3,1.57-4.43,1.52-5.17,3.18-10.59,4.49-16.14.33-1.39.63-2.79.91-4.19,3.33-15.14,2.74-32.16-8.51-45.17-.1-1-4.63-2.13-6.38-2.42-1.52,0-3.18-1-5-1C337.74,464,316.5,460.67,316.5,460.67Z"/><path class="cls-28" d="M358.4,612c.3,3.45.43,6.93.45,10.41-1.29,13.62,0,27.56-.72,41,.14,1.62.29,3.25.43,4.86l.45,4.81a15.08,15.08,0,0,1-4,2.38,24,24,0,0,1-4.75,1.39c-10,1.92-22.12-.9-22.12-.9l-.7-7.57c-.22-2.31-.47-5-.75-8-.81-8.65-1.63-17.45-2.44-26.18-.27-2.91-.55-5.81-.82-8.71-.29-3.15-.6-6.32-.91-9.5-2.07-22.48-5.49-45-3.9-67.2.12-1.71.27-3.41.46-5.12-.58-5,1.42-9,2.07-14.16l.54-4c1.44-10.57,5-32.07,4.81-42.89,7.28,5.76,10.23,20.93,12.71,30.52.35,1.38.69,2.63,1,3.73,6.25,15.75-.75,31.75-.71,48.43,0,1.46-.05,2.93,0,4.38s.14,2.91.29,4.34c.17,1.7.41,3.38.71,5,1.59,8.71,5,16.89,11.18,23.58.88.95,1.81,1.88,2.8,2.77a5.6,5.6,0,0,1,2.83,2.69A15.64,15.64,0,0,1,358.4,612Z"/><path class="cls-27" d="M361.49,466.85c-3-.18-7-.18-10-.66-1.77-.13-3.53-.23-5.3-.32-17.66-.88-35.11-.07-52.33.6-1.91.06-3.82.11-5.73.14s-3.82.06-5.73.06H276.5v-11h5.88c3.82.2,7.68.28,11.56.28,1.94,0,3.88,0,5.82,0,16.74.76,34.74-2.24,51.52-.51,1.85.08,3.68.17,5.51.27h4.71v5.51C361.5,464,361.49,466.85,361.49,466.85Z"/><path class="cls-27" d="M272.5,472.67s-13,18-12,57c0,0,5,59,2,82,0,0,2,50,9,64,0,0,36-6,45-4,0,0-.21-1.3-.55-3.46s-.82-5.16-1.35-8.56c-4.1-16-4.1-31,1.23-47.18.54-3.3.93-6.62,1.16-10s.3-6.75.21-10.2c-2.7-10.62,3.3-21.62.7-32.81-.13-2.81-.27-5.62-.32-8.4-.14-8.34.59-16.46,5.23-23.85.63-1.52,1.29-3.13,1.92-4.81,3.77-10,6.65-22.15,3.77-31.75,0,0,0-24-10-27h-37l-5,1Z"/></g></svg>