<svg xmlns="http://www.w3.org/2000/svg" viewBox="0 0 100 100"><defs><style>.cls-1,.cls-2{fill:none;}.cls-1,.cls-2,.cls-3{stroke:#fff;}.cls-1{stroke-linejoin:round;}.cls-2,.cls-3{stroke-miterlimit:10;}.cls-3{fill:#fff;}.cls-4{font-size:42.69px;font-family:MalgunGothic-Semilight, Malgun Gothic;}</style></defs><title>sharing</title><g id="캠핑카여행후기"><path class="cls-1" d="M38.52,66.19c0,.12,0,.24,0,.36a5.89,5.89,0,1,1-5.89-5.89,4.49,4.49,0,0,1,.64,0"/><circle class="cls-1" cx="32.64" cy="66.55" r="3.78"/><circle class="cls-1" cx="87.16" cy="66.55" r="3.78"/><circle class="cls-1" cx="87.16" cy="66.55" r="5.89"/><polyline class="cls-1" points="5.9 54.23 5.9 59.37 5.9 64.96 9.72 64.96 26.97 64.96"/><path class="cls-1" d="M40.2,33.1l-21.06.6-11.22.13s-1.81-.13-2,1.51V46.13"/><path class="cls-1" d="M62.71,65h7v-23l17.48.61,1.19,0s.72,0,1.52,0a9.23,9.23,0,0,0,2-.13,2.86,2.86,0,0,0,1.94-1.76c1-4.34-3-8-6.71-9.37A17.81,17.81,0,0,0,85,30.67a22.91,22.91,0,0,0-3.07-.53A35.4,35.4,0,0,0,78.39,30c-1,0-2.06,0-3.19,0s-2.33.17-3.6.34l-1.34.15L64,31.2,57.1,32"/><polyline class="cls-1" points="7.83 64.96 7.83 66.77 19.01 66.77 22.32 68.23 26.99 68.23"/><polyline class="cls-1" points="57.5 68.23 69.23 68.23 69.23 67.51 69.23 64.96"/><line class="cls-1" x1="38.29" y1="68.23" x2="42.22" y2="68.23"/><line class="cls-1" x1="69.23" y1="67.5" x2="81.36" y2="67.5"/><path class="cls-1" d="M84.74,51a45.32,45.32,0,0,0-5.11-5.34,12.26,12.26,0,0,0-1.46-1,12.78,12.78,0,0,0-1.35-.49c-2.21-.66-4.26-.78-7.09-1.38h0"/><path class="cls-1" d="M93,67.5h3.55s.09-4.9,0-5.89A2.54,2.54,0,0,0,95.76,60a4.71,4.71,0,0,0-.82-2.2,5.58,5.58,0,0,0-.73-.9A6.71,6.71,0,0,0,92,55.29"/><path class="cls-1" d="M69.06,54H84.15s1.46.08.82-.61l-.82-.86L79.59,47.2a5,5,0,0,0-2.79-1.67l-7.1-1.34H68.5"/><path class="cls-1" d="M91.07,39.42l-16.72-.73-3.94-5s-.71-.88.8-1.14c0,0,7-1.5,11.35-.39,0,0,5.93.91,8.51,4.69,0,0,1.16,1.76.61,2.41C91.68,39.25,91.59,39.46,91.07,39.42Z"/><path class="cls-1" d="M94.21,56.92H92.49l1.29,2.32a1.44,1.44,0,0,0,1.16.73l.82.05"/><rect class="cls-1" x="9.07" y="36.69" width="11" height="8" rx="1" ry="1"/><line class="cls-2" x1="19.59" y1="26.96" x2="11.86" y2="45.25"/><line class="cls-2" x1="44.76" y1="12.96" x2="26.61" y2="19.94"/><line class="cls-2" x1="73.12" y1="19.77" x2="54.97" y2="12.78"/><line class="cls-2" x1="88.25" y1="45.07" x2="80.51" y2="26.75"/><line class="cls-2" x1="80.47" y1="73.57" x2="88.21" y2="55.28"/><line class="cls-2" x1="54.86" y1="88.4" x2="73.15" y2="80.66"/><line class="cls-2" x1="26.59" y1="80.47" x2="44.88" y2="88.21"/><line class="cls-2" x1="11.9" y1="55.09" x2="19.64" y2="73.38"/><line class="cls-3" x1="49.55" y1="69.78" x2="49.55" y2="84.67"/><line class="cls-3" x1="49.55" y1="16.67" x2="49.55" y2="30.58"/><line class="cls-3" x1="63.32" y1="64.41" x2="74.07" y2="75.17"/><line class="cls-3" x1="25.07" y1="26.17" x2="35.6" y2="36.7"/><line class="cls-3" x1="69.41" y1="51.17" x2="84.57" y2="51.17"/><line class="cls-3" x1="14.57" y1="51.17" x2="30.25" y2="51.17"/><line class="cls-3" x1="64.06" y1="36.7" x2="74.83" y2="25.92"/><polyline class="cls-3" points="25.83 74.92 36.18 64.58 36.35 64.41"/><path class="cls-2" d="M69.43,50.18a19.6,19.6,0,0,1-39.18,1c0-.33,0-.66,0-1a19.6,19.6,0,0,1,19.32-19.6h.28A19.59,19.59,0,0,1,69.43,50.18Z"/><circle class="cls-2" cx="90.13" cy="50.18" r="5.45"/><path class="cls-2" d="M15,50.18a5.41,5.41,0,1,1-3.12-4.93A5.44,5.44,0,0,1,15,50.18Z"/><path class="cls-2" d="M27,21.86a5.45,5.45,0,0,1-5.44,5.45A5.37,5.37,0,0,1,19.59,27a5.45,5.45,0,1,1,7-7A5.36,5.36,0,0,1,27,21.86Z"/><circle class="cls-2" cx="78.15" cy="78.5" r="5.45"/><path class="cls-2" d="M55.28,11A5.37,5.37,0,0,1,55,12.78,5.44,5.44,0,1,1,55.28,11Z"/><circle class="cls-2" cx="49.83" cy="90.48" r="5.45"/><circle class="cls-2" cx="21.52" cy="78.5" r="5.45"/><path class="cls-2" d="M82,18a5.45,5.45,0,1,1-7.7,0A5.47,5.47,0,0,1,82,18Z"/><rect fill="#fff" x="59.92" y="49.93" width="3.09" height="3.09"/><rect fill="#fff" x="35.19" y="49.93" width="3.09" height="3.09"/><text fill="#fff" class="cls-4" transform="translate(40.03 62.17)">s</text><rect fill="#fff" x="48.73" y="34.33" width="1.5" height="5.46"/><rect fill="#fff" x="48.73" y="60.73" width="1.5" height="5.99"/></g></svg>
