<svg xmlns="http://www.w3.org/2000/svg" viewBox="0 0 100 100">
  <defs>
    <style>
      .cls-1,
      .cls-2 {
        fill: none;
      }
      .cls-1,
      .cls-2,
      .cls-3 {
        stroke: #16436A;
      }
      .cls-1 {
        stroke-linejoin: round;
      }
      .cls-2,
      .cls-3 {
        stroke-miterlimit: 10;
      }
      .cls-3 {
        fill: #F7FBFE;;
      }
    </style>
  </defs>
  <title>community_icon</title>
  <g id="마이페이지">
   <circle class="cls-1" cx="35.33" cy="70.5" r="4.72"/>
   <circle class="cls-1" cx="35.33" cy="70.5" r="3.03"/>
   <circle class="cls-1" cx="79.03" cy="70.5" r="3.03"/>
   <circle class="cls-1" cx="79.03" cy="70.5" r="4.72"/>
   <path class="cls-1" d="M49.19,69.23H65V50.76L80,51.28l1.22,0a8.09,8.09,0,0,0,1.61-.1,2.3,2.3,0,0,0,1.55-1.42c.83-3.48-2.38-6.37-5.38-7.5a13.9,13.9,0,0,0-1.69-.55A21.55,21.55,0,0,0,72,41.2c-.8,0-1.65,0-2.56,0s-1.87.13-2.89.27l-17.88,2-24.16.69-9,.1s-1.45-.1-1.62,1.21V69.23H30.78"/>
   <line class="cls-1" x1="39.88" y1="69.23" x2="41.91" y2="69.23"/>
    <polyline class="cls-1" points="15.45 69.23 15.45 70.68 24.41 70.68 27.06 71.85 30.8 71.85"/>
    <polyline class="cls-1" points="39.86 71.85 64.66 71.85 64.66 71.28 64.66 69.23"/>
    <line class="cls-1" x1="64.66" y1="71.26" x2="74.38" y2="71.26"/>
    <path class="cls-1" d="M83.69,71.26h2.85s.07-3.93,0-4.72a2.06,2.06,0,0,0-.62-1.27,3.75,3.75,0,0,0-.66-1.76,4.12,4.12,0,0,0-.58-.72c-1.24-1.45-3.27-1.87-4.93-2.66a6.65,6.65,0,0,1-1-.61,7.6,7.6,0,0,1-.93-.77c-1.67-1.61-3-3.57-4.8-5A9.34,9.34,0,0,0,71.83,53a8.86,8.86,0,0,0-1.09-.39C69,52.08,67.33,52,65.06,51.5h0"/>
    <path class="cls-1" d="M76.62,59.27,73,55a4.09,4.09,0,0,0-2.24-1.35L65,52.58H57.32a.42.42,0,0,0-.42.42v7a.41.41,0,0,0,.42.41h19.3s1.17.07.65-.48Z"/>
    <path class="cls-1" d="M82.17,48.76l-13.41-.59-3.15-4s-.57-.71.63-.91c0,0,5.62-1.21,9.1-.31,0,0,4.76.72,6.83,3.75,0,0,.93,1.41.48,1.93C82.65,48.62,82.58,48.79,82.17,48.76Z"/>
    <path class="cls-1" d="M84.68,62.79H83.3l1,1.86a1.13,1.13,0,0,0,.93.58l.65,0"/>
    <rect class="cls-1" x="42.09" y="51.38" width="7.21" height="18.43" rx="0.8" ry="0.8"/>
    <rect class="cls-1" x="16.44" y="46.57" width="8.82" height="6.41" rx="0.8" ry="0.8"/>
    <line class="cls-2" x1="50.07" y1="8.17" x2="50.07" y2="17.17"/>
    <line class="cls-2" x1="41.07" y1="12.17" x2="44.07" y2="17.17"/>
    <line class="cls-2" x1="58.07" y1="12.17" x2="55.07" y2="17.17"/><circle class="cls-3" cx="49.92" cy="28.59" r="6.92"/>
    <path class="cls-3" d="M69.39,27.12a3.58,3.58,0,0,0-2.52-3.58c-2.94-1.29-4.58,1.65-4.58,1.65S55.67,37,53.44,38.85a4.11,4.11,0,0,1-7,0C44.17,37,37.55,25.19,37.55,25.19S35.9,22.25,33,23.54a3.58,3.58,0,0,0-2.52,3.58s-.23,1.76,3.28,4.69c0,0,12.2,13.14,12.79,15.48,0,0,2.11,3.05.82,10.44L45.81,73a4.3,4.3,0,0,0,2,4.22,4.13,4.13,0,0,0,4.22,0A4.3,4.3,0,0,0,54,73L52.5,57.73c-1.29-7.39.82-10.44.82-10.44C53.91,45,66.1,31.81,66.1,31.81,69.62,28.88,69.39,27.12,69.39,27.12Z"/>
  </g>
</svg>
