<svg xmlns="http://www.w3.org/2000/svg" viewBox="0 0 45 45"><defs><style>.cls-1{fill:none;stroke:#000;stroke-miterlimit:10;}</style></defs><title>facilities icons</title><g id="tv"><path d="M35,13.8H23.63l3.59-3.63A.83.83,0,0,0,26,9l-4.4,4.45L17.24,9a.85.85,0,0,0-1.18,0,.82.82,0,0,0,0,1.17l3.59,3.63h-8a2.5,2.5,0,0,0-2.5,2.5V33a2.5,2.5,0,0,0,2.5,2.49H13l-.24.25a.82.82,0,0,0,0,1.17.83.83,0,0,0,.59.25.87.87,0,0,0,.59-.25l1.42-1.42h16l1.42,1.42a.82.82,0,0,0,1.18,0,.83.83,0,0,0,0-1.17l-.25-.25H35A2.5,2.5,0,0,0,37.5,33V16.3A2.5,2.5,0,0,0,35,13.8ZM35.84,33a.84.84,0,0,1-.84.83H11.6a.83.83,0,0,1-.83-.83V16.3a.83.83,0,0,1,.83-.83H35a.84.84,0,0,1,.84.83Z"/><path d="M26.63,17.13H15a2.5,2.5,0,0,0-2.49,2.5v10A2.5,2.5,0,0,0,15,32.11H26.63a2.49,2.49,0,0,0,2.49-2.5v-10A2.49,2.49,0,0,0,26.63,17.13Zm.83,12.48a.83.83,0,0,1-.83.83H15a.83.83,0,0,1-.83-.83v-10A.83.83,0,0,1,15,18.8H26.63a.83.83,0,0,1,.83.83Z"/><path d="M33.34,23H31.68a.83.83,0,1,0,0,1.66h1.66a.83.83,0,0,0,0-1.66Z"/><path d="M33.34,26.28H31.68a.85.85,0,0,0-.84.84.84.84,0,0,0,.84.83h1.66a.83.83,0,0,0,.83-.83A.84.84,0,0,0,33.34,26.28Z"/><path d="M33.34,29.61H31.68a.84.84,0,0,0-.84.83.85.85,0,0,0,.84.84h1.66a.84.84,0,0,0,.83-.84A.83.83,0,0,0,33.34,29.61Z"/><circle class="cls-1" cx="32.73" cy="18.63" r="1.33"/></g></svg>