<svg id="레이어_1" data-name="레이어 1" xmlns="http://www.w3.org/2000/svg" viewBox="0 0 1662 434"><defs><style>.cls-1{fill:#ff4500;}</style></defs><title>title</title><path class="cls-1" d="M587.45,316.49l7.63,29.39a101.13,101.13,0,0,1-22.71,7.63,129.24,129.24,0,0,1-28.43,3.05q-23.66,0-41.78-8.58a86.64,86.64,0,0,1-30.34-23.47,103.26,103.26,0,0,1-18.5-34.73,139.12,139.12,0,0,1-6.3-42.36,131.72,131.72,0,0,1,6.68-42.35A100.62,100.62,0,0,1,473,170.72a89.14,89.14,0,0,1,30.14-23.08q17.94-8.59,40.45-8.59a103.5,103.5,0,0,1,25.38,3.24,109.39,109.39,0,0,1,21.94,7.83l-9.16,28.24a79.59,79.59,0,0,0-15.83-5.73,74.38,74.38,0,0,0-18.51-2.29q-14.88,0-26,6.68a60.63,60.63,0,0,0-18.7,17.74,76.81,76.81,0,0,0-11.45,24.62,105.9,105.9,0,0,0-3.81,28,120.94,120.94,0,0,0,3.24,27.86,77.09,77.09,0,0,0,10.5,24.81A60.21,60.21,0,0,0,520.48,318q11.63,6.87,28.81,6.87a92.24,92.24,0,0,0,21.18-2.29A71.76,71.76,0,0,0,587.45,316.49Z"/><path class="cls-1" d="M766.79,350.84h-35.1q-.39-3.06-.77-6.3a54.79,54.79,0,0,1-.38-6.29q-.39-3.06-.57-5.92t-.19-5.91q-9.16,12.21-25.38,20.79t-36.82,8.59q-32.45,0-51-15.46t-18.5-47.89q0-18.31,7.63-31.29a60.33,60.33,0,0,1,20.6-21,92.77,92.77,0,0,1,29.2-11.83,152.06,152.06,0,0,1,34.15-3.81q9.54,0,18.51.19t18.5.19q0-26.32-10.87-40.64t-38-14.31a79.61,79.61,0,0,0-30.15,5.72,83.76,83.76,0,0,0-24.42,14.89,119,119,0,0,1-5.53-15.46q-2.49-8.58-4-15.45,13.35-9.93,32.63-15.46A136.12,136.12,0,0,1,684,138.67q42,0,60.67,22.7t18.7,64.69v77.46q0,12.59,1.14,26.71T766.79,350.84ZM727.49,252H703.07A170,170,0,0,0,684,253.34a100.17,100.17,0,0,0-22.14,5.15,49.8,49.8,0,0,0-18.12,12q-7.44,7.83-7.44,20.8,0,17.18,11.63,25.76a41.33,41.33,0,0,0,25,8.58q29,0,41.78-19.65T727.49,252Z"/><path class="cls-1" d="M1084.66,350.84h-37.77V224.15a151.72,151.72,0,0,0-1.15-17.94,56.13,56.13,0,0,0-5-17.55,37.76,37.76,0,0,0-10.49-13.36q-6.69-5.34-18.13-5.34-13.74,0-23.28,6.68a54,54,0,0,0-15.64,17,75.69,75.69,0,0,0-8.59,23.85,140.4,140.4,0,0,0-2.48,26.14V350.84h-37.4V224.15a129.75,129.75,0,0,0-1.33-17.94,68.9,68.9,0,0,0-4.77-17.55A36.77,36.77,0,0,0,908,175.3Q901.11,170,889.67,170q-14.13,0-23.66,6.68a50.23,50.23,0,0,0-15.27,17,82.53,82.53,0,0,0-8.2,23.85,140.4,140.4,0,0,0-2.48,26.14V350.84H802.28V143.63h35.11v27.86q13.35-18.31,29-25.38a83.55,83.55,0,0,1,34.72-7.06,58.32,58.32,0,0,1,32.06,9.54q14.88,9.54,22.89,29.77Q966.74,157,985.45,148t33.58-9q18.32,0,30.72,5.92a55.85,55.85,0,0,1,20.41,16.21,67.25,67.25,0,0,1,11.07,24.24,124.79,124.79,0,0,1,3.43,30Z"/><path class="cls-1" d="M1226.62,138.67q21.36,0,37.2,9A80.1,80.1,0,0,1,1290,171.1a106,106,0,0,1,15.26,33.78,153.2,153.2,0,0,1,5,39.11,177.8,177.8,0,0,1-4.77,40.83,116.29,116.29,0,0,1-14.7,35.87,83.65,83.65,0,0,1-26,25.38q-15.64,9.74-37.77,9.73-22.9,0-38.54-7.63a76.1,76.1,0,0,1-27.1-22.52v95.78h-37.78V143.25h35.87V171.1q9.54-12.58,25.76-22.51T1226.62,138.67Zm-9.54,185.46q14.49,0,24.42-7.64A61.41,61.41,0,0,0,1257.91,297a100.17,100.17,0,0,0,9-25.37,124.64,124.64,0,0,0,2.87-25.76,135.12,135.12,0,0,0-2.68-26.14,84.68,84.68,0,0,0-8.77-24.61,54.78,54.78,0,0,0-16.22-18.32q-10.11-7.25-24.61-7.25a42.54,42.54,0,0,0-23.85,6.87,57.14,57.14,0,0,0-17.37,17.93,83.62,83.62,0,0,0-10.87,25,109.32,109.32,0,0,0-3.63,27.66,126.17,126.17,0,0,0,2.87,26.14,80.28,80.28,0,0,0,9.73,25,55.73,55.73,0,0,0,17,18.7Q1201.8,324.13,1217.08,324.13Z"/><path class="cls-1" d="M1503.27,258.49H1364a70.57,70.57,0,0,0,5.15,27.29A67.78,67.78,0,0,0,1382.69,307a62,62,0,0,0,20.22,13.55,62.84,62.84,0,0,0,24.42,4.77,97,97,0,0,0,30.91-5,83.78,83.78,0,0,0,25.19-13l11.45,29q-12.6,9.15-30.72,14.5a135.08,135.08,0,0,1-38.35,5.34q-50.76,0-75.94-30.15t-25.19-80.89a134.3,134.3,0,0,1,6.3-41.6,103.56,103.56,0,0,1,18.13-34,88.53,88.53,0,0,1,28.62-22.52q16.79-8.38,37.77-8.39,22.9,0,39.69,9a76.43,76.43,0,0,1,27.48,24.61q10.66,16,15.83,38A198.52,198.52,0,0,1,1503.27,258.49ZM1363.61,228H1464q-.39-22.89-12.79-40.64t-35.29-17.74q-13,0-22.33,5.34a48.83,48.83,0,0,0-15.45,13.74,57.4,57.4,0,0,0-9.92,18.51A103.28,103.28,0,0,0,1363.61,228Z"/><path class="cls-1" d="M1642.17,141v36.63a31.88,31.88,0,0,0-10.11-2.48c-4-.38-7.82-.57-11.64-.57q-13.74,0-23.47,6.68A50.94,50.94,0,0,0,1581.12,199a85.92,85.92,0,0,0-9.35,26.52,172.77,172.77,0,0,0-2.86,32.25v93.11h-37.78V143.63h34.34v34A81.63,81.63,0,0,1,1588,150.5q14.49-11.44,31.67-11.45a121.44,121.44,0,0,1,13.55.76C1637.65,140.33,1640.65,140.71,1642.17,141Z"/><path class="cls-1" d="M290,355.51H244.41l-29.08-90.35H85.3L55.42,355.51H13L129.32,21h45.23ZM204,229.57,150.72,61.64,96.61,229.57Z"/><path class="cls-1" d="M342.93,356.42H303v-345h40Z"/><path class="cls-1" d="M424.91,356.42h-40v-345h40Z"/></svg>