<svg id="레이어_1" data-name="레이어 1" xmlns="http://www.w3.org/2000/svg" viewBox="0 0 64 64"><defs><style>.cls-1{fill:none;stroke:#000;stroke-miterlimit:10;}</style></defs><title>writepost</title><path class="cls-1" d="M49.91,28.16V59.24A3.72,3.72,0,0,1,46.2,63H4.72A3.72,3.72,0,0,1,1,59.24V17.76a3.71,3.71,0,0,1,3.7-3.7H37.07"/><path class="cls-1" d="M17.65,57H9.75a2.82,2.82,0,0,1-2.81-2.8v-8"/><path class="cls-1" d="M32.87,57h7.9a2.81,2.81,0,0,0,2.81-2.8v-8"/><path class="cls-1" d="M35.11,43,59.43,18.64l.21-.24,1.28-1.28a7.14,7.14,0,0,0,0-10.07l-3.4-3.41a7.15,7.15,0,0,0-10.08,0L46.16,4.93c-.16.15-.3.31-.44.47l-8.65,8.66L21.64,29.49,21,41.22s.25,2.47,2.47,2.47Z"/><path class="cls-1" d="M17.65,20.31H9.75a2.82,2.82,0,0,0-2.81,2.8v8"/><line class="cls-1" x1="45.55" y1="5.58" x2="59.02" y2="19.05"/><line class="cls-1" x1="42.03" y1="9.1" x2="55.5" y2="22.57"/><line class="cls-1" x1="21.26" y1="36.67" x2="28.18" y2="43.39"/><line class="cls-1" x1="21.75" y1="29.38" x2="35.21" y2="42.86"/></svg>